  0
SECTION
  2
HEADER
  9
$ACADVER
  1
AC1009
  9
$FILLMODE
 70
0
  9
$EXTMIN
 10
-5.0800
 20
-6.3500
 30
0.0000
  9
$EXTMAX
 10
48.2600
 20
87.6600
 30
0.0000
  0
ENDSEC
  0
SECTION
  2
TABLES
  0
TABLE
  2
LTYPE
 70
1
  0
LTYPE
  2
CONTINUOUS
 70
64
  3
Solid line
 72
65
 73
0
 40
0
  0
ENDTAB
  0
TABLE
  2
LAYER
 70
255
  0
LAYER
  2
17
 70
64
 62
82
  6
CONTINUOUS
  0
LAYER
  2
20
 70
64
 62
30
  6
CONTINUOUS
  0
LAYER
  2
21
 70
64
 62
253
  6
CONTINUOUS
  0
ENDTAB
  0
ENDSEC
  0
SECTION
  2
BLOCKS
  0
BLOCK
  8
0
  2
RECT
 70
64
 10
0.0000
 20
0.0000
 30
0.0000
  3
RECT
  0
SOLID
  8
0
 10
-0.5000
 20
-0.5000
 30
0.0000
 11
0.5000
 21
-0.5000
 31
0.0000
 12
-0.5000
 22
0.5000
 32
0.0000
 13
0.5000
 23
0.5000
 33
0.0000
  0
ENDBLK
  8
0
  0
BLOCK
  8
0
  2
PIE
 70
64
 10
0.0000
 20
0.0000
 30
0.0000
  3
PIE
  0
CIRCLE
  8
0
 10
0.0000
 20
0.0000
 30
0.0000
 40
0.5000
  0
ENDBLK
  8
0
  0
BLOCK
  8
0
  2
OCTAGONP
 70
64
 10
0.0000
 20
0.0000
 30
0.0000
  3
OCTAGONP
  0
POLYLINE
  8
0
 66
1
 10
0.0000
 20
0.0000
 30
0.0000
 40
0.0000
 41
0.0000
 70
1
  0
VERTEX
  8
0
 10
-0.5000
 20
-0.2071
 30
0.0000
  0
VERTEX
  8
0
 10
-0.5000
 20
0.2071
 30
0.0000
  0
VERTEX
  8
0
 10
-0.2071
 20
0.5000
 30
0.0000
  0
VERTEX
  8
0
 10
0.2071
 20
0.5000
 30
0.0000
  0
VERTEX
  8
0
 10
0.5000
 20
0.2071
 30
0.0000
  0
VERTEX
  8
0
 10
0.5000
 20
-0.2071
 30
0.0000
  0
VERTEX
  8
0
 10
0.2071
 20
-0.5000
 30
0.0000
  0
VERTEX
  8
0
 10
-0.2071
 20
-0.5000
 30
0.0000
  0
SEQEND
  8
0
  0
ENDBLK
  8
0
  0
BLOCK
  8
0
  2
SQUAREP
 70
64
 10
0.0000
 20
0.0000
 30
0.0000
  3
SQUAREP
  0
SOLID
  8
0
 10
-0.5000
 20
-0.5000
 30
0.0000
 11
0.5000
 21
-0.5000
 31
0.0000
 12
-0.5000
 22
0.5000
 32
0.0000
 13
0.5000
 23
0.5000
 33
0.0000
  0
ENDBLK
  8
0
  0
BLOCK
  8
0
  2
ROUNDP
 70
64
 10
0.0000
 20
0.0000
 30
0.0000
  3
ROUNDP
  0
CIRCLE
  8
0
 10
0.0000
 20
0.0000
 30
0.0000
 40
0.5000
  0
ENDBLK
  8
0
  0
BLOCK
  8
0
  2
ANNULUSP
 70
64
 10
0.0000
 20
0.0000
 30
0.0000
  3
ANNULUSP
  0
CIRCLE
  8
0
 10
0.0000
 20
0.0000
 30
0.0000
 40
0.5000
  0
ENDBLK
  8
0
  0
BLOCK
  8
0
  2
THERMALP
 70
64
 10
0.0000
 20
0.0000
 30
0.0000
  3
THERMALP
  0
LINE
  8
0
 10
-0.2379
 20
0.4500
 30
0.0000
 11
0.2379
 21
0.4500
 31
0.0000
  0
LINE
  8
0
 10
0.4500
 20
0.2379
 30
0.0000
 11
0.4500
 21
-0.2379
 31
0.0000
  0
LINE
  8
0
 10
0.2379
 20
-0.4500
 30
0.0000
 11
-0.2379
 21
-0.4500
 31
0.0000
  0
LINE
  8
0
 10
-0.4500
 20
-0.2379
 30
0.0000
 11
-0.4500
 21
0.2379
 31
0.0000
  0
ENDBLK
  8
0
  0
BLOCK
  8
0
  2
OCTAGONV
 70
64
 10
0.0000
 20
0.0000
 30
0.0000
  3
OCTAGONV
  0
POLYLINE
  8
0
 66
1
 10
0.0000
 20
0.0000
 30
0.0000
 40
0.0000
 41
0.0000
 70
1
  0
VERTEX
  8
0
 10
-0.5000
 20
-0.2071
 30
0.0000
  0
VERTEX
  8
0
 10
-0.5000
 20
0.2071
 30
0.0000
  0
VERTEX
  8
0
 10
-0.2071
 20
0.5000
 30
0.0000
  0
VERTEX
  8
0
 10
0.2071
 20
0.5000
 30
0.0000
  0
VERTEX
  8
0
 10
0.5000
 20
0.2071
 30
0.0000
  0
VERTEX
  8
0
 10
0.5000
 20
-0.2071
 30
0.0000
  0
VERTEX
  8
0
 10
0.2071
 20
-0.5000
 30
0.0000
  0
VERTEX
  8
0
 10
-0.2071
 20
-0.5000
 30
0.0000
  0
SEQEND
  8
0
  0
ENDBLK
  8
0
  0
BLOCK
  8
0
  2
SQUAREV
 70
64
 10
0.0000
 20
0.0000
 30
0.0000
  3
SQUAREV
  0
SOLID
  8
0
 10
-0.5000
 20
-0.5000
 30
0.0000
 11
0.5000
 21
-0.5000
 31
0.0000
 12
-0.5000
 22
0.5000
 32
0.0000
 13
0.5000
 23
0.5000
 33
0.0000
  0
ENDBLK
  8
0
  0
BLOCK
  8
0
  2
ROUNDV
 70
64
 10
0.0000
 20
0.0000
 30
0.0000
  3
ROUNDV
  0
CIRCLE
  8
0
 10
0.0000
 20
0.0000
 30
0.0000
 40
0.5000
  0
ENDBLK
  8
0
  0
BLOCK
  8
0
  2
ANNULUSV
 70
64
 10
0.0000
 20
0.0000
 30
0.0000
  3
ANNULUSV
  0
CIRCLE
  8
0
 10
0.0000
 20
0.0000
 30
0.0000
 40
0.5000
  0
ENDBLK
  8
0
  0
BLOCK
  8
0
  2
THERMALV
 70
64
 10
0.0000
 20
0.0000
 30
0.0000
  3
THERMALV
  0
LINE
  8
0
 10
-0.2379
 20
0.4500
 30
0.0000
 11
0.2379
 21
0.4500
 31
0.0000
  0
LINE
  8
0
 10
0.4500
 20
0.2379
 30
0.0000
 11
0.4500
 21
-0.2379
 31
0.0000
  0
LINE
  8
0
 10
0.2379
 20
-0.4500
 30
0.0000
 11
-0.2379
 21
-0.4500
 31
0.0000
  0
LINE
  8
0
 10
-0.4500
 20
-0.2379
 30
0.0000
 11
-0.4500
 21
0.2379
 31
0.0000
  0
ENDBLK
  8
0
  0
BLOCK
  8
0
  2
LONGP100
 70
64
 10
0.0000
 20
0.0000
 30
0.0000
  3
LONGP100
  0
POLYLINE
  8
0
 66
1
 10
0.0000
 20
0.0000
 30
0.0000
 40
0.0000
 41
0.0000
 70
1
  0
VERTEX
  8
0
 10
-0.5000
 20
-0.5000
 30
0.0000
  0
VERTEX
  8
0
 10
0.5000
 20
-0.5000
 30
0.0000
 42
1.0000
  0
VERTEX
  8
0
 10
0.5000
 20
0.5000
 30
0.0000
  0
VERTEX
  8
0
 10
-0.5000
 20
0.5000
 30
0.0000
 42
1.0000
  0
SEQEND
  8
0
  0
ENDBLK
  8
0
  0
ENDSEC
  0
SECTION
  2
ENTITIES
  0
LINE
  8
20
 10
0.0000
 20
-1.2700
 30
0.0000
 11
43.1600
 21
-1.2700
 31
0.0000
  0
LINE
  8
20
 10
43.1600
 20
-1.2700
 30
0.0000
 11
43.1600
 21
84.7600
 31
0.0000
  0
LINE
  8
20
 10
43.1600
 20
84.7600
 30
0.0000
 11
0.0000
 21
84.7600
 31
0.0000
  0
LINE
  8
20
 10
0.0000
 20
84.7600
 30
0.0000
 11
0.0000
 21
-1.2700
 31
0.0000
  0
CIRCLE
  8
20
 10
13.9700
 20
80.0100
 30
0.0000
 40
1.5494
  0
CIRCLE
  8
20
 10
2.5400
 20
38.1000
 30
0.0000
 40
1.5494
  0
CIRCLE
  8
20
 10
40.6400
 20
15.2400
 30
0.0000
 40
1.5494
  0
LINE
  8
21
 10
35.5600
 20
79.2480
 30
0.0000
 11
35.5600
 21
78.7400
 31
0.0000
  0
LINE
  8
21
 10
38.1000
 20
78.7400
 30
0.0000
 11
38.1000
 21
79.2480
 31
0.0000
  0
LINE
  8
21
 10
36.1950
 20
79.5020
 30
0.0000
 11
36.1950
 21
78.7400
 31
0.0000
  0
LINE
  8
21
 10
37.4650
 20
78.7400
 30
0.0000
 11
36.1950
 21
79.5020
 31
0.0000
  0
LINE
  8
21
 10
36.2712
 20
80.8228
 30
0.0000
 11
37.0332
 21
81.5848
 31
0.0000
  0
LINE
  8
21
 10
36.9062
 20
80.4418
 30
0.0000
 11
37.6682
 21
81.2038
 31
0.0000
  0
LINE
  8
21
 10
36.6522
 20
81.4578
 30
0.0000
 11
36.9062
 21
81.2038
 31
0.0000
  0
LINE
  8
21
 10
36.9062
 20
81.2038
 30
0.0000
 11
37.0332
 21
81.5848
 31
0.0000
  0
LINE
  8
21
 10
37.0332
 20
81.5848
 30
0.0000
 11
36.6522
 21
81.4578
 31
0.0000
  0
LINE
  8
21
 10
37.6682
 20
81.2038
 30
0.0000
 11
37.2872
 21
81.0768
 31
0.0000
  0
LINE
  8
21
 10
37.2872
 20
81.0768
 30
0.0000
 11
37.5412
 21
80.8228
 31
0.0000
  0
LINE
  8
21
 10
37.5412
 20
80.8228
 30
0.0000
 11
37.6682
 21
81.2038
 31
0.0000
  0
LINE
  8
21
 10
37.4142
 20
81.0768
 30
0.0000
 11
37.5412
 21
80.9498
 31
0.0000
  0
LINE
  8
21
 10
36.7792
 20
81.4578
 30
0.0000
 11
36.9062
 21
81.3308
 31
0.0000
  0
LINE
  8
21
 10
37.4650
 20
77.9780
 30
0.0000
 11
37.4650
 21
78.7400
 31
0.0000
  0
LINE
  8
21
 10
37.4650
 20
78.7400
 30
0.0000
 11
37.4650
 21
79.5020
 31
0.0000
  0
LINE
  8
21
 10
35.5600
 20
78.7400
 30
0.0000
 11
36.1950
 21
78.7400
 31
0.0000
  0
LINE
  8
21
 10
36.1950
 20
78.7400
 30
0.0000
 11
36.1950
 21
77.9780
 31
0.0000
  0
LINE
  8
21
 10
39.5478
 20
80.2132
 30
0.0000
 11
38.7858
 21
80.9752
 31
0.0000
  0
LINE
  8
21
 10
39.9288
 20
80.8482
 30
0.0000
 11
39.1668
 21
81.6102
 31
0.0000
  0
LINE
  8
21
 10
38.9128
 20
80.5942
 30
0.0000
 11
39.1668
 21
80.8482
 31
0.0000
  0
LINE
  8
21
 10
39.1668
 20
80.8482
 30
0.0000
 11
38.7858
 21
80.9752
 31
0.0000
  0
LINE
  8
21
 10
38.7858
 20
80.9752
 30
0.0000
 11
38.9128
 21
80.5942
 31
0.0000
  0
LINE
  8
21
 10
39.1668
 20
81.6102
 30
0.0000
 11
39.2938
 21
81.2292
 31
0.0000
  0
LINE
  8
21
 10
39.2938
 20
81.2292
 30
0.0000
 11
39.5478
 21
81.4832
 31
0.0000
  0
LINE
  8
21
 10
39.5478
 20
81.4832
 30
0.0000
 11
39.1668
 21
81.6102
 31
0.0000
  0
LINE
  8
21
 10
39.3700
 20
81.5340
 30
0.0000
 11
39.4208
 21
81.4832
 31
0.0000
  0
LINE
  8
21
 10
38.9128
 20
80.7212
 30
0.0000
 11
39.0398
 21
80.8482
 31
0.0000
  0
LINE
  8
21
 10
36.1950
 20
77.9780
 30
0.0000
 11
37.4650
 21
78.7400
 31
0.0000
  0
LINE
  8
21
 10
37.4650
 20
78.7400
 30
0.0000
 11
38.1000
 21
78.7400
 31
0.0000
  0
LINE
  8
21
 10
38.1000
 20
78.7400
 30
0.0000
 11
38.7350
 21
78.7400
 31
0.0000
  0
LINE
  8
21
 10
38.7350
 20
78.7400
 30
0.0000
 11
38.7350
 21
79.5020
 31
0.0000
  0
LINE
  8
21
 10
38.7350
 20
77.9780
 30
0.0000
 11
38.7350
 21
78.7400
 31
0.0000
  0
LINE
  8
21
 10
40.0050
 20
79.5020
 30
0.0000
 11
38.7350
 21
78.7400
 31
0.0000
  0
LINE
  8
21
 10
38.7350
 20
78.7400
 30
0.0000
 11
40.0050
 21
77.9780
 31
0.0000
  0
LINE
  8
21
 10
40.0050
 20
79.5020
 30
0.0000
 11
40.0050
 21
78.7400
 31
0.0000
  0
LINE
  8
21
 10
40.0050
 20
78.7400
 30
0.0000
 11
40.0050
 21
77.9780
 31
0.0000
  0
LINE
  8
21
 10
40.0050
 20
78.7400
 30
0.0000
 11
40.6400
 21
78.7400
 31
0.0000
  0
LINE
  8
21
 10
40.6400
 20
79.2480
 30
0.0000
 11
40.6400
 21
78.7400
 31
0.0000
  0
INSERT
  8
17
  2
LONGP100
 10
35.5600
 20
80.0100
 30
0.0000
 41
1.2192
 42
1.2192
 43
1.0000
 50
90.0000
  0
INSERT
  8
17
  2
LONGP100
 10
35.5600
 20
80.0100
 30
0.0000
 41
1.2192
 42
1.2192
 43
1.0000
 50
90.0000
  0
INSERT
  8
17
  2
LONGP100
 10
40.6400
 20
80.0100
 30
0.0000
 41
1.2192
 42
1.2192
 43
1.0000
 50
90.0000
  0
INSERT
  8
17
  2
LONGP100
 10
40.6400
 20
80.0100
 30
0.0000
 41
1.2192
 42
1.2192
 43
1.0000
 50
90.0000
  0
INSERT
  8
17
  2
LONGP100
 10
38.1000
 20
80.0100
 30
0.0000
 41
1.2192
 42
1.2192
 43
1.0000
 50
90.0000
  0
INSERT
  8
17
  2
LONGP100
 10
38.1000
 20
80.0100
 30
0.0000
 41
1.2192
 42
1.2192
 43
1.0000
 50
90.0000
  0
LINE
  8
21
 10
2.5400
 20
79.2480
 30
0.0000
 11
2.5400
 21
78.7400
 31
0.0000
  0
LINE
  8
21
 10
5.0800
 20
78.7400
 30
0.0000
 11
5.0800
 21
79.2480
 31
0.0000
  0
LINE
  8
21
 10
3.1750
 20
79.5020
 30
0.0000
 11
3.1750
 21
78.7400
 31
0.0000
  0
LINE
  8
21
 10
4.4450
 20
78.7400
 30
0.0000
 11
3.1750
 21
79.5020
 31
0.0000
  0
LINE
  8
21
 10
3.2512
 20
80.8228
 30
0.0000
 11
4.0132
 21
81.5848
 31
0.0000
  0
LINE
  8
21
 10
3.8862
 20
80.4418
 30
0.0000
 11
4.6482
 21
81.2038
 31
0.0000
  0
LINE
  8
21
 10
3.6322
 20
81.4578
 30
0.0000
 11
3.8862
 21
81.2038
 31
0.0000
  0
LINE
  8
21
 10
3.8862
 20
81.2038
 30
0.0000
 11
4.0132
 21
81.5848
 31
0.0000
  0
LINE
  8
21
 10
4.0132
 20
81.5848
 30
0.0000
 11
3.6322
 21
81.4578
 31
0.0000
  0
LINE
  8
21
 10
4.6482
 20
81.2038
 30
0.0000
 11
4.2672
 21
81.0768
 31
0.0000
  0
LINE
  8
21
 10
4.2672
 20
81.0768
 30
0.0000
 11
4.5212
 21
80.8228
 31
0.0000
  0
LINE
  8
21
 10
4.5212
 20
80.8228
 30
0.0000
 11
4.6482
 21
81.2038
 31
0.0000
  0
LINE
  8
21
 10
4.3942
 20
81.0768
 30
0.0000
 11
4.5212
 21
80.9498
 31
0.0000
  0
LINE
  8
21
 10
3.7592
 20
81.4578
 30
0.0000
 11
3.8862
 21
81.3308
 31
0.0000
  0
LINE
  8
21
 10
4.4450
 20
77.9780
 30
0.0000
 11
4.4450
 21
78.7400
 31
0.0000
  0
LINE
  8
21
 10
4.4450
 20
78.7400
 30
0.0000
 11
4.4450
 21
79.5020
 31
0.0000
  0
LINE
  8
21
 10
2.5400
 20
78.7400
 30
0.0000
 11
3.1750
 21
78.7400
 31
0.0000
  0
LINE
  8
21
 10
3.1750
 20
78.7400
 30
0.0000
 11
3.1750
 21
77.9780
 31
0.0000
  0
LINE
  8
21
 10
6.5278
 20
80.2132
 30
0.0000
 11
5.7658
 21
80.9752
 31
0.0000
  0
LINE
  8
21
 10
6.9088
 20
80.8482
 30
0.0000
 11
6.1468
 21
81.6102
 31
0.0000
  0
LINE
  8
21
 10
5.8928
 20
80.5942
 30
0.0000
 11
6.1468
 21
80.8482
 31
0.0000
  0
LINE
  8
21
 10
6.1468
 20
80.8482
 30
0.0000
 11
5.7658
 21
80.9752
 31
0.0000
  0
LINE
  8
21
 10
5.7658
 20
80.9752
 30
0.0000
 11
5.8928
 21
80.5942
 31
0.0000
  0
LINE
  8
21
 10
6.1468
 20
81.6102
 30
0.0000
 11
6.2738
 21
81.2292
 31
0.0000
  0
LINE
  8
21
 10
6.2738
 20
81.2292
 30
0.0000
 11
6.5278
 21
81.4832
 31
0.0000
  0
LINE
  8
21
 10
6.5278
 20
81.4832
 30
0.0000
 11
6.1468
 21
81.6102
 31
0.0000
  0
LINE
  8
21
 10
6.3500
 20
81.5340
 30
0.0000
 11
6.4008
 21
81.4832
 31
0.0000
  0
LINE
  8
21
 10
5.8928
 20
80.7212
 30
0.0000
 11
6.0198
 21
80.8482
 31
0.0000
  0
LINE
  8
21
 10
3.1750
 20
77.9780
 30
0.0000
 11
4.4450
 21
78.7400
 31
0.0000
  0
LINE
  8
21
 10
4.4450
 20
78.7400
 30
0.0000
 11
5.0800
 21
78.7400
 31
0.0000
  0
LINE
  8
21
 10
5.0800
 20
78.7400
 30
0.0000
 11
5.7150
 21
78.7400
 31
0.0000
  0
LINE
  8
21
 10
5.7150
 20
78.7400
 30
0.0000
 11
5.7150
 21
79.5020
 31
0.0000
  0
LINE
  8
21
 10
5.7150
 20
77.9780
 30
0.0000
 11
5.7150
 21
78.7400
 31
0.0000
  0
LINE
  8
21
 10
6.9850
 20
79.5020
 30
0.0000
 11
5.7150
 21
78.7400
 31
0.0000
  0
LINE
  8
21
 10
5.7150
 20
78.7400
 30
0.0000
 11
6.9850
 21
77.9780
 31
0.0000
  0
LINE
  8
21
 10
6.9850
 20
79.5020
 30
0.0000
 11
6.9850
 21
78.7400
 31
0.0000
  0
LINE
  8
21
 10
6.9850
 20
78.7400
 30
0.0000
 11
6.9850
 21
77.9780
 31
0.0000
  0
LINE
  8
21
 10
6.9850
 20
78.7400
 30
0.0000
 11
7.6200
 21
78.7400
 31
0.0000
  0
LINE
  8
21
 10
7.6200
 20
79.2480
 30
0.0000
 11
7.6200
 21
78.7400
 31
0.0000
  0
INSERT
  8
17
  2
LONGP100
 10
2.5400
 20
80.0100
 30
0.0000
 41
1.2192
 42
1.2192
 43
1.0000
 50
90.0000
  0
INSERT
  8
17
  2
LONGP100
 10
2.5400
 20
80.0100
 30
0.0000
 41
1.2192
 42
1.2192
 43
1.0000
 50
90.0000
  0
INSERT
  8
17
  2
LONGP100
 10
7.6200
 20
80.0100
 30
0.0000
 41
1.2192
 42
1.2192
 43
1.0000
 50
90.0000
  0
INSERT
  8
17
  2
LONGP100
 10
7.6200
 20
80.0100
 30
0.0000
 41
1.2192
 42
1.2192
 43
1.0000
 50
90.0000
  0
INSERT
  8
17
  2
LONGP100
 10
5.0800
 20
80.0100
 30
0.0000
 41
1.2192
 42
1.2192
 43
1.0000
 50
90.0000
  0
INSERT
  8
17
  2
LONGP100
 10
5.0800
 20
80.0100
 30
0.0000
 41
1.2192
 42
1.2192
 43
1.0000
 50
90.0000
  0
LINE
  8
21
 10
38.1660
 20
3.3731
 30
0.0000
 11
39.1480
 21
3.3731
 31
0.0000
  0
LINE
  8
21
 10
39.1480
 20
3.3731
 30
0.0000
 11
39.1480
 21
3.3660
 31
0.0000
  0
LINE
  8
21
 10
38.1480
 20
3.3660
 30
0.0000
 11
38.1480
 21
4.3660
 31
0.0000
  0
LINE
  8
21
 10
39.1480
 20
11.3660
 30
0.0000
 11
38.1480
 21
11.3660
 31
0.0000
  0
LINE
  8
21
 10
38.1480
 20
11.3660
 30
0.0000
 11
38.1480
 21
10.3660
 31
0.0000
  0
LINE
  8
21
 10
42.1480
 20
3.3660
 30
0.0000
 11
43.1480
 21
3.3660
 31
0.0000
  0
LINE
  8
21
 10
42.1480
 20
11.3660
 30
0.0000
 11
43.1480
 21
11.3660
 31
0.0000
  0
CIRCLE
  8
20
 10
38.9480
 20
5.4660
 30
0.0000
 40
0.4250
  0
CIRCLE
  8
20
 10
38.9480
 20
9.2660
 30
0.0000
 40
0.4250
  0
INSERT
  8
17
  2
OCTAGONP
 10
38.1000
 20
58.4200
 30
0.0000
 41
1.5240
 42
1.5240
 43
1.0000
 50
0.0000
  0
INSERT
  8
17
  2
OCTAGONP
 10
38.1000
 20
58.4200
 30
0.0000
 41
1.5240
 42
1.5240
 43
1.0000
 50
0.0000
  0
INSERT
  8
17
  2
OCTAGONP
 10
38.1000
 20
60.9600
 30
0.0000
 41
1.5240
 42
1.5240
 43
1.0000
 50
0.0000
  0
INSERT
  8
17
  2
OCTAGONP
 10
38.1000
 20
60.9600
 30
0.0000
 41
1.5240
 42
1.5240
 43
1.0000
 50
0.0000
  0
INSERT
  8
17
  2
OCTAGONP
 10
38.1000
 20
63.5000
 30
0.0000
 41
1.5240
 42
1.5240
 43
1.0000
 50
0.0000
  0
INSERT
  8
17
  2
OCTAGONP
 10
38.1000
 20
63.5000
 30
0.0000
 41
1.5240
 42
1.5240
 43
1.0000
 50
0.0000
  0
INSERT
  8
17
  2
OCTAGONP
 10
38.1000
 20
66.0400
 30
0.0000
 41
1.5240
 42
1.5240
 43
1.0000
 50
0.0000
  0
INSERT
  8
17
  2
OCTAGONP
 10
38.1000
 20
66.0400
 30
0.0000
 41
1.5240
 42
1.5240
 43
1.0000
 50
0.0000
  0
INSERT
  8
17
  2
OCTAGONP
 10
38.1000
 20
68.5800
 30
0.0000
 41
1.5240
 42
1.5240
 43
1.0000
 50
0.0000
  0
INSERT
  8
17
  2
OCTAGONP
 10
38.1000
 20
68.5800
 30
0.0000
 41
1.5240
 42
1.5240
 43
1.0000
 50
0.0000
  0
INSERT
  8
17
  2
OCTAGONP
 10
38.1000
 20
71.1200
 30
0.0000
 41
1.5240
 42
1.5240
 43
1.0000
 50
0.0000
  0
INSERT
  8
17
  2
OCTAGONP
 10
38.1000
 20
71.1200
 30
0.0000
 41
1.5240
 42
1.5240
 43
1.0000
 50
0.0000
  0
INSERT
  8
17
  2
ROUNDP
 10
7.6200
 20
1.2700
 30
0.0000
 41
1.5240
 42
1.5240
 43
1.0000
 50
90.0000
  0
INSERT
  8
17
  2
ROUNDP
 10
7.6200
 20
1.2700
 30
0.0000
 41
1.5240
 42
1.5240
 43
1.0000
 50
90.0000
  0
INSERT
  8
17
  2
ROUNDP
 10
5.0800
 20
1.2700
 30
0.0000
 41
1.5240
 42
1.5240
 43
1.0000
 50
90.0000
  0
INSERT
  8
17
  2
ROUNDP
 10
5.0800
 20
1.2700
 30
0.0000
 41
1.5240
 42
1.5240
 43
1.0000
 50
90.0000
  0
INSERT
  8
17
  2
ROUNDP
 10
2.5400
 20
1.2700
 30
0.0000
 41
1.5240
 42
1.5240
 43
1.0000
 50
90.0000
  0
INSERT
  8
17
  2
ROUNDP
 10
2.5400
 20
1.2700
 30
0.0000
 41
1.5240
 42
1.5240
 43
1.0000
 50
90.0000
  0
INSERT
  8
17
  2
ROUNDP
 10
15.2400
 20
1.2700
 30
0.0000
 41
1.5240
 42
1.5240
 43
1.0000
 50
90.0000
  0
INSERT
  8
17
  2
ROUNDP
 10
15.2400
 20
1.2700
 30
0.0000
 41
1.5240
 42
1.5240
 43
1.0000
 50
90.0000
  0
INSERT
  8
17
  2
ROUNDP
 10
12.7000
 20
1.2700
 30
0.0000
 41
1.5240
 42
1.5240
 43
1.0000
 50
90.0000
  0
INSERT
  8
17
  2
ROUNDP
 10
12.7000
 20
1.2700
 30
0.0000
 41
1.5240
 42
1.5240
 43
1.0000
 50
90.0000
  0
INSERT
  8
17
  2
ROUNDP
 10
10.1600
 20
1.2700
 30
0.0000
 41
1.5240
 42
1.5240
 43
1.0000
 50
90.0000
  0
INSERT
  8
17
  2
ROUNDP
 10
10.1600
 20
1.2700
 30
0.0000
 41
1.5240
 42
1.5240
 43
1.0000
 50
90.0000
  0
INSERT
  8
17
  2
OCTAGONP
 10
40.6400
 20
58.4200
 30
0.0000
 41
1.5240
 42
1.5240
 43
1.0000
 50
0.0000
  0
INSERT
  8
17
  2
OCTAGONP
 10
40.6400
 20
58.4200
 30
0.0000
 41
1.5240
 42
1.5240
 43
1.0000
 50
0.0000
  0
INSERT
  8
17
  2
OCTAGONP
 10
40.6400
 20
60.9600
 30
0.0000
 41
1.5240
 42
1.5240
 43
1.0000
 50
0.0000
  0
INSERT
  8
17
  2
OCTAGONP
 10
40.6400
 20
60.9600
 30
0.0000
 41
1.5240
 42
1.5240
 43
1.0000
 50
0.0000
  0
INSERT
  8
17
  2
OCTAGONP
 10
40.6400
 20
63.5000
 30
0.0000
 41
1.5240
 42
1.5240
 43
1.0000
 50
0.0000
  0
INSERT
  8
17
  2
OCTAGONP
 10
40.6400
 20
63.5000
 30
0.0000
 41
1.5240
 42
1.5240
 43
1.0000
 50
0.0000
  0
INSERT
  8
17
  2
OCTAGONP
 10
40.6400
 20
66.0400
 30
0.0000
 41
1.5240
 42
1.5240
 43
1.0000
 50
0.0000
  0
INSERT
  8
17
  2
OCTAGONP
 10
40.6400
 20
66.0400
 30
0.0000
 41
1.5240
 42
1.5240
 43
1.0000
 50
0.0000
  0
INSERT
  8
17
  2
OCTAGONP
 10
40.6400
 20
68.5800
 30
0.0000
 41
1.5240
 42
1.5240
 43
1.0000
 50
0.0000
  0
INSERT
  8
17
  2
OCTAGONP
 10
40.6400
 20
68.5800
 30
0.0000
 41
1.5240
 42
1.5240
 43
1.0000
 50
0.0000
  0
INSERT
  8
17
  2
OCTAGONP
 10
40.6400
 20
71.1200
 30
0.0000
 41
1.5240
 42
1.5240
 43
1.0000
 50
0.0000
  0
INSERT
  8
17
  2
OCTAGONP
 10
40.6400
 20
71.1200
 30
0.0000
 41
1.5240
 42
1.5240
 43
1.0000
 50
0.0000
  0
INSERT
  8
17
  2
OCTAGONP
 10
2.5400
 20
3.8100
 30
0.0000
 41
1.5240
 42
1.5240
 43
1.0000
 50
270.0000
  0
INSERT
  8
17
  2
OCTAGONP
 10
2.5400
 20
3.8100
 30
0.0000
 41
1.5240
 42
1.5240
 43
1.0000
 50
270.0000
  0
INSERT
  8
17
  2
OCTAGONP
 10
5.0800
 20
3.8100
 30
0.0000
 41
1.5240
 42
1.5240
 43
1.0000
 50
270.0000
  0
INSERT
  8
17
  2
OCTAGONP
 10
5.0800
 20
3.8100
 30
0.0000
 41
1.5240
 42
1.5240
 43
1.0000
 50
270.0000
  0
INSERT
  8
17
  2
OCTAGONP
 10
7.6200
 20
3.8100
 30
0.0000
 41
1.5240
 42
1.5240
 43
1.0000
 50
270.0000
  0
INSERT
  8
17
  2
OCTAGONP
 10
7.6200
 20
3.8100
 30
0.0000
 41
1.5240
 42
1.5240
 43
1.0000
 50
270.0000
  0
INSERT
  8
17
  2
OCTAGONP
 10
10.1600
 20
3.8100
 30
0.0000
 41
1.5240
 42
1.5240
 43
1.0000
 50
270.0000
  0
INSERT
  8
17
  2
OCTAGONP
 10
10.1600
 20
3.8100
 30
0.0000
 41
1.5240
 42
1.5240
 43
1.0000
 50
270.0000
  0
INSERT
  8
17
  2
OCTAGONP
 10
12.7000
 20
3.8100
 30
0.0000
 41
1.5240
 42
1.5240
 43
1.0000
 50
270.0000
  0
INSERT
  8
17
  2
OCTAGONP
 10
12.7000
 20
3.8100
 30
0.0000
 41
1.5240
 42
1.5240
 43
1.0000
 50
270.0000
  0
INSERT
  8
17
  2
OCTAGONP
 10
15.2400
 20
3.8100
 30
0.0000
 41
1.5240
 42
1.5240
 43
1.0000
 50
270.0000
  0
INSERT
  8
17
  2
OCTAGONP
 10
15.2400
 20
3.8100
 30
0.0000
 41
1.5240
 42
1.5240
 43
1.0000
 50
270.0000
  0
INSERT
  8
17
  2
OCTAGONP
 10
2.5400
 20
58.4200
 30
0.0000
 41
1.5240
 42
1.5240
 43
1.0000
 50
0.0000
  0
INSERT
  8
17
  2
OCTAGONP
 10
2.5400
 20
58.4200
 30
0.0000
 41
1.5240
 42
1.5240
 43
1.0000
 50
0.0000
  0
INSERT
  8
17
  2
OCTAGONP
 10
2.5400
 20
60.9600
 30
0.0000
 41
1.5240
 42
1.5240
 43
1.0000
 50
0.0000
  0
INSERT
  8
17
  2
OCTAGONP
 10
2.5400
 20
60.9600
 30
0.0000
 41
1.5240
 42
1.5240
 43
1.0000
 50
0.0000
  0
INSERT
  8
17
  2
OCTAGONP
 10
2.5400
 20
63.5000
 30
0.0000
 41
1.5240
 42
1.5240
 43
1.0000
 50
0.0000
  0
INSERT
  8
17
  2
OCTAGONP
 10
2.5400
 20
63.5000
 30
0.0000
 41
1.5240
 42
1.5240
 43
1.0000
 50
0.0000
  0
INSERT
  8
17
  2
OCTAGONP
 10
2.5400
 20
66.0400
 30
0.0000
 41
1.5240
 42
1.5240
 43
1.0000
 50
0.0000
  0
INSERT
  8
17
  2
OCTAGONP
 10
2.5400
 20
66.0400
 30
0.0000
 41
1.5240
 42
1.5240
 43
1.0000
 50
0.0000
  0
INSERT
  8
17
  2
OCTAGONP
 10
2.5400
 20
68.5800
 30
0.0000
 41
1.5240
 42
1.5240
 43
1.0000
 50
0.0000
  0
INSERT
  8
17
  2
OCTAGONP
 10
2.5400
 20
68.5800
 30
0.0000
 41
1.5240
 42
1.5240
 43
1.0000
 50
0.0000
  0
INSERT
  8
17
  2
OCTAGONP
 10
2.5400
 20
71.1200
 30
0.0000
 41
1.5240
 42
1.5240
 43
1.0000
 50
0.0000
  0
INSERT
  8
17
  2
OCTAGONP
 10
2.5400
 20
71.1200
 30
0.0000
 41
1.5240
 42
1.5240
 43
1.0000
 50
0.0000
  0
INSERT
  8
17
  2
ROUNDP
 10
13.1064
 20
19.5326
 30
0.0000
 41
0.5588
 42
0.5588
 43
1.0000
 50
180.0000
  0
INSERT
  8
17
  2
ROUNDP
 10
13.1064
 20
19.5326
 30
0.0000
 41
0.5588
 42
0.5588
 43
1.0000
 50
180.0000
  0
INSERT
  8
17
  2
ROUNDP
 10
13.1064
 20
20.3200
 30
0.0000
 41
0.5588
 42
0.5588
 43
1.0000
 50
180.0000
  0
INSERT
  8
17
  2
ROUNDP
 10
13.1064
 20
20.3200
 30
0.0000
 41
0.5588
 42
0.5588
 43
1.0000
 50
180.0000
  0
INSERT
  8
17
  2
ROUNDP
 10
13.1064
 20
21.1074
 30
0.0000
 41
0.5588
 42
0.5588
 43
1.0000
 50
180.0000
  0
INSERT
  8
17
  2
ROUNDP
 10
13.1064
 20
21.1074
 30
0.0000
 41
0.5588
 42
0.5588
 43
1.0000
 50
180.0000
  0
INSERT
  8
17
  2
ROUNDP
 10
12.2936
 20
19.5326
 30
0.0000
 41
0.5588
 42
0.5588
 43
1.0000
 50
180.0000
  0
INSERT
  8
17
  2
ROUNDP
 10
12.2936
 20
19.5326
 30
0.0000
 41
0.5588
 42
0.5588
 43
1.0000
 50
180.0000
  0
INSERT
  8
17
  2
ROUNDP
 10
12.2936
 20
20.3200
 30
0.0000
 41
0.5588
 42
0.5588
 43
1.0000
 50
180.0000
  0
INSERT
  8
17
  2
ROUNDP
 10
12.2936
 20
20.3200
 30
0.0000
 41
0.5588
 42
0.5588
 43
1.0000
 50
180.0000
  0
INSERT
  8
17
  2
ROUNDP
 10
12.2936
 20
21.1074
 30
0.0000
 41
0.5588
 42
0.5588
 43
1.0000
 50
180.0000
  0
INSERT
  8
17
  2
ROUNDP
 10
12.2936
 20
21.1074
 30
0.0000
 41
0.5588
 42
0.5588
 43
1.0000
 50
180.0000
  0
CIRCLE
  8
21
 10
24.1300
 20
77.4700
 30
0.0000
 40
4.8010
  0
CIRCLE
  8
21
 10
24.1300
 20
77.4700
 30
0.0000
 40
4.3000
  0
INSERT
  8
17
  2
ROUNDP
 10
26.1300
 20
76.1700
 30
0.0000
 41
1.7780
 42
1.7780
 43
1.0000
 50
270.0000
  0
INSERT
  8
17
  2
ROUNDP
 10
26.1300
 20
76.1700
 30
0.0000
 41
1.7780
 42
1.7780
 43
1.0000
 50
270.0000
  0
INSERT
  8
17
  2
ROUNDP
 10
26.1300
 20
78.7700
 30
0.0000
 41
1.7780
 42
1.7780
 43
1.0000
 50
270.0000
  0
INSERT
  8
17
  2
ROUNDP
 10
26.1300
 20
78.7700
 30
0.0000
 41
1.7780
 42
1.7780
 43
1.0000
 50
270.0000
  0
LINE
  8
21
 10
10.4900
 20
55.9500
 30
0.0000
 11
10.4900
 21
58.3500
 31
0.0000
  0
LINE
  8
21
 10
10.4900
 20
58.3500
 30
0.0000
 11
7.2900
 21
58.3500
 31
0.0000
  0
LINE
  8
21
 10
7.2900
 20
58.3500
 30
0.0000
 11
7.2900
 21
55.9500
 31
0.0000
  0
LINE
  8
21
 10
7.2900
 20
55.9500
 30
0.0000
 11
10.4900
 21
55.9500
 31
0.0000
  0
ARC
  8
21
 10
9.9725
 20
56.4675
 30
0.0000
 40
0.3175
 50
270.0000
 51
0.0000
  0
LINE
  8
21
 10
9.9725
 20
56.1500
 30
0.0000
 11
7.8075
 21
56.1500
 31
0.0000
  0
ARC
  8
21
 10
7.8075
 20
56.4675
 30
0.0000
 40
0.3175
 50
180.0000
 51
270.0000
  0
LINE
  8
21
 10
7.4900
 20
56.4675
 30
0.0000
 11
7.4900
 21
57.8325
 31
0.0000
  0
ARC
  8
21
 10
7.8075
 20
57.8325
 30
0.0000
 40
0.3175
 50
90.0000
 51
180.0000
  0
LINE
  8
21
 10
7.8075
 20
58.1500
 30
0.0000
 11
9.9725
 21
58.1500
 31
0.0000
  0
ARC
  8
21
 10
9.9725
 20
57.8325
 30
0.0000
 40
0.3175
 50
0.0000
 51
90.0000
  0
LINE
  8
21
 10
10.2900
 20
57.8325
 30
0.0000
 11
10.2900
 21
56.4675
 31
0.0000
  0
LINE
  8
21
 10
9.2710
 20
10.1600
 30
0.0000
 11
8.5090
 21
10.1600
 31
0.0000
  0
CIRCLE
  8
21
 10
10.1600
 20
10.1600
 30
0.0000
 40
1.2700
  0
INSERT
  8
17
  2
LONGP100
 10
10.1600
 20
10.1600
 30
0.0000
 41
1.2192
 42
1.2192
 43
1.0000
 50
270.0000
  0
INSERT
  8
17
  2
LONGP100
 10
10.1600
 20
10.1600
 30
0.0000
 41
1.2192
 42
1.2192
 43
1.0000
 50
270.0000
  0
INSERT
  8
17
  2
LONGP100
 10
7.6200
 20
10.1600
 30
0.0000
 41
1.2192
 42
1.2192
 43
1.0000
 50
270.0000
  0
INSERT
  8
17
  2
LONGP100
 10
7.6200
 20
10.1600
 30
0.0000
 41
1.2192
 42
1.2192
 43
1.0000
 50
270.0000
  0
LINE
  8
21
 10
3.5560
 20
35.1790
 30
0.0000
 11
3.5560
 21
30.8610
 31
0.0000
  0
ARC
  8
21
 10
1.7780
 20
35.1790
 30
0.0000
 40
0.2540
 50
90.0000
 51
180.0000
  0
ARC
  8
21
 10
1.7780
 20
30.8610
 30
0.0000
 40
0.2540
 50
180.0000
 51
270.0000
  0
ARC
  8
21
 10
3.3020
 20
30.8610
 30
0.0000
 40
0.2540
 50
270.0000
 51
0.0000
  0
ARC
  8
21
 10
3.3020
 20
35.1790
 30
0.0000
 40
0.2540
 50
0.0000
 51
90.0000
  0
LINE
  8
21
 10
3.3020
 20
35.4330
 30
0.0000
 11
1.7780
 21
35.4330
 31
0.0000
  0
LINE
  8
21
 10
3.3020
 20
30.6070
 30
0.0000
 11
1.7780
 21
30.6070
 31
0.0000
  0
LINE
  8
21
 10
1.5240
 20
30.8610
 30
0.0000
 11
1.5240
 21
35.1790
 31
0.0000
  0
LINE
  8
21
 10
36.5760
 20
32.6390
 30
0.0000
 11
36.5760
 21
28.3210
 31
0.0000
  0
ARC
  8
21
 10
34.7980
 20
32.6390
 30
0.0000
 40
0.2540
 50
90.0000
 51
180.0000
  0
ARC
  8
21
 10
34.7980
 20
28.3210
 30
0.0000
 40
0.2540
 50
180.0000
 51
270.0000
  0
ARC
  8
21
 10
36.3220
 20
28.3210
 30
0.0000
 40
0.2540
 50
270.0000
 51
0.0000
  0
ARC
  8
21
 10
36.3220
 20
32.6390
 30
0.0000
 40
0.2540
 50
0.0000
 51
90.0000
  0
LINE
  8
21
 10
36.3220
 20
32.8930
 30
0.0000
 11
34.7980
 21
32.8930
 31
0.0000
  0
LINE
  8
21
 10
36.3220
 20
28.0670
 30
0.0000
 11
34.7980
 21
28.0670
 31
0.0000
  0
LINE
  8
21
 10
34.5440
 20
28.3210
 30
0.0000
 11
34.5440
 21
32.6390
 31
0.0000
  0
LINE
  8
21
 10
40.3860
 20
32.6390
 30
0.0000
 11
40.3860
 21
28.3210
 31
0.0000
  0
ARC
  8
21
 10
38.6080
 20
32.6390
 30
0.0000
 40
0.2540
 50
90.0000
 51
180.0000
  0
ARC
  8
21
 10
38.6080
 20
28.3210
 30
0.0000
 40
0.2540
 50
180.0000
 51
270.0000
  0
ARC
  8
21
 10
40.1320
 20
28.3210
 30
0.0000
 40
0.2540
 50
270.0000
 51
0.0000
  0
ARC
  8
21
 10
40.1320
 20
32.6390
 30
0.0000
 40
0.2540
 50
0.0000
 51
90.0000
  0
LINE
  8
21
 10
40.1320
 20
32.8930
 30
0.0000
 11
38.6080
 21
32.8930
 31
0.0000
  0
LINE
  8
21
 10
40.1320
 20
28.0670
 30
0.0000
 11
38.6080
 21
28.0670
 31
0.0000
  0
LINE
  8
21
 10
38.3540
 20
28.3210
 30
0.0000
 11
38.3540
 21
32.6390
 31
0.0000
  0
INSERT
  8
17
  2
LONGP100
 10
26.6700
 20
2.5400
 30
0.0000
 41
1.5240
 42
1.5240
 43
1.0000
 50
90.0000
  0
INSERT
  8
17
  2
LONGP100
 10
26.6700
 20
2.5400
 30
0.0000
 41
1.5240
 42
1.5240
 43
1.0000
 50
90.0000
  0
INSERT
  8
17
  2
LONGP100
 10
24.1300
 20
2.5400
 30
0.0000
 41
1.5240
 42
1.5240
 43
1.0000
 50
90.0000
  0
INSERT
  8
17
  2
LONGP100
 10
24.1300
 20
2.5400
 30
0.0000
 41
1.5240
 42
1.5240
 43
1.0000
 50
90.0000
  0
INSERT
  8
17
  2
LONGP100
 10
21.5900
 20
2.5400
 30
0.0000
 41
1.5240
 42
1.5240
 43
1.0000
 50
90.0000
  0
INSERT
  8
17
  2
LONGP100
 10
21.5900
 20
2.5400
 30
0.0000
 41
1.5240
 42
1.5240
 43
1.0000
 50
90.0000
  0
INSERT
  8
17
  2
LONGP100
 10
36.8300
 20
2.5400
 30
0.0000
 41
1.5240
 42
1.5240
 43
1.0000
 50
90.0000
  0
INSERT
  8
17
  2
LONGP100
 10
36.8300
 20
2.5400
 30
0.0000
 41
1.5240
 42
1.5240
 43
1.0000
 50
90.0000
  0
INSERT
  8
17
  2
LONGP100
 10
34.2900
 20
2.5400
 30
0.0000
 41
1.5240
 42
1.5240
 43
1.0000
 50
90.0000
  0
INSERT
  8
17
  2
LONGP100
 10
34.2900
 20
2.5400
 30
0.0000
 41
1.5240
 42
1.5240
 43
1.0000
 50
90.0000
  0
INSERT
  8
17
  2
LONGP100
 10
31.7500
 20
2.5400
 30
0.0000
 41
1.5240
 42
1.5240
 43
1.0000
 50
90.0000
  0
INSERT
  8
17
  2
LONGP100
 10
31.7500
 20
2.5400
 30
0.0000
 41
1.5240
 42
1.5240
 43
1.0000
 50
90.0000
  0
INSERT
  8
17
  2
LONGP100
 10
40.6400
 20
53.3400
 30
0.0000
 41
1.5240
 42
1.5240
 43
1.0000
 50
180.0000
  0
INSERT
  8
17
  2
LONGP100
 10
40.6400
 20
53.3400
 30
0.0000
 41
1.5240
 42
1.5240
 43
1.0000
 50
180.0000
  0
INSERT
  8
17
  2
LONGP100
 10
40.6400
 20
50.8000
 30
0.0000
 41
1.5240
 42
1.5240
 43
1.0000
 50
180.0000
  0
INSERT
  8
17
  2
LONGP100
 10
40.6400
 20
50.8000
 30
0.0000
 41
1.5240
 42
1.5240
 43
1.0000
 50
180.0000
  0
INSERT
  8
17
  2
LONGP100
 10
40.6400
 20
48.2600
 30
0.0000
 41
1.5240
 42
1.5240
 43
1.0000
 50
180.0000
  0
INSERT
  8
17
  2
LONGP100
 10
40.6400
 20
48.2600
 30
0.0000
 41
1.5240
 42
1.5240
 43
1.0000
 50
180.0000
  0
INSERT
  8
17
  2
LONGP100
 10
40.6400
 20
45.7200
 30
0.0000
 41
1.5240
 42
1.5240
 43
1.0000
 50
180.0000
  0
INSERT
  8
17
  2
LONGP100
 10
40.6400
 20
45.7200
 30
0.0000
 41
1.5240
 42
1.5240
 43
1.0000
 50
180.0000
  0
INSERT
  8
17
  2
LONGP100
 10
2.5400
 20
53.3400
 30
0.0000
 41
1.5240
 42
1.5240
 43
1.0000
 50
180.0000
  0
INSERT
  8
17
  2
LONGP100
 10
2.5400
 20
53.3400
 30
0.0000
 41
1.5240
 42
1.5240
 43
1.0000
 50
180.0000
  0
INSERT
  8
17
  2
LONGP100
 10
2.5400
 20
50.8000
 30
0.0000
 41
1.5240
 42
1.5240
 43
1.0000
 50
180.0000
  0
INSERT
  8
17
  2
LONGP100
 10
2.5400
 20
50.8000
 30
0.0000
 41
1.5240
 42
1.5240
 43
1.0000
 50
180.0000
  0
INSERT
  8
17
  2
LONGP100
 10
2.5400
 20
48.2600
 30
0.0000
 41
1.5240
 42
1.5240
 43
1.0000
 50
180.0000
  0
INSERT
  8
17
  2
LONGP100
 10
2.5400
 20
48.2600
 30
0.0000
 41
1.5240
 42
1.5240
 43
1.0000
 50
180.0000
  0
INSERT
  8
17
  2
LONGP100
 10
2.5400
 20
45.7200
 30
0.0000
 41
1.5240
 42
1.5240
 43
1.0000
 50
180.0000
  0
INSERT
  8
17
  2
LONGP100
 10
2.5400
 20
45.7200
 30
0.0000
 41
1.5240
 42
1.5240
 43
1.0000
 50
180.0000
  0
LINE
  8
21
 10
12.4900
 20
61.6900
 30
0.0000
 11
12.4900
 21
62.4400
 31
0.0000
  0
LINE
  8
21
 10
12.4900
 20
62.4400
 30
0.0000
 11
13.2400
 21
62.4400
 31
0.0000
  0
LINE
  8
21
 10
17.2400
 20
62.4400
 30
0.0000
 11
17.9900
 21
62.4400
 31
0.0000
  0
LINE
  8
21
 10
17.9900
 20
62.4400
 30
0.0000
 11
17.9900
 21
61.6900
 31
0.0000
  0
LINE
  8
21
 10
17.9900
 20
57.6900
 30
0.0000
 11
17.9900
 21
56.9400
 31
0.0000
  0
LINE
  8
21
 10
17.9900
 20
56.9400
 30
0.0000
 11
17.2400
 21
56.9400
 31
0.0000
  0
LINE
  8
21
 10
13.2400
 20
56.9400
 30
0.0000
 11
12.4900
 21
56.9400
 31
0.0000
  0
LINE
  8
21
 10
12.4900
 20
56.9400
 30
0.0000
 11
12.4900
 21
57.6900
 31
0.0000
  0
LINE
  8
21
 10
19.9898
 20
35.4076
 30
0.0000
 11
23.1902
 21
35.4076
 31
0.0000
  0
INSERT
  8
17
  2
ROUNDP
 10
13.1064
 20
36.4236
 30
0.0000
 41
0.5588
 42
0.5588
 43
1.0000
 50
180.0000
  0
INSERT
  8
17
  2
ROUNDP
 10
13.1064
 20
36.4236
 30
0.0000
 41
0.5588
 42
0.5588
 43
1.0000
 50
180.0000
  0
INSERT
  8
17
  2
ROUNDP
 10
13.1064
 20
37.2364
 30
0.0000
 41
0.5588
 42
0.5588
 43
1.0000
 50
180.0000
  0
INSERT
  8
17
  2
ROUNDP
 10
13.1064
 20
37.2364
 30
0.0000
 41
0.5588
 42
0.5588
 43
1.0000
 50
180.0000
  0
INSERT
  8
17
  2
ROUNDP
 10
12.2936
 20
36.4236
 30
0.0000
 41
0.5588
 42
0.5588
 43
1.0000
 50
180.0000
  0
INSERT
  8
17
  2
ROUNDP
 10
12.2936
 20
36.4236
 30
0.0000
 41
0.5588
 42
0.5588
 43
1.0000
 50
180.0000
  0
INSERT
  8
17
  2
ROUNDP
 10
12.2936
 20
37.2364
 30
0.0000
 41
0.5588
 42
0.5588
 43
1.0000
 50
180.0000
  0
INSERT
  8
17
  2
ROUNDP
 10
12.2936
 20
37.2364
 30
0.0000
 41
0.5588
 42
0.5588
 43
1.0000
 50
180.0000
  0
LINE
  8
21
 10
1.3843
 20
22.0345
 30
0.0000
 11
1.3843
 21
22.4155
 31
0.0000
  0
LINE
  8
21
 10
1.3843
 20
22.4155
 30
0.0000
 11
1.6383
 21
22.4155
 31
0.0000
  0
LINE
  8
21
 10
1.6383
 20
22.4155
 30
0.0000
 11
1.6383
 21
22.0345
 31
0.0000
  0
LINE
  8
21
 10
1.6383
 20
22.0345
 30
0.0000
 11
1.3843
 21
22.0345
 31
0.0000
  0
LINE
  8
21
 10
1.6383
 20
22.4028
 30
0.0000
 11
1.3843
 21
22.4028
 31
0.0000
  0
LINE
  8
21
 10
1.6383
 20
22.3774
 30
0.0000
 11
1.3843
 21
22.3774
 31
0.0000
  0
LINE
  8
21
 10
1.6383
 20
22.3520
 30
0.0000
 11
1.3843
 21
22.3520
 31
0.0000
  0
LINE
  8
21
 10
1.6383
 20
22.3266
 30
0.0000
 11
1.3843
 21
22.3266
 31
0.0000
  0
LINE
  8
21
 10
1.6383
 20
22.3012
 30
0.0000
 11
1.3843
 21
22.3012
 31
0.0000
  0
LINE
  8
21
 10
1.6383
 20
22.2758
 30
0.0000
 11
1.3843
 21
22.2758
 31
0.0000
  0
LINE
  8
21
 10
1.6383
 20
22.2504
 30
0.0000
 11
1.3843
 21
22.2504
 31
0.0000
  0
LINE
  8
21
 10
1.6383
 20
22.2250
 30
0.0000
 11
1.3843
 21
22.2250
 31
0.0000
  0
LINE
  8
21
 10
1.6383
 20
22.1996
 30
0.0000
 11
1.3843
 21
22.1996
 31
0.0000
  0
LINE
  8
21
 10
1.6383
 20
22.1742
 30
0.0000
 11
1.3843
 21
22.1742
 31
0.0000
  0
LINE
  8
21
 10
1.6383
 20
22.1488
 30
0.0000
 11
1.3843
 21
22.1488
 31
0.0000
  0
LINE
  8
21
 10
1.6383
 20
22.1234
 30
0.0000
 11
1.3843
 21
22.1234
 31
0.0000
  0
LINE
  8
21
 10
1.6383
 20
22.0980
 30
0.0000
 11
1.3843
 21
22.0980
 31
0.0000
  0
LINE
  8
21
 10
1.6383
 20
22.0726
 30
0.0000
 11
1.3843
 21
22.0726
 31
0.0000
  0
LINE
  8
21
 10
1.6383
 20
22.0472
 30
0.0000
 11
1.3843
 21
22.0472
 31
0.0000
  0
LINE
  8
21
 10
1.3843
 20
22.0345
 30
0.0000
 11
1.3843
 21
22.4155
 31
0.0000
  0
LINE
  8
21
 10
1.3843
 20
22.4155
 30
0.0000
 11
1.6383
 21
22.4155
 31
0.0000
  0
LINE
  8
21
 10
1.6383
 20
22.4155
 30
0.0000
 11
1.6383
 21
22.0345
 31
0.0000
  0
LINE
  8
21
 10
1.6383
 20
22.0345
 30
0.0000
 11
1.3843
 21
22.0345
 31
0.0000
  0
LINE
  8
21
 10
1.6383
 20
22.4028
 30
0.0000
 11
1.3843
 21
22.4028
 31
0.0000
  0
LINE
  8
21
 10
1.6383
 20
22.3774
 30
0.0000
 11
1.3843
 21
22.3774
 31
0.0000
  0
LINE
  8
21
 10
1.6383
 20
22.3520
 30
0.0000
 11
1.3843
 21
22.3520
 31
0.0000
  0
LINE
  8
21
 10
1.6383
 20
22.3266
 30
0.0000
 11
1.3843
 21
22.3266
 31
0.0000
  0
LINE
  8
21
 10
1.6383
 20
22.3012
 30
0.0000
 11
1.3843
 21
22.3012
 31
0.0000
  0
LINE
  8
21
 10
1.6383
 20
22.2758
 30
0.0000
 11
1.3843
 21
22.2758
 31
0.0000
  0
LINE
  8
21
 10
1.6383
 20
22.2504
 30
0.0000
 11
1.3843
 21
22.2504
 31
0.0000
  0
LINE
  8
21
 10
1.6383
 20
22.2250
 30
0.0000
 11
1.3843
 21
22.2250
 31
0.0000
  0
LINE
  8
21
 10
1.6383
 20
22.1996
 30
0.0000
 11
1.3843
 21
22.1996
 31
0.0000
  0
LINE
  8
21
 10
1.6383
 20
22.1742
 30
0.0000
 11
1.3843
 21
22.1742
 31
0.0000
  0
LINE
  8
21
 10
1.6383
 20
22.1488
 30
0.0000
 11
1.3843
 21
22.1488
 31
0.0000
  0
LINE
  8
21
 10
1.6383
 20
22.1234
 30
0.0000
 11
1.3843
 21
22.1234
 31
0.0000
  0
LINE
  8
21
 10
1.6383
 20
22.0980
 30
0.0000
 11
1.3843
 21
22.0980
 31
0.0000
  0
LINE
  8
21
 10
1.6383
 20
22.0726
 30
0.0000
 11
1.3843
 21
22.0726
 31
0.0000
  0
LINE
  8
21
 10
1.6383
 20
22.0472
 30
0.0000
 11
1.3843
 21
22.0472
 31
0.0000
  0
LINE
  8
21
 10
6.6548
 20
13.8176
 30
0.0000
 11
9.1440
 21
13.8176
 31
0.0000
  0
ARC
  8
21
 10
6.3500
 20
13.8049
 30
0.0000
 40
0.3051
 50
2.3859
 51
182.3859
  0
LINE
  8
21
 10
9.1440
 20
24.2824
 30
0.0000
 11
3.5560
 21
24.2824
 31
0.0000
  0
LINE
  8
21
 10
3.5560
 20
13.8176
 30
0.0000
 11
6.6548
 21
13.8176
 31
0.0000
  0
ARC
  8
21
 10
6.3500
 20
13.8049
 30
0.0000
 40
0.3051
 50
2.3859
 51
182.3859
  0
LINE
  8
21
 10
10.1635
 20
13.2729
 30
0.0000
 11
10.1635
 21
13.6708
 31
0.0000
  0
LINE
  8
21
 10
10.1635
 20
13.6708
 30
0.0000
 11
9.9314
 21
13.9693
 31
0.0000
  0
LINE
  8
21
 10
10.3957
 20
13.9693
 30
0.0000
 11
10.1635
 21
13.6708
 31
0.0000
  0
LINE
  8
21
 10
10.1635
 20
13.6708
 30
0.0000
 11
9.7988
 21
13.5382
 31
0.0000
  0
LINE
  8
21
 10
10.1635
 20
13.6708
 30
0.0000
 11
10.5283
 21
13.5382
 31
0.0000
  0
LINE
  8
21
 10
10.1635
 20
13.2729
 30
0.0000
 11
10.1635
 21
13.6708
 31
0.0000
  0
LINE
  8
21
 10
10.1635
 20
13.6708
 30
0.0000
 11
9.9314
 21
13.9693
 31
0.0000
  0
LINE
  8
21
 10
10.3957
 20
13.9693
 30
0.0000
 11
10.1635
 21
13.6708
 31
0.0000
  0
LINE
  8
21
 10
10.1635
 20
13.6708
 30
0.0000
 11
9.7988
 21
13.5382
 31
0.0000
  0
LINE
  8
21
 10
10.1635
 20
13.6708
 30
0.0000
 11
10.5283
 21
13.5382
 31
0.0000
  0
INSERT
  8
17
  2
ROUNDP
 10
30.8864
 20
36.4236
 30
0.0000
 41
0.5588
 42
0.5588
 43
1.0000
 50
180.0000
  0
INSERT
  8
17
  2
ROUNDP
 10
30.8864
 20
36.4236
 30
0.0000
 41
0.5588
 42
0.5588
 43
1.0000
 50
180.0000
  0
INSERT
  8
17
  2
ROUNDP
 10
30.8864
 20
37.2364
 30
0.0000
 41
0.5588
 42
0.5588
 43
1.0000
 50
180.0000
  0
INSERT
  8
17
  2
ROUNDP
 10
30.8864
 20
37.2364
 30
0.0000
 41
0.5588
 42
0.5588
 43
1.0000
 50
180.0000
  0
INSERT
  8
17
  2
ROUNDP
 10
30.0736
 20
36.4236
 30
0.0000
 41
0.5588
 42
0.5588
 43
1.0000
 50
180.0000
  0
INSERT
  8
17
  2
ROUNDP
 10
30.0736
 20
36.4236
 30
0.0000
 41
0.5588
 42
0.5588
 43
1.0000
 50
180.0000
  0
INSERT
  8
17
  2
ROUNDP
 10
30.0736
 20
37.2364
 30
0.0000
 41
0.5588
 42
0.5588
 43
1.0000
 50
180.0000
  0
INSERT
  8
17
  2
ROUNDP
 10
30.0736
 20
37.2364
 30
0.0000
 41
0.5588
 42
0.5588
 43
1.0000
 50
180.0000
  0
LINE
  8
21
 10
27.8400
 20
34.2700
 30
0.0000
 11
27.8400
 21
34.2200
 31
0.0000
  0
LINE
  8
21
 10
27.8400
 20
34.2200
 30
0.0000
 11
27.5900
 21
33.8700
 31
0.0000
  0
LINE
  8
21
 10
27.5900
 20
33.8700
 30
0.0000
 11
27.3400
 21
34.2200
 31
0.0000
  0
LINE
  8
21
 10
27.3400
 20
34.2200
 30
0.0000
 11
27.3400
 21
34.2700
 31
0.0000
  0
LINE
  8
21
 10
27.3400
 20
34.2700
 30
0.0000
 11
27.8400
 21
34.2700
 31
0.0000
  0
LINE
  8
21
 10
27.8400
 20
34.2392
 30
0.0000
 11
27.3400
 21
34.2392
 31
0.0000
  0
LINE
  8
21
 10
27.7811
 20
34.1376
 30
0.0000
 11
27.3989
 21
34.1376
 31
0.0000
  0
LINE
  8
21
 10
27.7086
 20
34.0360
 30
0.0000
 11
27.4714
 21
34.0360
 31
0.0000
  0
LINE
  8
21
 10
27.6360
 20
33.9344
 30
0.0000
 11
27.5440
 21
33.9344
 31
0.0000
  0
LINE
  8
21
 10
30.5400
 20
36.0200
 30
0.0000
 11
30.5400
 21
36.5200
 31
0.0000
  0
LINE
  8
21
 10
30.5400
 20
36.5200
 30
0.0000
 11
30.4400
 21
36.6200
 31
0.0000
  0
LINE
  8
21
 10
30.4400
 20
36.6200
 30
0.0000
 11
12.7400
 21
36.6200
 31
0.0000
  0
LINE
  8
21
 10
12.7400
 20
36.6200
 30
0.0000
 11
12.6400
 21
36.5200
 31
0.0000
  0
LINE
  8
21
 10
12.6400
 20
36.5200
 30
0.0000
 11
12.6400
 21
36.0200
 31
0.0000
  0
LINE
  8
21
 10
12.6400
 20
36.0200
 30
0.0000
 11
30.5400
 21
36.0200
 31
0.0000
  0
LINE
  8
21
 10
13.5400
 20
34.4200
 30
0.0000
 11
29.6400
 21
34.4200
 31
0.0000
  0
LINE
  8
21
 10
29.0900
 20
34.5200
 30
0.0000
 11
29.0900
 21
35.9200
 31
0.0000
  0
LINE
  8
21
 10
14.0900
 20
34.5200
 30
0.0000
 11
14.0900
 21
35.9200
 31
0.0000
  0
LINE
  8
21
 10
27.6400
 20
36.1200
 30
0.0000
 11
27.6400
 21
36.5200
 31
0.0000
  0
LINE
  8
21
 10
27.6400
 20
36.5200
 30
0.0000
 11
27.3900
 21
36.2700
 31
0.0000
  0
LINE
  8
21
 10
27.3900
 20
36.2700
 30
0.0000
 11
27.3900
 21
36.1200
 31
0.0000
  0
LINE
  8
21
 10
15.7900
 20
36.1200
 30
0.0000
 11
15.7900
 21
36.2700
 31
0.0000
  0
LINE
  8
21
 10
15.7900
 20
36.2700
 30
0.0000
 11
15.5400
 21
36.5200
 31
0.0000
  0
LINE
  8
21
 10
15.5400
 20
36.5200
 30
0.0000
 11
15.5400
 21
36.1200
 31
0.0000
  0
LINE
  8
21
 10
28.2400
 20
34.2700
 30
0.0000
 11
28.2400
 21
32.0200
 31
0.0000
  0
ARC
  8
21
 10
28.1650
 20
32.0200
 30
0.0000
 40
0.0750
 50
180.0000
 51
0.0000
  0
LINE
  8
21
 10
28.0900
 20
32.0200
 30
0.0000
 11
28.0900
 21
34.2700
 31
0.0000
  0
LINE
  8
21
 10
15.0900
 20
34.2700
 30
0.0000
 11
15.0900
 21
32.0200
 31
0.0000
  0
ARC
  8
21
 10
15.0150
 20
32.0200
 30
0.0000
 40
0.0750
 50
180.0000
 51
0.0000
  0
LINE
  8
21
 10
14.9400
 20
32.0200
 30
0.0000
 11
14.9400
 21
34.2700
 31
0.0000
  0
ARC
  8
21
 10
19.9028
 20
59.6428
 30
0.0000
 40
0.2828
 50
180.0000
 51
270.0000
  0
LINE
  8
21
 10
19.6200
 20
59.6428
 30
0.0000
 11
19.6200
 21
62.2772
 31
0.0000
  0
ARC
  8
21
 10
19.9028
 20
62.2772
 30
0.0000
 40
0.2828
 50
90.0000
 51
180.0000
  0
LINE
  8
21
 10
19.9028
 20
62.5600
 30
0.0000
 11
20.7964
 21
62.5600
 31
0.0000
  0
ARC
  8
21
 10
20.7964
 20
62.3364
 30
0.0000
 40
0.2236
 50
0.0000
 51
90.0000
  0
LINE
  8
21
 10
21.0200
 20
62.3364
 30
0.0000
 11
21.0200
 21
59.6762
 31
0.0000
  0
ARC
  8
21
 10
20.7038
 20
59.6762
 30
0.0000
 40
0.3162
 50
270.0000
 51
0.0000
  0
LINE
  8
21
 10
20.7038
 20
59.3600
 30
0.0000
 11
19.9028
 21
59.3600
 31
0.0000
  0
LINE
  8
21
 10
20.7200
 20
62.0600
 30
0.0000
 11
20.7200
 21
59.9600
 31
0.0000
  0
ARC
  8
21
 10
20.4199
 20
59.9601
 30
0.0000
 40
0.3001
 50
270.0191
 51
359.9809
  0
LINE
  8
21
 10
20.4200
 20
59.6600
 30
0.0000
 11
20.2200
 21
59.6600
 31
0.0000
  0
ARC
  8
21
 10
20.2200
 20
59.9600
 30
0.0000
 40
0.3000
 50
180.0000
 51
270.0000
  0
LINE
  8
21
 10
19.9200
 20
59.9600
 30
0.0000
 11
19.9200
 21
61.9600
 31
0.0000
  0
ARC
  8
21
 10
20.1700
 20
62.0100
 30
0.0000
 40
0.2550
 50
101.3099
 51
191.3099
  0
LINE
  8
21
 10
20.1200
 20
62.2600
 30
0.0000
 11
20.4200
 21
62.2600
 31
0.0000
  0
ARC
  8
21
 10
20.4701
 20
62.0101
 30
0.0000
 40
0.2549
 50
11.2908
 51
101.3290
  0
ENDSEC
  0
EOF
