G75*
%MOIN*%
%OFA0B0*%
%FSLAX25Y25*%
%IPPOS*%
%LPD*%
%AMOC8*
5,1,8,0,0,1.08239X$1,22.5*
%
%ADD10C,0.00600*%
%ADD11C,0.00100*%
%ADD12C,0.00300*%
%ADD13C,0.00500*%
%ADD14C,0.00800*%
%ADD15C,0.01200*%
D10*
X0008200Y0008500D02*
X0010700Y0006000D01*
X0015700Y0006000D01*
X0018200Y0008500D01*
X0020700Y0006000D01*
X0025700Y0006000D01*
X0028200Y0008500D01*
X0030700Y0006000D01*
X0035700Y0006000D01*
X0038200Y0008500D01*
X0040700Y0006000D01*
X0045700Y0006000D01*
X0048200Y0008500D01*
X0050700Y0006000D01*
X0055700Y0006000D01*
X0058200Y0008500D01*
X0060700Y0006000D01*
X0065700Y0006000D01*
X0068200Y0008500D01*
X0068200Y0013500D01*
X0065700Y0016000D01*
X0060700Y0016000D01*
X0058200Y0013500D01*
X0055700Y0016000D01*
X0050700Y0016000D01*
X0048200Y0013500D01*
X0045700Y0016000D01*
X0040700Y0016000D01*
X0038200Y0013500D01*
X0038200Y0008500D01*
X0038200Y0013500D01*
X0035700Y0016000D01*
X0030700Y0016000D01*
X0028200Y0013500D01*
X0025700Y0016000D01*
X0020700Y0016000D01*
X0018200Y0013500D01*
X0015700Y0016000D01*
X0010700Y0016000D01*
X0008200Y0013500D01*
X0008200Y0008500D01*
X0010700Y0016000D02*
X0008200Y0018500D01*
X0008200Y0023500D01*
X0010700Y0026000D01*
X0015700Y0026000D01*
X0018200Y0023500D01*
X0020700Y0026000D01*
X0025700Y0026000D01*
X0028200Y0023500D01*
X0028200Y0018500D01*
X0025700Y0016000D01*
X0020700Y0016000D01*
X0018200Y0018500D01*
X0018200Y0023500D01*
X0018200Y0018500D02*
X0015700Y0016000D01*
X0010700Y0016000D01*
X0018200Y0013500D02*
X0018200Y0008500D01*
X0028200Y0008500D02*
X0028200Y0013500D01*
X0030700Y0016000D02*
X0035700Y0016000D01*
X0038200Y0018500D01*
X0040700Y0016000D01*
X0045700Y0016000D01*
X0048200Y0018500D01*
X0050700Y0016000D01*
X0055700Y0016000D01*
X0058200Y0018500D01*
X0060700Y0016000D01*
X0065700Y0016000D01*
X0068200Y0018500D01*
X0068200Y0023500D01*
X0065700Y0026000D01*
X0060700Y0026000D01*
X0058200Y0023500D01*
X0055700Y0026000D01*
X0050700Y0026000D01*
X0048200Y0023500D01*
X0045700Y0026000D01*
X0040700Y0026000D01*
X0038200Y0023500D01*
X0035700Y0026000D01*
X0030700Y0026000D01*
X0028200Y0023500D01*
X0028200Y0018500D02*
X0030700Y0016000D01*
X0038200Y0018500D02*
X0038200Y0023500D01*
X0048200Y0023500D02*
X0048200Y0018500D01*
X0048200Y0013500D02*
X0048200Y0008500D01*
X0058200Y0008500D02*
X0058200Y0013500D01*
X0058200Y0018500D02*
X0058200Y0023500D01*
X0083200Y0018500D02*
X0083200Y0013500D01*
X0085700Y0011000D01*
X0090700Y0011000D01*
X0093200Y0013500D01*
X0095700Y0011000D01*
X0100700Y0011000D01*
X0103200Y0013500D01*
X0105700Y0011000D01*
X0110700Y0011000D01*
X0113200Y0013500D01*
X0113200Y0018500D01*
X0110700Y0021000D01*
X0105700Y0021000D01*
X0103200Y0018500D01*
X0100700Y0021000D01*
X0095700Y0021000D01*
X0093200Y0018500D01*
X0090700Y0021000D01*
X0085700Y0021000D01*
X0083200Y0018500D01*
X0108200Y0045900D02*
X0108200Y0048600D01*
X0110700Y0056800D02*
X0110666Y0056802D01*
X0110633Y0056808D01*
X0110601Y0056817D01*
X0110570Y0056830D01*
X0110540Y0056846D01*
X0110513Y0056865D01*
X0110488Y0056888D01*
X0110465Y0056913D01*
X0110446Y0056940D01*
X0110430Y0056970D01*
X0110417Y0057001D01*
X0110408Y0057033D01*
X0110402Y0057066D01*
X0110400Y0057100D01*
X0110402Y0057134D01*
X0110408Y0057167D01*
X0110417Y0057199D01*
X0110430Y0057230D01*
X0110446Y0057260D01*
X0110465Y0057287D01*
X0110488Y0057312D01*
X0110513Y0057335D01*
X0110540Y0057354D01*
X0110570Y0057370D01*
X0110601Y0057383D01*
X0110633Y0057392D01*
X0110666Y0057398D01*
X0110700Y0057400D01*
X0110734Y0057398D01*
X0110767Y0057392D01*
X0110799Y0057383D01*
X0110830Y0057370D01*
X0110860Y0057354D01*
X0110887Y0057335D01*
X0110912Y0057312D01*
X0110935Y0057287D01*
X0110954Y0057260D01*
X0110970Y0057230D01*
X0110983Y0057199D01*
X0110992Y0057167D01*
X0110998Y0057134D01*
X0111000Y0057100D01*
X0110998Y0057066D01*
X0110992Y0057033D01*
X0110983Y0057001D01*
X0110970Y0056970D01*
X0110954Y0056940D01*
X0110935Y0056913D01*
X0110912Y0056888D01*
X0110887Y0056865D01*
X0110860Y0056846D01*
X0110830Y0056830D01*
X0110799Y0056817D01*
X0110767Y0056808D01*
X0110734Y0056802D01*
X0110700Y0056800D01*
X0128200Y0048600D02*
X0128200Y0045900D01*
X0125700Y0021000D02*
X0123200Y0018500D01*
X0123200Y0013500D01*
X0125700Y0011000D01*
X0130700Y0011000D01*
X0133200Y0013500D01*
X0135700Y0011000D01*
X0140700Y0011000D01*
X0143200Y0013500D01*
X0145700Y0011000D01*
X0150700Y0011000D01*
X0153200Y0013500D01*
X0153200Y0018500D01*
X0150700Y0021000D01*
X0145700Y0021000D01*
X0143200Y0018500D01*
X0140700Y0021000D01*
X0135700Y0021000D01*
X0133200Y0018500D01*
X0130700Y0021000D01*
X0125700Y0021000D01*
X0128200Y0095900D02*
X0128200Y0098600D01*
X0110700Y0106800D02*
X0110666Y0106802D01*
X0110633Y0106808D01*
X0110601Y0106817D01*
X0110570Y0106830D01*
X0110540Y0106846D01*
X0110513Y0106865D01*
X0110488Y0106888D01*
X0110465Y0106913D01*
X0110446Y0106940D01*
X0110430Y0106970D01*
X0110417Y0107001D01*
X0110408Y0107033D01*
X0110402Y0107066D01*
X0110400Y0107100D01*
X0110402Y0107134D01*
X0110408Y0107167D01*
X0110417Y0107199D01*
X0110430Y0107230D01*
X0110446Y0107260D01*
X0110465Y0107287D01*
X0110488Y0107312D01*
X0110513Y0107335D01*
X0110540Y0107354D01*
X0110570Y0107370D01*
X0110601Y0107383D01*
X0110633Y0107392D01*
X0110666Y0107398D01*
X0110700Y0107400D01*
X0110734Y0107398D01*
X0110767Y0107392D01*
X0110799Y0107383D01*
X0110830Y0107370D01*
X0110860Y0107354D01*
X0110887Y0107335D01*
X0110912Y0107312D01*
X0110935Y0107287D01*
X0110954Y0107260D01*
X0110970Y0107230D01*
X0110983Y0107199D01*
X0110992Y0107167D01*
X0110998Y0107134D01*
X0111000Y0107100D01*
X0110998Y0107066D01*
X0110992Y0107033D01*
X0110983Y0107001D01*
X0110970Y0106970D01*
X0110954Y0106940D01*
X0110935Y0106913D01*
X0110912Y0106888D01*
X0110887Y0106865D01*
X0110860Y0106846D01*
X0110830Y0106830D01*
X0110799Y0106817D01*
X0110767Y0106808D01*
X0110734Y0106802D01*
X0110700Y0106800D01*
X0108200Y0098600D02*
X0108200Y0095900D01*
X0116000Y0143800D02*
X0118400Y0143800D01*
X0116000Y0143800D02*
X0116000Y0146200D01*
X0116000Y0155800D02*
X0116000Y0158200D01*
X0118400Y0158200D01*
X0116700Y0167000D02*
X0099700Y0167000D01*
X0099640Y0167002D01*
X0099579Y0167007D01*
X0099520Y0167016D01*
X0099461Y0167029D01*
X0099402Y0167045D01*
X0099345Y0167065D01*
X0099290Y0167088D01*
X0099235Y0167115D01*
X0099183Y0167144D01*
X0099132Y0167177D01*
X0099083Y0167213D01*
X0099037Y0167251D01*
X0098993Y0167293D01*
X0098951Y0167337D01*
X0098913Y0167383D01*
X0098877Y0167432D01*
X0098844Y0167483D01*
X0098815Y0167535D01*
X0098788Y0167590D01*
X0098765Y0167645D01*
X0098745Y0167702D01*
X0098729Y0167761D01*
X0098716Y0167820D01*
X0098707Y0167879D01*
X0098702Y0167940D01*
X0098700Y0168000D01*
X0098700Y0174000D01*
X0098702Y0174060D01*
X0098707Y0174121D01*
X0098716Y0174180D01*
X0098729Y0174239D01*
X0098745Y0174298D01*
X0098765Y0174355D01*
X0098788Y0174410D01*
X0098815Y0174465D01*
X0098844Y0174517D01*
X0098877Y0174568D01*
X0098913Y0174617D01*
X0098951Y0174663D01*
X0098993Y0174707D01*
X0099037Y0174749D01*
X0099083Y0174787D01*
X0099132Y0174823D01*
X0099183Y0174856D01*
X0099235Y0174885D01*
X0099290Y0174912D01*
X0099345Y0174935D01*
X0099402Y0174955D01*
X0099461Y0174971D01*
X0099520Y0174984D01*
X0099579Y0174993D01*
X0099640Y0174998D01*
X0099700Y0175000D01*
X0116700Y0175000D01*
X0116760Y0174998D01*
X0116821Y0174993D01*
X0116880Y0174984D01*
X0116939Y0174971D01*
X0116998Y0174955D01*
X0117055Y0174935D01*
X0117110Y0174912D01*
X0117165Y0174885D01*
X0117217Y0174856D01*
X0117268Y0174823D01*
X0117317Y0174787D01*
X0117363Y0174749D01*
X0117407Y0174707D01*
X0117449Y0174663D01*
X0117487Y0174617D01*
X0117523Y0174568D01*
X0117556Y0174517D01*
X0117585Y0174465D01*
X0117612Y0174410D01*
X0117635Y0174355D01*
X0117655Y0174298D01*
X0117671Y0174239D01*
X0117684Y0174180D01*
X0117693Y0174121D01*
X0117698Y0174060D01*
X0117700Y0174000D01*
X0117700Y0168000D01*
X0117698Y0167940D01*
X0117693Y0167879D01*
X0117684Y0167820D01*
X0117671Y0167761D01*
X0117655Y0167702D01*
X0117635Y0167645D01*
X0117612Y0167590D01*
X0117585Y0167535D01*
X0117556Y0167483D01*
X0117523Y0167432D01*
X0117487Y0167383D01*
X0117449Y0167337D01*
X0117407Y0167293D01*
X0117363Y0167251D01*
X0117317Y0167213D01*
X0117268Y0167177D01*
X0117217Y0167144D01*
X0117165Y0167115D01*
X0117110Y0167088D01*
X0117055Y0167065D01*
X0116998Y0167045D01*
X0116939Y0167029D01*
X0116880Y0167016D01*
X0116821Y0167007D01*
X0116760Y0167002D01*
X0116700Y0167000D01*
X0128000Y0158200D02*
X0130400Y0158200D01*
X0130400Y0155800D01*
X0130400Y0146200D02*
X0130400Y0143800D01*
X0128000Y0143800D01*
X0120000Y0188700D02*
X0120000Y0203300D01*
X0146400Y0203300D01*
X0146400Y0188700D01*
X0120000Y0188700D01*
X0150700Y0231000D02*
X0148200Y0233500D01*
X0148200Y0238500D01*
X0150700Y0241000D01*
X0148200Y0243500D01*
X0148200Y0248500D01*
X0150700Y0251000D01*
X0155700Y0251000D01*
X0158200Y0248500D01*
X0158200Y0243500D01*
X0160700Y0241000D01*
X0158200Y0238500D01*
X0158200Y0233500D01*
X0160700Y0231000D01*
X0165700Y0231000D01*
X0168200Y0233500D01*
X0168200Y0238500D01*
X0165700Y0241000D01*
X0168200Y0243500D01*
X0168200Y0248500D01*
X0165700Y0251000D01*
X0160700Y0251000D01*
X0158200Y0248500D01*
X0158200Y0243500D01*
X0155700Y0241000D01*
X0150700Y0241000D01*
X0155700Y0241000D02*
X0158200Y0238500D01*
X0158200Y0233500D01*
X0155700Y0231000D01*
X0150700Y0231000D01*
X0160700Y0221000D02*
X0158200Y0218500D01*
X0158200Y0213500D01*
X0160700Y0211000D01*
X0158200Y0208500D01*
X0158200Y0203500D01*
X0160700Y0201000D01*
X0158200Y0198500D01*
X0158200Y0193500D01*
X0160700Y0191000D01*
X0158200Y0188500D01*
X0158200Y0183500D01*
X0160700Y0181000D01*
X0165700Y0181000D01*
X0168200Y0183500D01*
X0168200Y0188500D01*
X0165700Y0191000D01*
X0168200Y0193500D01*
X0168200Y0198500D01*
X0165700Y0201000D01*
X0168200Y0203500D01*
X0168200Y0208500D01*
X0165700Y0211000D01*
X0168200Y0213500D01*
X0168200Y0218500D01*
X0165700Y0221000D01*
X0160700Y0221000D01*
X0160700Y0241000D02*
X0165700Y0241000D01*
X0165700Y0251000D02*
X0168200Y0253500D01*
X0168200Y0258500D01*
X0165700Y0261000D01*
X0168200Y0263500D01*
X0168200Y0268500D01*
X0165700Y0271000D01*
X0168200Y0273500D01*
X0168200Y0278500D01*
X0165700Y0281000D01*
X0168200Y0283500D01*
X0168200Y0288500D01*
X0165700Y0291000D01*
X0160700Y0291000D01*
X0158200Y0288500D01*
X0158200Y0283500D01*
X0160700Y0281000D01*
X0158200Y0278500D01*
X0158200Y0273500D01*
X0160700Y0271000D01*
X0158200Y0268500D01*
X0158200Y0263500D01*
X0160700Y0261000D01*
X0158200Y0258500D01*
X0158200Y0253500D01*
X0160700Y0251000D01*
X0158200Y0253500D02*
X0158200Y0258500D01*
X0155700Y0261000D01*
X0158200Y0263500D01*
X0158200Y0268500D01*
X0155700Y0271000D01*
X0158200Y0273500D01*
X0158200Y0278500D01*
X0155700Y0281000D01*
X0158200Y0283500D01*
X0158200Y0288500D01*
X0155700Y0291000D01*
X0150700Y0291000D01*
X0148200Y0288500D01*
X0148200Y0283500D01*
X0150700Y0281000D01*
X0148200Y0278500D01*
X0148200Y0273500D01*
X0150700Y0271000D01*
X0148200Y0268500D01*
X0148200Y0263500D01*
X0150700Y0261000D01*
X0148200Y0258500D01*
X0148200Y0253500D01*
X0150700Y0251000D01*
X0155700Y0251000D02*
X0158200Y0253500D01*
X0155700Y0261000D02*
X0150700Y0261000D01*
X0150700Y0271000D02*
X0155700Y0271000D01*
X0160700Y0271000D02*
X0165700Y0271000D01*
X0165700Y0261000D02*
X0160700Y0261000D01*
X0160700Y0281000D02*
X0165700Y0281000D01*
X0155700Y0281000D02*
X0150700Y0281000D01*
X0142700Y0284000D02*
X0142700Y0278000D01*
X0142698Y0277940D01*
X0142693Y0277879D01*
X0142684Y0277820D01*
X0142671Y0277761D01*
X0142655Y0277702D01*
X0142635Y0277645D01*
X0142612Y0277590D01*
X0142585Y0277535D01*
X0142556Y0277483D01*
X0142523Y0277432D01*
X0142487Y0277383D01*
X0142449Y0277337D01*
X0142407Y0277293D01*
X0142363Y0277251D01*
X0142317Y0277213D01*
X0142268Y0277177D01*
X0142217Y0277144D01*
X0142165Y0277115D01*
X0142110Y0277088D01*
X0142055Y0277065D01*
X0141998Y0277045D01*
X0141939Y0277029D01*
X0141880Y0277016D01*
X0141821Y0277007D01*
X0141760Y0277002D01*
X0141700Y0277000D01*
X0124700Y0277000D01*
X0124640Y0277002D01*
X0124579Y0277007D01*
X0124520Y0277016D01*
X0124461Y0277029D01*
X0124402Y0277045D01*
X0124345Y0277065D01*
X0124290Y0277088D01*
X0124235Y0277115D01*
X0124183Y0277144D01*
X0124132Y0277177D01*
X0124083Y0277213D01*
X0124037Y0277251D01*
X0123993Y0277293D01*
X0123951Y0277337D01*
X0123913Y0277383D01*
X0123877Y0277432D01*
X0123844Y0277483D01*
X0123815Y0277535D01*
X0123788Y0277590D01*
X0123765Y0277645D01*
X0123745Y0277702D01*
X0123729Y0277761D01*
X0123716Y0277820D01*
X0123707Y0277879D01*
X0123702Y0277940D01*
X0123700Y0278000D01*
X0123700Y0284000D01*
X0123702Y0284060D01*
X0123707Y0284121D01*
X0123716Y0284180D01*
X0123729Y0284239D01*
X0123745Y0284298D01*
X0123765Y0284355D01*
X0123788Y0284410D01*
X0123815Y0284465D01*
X0123844Y0284517D01*
X0123877Y0284568D01*
X0123913Y0284617D01*
X0123951Y0284663D01*
X0123993Y0284707D01*
X0124037Y0284749D01*
X0124083Y0284787D01*
X0124132Y0284823D01*
X0124183Y0284856D01*
X0124235Y0284885D01*
X0124290Y0284912D01*
X0124345Y0284935D01*
X0124402Y0284955D01*
X0124461Y0284971D01*
X0124520Y0284984D01*
X0124579Y0284993D01*
X0124640Y0284998D01*
X0124700Y0285000D01*
X0141700Y0285000D01*
X0141760Y0284998D01*
X0141821Y0284993D01*
X0141880Y0284984D01*
X0141939Y0284971D01*
X0141998Y0284955D01*
X0142055Y0284935D01*
X0142110Y0284912D01*
X0142165Y0284885D01*
X0142217Y0284856D01*
X0142268Y0284823D01*
X0142317Y0284787D01*
X0142363Y0284749D01*
X0142407Y0284707D01*
X0142449Y0284663D01*
X0142487Y0284617D01*
X0142523Y0284568D01*
X0142556Y0284517D01*
X0142585Y0284465D01*
X0142612Y0284410D01*
X0142635Y0284355D01*
X0142655Y0284298D01*
X0142671Y0284239D01*
X0142684Y0284180D01*
X0142693Y0284121D01*
X0142698Y0284060D01*
X0142700Y0284000D01*
X0141700Y0287000D02*
X0124700Y0287000D01*
X0124640Y0287002D01*
X0124579Y0287007D01*
X0124520Y0287016D01*
X0124461Y0287029D01*
X0124402Y0287045D01*
X0124345Y0287065D01*
X0124290Y0287088D01*
X0124235Y0287115D01*
X0124183Y0287144D01*
X0124132Y0287177D01*
X0124083Y0287213D01*
X0124037Y0287251D01*
X0123993Y0287293D01*
X0123951Y0287337D01*
X0123913Y0287383D01*
X0123877Y0287432D01*
X0123844Y0287483D01*
X0123815Y0287535D01*
X0123788Y0287590D01*
X0123765Y0287645D01*
X0123745Y0287702D01*
X0123729Y0287761D01*
X0123716Y0287820D01*
X0123707Y0287879D01*
X0123702Y0287940D01*
X0123700Y0288000D01*
X0123700Y0294000D01*
X0123702Y0294060D01*
X0123707Y0294121D01*
X0123716Y0294180D01*
X0123729Y0294239D01*
X0123745Y0294298D01*
X0123765Y0294355D01*
X0123788Y0294410D01*
X0123815Y0294465D01*
X0123844Y0294517D01*
X0123877Y0294568D01*
X0123913Y0294617D01*
X0123951Y0294663D01*
X0123993Y0294707D01*
X0124037Y0294749D01*
X0124083Y0294787D01*
X0124132Y0294823D01*
X0124183Y0294856D01*
X0124235Y0294885D01*
X0124290Y0294912D01*
X0124345Y0294935D01*
X0124402Y0294955D01*
X0124461Y0294971D01*
X0124520Y0294984D01*
X0124579Y0294993D01*
X0124640Y0294998D01*
X0124700Y0295000D01*
X0141700Y0295000D01*
X0141760Y0294998D01*
X0141821Y0294993D01*
X0141880Y0294984D01*
X0141939Y0294971D01*
X0141998Y0294955D01*
X0142055Y0294935D01*
X0142110Y0294912D01*
X0142165Y0294885D01*
X0142217Y0294856D01*
X0142268Y0294823D01*
X0142317Y0294787D01*
X0142363Y0294749D01*
X0142407Y0294707D01*
X0142449Y0294663D01*
X0142487Y0294617D01*
X0142523Y0294568D01*
X0142556Y0294517D01*
X0142585Y0294465D01*
X0142612Y0294410D01*
X0142635Y0294355D01*
X0142655Y0294298D01*
X0142671Y0294239D01*
X0142684Y0294180D01*
X0142693Y0294121D01*
X0142698Y0294060D01*
X0142700Y0294000D01*
X0142700Y0288000D01*
X0142698Y0287940D01*
X0142693Y0287879D01*
X0142684Y0287820D01*
X0142671Y0287761D01*
X0142655Y0287702D01*
X0142635Y0287645D01*
X0142612Y0287590D01*
X0142585Y0287535D01*
X0142556Y0287483D01*
X0142523Y0287432D01*
X0142487Y0287383D01*
X0142449Y0287337D01*
X0142407Y0287293D01*
X0142363Y0287251D01*
X0142317Y0287213D01*
X0142268Y0287177D01*
X0142217Y0287144D01*
X0142165Y0287115D01*
X0142110Y0287088D01*
X0142055Y0287065D01*
X0141998Y0287045D01*
X0141939Y0287029D01*
X0141880Y0287016D01*
X0141821Y0287007D01*
X0141760Y0287002D01*
X0141700Y0287000D01*
X0117700Y0285500D02*
X0117700Y0291500D01*
X0117698Y0291560D01*
X0117693Y0291621D01*
X0117684Y0291680D01*
X0117671Y0291739D01*
X0117655Y0291798D01*
X0117635Y0291855D01*
X0117612Y0291910D01*
X0117585Y0291965D01*
X0117556Y0292017D01*
X0117523Y0292068D01*
X0117487Y0292117D01*
X0117449Y0292163D01*
X0117407Y0292207D01*
X0117363Y0292249D01*
X0117317Y0292287D01*
X0117268Y0292323D01*
X0117217Y0292356D01*
X0117165Y0292385D01*
X0117110Y0292412D01*
X0117055Y0292435D01*
X0116998Y0292455D01*
X0116939Y0292471D01*
X0116880Y0292484D01*
X0116821Y0292493D01*
X0116760Y0292498D01*
X0116700Y0292500D01*
X0099700Y0292500D01*
X0099640Y0292498D01*
X0099579Y0292493D01*
X0099520Y0292484D01*
X0099461Y0292471D01*
X0099402Y0292455D01*
X0099345Y0292435D01*
X0099290Y0292412D01*
X0099235Y0292385D01*
X0099183Y0292356D01*
X0099132Y0292323D01*
X0099083Y0292287D01*
X0099037Y0292249D01*
X0098993Y0292207D01*
X0098951Y0292163D01*
X0098913Y0292117D01*
X0098877Y0292068D01*
X0098844Y0292017D01*
X0098815Y0291965D01*
X0098788Y0291910D01*
X0098765Y0291855D01*
X0098745Y0291798D01*
X0098729Y0291739D01*
X0098716Y0291680D01*
X0098707Y0291621D01*
X0098702Y0291560D01*
X0098700Y0291500D01*
X0098700Y0285500D01*
X0098702Y0285440D01*
X0098707Y0285379D01*
X0098716Y0285320D01*
X0098729Y0285261D01*
X0098745Y0285202D01*
X0098765Y0285145D01*
X0098788Y0285090D01*
X0098815Y0285035D01*
X0098844Y0284983D01*
X0098877Y0284932D01*
X0098913Y0284883D01*
X0098951Y0284837D01*
X0098993Y0284793D01*
X0099037Y0284751D01*
X0099083Y0284713D01*
X0099132Y0284677D01*
X0099183Y0284644D01*
X0099235Y0284615D01*
X0099290Y0284588D01*
X0099345Y0284565D01*
X0099402Y0284545D01*
X0099461Y0284529D01*
X0099520Y0284516D01*
X0099579Y0284507D01*
X0099640Y0284502D01*
X0099700Y0284500D01*
X0116700Y0284500D01*
X0116760Y0284502D01*
X0116821Y0284507D01*
X0116880Y0284516D01*
X0116939Y0284529D01*
X0116998Y0284545D01*
X0117055Y0284565D01*
X0117110Y0284588D01*
X0117165Y0284615D01*
X0117217Y0284644D01*
X0117268Y0284677D01*
X0117317Y0284713D01*
X0117363Y0284751D01*
X0117407Y0284793D01*
X0117449Y0284837D01*
X0117487Y0284883D01*
X0117523Y0284932D01*
X0117556Y0284983D01*
X0117585Y0285035D01*
X0117612Y0285090D01*
X0117635Y0285145D01*
X0117655Y0285202D01*
X0117671Y0285261D01*
X0117684Y0285320D01*
X0117693Y0285379D01*
X0117698Y0285440D01*
X0117700Y0285500D01*
X0106700Y0247500D02*
X0089700Y0247500D01*
X0089640Y0247498D01*
X0089579Y0247493D01*
X0089520Y0247484D01*
X0089461Y0247471D01*
X0089402Y0247455D01*
X0089345Y0247435D01*
X0089290Y0247412D01*
X0089235Y0247385D01*
X0089183Y0247356D01*
X0089132Y0247323D01*
X0089083Y0247287D01*
X0089037Y0247249D01*
X0088993Y0247207D01*
X0088951Y0247163D01*
X0088913Y0247117D01*
X0088877Y0247068D01*
X0088844Y0247017D01*
X0088815Y0246965D01*
X0088788Y0246910D01*
X0088765Y0246855D01*
X0088745Y0246798D01*
X0088729Y0246739D01*
X0088716Y0246680D01*
X0088707Y0246621D01*
X0088702Y0246560D01*
X0088700Y0246500D01*
X0088700Y0240500D01*
X0088702Y0240440D01*
X0088707Y0240379D01*
X0088716Y0240320D01*
X0088729Y0240261D01*
X0088745Y0240202D01*
X0088765Y0240145D01*
X0088788Y0240090D01*
X0088815Y0240035D01*
X0088844Y0239983D01*
X0088877Y0239932D01*
X0088913Y0239883D01*
X0088951Y0239837D01*
X0088993Y0239793D01*
X0089037Y0239751D01*
X0089083Y0239713D01*
X0089132Y0239677D01*
X0089183Y0239644D01*
X0089235Y0239615D01*
X0089290Y0239588D01*
X0089345Y0239565D01*
X0089402Y0239545D01*
X0089461Y0239529D01*
X0089520Y0239516D01*
X0089579Y0239507D01*
X0089640Y0239502D01*
X0089700Y0239500D01*
X0106700Y0239500D01*
X0106760Y0239502D01*
X0106821Y0239507D01*
X0106880Y0239516D01*
X0106939Y0239529D01*
X0106998Y0239545D01*
X0107055Y0239565D01*
X0107110Y0239588D01*
X0107165Y0239615D01*
X0107217Y0239644D01*
X0107268Y0239677D01*
X0107317Y0239713D01*
X0107363Y0239751D01*
X0107407Y0239793D01*
X0107449Y0239837D01*
X0107487Y0239883D01*
X0107523Y0239932D01*
X0107556Y0239983D01*
X0107585Y0240035D01*
X0107612Y0240090D01*
X0107635Y0240145D01*
X0107655Y0240202D01*
X0107671Y0240261D01*
X0107684Y0240320D01*
X0107693Y0240379D01*
X0107698Y0240440D01*
X0107700Y0240500D01*
X0107700Y0246500D01*
X0107698Y0246560D01*
X0107693Y0246621D01*
X0107684Y0246680D01*
X0107671Y0246739D01*
X0107655Y0246798D01*
X0107635Y0246855D01*
X0107612Y0246910D01*
X0107585Y0246965D01*
X0107556Y0247017D01*
X0107523Y0247068D01*
X0107487Y0247117D01*
X0107449Y0247163D01*
X0107407Y0247207D01*
X0107363Y0247249D01*
X0107317Y0247287D01*
X0107268Y0247323D01*
X0107217Y0247356D01*
X0107165Y0247385D01*
X0107110Y0247412D01*
X0107055Y0247435D01*
X0106998Y0247455D01*
X0106939Y0247471D01*
X0106880Y0247484D01*
X0106821Y0247493D01*
X0106760Y0247498D01*
X0106700Y0247500D01*
X0071400Y0203300D02*
X0071400Y0188700D01*
X0045000Y0188700D01*
X0045000Y0203300D01*
X0071400Y0203300D01*
X0060400Y0158200D02*
X0058000Y0158200D01*
X0060400Y0158200D02*
X0060400Y0155800D01*
X0060400Y0146200D02*
X0060400Y0143800D01*
X0058000Y0143800D01*
X0048400Y0143800D02*
X0046000Y0143800D01*
X0046000Y0146200D01*
X0046000Y0155800D02*
X0046000Y0158200D01*
X0048400Y0158200D01*
X0018200Y0183500D02*
X0018200Y0188500D01*
X0015700Y0191000D01*
X0018200Y0193500D01*
X0018200Y0198500D01*
X0015700Y0201000D01*
X0018200Y0203500D01*
X0018200Y0208500D01*
X0015700Y0211000D01*
X0018200Y0213500D01*
X0018200Y0218500D01*
X0015700Y0221000D01*
X0010700Y0221000D01*
X0008200Y0218500D01*
X0008200Y0213500D01*
X0010700Y0211000D01*
X0008200Y0208500D01*
X0008200Y0203500D01*
X0010700Y0201000D01*
X0008200Y0198500D01*
X0008200Y0193500D01*
X0010700Y0191000D01*
X0008200Y0188500D01*
X0008200Y0183500D01*
X0010700Y0181000D01*
X0015700Y0181000D01*
X0018200Y0183500D01*
X0015700Y0231000D02*
X0010700Y0231000D01*
X0008200Y0233500D01*
X0008200Y0238500D01*
X0010700Y0241000D01*
X0008200Y0243500D01*
X0008200Y0248500D01*
X0010700Y0251000D01*
X0015700Y0251000D01*
X0018200Y0248500D01*
X0018200Y0243500D01*
X0015700Y0241000D01*
X0010700Y0241000D01*
X0015700Y0241000D02*
X0018200Y0238500D01*
X0018200Y0233500D01*
X0015700Y0231000D01*
X0015700Y0251000D02*
X0018200Y0253500D01*
X0018200Y0258500D01*
X0015700Y0261000D01*
X0018200Y0263500D01*
X0018200Y0268500D01*
X0015700Y0271000D01*
X0018200Y0273500D01*
X0018200Y0278500D01*
X0015700Y0281000D01*
X0018200Y0283500D01*
X0018200Y0288500D01*
X0015700Y0291000D01*
X0010700Y0291000D01*
X0008200Y0288500D01*
X0008200Y0283500D01*
X0010700Y0281000D01*
X0008200Y0278500D01*
X0008200Y0273500D01*
X0010700Y0271000D01*
X0008200Y0268500D01*
X0008200Y0263500D01*
X0010700Y0261000D01*
X0008200Y0258500D01*
X0008200Y0253500D01*
X0010700Y0251000D01*
X0010700Y0261000D02*
X0015700Y0261000D01*
X0015700Y0271000D02*
X0010700Y0271000D01*
X0010700Y0281000D02*
X0015700Y0281000D01*
X0046000Y0095200D02*
X0048400Y0095200D01*
X0048400Y0076800D02*
X0046000Y0076800D01*
X0058000Y0076800D02*
X0060400Y0076800D01*
X0060400Y0095200D02*
X0058000Y0095200D01*
D11*
X0050997Y0097433D02*
X0049497Y0097433D01*
X0049497Y0098433D01*
X0050997Y0098433D01*
X0050997Y0097433D01*
X0050997Y0097517D02*
X0049497Y0097517D01*
X0049497Y0097616D02*
X0050997Y0097616D01*
X0050997Y0097714D02*
X0049497Y0097714D01*
X0049497Y0097813D02*
X0050997Y0097813D01*
X0050997Y0097911D02*
X0049497Y0097911D01*
X0049497Y0098010D02*
X0050997Y0098010D01*
X0050997Y0098108D02*
X0049497Y0098108D01*
X0049497Y0098207D02*
X0050997Y0098207D01*
X0050997Y0098305D02*
X0049497Y0098305D01*
X0049497Y0098404D02*
X0050997Y0098404D01*
X0055403Y0074567D02*
X0056903Y0074567D01*
X0056903Y0073567D01*
X0055403Y0073567D01*
X0055403Y0074567D01*
X0055403Y0074564D02*
X0056903Y0074564D01*
X0056903Y0074465D02*
X0055403Y0074465D01*
X0055403Y0074367D02*
X0056903Y0074367D01*
X0056903Y0074268D02*
X0055403Y0074268D01*
X0055403Y0074170D02*
X0056903Y0074170D01*
X0056903Y0074071D02*
X0055403Y0074071D01*
X0055403Y0073973D02*
X0056903Y0073973D01*
X0056903Y0073874D02*
X0055403Y0073874D01*
X0055403Y0073776D02*
X0056903Y0073776D01*
X0056903Y0073677D02*
X0055403Y0073677D01*
X0055403Y0073579D02*
X0056903Y0073579D01*
X0044720Y0149266D02*
X0044720Y0150766D01*
X0043720Y0150766D01*
X0043720Y0149266D01*
X0044720Y0149266D01*
X0044720Y0149334D02*
X0043720Y0149334D01*
X0043720Y0149432D02*
X0044720Y0149432D01*
X0044720Y0149531D02*
X0043720Y0149531D01*
X0043720Y0149630D02*
X0044720Y0149630D01*
X0044720Y0149728D02*
X0043720Y0149728D01*
X0043720Y0149827D02*
X0044720Y0149827D01*
X0044720Y0149925D02*
X0043720Y0149925D01*
X0043720Y0150024D02*
X0044720Y0150024D01*
X0044720Y0150122D02*
X0043720Y0150122D01*
X0043720Y0150221D02*
X0044720Y0150221D01*
X0044720Y0150319D02*
X0043720Y0150319D01*
X0043720Y0150418D02*
X0044720Y0150418D01*
X0044720Y0150516D02*
X0043720Y0150516D01*
X0043720Y0150615D02*
X0044720Y0150615D01*
X0044720Y0150713D02*
X0043720Y0150713D01*
X0113720Y0150713D02*
X0114720Y0150713D01*
X0114720Y0150766D02*
X0113720Y0150766D01*
X0113720Y0149266D01*
X0114720Y0149266D01*
X0114720Y0150766D01*
X0114720Y0150615D02*
X0113720Y0150615D01*
X0113720Y0150516D02*
X0114720Y0150516D01*
X0114720Y0150418D02*
X0113720Y0150418D01*
X0113720Y0150319D02*
X0114720Y0150319D01*
X0114720Y0150221D02*
X0113720Y0150221D01*
X0113720Y0150122D02*
X0114720Y0150122D01*
X0114720Y0150024D02*
X0113720Y0150024D01*
X0113720Y0149925D02*
X0114720Y0149925D01*
X0114720Y0149827D02*
X0113720Y0149827D01*
X0113720Y0149728D02*
X0114720Y0149728D01*
X0114720Y0149630D02*
X0113720Y0149630D01*
X0113720Y0149531D02*
X0114720Y0149531D01*
X0114720Y0149432D02*
X0113720Y0149432D01*
X0113720Y0149334D02*
X0114720Y0149334D01*
D12*
X0132378Y0156400D02*
X0133814Y0155878D01*
X0135250Y0156400D01*
X0133814Y0155878D02*
X0134728Y0154703D01*
X0133814Y0155878D02*
X0133814Y0157444D01*
X0133814Y0155878D02*
X0132900Y0154703D01*
X0065250Y0156400D02*
X0063814Y0155878D01*
X0062378Y0156400D01*
X0063814Y0155878D02*
X0062900Y0154703D01*
X0063814Y0155878D02*
X0063814Y0157444D01*
X0063814Y0155878D02*
X0064728Y0154703D01*
X0056814Y0100544D02*
X0056814Y0098978D01*
X0058250Y0099500D01*
X0056814Y0098978D02*
X0057728Y0097803D01*
X0056814Y0098978D02*
X0055378Y0099500D01*
X0056814Y0098978D02*
X0055900Y0097803D01*
D13*
X0015759Y0089346D02*
X0015759Y0082654D01*
X0010641Y0082654D01*
X0010641Y0089346D01*
X0015759Y0089346D01*
X0015562Y0087575D02*
X0010838Y0087575D01*
X0010838Y0087181D01*
X0015562Y0087181D01*
X0011950Y0177250D02*
X0011950Y0179750D01*
X0012950Y0179000D02*
X0010950Y0179000D01*
X0011950Y0177250D02*
X0015450Y0178250D01*
X0014450Y0222750D02*
X0015450Y0224000D01*
X0010950Y0224000D01*
X0010950Y0222750D02*
X0010950Y0225250D01*
X0116700Y0018250D02*
X0116700Y0013750D01*
X0117950Y0013750D02*
X0115450Y0013750D01*
X0117950Y0017250D02*
X0116700Y0018250D01*
X0155450Y0013750D02*
X0157950Y0013750D01*
X0156700Y0013750D02*
X0156700Y0018250D01*
X0157950Y0017250D01*
X0161950Y0177250D02*
X0161950Y0179750D01*
X0162950Y0179000D02*
X0160950Y0179000D01*
X0161950Y0177250D02*
X0165450Y0178250D01*
X0164450Y0222750D02*
X0165450Y0224000D01*
X0160950Y0224000D01*
X0160950Y0222750D02*
X0160950Y0225250D01*
D14*
X0124794Y0247201D02*
X0124794Y0259799D01*
X0111606Y0259799D02*
X0111606Y0247299D01*
X0039027Y0106039D02*
X0039027Y0085961D01*
X0038043Y0085961D01*
X0038043Y0106039D02*
X0039027Y0106039D01*
X0018357Y0106039D02*
X0017373Y0106039D01*
X0017373Y0085961D01*
X0018357Y0085961D01*
D15*
X0124976Y0245400D02*
X0124978Y0245429D01*
X0124984Y0245458D01*
X0124993Y0245486D01*
X0125006Y0245512D01*
X0125022Y0245536D01*
X0125042Y0245558D01*
X0125064Y0245578D01*
X0125088Y0245594D01*
X0125114Y0245607D01*
X0125142Y0245616D01*
X0125171Y0245622D01*
X0125200Y0245624D01*
X0125229Y0245622D01*
X0125258Y0245616D01*
X0125286Y0245607D01*
X0125312Y0245594D01*
X0125336Y0245578D01*
X0125358Y0245558D01*
X0125378Y0245536D01*
X0125394Y0245512D01*
X0125407Y0245486D01*
X0125416Y0245458D01*
X0125422Y0245429D01*
X0125424Y0245400D01*
X0125422Y0245371D01*
X0125416Y0245342D01*
X0125407Y0245314D01*
X0125394Y0245288D01*
X0125378Y0245264D01*
X0125358Y0245242D01*
X0125336Y0245222D01*
X0125312Y0245206D01*
X0125286Y0245193D01*
X0125258Y0245184D01*
X0125229Y0245178D01*
X0125200Y0245176D01*
X0125171Y0245178D01*
X0125142Y0245184D01*
X0125114Y0245193D01*
X0125088Y0245206D01*
X0125064Y0245222D01*
X0125042Y0245242D01*
X0125022Y0245264D01*
X0125006Y0245288D01*
X0124993Y0245314D01*
X0124984Y0245342D01*
X0124978Y0245371D01*
X0124976Y0245400D01*
M02*
