G75*
%MOIN*%
%OFA0B0*%
%FSLAX25Y25*%
%IPPOS*%
%LPD*%
%AMOC8*
5,1,8,0,0,1.08239X$1,22.5*
%
%ADD10R,0.05906X0.05118*%
%ADD11R,0.05118X0.05906*%
%ADD12R,0.05709X0.01575*%
%ADD13R,0.05906X0.07087*%
%ADD14R,0.02756X0.05906*%
%ADD15R,0.05512X0.04724*%
%ADD16R,0.05118X0.06299*%
%ADD17R,0.06299X0.05118*%
%ADD18C,0.01248*%
%ADD19R,0.03200X0.01600*%
%ADD20R,0.01600X0.03200*%
%ADD21R,0.14567X0.14567*%
%ADD22C,0.01772*%
%ADD23R,0.08500X0.02200*%
%ADD24R,0.06300X0.04600*%
%ADD25R,0.03543X0.02756*%
%ADD26R,0.07874X0.07087*%
%ADD27R,0.07874X0.07480*%
%ADD28R,0.12598X0.05709*%
%ADD29C,0.06299*%
%ADD30R,0.01181X0.03150*%
%ADD31R,0.04331X0.03937*%
%ADD32R,0.07480X0.04331*%
D10*
X0083200Y0222260D03*
X0083200Y0229740D03*
X0093200Y0229740D03*
X0093200Y0222260D03*
X0073200Y0262260D03*
X0073200Y0269740D03*
X0063200Y0269740D03*
X0063200Y0262260D03*
X0048200Y0262260D03*
X0048200Y0269740D03*
X0038200Y0269740D03*
X0038200Y0262260D03*
D11*
X0034460Y0241000D03*
X0041940Y0241000D03*
X0064460Y0281000D03*
X0071940Y0281000D03*
D12*
X0154472Y0040118D03*
X0154472Y0037559D03*
X0154472Y0035000D03*
X0154472Y0032441D03*
X0154472Y0029882D03*
D13*
X0165200Y0020496D03*
X0165200Y0049504D03*
D14*
X0165200Y0035000D03*
D15*
X0042531Y0227850D03*
X0042531Y0234150D03*
X0033869Y0234150D03*
X0033869Y0227850D03*
D16*
X0026940Y0116000D03*
X0019460Y0116000D03*
D17*
X0013200Y0302260D03*
X0013200Y0309740D03*
X0033200Y0309740D03*
X0033200Y0302260D03*
X0143200Y0302260D03*
X0143200Y0309740D03*
X0163200Y0309740D03*
X0163200Y0302260D03*
D18*
X0054097Y0247871D02*
X0052145Y0247871D01*
X0052145Y0248223D01*
X0054097Y0248223D01*
X0054097Y0247871D01*
D19*
X0053121Y0246079D03*
X0053121Y0244110D03*
X0053121Y0242142D03*
X0053121Y0240173D03*
X0053121Y0238205D03*
X0053121Y0236236D03*
X0053121Y0234268D03*
X0073279Y0233953D03*
X0073279Y0235921D03*
X0073279Y0237890D03*
X0073279Y0239858D03*
X0073279Y0241827D03*
X0073279Y0243795D03*
X0073279Y0245764D03*
X0073279Y0247732D03*
D20*
X0070247Y0251079D03*
X0068279Y0251079D03*
X0066310Y0251079D03*
X0064342Y0251079D03*
X0062373Y0251079D03*
X0060405Y0251079D03*
X0058436Y0251079D03*
X0056468Y0251079D03*
X0056153Y0230921D03*
X0058121Y0230921D03*
X0060090Y0230921D03*
X0062058Y0230921D03*
X0064027Y0230921D03*
X0065995Y0230921D03*
X0067964Y0230921D03*
X0069932Y0230921D03*
D21*
X0063357Y0241236D03*
D22*
X0075602Y0175075D02*
X0077570Y0175075D01*
X0077570Y0172516D02*
X0075602Y0172516D01*
X0075602Y0169957D02*
X0077570Y0169957D01*
X0077570Y0167398D02*
X0075602Y0167398D01*
X0075602Y0164839D02*
X0077570Y0164839D01*
X0077570Y0162280D02*
X0075602Y0162280D01*
X0075602Y0159720D02*
X0077570Y0159720D01*
X0077570Y0157161D02*
X0075602Y0157161D01*
X0075602Y0154602D02*
X0077570Y0154602D01*
X0077570Y0152043D02*
X0075602Y0152043D01*
X0075602Y0149484D02*
X0077570Y0149484D01*
X0077570Y0146925D02*
X0075602Y0146925D01*
X0098830Y0146925D02*
X0100798Y0146925D01*
X0100798Y0149484D02*
X0098830Y0149484D01*
X0098830Y0152043D02*
X0100798Y0152043D01*
X0100798Y0154602D02*
X0098830Y0154602D01*
X0098830Y0157161D02*
X0100798Y0157161D01*
X0100798Y0159720D02*
X0098830Y0159720D01*
X0098830Y0162280D02*
X0100798Y0162280D01*
X0100798Y0164839D02*
X0098830Y0164839D01*
X0098830Y0167398D02*
X0100798Y0167398D01*
X0100798Y0169957D02*
X0098830Y0169957D01*
X0098830Y0172516D02*
X0100798Y0172516D01*
X0100798Y0175075D02*
X0098830Y0175075D01*
D23*
X0014900Y0063500D03*
X0014900Y0068500D03*
X0014900Y0073500D03*
X0014900Y0078500D03*
X0014900Y0083500D03*
X0014900Y0088500D03*
X0014900Y0093500D03*
X0014900Y0098500D03*
X0041500Y0098500D03*
X0041500Y0093500D03*
X0041500Y0088500D03*
X0041500Y0083500D03*
X0041500Y0078500D03*
X0041500Y0073500D03*
X0041500Y0068500D03*
X0041500Y0063500D03*
D24*
X0013200Y0130000D03*
X0013200Y0136000D03*
X0013200Y0142000D03*
X0143200Y0132000D03*
X0143200Y0126000D03*
X0143200Y0120000D03*
X0158200Y0120000D03*
X0158200Y0126000D03*
X0158200Y0132000D03*
D25*
X0103200Y0238441D03*
X0103200Y0243559D03*
D26*
X0083200Y0260488D03*
X0083200Y0271512D03*
D27*
X0055917Y0132457D03*
X0058672Y0106748D03*
X0058672Y0091000D03*
X0058672Y0075252D03*
X0117728Y0075252D03*
X0117728Y0091000D03*
X0117728Y0106748D03*
X0120483Y0132457D03*
D28*
X0088200Y0112752D03*
X0074420Y0069248D03*
X0101980Y0069248D03*
D29*
X0100011Y0102811D03*
X0076389Y0079189D03*
D30*
X0075405Y0126157D03*
X0077373Y0126157D03*
X0079342Y0126157D03*
X0081310Y0126157D03*
X0083279Y0126157D03*
X0085247Y0126157D03*
X0087216Y0126157D03*
X0089184Y0126157D03*
X0091153Y0126157D03*
X0093121Y0126157D03*
X0095090Y0126157D03*
X0097058Y0126157D03*
X0099027Y0126157D03*
X0100995Y0126157D03*
X0102964Y0126157D03*
X0104932Y0126157D03*
X0106901Y0126157D03*
X0108869Y0126157D03*
X0110838Y0126157D03*
X0073436Y0126157D03*
X0071468Y0126157D03*
X0069499Y0126157D03*
X0067531Y0126157D03*
X0065562Y0126157D03*
D31*
X0103200Y0222654D03*
X0103200Y0229346D03*
D32*
X0083200Y0241276D03*
X0083200Y0250724D03*
M02*
