%
M48
M72
T01C0.01000
T02C0.01181
T03C0.01378
T04C0.02362
T05C0.03200
T06C0.03346
T07C0.04000
T08C0.12200
%
T01
X51600Y82900
X51600Y86000
X51600Y89100
X54800Y89100
X54800Y86000
X54800Y82900
X54800Y149400
X54800Y152600
X51600Y152600
X51600Y149400
X121600Y149400
X121600Y152600
X124800Y152600
X124800Y149400
T02
X125200Y93500
X103200Y50000
X110700Y42500
X133200Y46000
X99700Y95000
X91200Y183000
X73200Y192000
X94700Y237500
X98200Y261000
X110700Y233000
X115200Y232500
X115700Y209500
X122700Y208500
X43200Y208500
X43200Y196000
X43200Y180500
T03
X56600Y160800
X66200Y152400
X72200Y153600
X77000Y141600
X74600Y137400
X74600Y132600
X81800Y118200
X97400Y135000
X99200Y131400
X100400Y139200
X104000Y146400
X95600Y147000
X95600Y154200
X93300Y162600
X83800Y178200
X83600Y186000
X97400Y181200
X99200Y186600
X104600Y196200
X108200Y200400
X111800Y200400
X110600Y194400
X113000Y191400
X117200Y183600
X120200Y180600
X127400Y189000
X126200Y200400
X110600Y206400
X100400Y200400
X95000Y213600
X98900Y238200
X108800Y262800
X117200Y262800
X113000Y280800
X131000Y275400
X146000Y213000
X125000Y160800
X120200Y160800
X113000Y142800
X113600Y126600
X125000Y121200
X130400Y119400
X128600Y111600
X145400Y136800
X150200Y124800
X153200Y136800
X120800Y61200
X115300Y59000
X99200Y79200
X86000Y79200
X60800Y97200
X53600Y115200
X50000Y111600
X43400Y105000
X47600Y96000
X47600Y76200
X38600Y60000
X36200Y57000
X30800Y64200
X25400Y62400
X21800Y58800
X21800Y55200
X28400Y44400
X35000Y94200
X21200Y121800
X11000Y112200
X32600Y146400
X59000Y120600
X59600Y60600
X106400Y32400
X76400Y218400
X77000Y228600
X77000Y243600
X60200Y257400
X57200Y255000
X53000Y254400
X45800Y253800
X45800Y257400
X39800Y256800
X48800Y240600
X76400Y274800
X20600Y222600
T04
X106074Y305882
X106074Y316118
T05
X143200Y321000
X153200Y321000
X163200Y321000
X33200Y321000
X23200Y321000
X13200Y321000
X33200Y46000
X43200Y46000
T06
X156539Y42480
X156539Y27520
T07
X13200Y11000
X13200Y21000
X23200Y21000
X23200Y11000
X33200Y11000
X33200Y21000
X43200Y21000
X43200Y11000
X53200Y11000
X53200Y21000
X63200Y21000
X63200Y11000
X88200Y16000
X98200Y16000
X108200Y16000
X128200Y16000
X138200Y16000
X148200Y16000
X163200Y186000
X163200Y196000
X163200Y206000
X163200Y216000
X163200Y236000
X163200Y246000
X163200Y256000
X163200Y266000
X163200Y276000
X163200Y286000
X153200Y286000
X153200Y276000
X153200Y266000
X153200Y256000
X153200Y246000
X153200Y236000
X13200Y236000
X13200Y246000
X13200Y256000
X13200Y266000
X13200Y276000
X13200Y286000
X13200Y216000
X13200Y206000
X13200Y196000
X13200Y186000
T08
X13200Y156000
X58200Y321000
X163200Y66000
M30
