G75*
%MOIN*%
%OFA0B0*%
%FSLAX25Y25*%
%IPPOS*%
%LPD*%
%AMOC8*
5,1,8,0,0,1.08239X$1,22.5*
%
%ADD10C,0.13000*%
%ADD11R,0.06706X0.05918*%
%ADD12R,0.05918X0.06706*%
%ADD13C,0.05600*%
%ADD14R,0.06509X0.02375*%
%ADD15C,0.04146*%
%ADD16R,0.06693X0.07874*%
%ADD17R,0.06693X0.10630*%
%ADD18OC8,0.06800*%
%ADD19C,0.06800*%
%ADD20C,0.03000*%
%ADD21C,0.07800*%
%ADD22R,0.06312X0.05524*%
%ADD23R,0.05918X0.07099*%
%ADD24R,0.07099X0.05918*%
%ADD25C,0.06800*%
%ADD26C,0.01872*%
%ADD27R,0.04000X0.02400*%
%ADD28R,0.02400X0.04000*%
%ADD29R,0.15367X0.15367*%
%ADD30C,0.02572*%
%ADD31R,0.09300X0.03000*%
%ADD32R,0.07100X0.05400*%
%ADD33R,0.04343X0.03556*%
%ADD34R,0.08674X0.07887*%
%ADD35R,0.08674X0.08280*%
%ADD36R,0.13398X0.06509*%
%ADD37C,0.07099*%
%ADD38R,0.01981X0.03950*%
%ADD39R,0.04528X0.08661*%
%ADD40R,0.05118X0.12008*%
%ADD41R,0.05131X0.04737*%
%ADD42R,0.08280X0.05131*%
D10*
X0013200Y0156000D03*
X0058200Y0321000D03*
X0163200Y0066000D03*
D11*
X0093200Y0222260D03*
X0093200Y0229740D03*
X0083200Y0229740D03*
X0083200Y0222260D03*
X0073200Y0262260D03*
X0073200Y0269740D03*
X0063200Y0269740D03*
X0063200Y0262260D03*
X0048200Y0262260D03*
X0048200Y0269740D03*
X0038200Y0269740D03*
X0038200Y0262260D03*
D12*
X0034460Y0241000D03*
X0041940Y0241000D03*
X0064460Y0281000D03*
X0071940Y0281000D03*
D13*
X0033200Y0318600D02*
X0033200Y0323400D01*
X0023200Y0323400D02*
X0023200Y0318600D01*
X0013200Y0318600D02*
X0013200Y0323400D01*
X0143200Y0323400D02*
X0143200Y0318600D01*
X0153200Y0318600D02*
X0153200Y0323400D01*
X0163200Y0323400D02*
X0163200Y0318600D01*
X0043200Y0048400D02*
X0043200Y0043600D01*
X0033200Y0043600D02*
X0033200Y0048400D01*
D14*
X0154472Y0040118D03*
X0154472Y0037559D03*
X0154472Y0035000D03*
X0154472Y0032441D03*
X0154472Y0029882D03*
D15*
X0156539Y0027520D03*
X0156539Y0042480D03*
D16*
X0165200Y0049504D03*
X0165200Y0020496D03*
D17*
X0165200Y0035000D03*
D18*
X0063200Y0021000D03*
X0053200Y0021000D03*
X0043200Y0021000D03*
X0033200Y0021000D03*
X0023200Y0021000D03*
X0013200Y0021000D03*
X0013200Y0236000D03*
X0013200Y0246000D03*
X0013200Y0256000D03*
X0013200Y0266000D03*
X0013200Y0276000D03*
X0013200Y0286000D03*
X0153200Y0286000D03*
X0153200Y0276000D03*
X0153200Y0266000D03*
X0153200Y0256000D03*
X0153200Y0246000D03*
X0153200Y0236000D03*
X0163200Y0236000D03*
X0163200Y0246000D03*
X0163200Y0256000D03*
X0163200Y0266000D03*
X0163200Y0276000D03*
X0163200Y0286000D03*
D19*
X0013200Y0011000D03*
X0023200Y0011000D03*
X0033200Y0011000D03*
X0043200Y0011000D03*
X0053200Y0011000D03*
X0063200Y0011000D03*
D20*
X0054800Y0082900D03*
X0054800Y0086000D03*
X0054800Y0089100D03*
X0051600Y0089100D03*
X0051600Y0086000D03*
X0051600Y0082900D03*
X0051600Y0149400D03*
X0051600Y0152600D03*
X0054800Y0152600D03*
X0054800Y0149400D03*
X0121600Y0149400D03*
X0121600Y0152600D03*
X0124800Y0152600D03*
X0124800Y0149400D03*
D21*
X0106074Y0305882D03*
X0106074Y0316118D03*
D22*
X0042531Y0234150D03*
X0042531Y0227850D03*
X0033869Y0227850D03*
X0033869Y0234150D03*
D23*
X0026940Y0116000D03*
X0019460Y0116000D03*
D24*
X0013200Y0302260D03*
X0013200Y0309740D03*
X0033200Y0309740D03*
X0033200Y0302260D03*
X0143200Y0302260D03*
X0143200Y0309740D03*
X0163200Y0309740D03*
X0163200Y0302260D03*
D25*
X0166200Y0216000D02*
X0160200Y0216000D01*
X0160200Y0206000D02*
X0166200Y0206000D01*
X0166200Y0196000D02*
X0160200Y0196000D01*
X0160200Y0186000D02*
X0166200Y0186000D01*
X0148200Y0019000D02*
X0148200Y0013000D01*
X0138200Y0013000D02*
X0138200Y0019000D01*
X0128200Y0019000D02*
X0128200Y0013000D01*
X0108200Y0013000D02*
X0108200Y0019000D01*
X0098200Y0019000D02*
X0098200Y0013000D01*
X0088200Y0013000D02*
X0088200Y0019000D01*
X0016200Y0186000D02*
X0010200Y0186000D01*
X0010200Y0196000D02*
X0016200Y0196000D01*
X0016200Y0206000D02*
X0010200Y0206000D01*
X0010200Y0216000D02*
X0016200Y0216000D01*
D26*
X0052057Y0247783D02*
X0054185Y0247783D01*
X0052057Y0247783D02*
X0052057Y0248311D01*
X0054185Y0248311D01*
X0054185Y0247783D01*
D27*
X0053121Y0246079D03*
X0053121Y0244110D03*
X0053121Y0242142D03*
X0053121Y0240173D03*
X0053121Y0238205D03*
X0053121Y0236236D03*
X0053121Y0234268D03*
X0073279Y0233953D03*
X0073279Y0235921D03*
X0073279Y0237890D03*
X0073279Y0239858D03*
X0073279Y0241827D03*
X0073279Y0243795D03*
X0073279Y0245764D03*
X0073279Y0247732D03*
D28*
X0070247Y0251079D03*
X0068279Y0251079D03*
X0066310Y0251079D03*
X0064342Y0251079D03*
X0062373Y0251079D03*
X0060405Y0251079D03*
X0058436Y0251079D03*
X0056468Y0251079D03*
X0056153Y0230921D03*
X0058121Y0230921D03*
X0060090Y0230921D03*
X0062058Y0230921D03*
X0064027Y0230921D03*
X0065995Y0230921D03*
X0067964Y0230921D03*
X0069932Y0230921D03*
D29*
X0063357Y0241236D03*
D30*
X0075602Y0175075D02*
X0077570Y0175075D01*
X0077570Y0172516D02*
X0075602Y0172516D01*
X0075602Y0169957D02*
X0077570Y0169957D01*
X0077570Y0167398D02*
X0075602Y0167398D01*
X0075602Y0164839D02*
X0077570Y0164839D01*
X0077570Y0162280D02*
X0075602Y0162280D01*
X0075602Y0159720D02*
X0077570Y0159720D01*
X0077570Y0157161D02*
X0075602Y0157161D01*
X0075602Y0154602D02*
X0077570Y0154602D01*
X0077570Y0152043D02*
X0075602Y0152043D01*
X0075602Y0149484D02*
X0077570Y0149484D01*
X0077570Y0146925D02*
X0075602Y0146925D01*
X0098830Y0146925D02*
X0100798Y0146925D01*
X0100798Y0149484D02*
X0098830Y0149484D01*
X0098830Y0152043D02*
X0100798Y0152043D01*
X0100798Y0154602D02*
X0098830Y0154602D01*
X0098830Y0157161D02*
X0100798Y0157161D01*
X0100798Y0159720D02*
X0098830Y0159720D01*
X0098830Y0162280D02*
X0100798Y0162280D01*
X0100798Y0164839D02*
X0098830Y0164839D01*
X0098830Y0167398D02*
X0100798Y0167398D01*
X0100798Y0169957D02*
X0098830Y0169957D01*
X0098830Y0172516D02*
X0100798Y0172516D01*
X0100798Y0175075D02*
X0098830Y0175075D01*
D31*
X0041500Y0098500D03*
X0041500Y0093500D03*
X0041500Y0088500D03*
X0041500Y0083500D03*
X0041500Y0078500D03*
X0041500Y0073500D03*
X0041500Y0068500D03*
X0041500Y0063500D03*
X0014900Y0063500D03*
X0014900Y0068500D03*
X0014900Y0073500D03*
X0014900Y0078500D03*
X0014900Y0083500D03*
X0014900Y0088500D03*
X0014900Y0093500D03*
X0014900Y0098500D03*
D32*
X0013200Y0130000D03*
X0013200Y0136000D03*
X0013200Y0142000D03*
X0143200Y0132000D03*
X0143200Y0126000D03*
X0143200Y0120000D03*
X0158200Y0120000D03*
X0158200Y0126000D03*
X0158200Y0132000D03*
D33*
X0103200Y0238441D03*
X0103200Y0243559D03*
D34*
X0083200Y0260488D03*
X0083200Y0271512D03*
D35*
X0058672Y0106748D03*
X0058672Y0091000D03*
X0058672Y0075252D03*
X0117728Y0075252D03*
X0117728Y0091000D03*
X0117728Y0106748D03*
D36*
X0101980Y0069248D03*
X0088200Y0112752D03*
X0074420Y0069248D03*
D37*
X0076389Y0079189D03*
X0100011Y0102811D03*
D38*
X0099027Y0126157D03*
X0100995Y0126157D03*
X0102964Y0126157D03*
X0104932Y0126157D03*
X0106901Y0126157D03*
X0108869Y0126157D03*
X0110838Y0126157D03*
X0097058Y0126157D03*
X0095090Y0126157D03*
X0093121Y0126157D03*
X0091153Y0126157D03*
X0089184Y0126157D03*
X0087216Y0126157D03*
X0085247Y0126157D03*
X0083279Y0126157D03*
X0081310Y0126157D03*
X0079342Y0126157D03*
X0077373Y0126157D03*
X0075405Y0126157D03*
X0073436Y0126157D03*
X0071468Y0126157D03*
X0069499Y0126157D03*
X0067531Y0126157D03*
X0065562Y0126157D03*
D39*
X0053456Y0132457D03*
X0122944Y0132457D03*
D40*
X0118318Y0134130D03*
X0058082Y0134130D03*
D41*
X0103200Y0222654D03*
X0103200Y0229346D03*
D42*
X0083200Y0241276D03*
X0083200Y0250724D03*
M02*
