G75*
%MOIN*%
%OFA0B0*%
%FSLAX25Y25*%
%IPPOS*%
%LPD*%
%AMOC8*
5,1,8,0,0,1.08239X$1,22.5*
%
%ADD10C,0.13000*%
%ADD11C,0.05600*%
%ADD12C,0.04146*%
%ADD13OC8,0.06800*%
%ADD14C,0.06800*%
%ADD15R,0.05918X0.04343*%
%ADD16R,0.01902X0.04146*%
%ADD17R,0.04146X0.01902*%
%ADD18R,0.08871X0.12808*%
%ADD19C,0.03000*%
%ADD20C,0.00100*%
%ADD21C,0.00600*%
%ADD22C,0.07800*%
%ADD23R,0.05918X0.06706*%
%ADD24R,0.06706X0.05918*%
%ADD25R,0.05400X0.07100*%
%ADD26C,0.06800*%
%ADD27C,0.05800*%
%ADD28R,0.10052X0.05800*%
%ADD29R,0.10827X0.03346*%
%ADD30R,0.04100X0.07100*%
%ADD31R,0.05800X0.03300*%
%ADD32R,0.03595X0.06202*%
%ADD33R,0.07493X0.07493*%
%ADD34R,0.05052X0.04934*%
%ADD35R,0.04737X0.05131*%
%ADD36R,0.05131X0.04737*%
%ADD37R,0.18517X0.09658*%
%ADD38R,0.05918X0.07099*%
%ADD39R,0.03950X0.04737*%
D10*
X0013200Y0156000D03*
X0058200Y0321000D03*
X0163200Y0066000D03*
D11*
X0043200Y0048400D02*
X0043200Y0043600D01*
X0033200Y0043600D02*
X0033200Y0048400D01*
X0033200Y0318600D02*
X0033200Y0323400D01*
X0023200Y0323400D02*
X0023200Y0318600D01*
X0013200Y0318600D02*
X0013200Y0323400D01*
X0143200Y0323400D02*
X0143200Y0318600D01*
X0153200Y0318600D02*
X0153200Y0323400D01*
X0163200Y0323400D02*
X0163200Y0318600D01*
D12*
X0156539Y0042480D03*
X0156539Y0027520D03*
D13*
X0063200Y0021000D03*
X0053200Y0021000D03*
X0043200Y0021000D03*
X0033200Y0021000D03*
X0023200Y0021000D03*
X0013200Y0021000D03*
X0013200Y0236000D03*
X0013200Y0246000D03*
X0013200Y0256000D03*
X0013200Y0266000D03*
X0013200Y0276000D03*
X0013200Y0286000D03*
X0153200Y0286000D03*
X0153200Y0276000D03*
X0153200Y0266000D03*
X0153200Y0256000D03*
X0153200Y0246000D03*
X0153200Y0236000D03*
X0163200Y0236000D03*
X0163200Y0246000D03*
X0163200Y0256000D03*
X0163200Y0266000D03*
X0163200Y0276000D03*
X0163200Y0286000D03*
D14*
X0013200Y0011000D03*
X0023200Y0011000D03*
X0033200Y0011000D03*
X0043200Y0011000D03*
X0053200Y0011000D03*
X0063200Y0011000D03*
D15*
X0078200Y0153520D03*
X0078200Y0168480D03*
X0148200Y0168480D03*
X0148200Y0153520D03*
D16*
X0126153Y0156807D03*
X0124184Y0156807D03*
X0122216Y0156807D03*
X0120247Y0156807D03*
X0120247Y0145193D03*
X0122216Y0145193D03*
X0124184Y0145193D03*
X0126153Y0145193D03*
X0056153Y0145193D03*
X0054184Y0145193D03*
X0052216Y0145193D03*
X0050247Y0145193D03*
X0050247Y0156807D03*
X0052216Y0156807D03*
X0054184Y0156807D03*
X0056153Y0156807D03*
X0056153Y0094760D03*
X0050247Y0094760D03*
X0050247Y0077240D03*
X0056153Y0077240D03*
D17*
X0059991Y0079110D03*
X0059991Y0081079D03*
X0059991Y0083047D03*
X0059991Y0085016D03*
X0059991Y0086984D03*
X0059991Y0088953D03*
X0059991Y0090921D03*
X0059991Y0092890D03*
X0046409Y0092890D03*
X0046409Y0090921D03*
X0046409Y0088953D03*
X0046409Y0086984D03*
X0046409Y0085016D03*
X0046409Y0083047D03*
X0046409Y0081079D03*
X0046409Y0079110D03*
X0047393Y0148047D03*
X0047393Y0150016D03*
X0047393Y0151984D03*
X0047393Y0153953D03*
X0059007Y0153953D03*
X0059007Y0151984D03*
X0059007Y0150016D03*
X0059007Y0148047D03*
X0117393Y0148047D03*
X0117393Y0150016D03*
X0117393Y0151984D03*
X0117393Y0153953D03*
X0129007Y0153953D03*
X0129007Y0151984D03*
X0129007Y0150016D03*
X0129007Y0148047D03*
D18*
X0053200Y0086000D03*
D19*
X0051600Y0086000D03*
X0051600Y0082900D03*
X0054800Y0082900D03*
X0054800Y0086000D03*
X0054800Y0089100D03*
X0051600Y0089100D03*
X0051600Y0149400D03*
X0051600Y0152600D03*
X0054800Y0152600D03*
X0054800Y0149400D03*
X0121600Y0149400D03*
X0121600Y0152600D03*
X0124800Y0152600D03*
X0124800Y0149400D03*
D20*
X0125537Y0149432D02*
X0126796Y0149432D01*
X0126796Y0149334D02*
X0125537Y0149334D01*
X0125537Y0149235D02*
X0126796Y0149235D01*
X0126796Y0149137D02*
X0125537Y0149137D01*
X0125537Y0149038D02*
X0126796Y0149038D01*
X0126796Y0148940D02*
X0125537Y0148940D01*
X0125537Y0148841D02*
X0126796Y0148841D01*
X0126796Y0148743D02*
X0125537Y0148743D01*
X0125537Y0148644D02*
X0126796Y0148644D01*
X0119604Y0148644D01*
X0120863Y0148644D01*
X0120863Y0148546D02*
X0119604Y0148546D01*
X0126796Y0148546D01*
X0125537Y0148546D01*
X0125537Y0148447D02*
X0126796Y0148447D01*
X0119604Y0148447D01*
X0120863Y0148447D01*
X0120863Y0148349D02*
X0119604Y0148349D01*
X0126796Y0148349D01*
X0125537Y0148349D01*
X0125537Y0148250D02*
X0126796Y0148250D01*
X0119604Y0148250D01*
X0120863Y0148250D01*
X0120863Y0148152D02*
X0119604Y0148152D01*
X0126796Y0148152D01*
X0125537Y0148152D01*
X0125537Y0148053D02*
X0126796Y0148053D01*
X0119604Y0148053D01*
X0120863Y0148053D01*
X0120863Y0147955D02*
X0119604Y0147955D01*
X0126796Y0147955D01*
X0125537Y0147955D01*
X0125537Y0147856D02*
X0126796Y0147856D01*
X0119604Y0147856D01*
X0120863Y0147856D01*
X0120863Y0147758D02*
X0119604Y0147758D01*
X0126796Y0147758D01*
X0125537Y0147758D01*
X0125537Y0147659D02*
X0126796Y0147659D01*
X0119604Y0147659D01*
X0120863Y0147659D01*
X0120863Y0147561D02*
X0119604Y0147561D01*
X0126796Y0147561D01*
X0125537Y0147561D01*
X0125537Y0147462D02*
X0126796Y0147462D01*
X0119604Y0147462D01*
X0120863Y0147462D01*
X0120863Y0147404D02*
X0120863Y0154596D01*
X0119604Y0154596D01*
X0119604Y0147404D01*
X0120863Y0147404D01*
X0121072Y0147140D02*
X0119421Y0147140D01*
X0119421Y0143246D01*
X0121072Y0143246D01*
X0121072Y0147140D01*
X0121072Y0147068D02*
X0119421Y0147068D01*
X0119421Y0146970D02*
X0121072Y0146970D01*
X0121072Y0146871D02*
X0119421Y0146871D01*
X0119421Y0146773D02*
X0121072Y0146773D01*
X0121072Y0146674D02*
X0119421Y0146674D01*
X0119421Y0146576D02*
X0121072Y0146576D01*
X0121072Y0146477D02*
X0119421Y0146477D01*
X0119421Y0146379D02*
X0121072Y0146379D01*
X0121072Y0146280D02*
X0119421Y0146280D01*
X0119421Y0146182D02*
X0121072Y0146182D01*
X0121072Y0146083D02*
X0119421Y0146083D01*
X0119421Y0145985D02*
X0121072Y0145985D01*
X0121072Y0145886D02*
X0119421Y0145886D01*
X0119421Y0145788D02*
X0121072Y0145788D01*
X0121072Y0145689D02*
X0119421Y0145689D01*
X0119421Y0145591D02*
X0121072Y0145591D01*
X0121072Y0145492D02*
X0119421Y0145492D01*
X0119421Y0145394D02*
X0121072Y0145394D01*
X0121072Y0145295D02*
X0119421Y0145295D01*
X0119421Y0145196D02*
X0121072Y0145196D01*
X0121072Y0145098D02*
X0119421Y0145098D01*
X0119421Y0144999D02*
X0121072Y0144999D01*
X0121072Y0144901D02*
X0119421Y0144901D01*
X0119421Y0144802D02*
X0121072Y0144802D01*
X0121072Y0144704D02*
X0119421Y0144704D01*
X0119421Y0144605D02*
X0121072Y0144605D01*
X0121072Y0144507D02*
X0119421Y0144507D01*
X0119421Y0144408D02*
X0121072Y0144408D01*
X0121072Y0144310D02*
X0119421Y0144310D01*
X0119421Y0144211D02*
X0121072Y0144211D01*
X0121072Y0144113D02*
X0119421Y0144113D01*
X0119421Y0144014D02*
X0121072Y0144014D01*
X0121072Y0143916D02*
X0119421Y0143916D01*
X0119421Y0143817D02*
X0121072Y0143817D01*
X0121072Y0143719D02*
X0119421Y0143719D01*
X0119421Y0143620D02*
X0121072Y0143620D01*
X0121072Y0143522D02*
X0119421Y0143522D01*
X0119421Y0143423D02*
X0121072Y0143423D01*
X0121072Y0143325D02*
X0119421Y0143325D01*
X0121390Y0143325D02*
X0123041Y0143325D01*
X0123041Y0143246D02*
X0121390Y0143246D01*
X0121390Y0147140D01*
X0123041Y0147140D01*
X0123041Y0143246D01*
X0123041Y0143423D02*
X0121390Y0143423D01*
X0121390Y0143522D02*
X0123041Y0143522D01*
X0123041Y0143620D02*
X0121390Y0143620D01*
X0121390Y0143719D02*
X0123041Y0143719D01*
X0123041Y0143817D02*
X0121390Y0143817D01*
X0121390Y0143916D02*
X0123041Y0143916D01*
X0123041Y0144014D02*
X0121390Y0144014D01*
X0121390Y0144113D02*
X0123041Y0144113D01*
X0123041Y0144211D02*
X0121390Y0144211D01*
X0121390Y0144310D02*
X0123041Y0144310D01*
X0123041Y0144408D02*
X0121390Y0144408D01*
X0121390Y0144507D02*
X0123041Y0144507D01*
X0123041Y0144605D02*
X0121390Y0144605D01*
X0121390Y0144704D02*
X0123041Y0144704D01*
X0123041Y0144802D02*
X0121390Y0144802D01*
X0121390Y0144901D02*
X0123041Y0144901D01*
X0123041Y0144999D02*
X0121390Y0144999D01*
X0121390Y0145098D02*
X0123041Y0145098D01*
X0123041Y0145196D02*
X0121390Y0145196D01*
X0121390Y0145295D02*
X0123041Y0145295D01*
X0123041Y0145394D02*
X0121390Y0145394D01*
X0121390Y0145492D02*
X0123041Y0145492D01*
X0123041Y0145591D02*
X0121390Y0145591D01*
X0121390Y0145689D02*
X0123041Y0145689D01*
X0123041Y0145788D02*
X0121390Y0145788D01*
X0121390Y0145886D02*
X0123041Y0145886D01*
X0123041Y0145985D02*
X0121390Y0145985D01*
X0121390Y0146083D02*
X0123041Y0146083D01*
X0123041Y0146182D02*
X0121390Y0146182D01*
X0121390Y0146280D02*
X0123041Y0146280D01*
X0123041Y0146379D02*
X0121390Y0146379D01*
X0121390Y0146477D02*
X0123041Y0146477D01*
X0123041Y0146576D02*
X0121390Y0146576D01*
X0121390Y0146674D02*
X0123041Y0146674D01*
X0123041Y0146773D02*
X0121390Y0146773D01*
X0121390Y0146871D02*
X0123041Y0146871D01*
X0123041Y0146970D02*
X0121390Y0146970D01*
X0121390Y0147068D02*
X0123041Y0147068D01*
X0123359Y0147068D02*
X0125010Y0147068D01*
X0125010Y0147140D02*
X0123359Y0147140D01*
X0123359Y0143246D01*
X0125010Y0143246D01*
X0125010Y0147140D01*
X0125010Y0146970D02*
X0123359Y0146970D01*
X0123359Y0146871D02*
X0125010Y0146871D01*
X0125010Y0146773D02*
X0123359Y0146773D01*
X0123359Y0146674D02*
X0125010Y0146674D01*
X0125010Y0146576D02*
X0123359Y0146576D01*
X0123359Y0146477D02*
X0125010Y0146477D01*
X0125010Y0146379D02*
X0123359Y0146379D01*
X0123359Y0146280D02*
X0125010Y0146280D01*
X0125010Y0146182D02*
X0123359Y0146182D01*
X0123359Y0146083D02*
X0125010Y0146083D01*
X0125010Y0145985D02*
X0123359Y0145985D01*
X0123359Y0145886D02*
X0125010Y0145886D01*
X0125010Y0145788D02*
X0123359Y0145788D01*
X0123359Y0145689D02*
X0125010Y0145689D01*
X0125010Y0145591D02*
X0123359Y0145591D01*
X0123359Y0145492D02*
X0125010Y0145492D01*
X0125010Y0145394D02*
X0123359Y0145394D01*
X0123359Y0145295D02*
X0125010Y0145295D01*
X0125010Y0145196D02*
X0123359Y0145196D01*
X0123359Y0145098D02*
X0125010Y0145098D01*
X0125010Y0144999D02*
X0123359Y0144999D01*
X0123359Y0144901D02*
X0125010Y0144901D01*
X0125010Y0144802D02*
X0123359Y0144802D01*
X0123359Y0144704D02*
X0125010Y0144704D01*
X0125010Y0144605D02*
X0123359Y0144605D01*
X0123359Y0144507D02*
X0125010Y0144507D01*
X0125010Y0144408D02*
X0123359Y0144408D01*
X0123359Y0144310D02*
X0125010Y0144310D01*
X0125010Y0144211D02*
X0123359Y0144211D01*
X0123359Y0144113D02*
X0125010Y0144113D01*
X0125010Y0144014D02*
X0123359Y0144014D01*
X0123359Y0143916D02*
X0125010Y0143916D01*
X0125010Y0143817D02*
X0123359Y0143817D01*
X0123359Y0143719D02*
X0125010Y0143719D01*
X0125010Y0143620D02*
X0123359Y0143620D01*
X0123359Y0143522D02*
X0125010Y0143522D01*
X0125010Y0143423D02*
X0123359Y0143423D01*
X0123359Y0143325D02*
X0125010Y0143325D01*
X0125328Y0143325D02*
X0126979Y0143325D01*
X0126979Y0143246D02*
X0125328Y0143246D01*
X0125328Y0147140D01*
X0126979Y0147140D01*
X0126979Y0143246D01*
X0126979Y0143423D02*
X0125328Y0143423D01*
X0125328Y0143522D02*
X0126979Y0143522D01*
X0126979Y0143620D02*
X0125328Y0143620D01*
X0125328Y0143719D02*
X0126979Y0143719D01*
X0126979Y0143817D02*
X0125328Y0143817D01*
X0125328Y0143916D02*
X0126979Y0143916D01*
X0126979Y0144014D02*
X0125328Y0144014D01*
X0125328Y0144113D02*
X0126979Y0144113D01*
X0126979Y0144211D02*
X0125328Y0144211D01*
X0125328Y0144310D02*
X0126979Y0144310D01*
X0126979Y0144408D02*
X0125328Y0144408D01*
X0125328Y0144507D02*
X0126979Y0144507D01*
X0126979Y0144605D02*
X0125328Y0144605D01*
X0125328Y0144704D02*
X0126979Y0144704D01*
X0126979Y0144802D02*
X0125328Y0144802D01*
X0125328Y0144901D02*
X0126979Y0144901D01*
X0126979Y0144999D02*
X0125328Y0144999D01*
X0125328Y0145098D02*
X0126979Y0145098D01*
X0126979Y0145196D02*
X0125328Y0145196D01*
X0125328Y0145295D02*
X0126979Y0145295D01*
X0126979Y0145394D02*
X0125328Y0145394D01*
X0125328Y0145492D02*
X0126979Y0145492D01*
X0126979Y0145591D02*
X0125328Y0145591D01*
X0125328Y0145689D02*
X0126979Y0145689D01*
X0126979Y0145788D02*
X0125328Y0145788D01*
X0125328Y0145886D02*
X0126979Y0145886D01*
X0126979Y0145985D02*
X0125328Y0145985D01*
X0125328Y0146083D02*
X0126979Y0146083D01*
X0126979Y0146182D02*
X0125328Y0146182D01*
X0125328Y0146280D02*
X0126979Y0146280D01*
X0126979Y0146379D02*
X0125328Y0146379D01*
X0125328Y0146477D02*
X0126979Y0146477D01*
X0126979Y0146576D02*
X0125328Y0146576D01*
X0125328Y0146674D02*
X0126979Y0146674D01*
X0126979Y0146773D02*
X0125328Y0146773D01*
X0125328Y0146871D02*
X0126979Y0146871D01*
X0126979Y0146970D02*
X0125328Y0146970D01*
X0125328Y0147068D02*
X0126979Y0147068D01*
X0127060Y0147222D02*
X0127060Y0148872D01*
X0130954Y0148872D01*
X0130954Y0147222D01*
X0127060Y0147222D01*
X0127060Y0147265D02*
X0130954Y0147265D01*
X0130954Y0147364D02*
X0127060Y0147364D01*
X0127060Y0147462D02*
X0130954Y0147462D01*
X0130954Y0147561D02*
X0127060Y0147561D01*
X0127060Y0147659D02*
X0130954Y0147659D01*
X0130954Y0147758D02*
X0127060Y0147758D01*
X0127060Y0147856D02*
X0130954Y0147856D01*
X0130954Y0147955D02*
X0127060Y0147955D01*
X0127060Y0148053D02*
X0130954Y0148053D01*
X0130954Y0148152D02*
X0127060Y0148152D01*
X0127060Y0148250D02*
X0130954Y0148250D01*
X0130954Y0148349D02*
X0127060Y0148349D01*
X0127060Y0148447D02*
X0130954Y0148447D01*
X0130954Y0148546D02*
X0127060Y0148546D01*
X0127060Y0148644D02*
X0130954Y0148644D01*
X0130954Y0148743D02*
X0127060Y0148743D01*
X0127060Y0148841D02*
X0130954Y0148841D01*
X0130954Y0149191D02*
X0127060Y0149191D01*
X0127060Y0150841D01*
X0130954Y0150841D01*
X0130954Y0149191D01*
X0130954Y0149235D02*
X0127060Y0149235D01*
X0127060Y0149334D02*
X0130954Y0149334D01*
X0130954Y0149432D02*
X0127060Y0149432D01*
X0127060Y0149531D02*
X0130954Y0149531D01*
X0130954Y0149630D02*
X0127060Y0149630D01*
X0127060Y0149728D02*
X0130954Y0149728D01*
X0130954Y0149827D02*
X0127060Y0149827D01*
X0127060Y0149925D02*
X0130954Y0149925D01*
X0130954Y0150024D02*
X0127060Y0150024D01*
X0127060Y0150122D02*
X0130954Y0150122D01*
X0130954Y0150221D02*
X0127060Y0150221D01*
X0127060Y0150319D02*
X0130954Y0150319D01*
X0130954Y0150418D02*
X0127060Y0150418D01*
X0127060Y0150516D02*
X0130954Y0150516D01*
X0130954Y0150615D02*
X0127060Y0150615D01*
X0127060Y0150713D02*
X0130954Y0150713D01*
X0130954Y0150812D02*
X0127060Y0150812D01*
X0126796Y0150812D02*
X0125537Y0150812D01*
X0125537Y0150910D02*
X0126796Y0150910D01*
X0119604Y0150910D01*
X0120863Y0150910D01*
X0120863Y0150812D02*
X0119604Y0150812D01*
X0126796Y0150812D01*
X0126796Y0150713D02*
X0125537Y0150713D01*
X0125537Y0150615D02*
X0126796Y0150615D01*
X0119604Y0150615D01*
X0120863Y0150615D01*
X0120863Y0150713D02*
X0119604Y0150713D01*
X0126796Y0150713D01*
X0126796Y0150516D02*
X0125537Y0150516D01*
X0125537Y0150418D02*
X0126796Y0150418D01*
X0119604Y0150418D01*
X0120863Y0150418D01*
X0120863Y0150516D02*
X0119604Y0150516D01*
X0126796Y0150516D01*
X0126796Y0150319D02*
X0125537Y0150319D01*
X0125537Y0150221D02*
X0126796Y0150221D01*
X0126796Y0150237D02*
X0126796Y0151763D01*
X0119604Y0151763D01*
X0119604Y0150237D01*
X0126796Y0150237D01*
X0126796Y0150319D02*
X0119604Y0150319D01*
X0120863Y0150319D01*
X0120863Y0150221D02*
X0119604Y0150221D01*
X0119604Y0150122D02*
X0120863Y0150122D01*
X0120863Y0150024D02*
X0119604Y0150024D01*
X0119604Y0149925D02*
X0120863Y0149925D01*
X0120863Y0149827D02*
X0119604Y0149827D01*
X0119604Y0149728D02*
X0120863Y0149728D01*
X0120863Y0149630D02*
X0119604Y0149630D01*
X0119604Y0149531D02*
X0120863Y0149531D01*
X0120863Y0149432D02*
X0119604Y0149432D01*
X0119604Y0149334D02*
X0120863Y0149334D01*
X0120863Y0149235D02*
X0119604Y0149235D01*
X0119604Y0149137D02*
X0120863Y0149137D01*
X0120863Y0149038D02*
X0119604Y0149038D01*
X0119604Y0148940D02*
X0120863Y0148940D01*
X0120863Y0148841D02*
X0119604Y0148841D01*
X0119604Y0148743D02*
X0120863Y0148743D01*
X0119604Y0148663D02*
X0119604Y0147404D01*
X0126796Y0147404D01*
X0126796Y0154596D01*
X0125537Y0154596D01*
X0125537Y0147404D01*
X0126796Y0147404D01*
X0126796Y0148663D01*
X0119604Y0148663D01*
X0119340Y0148644D02*
X0115446Y0148644D01*
X0115446Y0148546D02*
X0119340Y0148546D01*
X0119340Y0148447D02*
X0115446Y0148447D01*
X0115446Y0148349D02*
X0119340Y0148349D01*
X0119340Y0148250D02*
X0115446Y0148250D01*
X0115446Y0148152D02*
X0119340Y0148152D01*
X0119340Y0148053D02*
X0115446Y0148053D01*
X0115446Y0147955D02*
X0119340Y0147955D01*
X0119340Y0147856D02*
X0115446Y0147856D01*
X0115446Y0147758D02*
X0119340Y0147758D01*
X0119340Y0147659D02*
X0115446Y0147659D01*
X0115446Y0147561D02*
X0119340Y0147561D01*
X0119340Y0147462D02*
X0115446Y0147462D01*
X0115446Y0147364D02*
X0119340Y0147364D01*
X0119340Y0147265D02*
X0115446Y0147265D01*
X0115446Y0147222D02*
X0115446Y0148872D01*
X0119340Y0148872D01*
X0119340Y0147222D01*
X0115446Y0147222D01*
X0115446Y0148743D02*
X0119340Y0148743D01*
X0119340Y0148841D02*
X0115446Y0148841D01*
X0115446Y0149191D02*
X0115446Y0150841D01*
X0119340Y0150841D01*
X0119340Y0149191D01*
X0115446Y0149191D01*
X0115446Y0149235D02*
X0119340Y0149235D01*
X0119340Y0149334D02*
X0115446Y0149334D01*
X0115446Y0149432D02*
X0119340Y0149432D01*
X0119340Y0149531D02*
X0115446Y0149531D01*
X0115446Y0149630D02*
X0119340Y0149630D01*
X0119340Y0149728D02*
X0115446Y0149728D01*
X0115446Y0149827D02*
X0119340Y0149827D01*
X0119340Y0149925D02*
X0115446Y0149925D01*
X0115446Y0150024D02*
X0119340Y0150024D01*
X0119340Y0150122D02*
X0115446Y0150122D01*
X0115446Y0150221D02*
X0119340Y0150221D01*
X0119340Y0150319D02*
X0115446Y0150319D01*
X0115446Y0150418D02*
X0119340Y0150418D01*
X0119340Y0150516D02*
X0115446Y0150516D01*
X0115446Y0150615D02*
X0119340Y0150615D01*
X0119340Y0150713D02*
X0115446Y0150713D01*
X0115446Y0150812D02*
X0119340Y0150812D01*
X0119604Y0151009D02*
X0120863Y0151009D01*
X0120863Y0151107D02*
X0119604Y0151107D01*
X0126796Y0151107D01*
X0125537Y0151107D01*
X0125537Y0151009D02*
X0126796Y0151009D01*
X0119604Y0151009D01*
X0119604Y0151206D02*
X0120863Y0151206D01*
X0120863Y0151304D02*
X0119604Y0151304D01*
X0126796Y0151304D01*
X0125537Y0151304D01*
X0125537Y0151206D02*
X0126796Y0151206D01*
X0119604Y0151206D01*
X0119604Y0151403D02*
X0120863Y0151403D01*
X0120863Y0151501D02*
X0119604Y0151501D01*
X0126796Y0151501D01*
X0125537Y0151501D01*
X0125537Y0151403D02*
X0126796Y0151403D01*
X0119604Y0151403D01*
X0119604Y0151600D02*
X0120863Y0151600D01*
X0120863Y0151698D02*
X0119604Y0151698D01*
X0126796Y0151698D01*
X0125537Y0151698D01*
X0125537Y0151600D02*
X0126796Y0151600D01*
X0119604Y0151600D01*
X0119604Y0151797D02*
X0120863Y0151797D01*
X0120863Y0151895D02*
X0119604Y0151895D01*
X0119604Y0151994D02*
X0120863Y0151994D01*
X0120863Y0152092D02*
X0119604Y0152092D01*
X0119604Y0152191D02*
X0120863Y0152191D01*
X0120863Y0152289D02*
X0119604Y0152289D01*
X0119604Y0152388D02*
X0120863Y0152388D01*
X0120863Y0152486D02*
X0119604Y0152486D01*
X0119604Y0152585D02*
X0120863Y0152585D01*
X0120863Y0152683D02*
X0119604Y0152683D01*
X0119604Y0152782D02*
X0120863Y0152782D01*
X0120863Y0152880D02*
X0119604Y0152880D01*
X0119604Y0152979D02*
X0120863Y0152979D01*
X0120863Y0153077D02*
X0119604Y0153077D01*
X0119604Y0153176D02*
X0120863Y0153176D01*
X0120863Y0153274D02*
X0119604Y0153274D01*
X0119604Y0153337D02*
X0126796Y0153337D01*
X0126796Y0154596D01*
X0119604Y0154596D01*
X0119604Y0153337D01*
X0119604Y0153373D02*
X0120863Y0153373D01*
X0120863Y0153471D02*
X0119604Y0153471D01*
X0126796Y0153471D01*
X0125537Y0153471D01*
X0125537Y0153373D02*
X0126796Y0153373D01*
X0119604Y0153373D01*
X0119604Y0153570D02*
X0120863Y0153570D01*
X0120863Y0153668D02*
X0119604Y0153668D01*
X0126796Y0153668D01*
X0125537Y0153668D01*
X0125537Y0153570D02*
X0126796Y0153570D01*
X0119604Y0153570D01*
X0119604Y0153767D02*
X0120863Y0153767D01*
X0120863Y0153865D02*
X0119604Y0153865D01*
X0126796Y0153865D01*
X0125537Y0153865D01*
X0125537Y0153767D02*
X0126796Y0153767D01*
X0119604Y0153767D01*
X0119604Y0153964D02*
X0120863Y0153964D01*
X0120863Y0154063D02*
X0119604Y0154063D01*
X0126796Y0154063D01*
X0125537Y0154063D01*
X0125537Y0154161D02*
X0126796Y0154161D01*
X0119604Y0154161D01*
X0120863Y0154161D01*
X0120863Y0154260D02*
X0119604Y0154260D01*
X0126796Y0154260D01*
X0125537Y0154260D01*
X0125537Y0154358D02*
X0126796Y0154358D01*
X0119604Y0154358D01*
X0120863Y0154358D01*
X0120863Y0154457D02*
X0119604Y0154457D01*
X0126796Y0154457D01*
X0125537Y0154457D01*
X0125537Y0154555D02*
X0126796Y0154555D01*
X0119604Y0154555D01*
X0120863Y0154555D01*
X0121072Y0154860D02*
X0119421Y0154860D01*
X0119421Y0158754D01*
X0121072Y0158754D01*
X0121072Y0154860D01*
X0121072Y0154949D02*
X0119421Y0154949D01*
X0119421Y0155048D02*
X0121072Y0155048D01*
X0121072Y0155146D02*
X0119421Y0155146D01*
X0119421Y0155245D02*
X0121072Y0155245D01*
X0121072Y0155343D02*
X0119421Y0155343D01*
X0119421Y0155442D02*
X0121072Y0155442D01*
X0121072Y0155540D02*
X0119421Y0155540D01*
X0119421Y0155639D02*
X0121072Y0155639D01*
X0121072Y0155737D02*
X0119421Y0155737D01*
X0119421Y0155836D02*
X0121072Y0155836D01*
X0121072Y0155934D02*
X0119421Y0155934D01*
X0119421Y0156033D02*
X0121072Y0156033D01*
X0121072Y0156131D02*
X0119421Y0156131D01*
X0119421Y0156230D02*
X0121072Y0156230D01*
X0121072Y0156328D02*
X0119421Y0156328D01*
X0119421Y0156427D02*
X0121072Y0156427D01*
X0121072Y0156525D02*
X0119421Y0156525D01*
X0119421Y0156624D02*
X0121072Y0156624D01*
X0121072Y0156722D02*
X0119421Y0156722D01*
X0119421Y0156821D02*
X0121072Y0156821D01*
X0121072Y0156919D02*
X0119421Y0156919D01*
X0119421Y0157018D02*
X0121072Y0157018D01*
X0121072Y0157116D02*
X0119421Y0157116D01*
X0119421Y0157215D02*
X0121072Y0157215D01*
X0121072Y0157313D02*
X0119421Y0157313D01*
X0119421Y0157412D02*
X0121072Y0157412D01*
X0121072Y0157510D02*
X0119421Y0157510D01*
X0119421Y0157609D02*
X0121072Y0157609D01*
X0121072Y0157707D02*
X0119421Y0157707D01*
X0119421Y0157806D02*
X0121072Y0157806D01*
X0121072Y0157904D02*
X0119421Y0157904D01*
X0119421Y0158003D02*
X0121072Y0158003D01*
X0121072Y0158101D02*
X0119421Y0158101D01*
X0119421Y0158200D02*
X0121072Y0158200D01*
X0121072Y0158298D02*
X0119421Y0158298D01*
X0119421Y0158397D02*
X0121072Y0158397D01*
X0121072Y0158496D02*
X0119421Y0158496D01*
X0119421Y0158594D02*
X0121072Y0158594D01*
X0121072Y0158693D02*
X0119421Y0158693D01*
X0121390Y0158693D02*
X0123041Y0158693D01*
X0123041Y0158754D02*
X0121390Y0158754D01*
X0121390Y0154860D01*
X0123041Y0154860D01*
X0123041Y0158754D01*
X0123041Y0158594D02*
X0121390Y0158594D01*
X0121390Y0158496D02*
X0123041Y0158496D01*
X0123041Y0158397D02*
X0121390Y0158397D01*
X0121390Y0158298D02*
X0123041Y0158298D01*
X0123041Y0158200D02*
X0121390Y0158200D01*
X0121390Y0158101D02*
X0123041Y0158101D01*
X0123041Y0158003D02*
X0121390Y0158003D01*
X0121390Y0157904D02*
X0123041Y0157904D01*
X0123041Y0157806D02*
X0121390Y0157806D01*
X0121390Y0157707D02*
X0123041Y0157707D01*
X0123041Y0157609D02*
X0121390Y0157609D01*
X0121390Y0157510D02*
X0123041Y0157510D01*
X0123041Y0157412D02*
X0121390Y0157412D01*
X0121390Y0157313D02*
X0123041Y0157313D01*
X0123041Y0157215D02*
X0121390Y0157215D01*
X0121390Y0157116D02*
X0123041Y0157116D01*
X0123041Y0157018D02*
X0121390Y0157018D01*
X0121390Y0156919D02*
X0123041Y0156919D01*
X0123041Y0156821D02*
X0121390Y0156821D01*
X0121390Y0156722D02*
X0123041Y0156722D01*
X0123041Y0156624D02*
X0121390Y0156624D01*
X0121390Y0156525D02*
X0123041Y0156525D01*
X0123041Y0156427D02*
X0121390Y0156427D01*
X0121390Y0156328D02*
X0123041Y0156328D01*
X0123041Y0156230D02*
X0121390Y0156230D01*
X0121390Y0156131D02*
X0123041Y0156131D01*
X0123041Y0156033D02*
X0121390Y0156033D01*
X0121390Y0155934D02*
X0123041Y0155934D01*
X0123041Y0155836D02*
X0121390Y0155836D01*
X0121390Y0155737D02*
X0123041Y0155737D01*
X0123041Y0155639D02*
X0121390Y0155639D01*
X0121390Y0155540D02*
X0123041Y0155540D01*
X0123041Y0155442D02*
X0121390Y0155442D01*
X0121390Y0155343D02*
X0123041Y0155343D01*
X0123041Y0155245D02*
X0121390Y0155245D01*
X0121390Y0155146D02*
X0123041Y0155146D01*
X0123041Y0155048D02*
X0121390Y0155048D01*
X0121390Y0154949D02*
X0123041Y0154949D01*
X0123359Y0154949D02*
X0125010Y0154949D01*
X0125010Y0154860D02*
X0123359Y0154860D01*
X0123359Y0158754D01*
X0125010Y0158754D01*
X0125010Y0154860D01*
X0125010Y0155048D02*
X0123359Y0155048D01*
X0123359Y0155146D02*
X0125010Y0155146D01*
X0125010Y0155245D02*
X0123359Y0155245D01*
X0123359Y0155343D02*
X0125010Y0155343D01*
X0125010Y0155442D02*
X0123359Y0155442D01*
X0123359Y0155540D02*
X0125010Y0155540D01*
X0125010Y0155639D02*
X0123359Y0155639D01*
X0123359Y0155737D02*
X0125010Y0155737D01*
X0125010Y0155836D02*
X0123359Y0155836D01*
X0123359Y0155934D02*
X0125010Y0155934D01*
X0125010Y0156033D02*
X0123359Y0156033D01*
X0123359Y0156131D02*
X0125010Y0156131D01*
X0125010Y0156230D02*
X0123359Y0156230D01*
X0123359Y0156328D02*
X0125010Y0156328D01*
X0125010Y0156427D02*
X0123359Y0156427D01*
X0123359Y0156525D02*
X0125010Y0156525D01*
X0125010Y0156624D02*
X0123359Y0156624D01*
X0123359Y0156722D02*
X0125010Y0156722D01*
X0125010Y0156821D02*
X0123359Y0156821D01*
X0123359Y0156919D02*
X0125010Y0156919D01*
X0125010Y0157018D02*
X0123359Y0157018D01*
X0123359Y0157116D02*
X0125010Y0157116D01*
X0125010Y0157215D02*
X0123359Y0157215D01*
X0123359Y0157313D02*
X0125010Y0157313D01*
X0125010Y0157412D02*
X0123359Y0157412D01*
X0123359Y0157510D02*
X0125010Y0157510D01*
X0125010Y0157609D02*
X0123359Y0157609D01*
X0123359Y0157707D02*
X0125010Y0157707D01*
X0125010Y0157806D02*
X0123359Y0157806D01*
X0123359Y0157904D02*
X0125010Y0157904D01*
X0125010Y0158003D02*
X0123359Y0158003D01*
X0123359Y0158101D02*
X0125010Y0158101D01*
X0125010Y0158200D02*
X0123359Y0158200D01*
X0123359Y0158298D02*
X0125010Y0158298D01*
X0125010Y0158397D02*
X0123359Y0158397D01*
X0123359Y0158496D02*
X0125010Y0158496D01*
X0125010Y0158594D02*
X0123359Y0158594D01*
X0123359Y0158693D02*
X0125010Y0158693D01*
X0125328Y0158693D02*
X0126979Y0158693D01*
X0126979Y0158754D02*
X0125328Y0158754D01*
X0125328Y0154860D01*
X0126979Y0154860D01*
X0126979Y0158754D01*
X0126979Y0158594D02*
X0125328Y0158594D01*
X0125328Y0158496D02*
X0126979Y0158496D01*
X0126979Y0158397D02*
X0125328Y0158397D01*
X0125328Y0158298D02*
X0126979Y0158298D01*
X0126979Y0158200D02*
X0125328Y0158200D01*
X0125328Y0158101D02*
X0126979Y0158101D01*
X0126979Y0158003D02*
X0125328Y0158003D01*
X0125328Y0157904D02*
X0126979Y0157904D01*
X0126979Y0157806D02*
X0125328Y0157806D01*
X0125328Y0157707D02*
X0126979Y0157707D01*
X0126979Y0157609D02*
X0125328Y0157609D01*
X0125328Y0157510D02*
X0126979Y0157510D01*
X0126979Y0157412D02*
X0125328Y0157412D01*
X0125328Y0157313D02*
X0126979Y0157313D01*
X0126979Y0157215D02*
X0125328Y0157215D01*
X0125328Y0157116D02*
X0126979Y0157116D01*
X0126979Y0157018D02*
X0125328Y0157018D01*
X0125328Y0156919D02*
X0126979Y0156919D01*
X0126979Y0156821D02*
X0125328Y0156821D01*
X0125328Y0156722D02*
X0126979Y0156722D01*
X0126979Y0156624D02*
X0125328Y0156624D01*
X0125328Y0156525D02*
X0126979Y0156525D01*
X0126979Y0156427D02*
X0125328Y0156427D01*
X0125328Y0156328D02*
X0126979Y0156328D01*
X0126979Y0156230D02*
X0125328Y0156230D01*
X0125328Y0156131D02*
X0126979Y0156131D01*
X0126979Y0156033D02*
X0125328Y0156033D01*
X0125328Y0155934D02*
X0126979Y0155934D01*
X0126979Y0155836D02*
X0125328Y0155836D01*
X0125328Y0155737D02*
X0126979Y0155737D01*
X0126979Y0155639D02*
X0125328Y0155639D01*
X0125328Y0155540D02*
X0126979Y0155540D01*
X0126979Y0155442D02*
X0125328Y0155442D01*
X0125328Y0155343D02*
X0126979Y0155343D01*
X0126979Y0155245D02*
X0125328Y0155245D01*
X0125328Y0155146D02*
X0126979Y0155146D01*
X0126979Y0155048D02*
X0125328Y0155048D01*
X0125328Y0154949D02*
X0126979Y0154949D01*
X0127060Y0154778D02*
X0130954Y0154778D01*
X0130954Y0153128D01*
X0127060Y0153128D01*
X0127060Y0154778D01*
X0127060Y0154752D02*
X0130954Y0154752D01*
X0130954Y0154654D02*
X0127060Y0154654D01*
X0127060Y0154555D02*
X0130954Y0154555D01*
X0130954Y0154457D02*
X0127060Y0154457D01*
X0127060Y0154358D02*
X0130954Y0154358D01*
X0130954Y0154260D02*
X0127060Y0154260D01*
X0127060Y0154161D02*
X0130954Y0154161D01*
X0130954Y0154063D02*
X0127060Y0154063D01*
X0127060Y0153964D02*
X0130954Y0153964D01*
X0130954Y0153865D02*
X0127060Y0153865D01*
X0127060Y0153767D02*
X0130954Y0153767D01*
X0130954Y0153668D02*
X0127060Y0153668D01*
X0127060Y0153570D02*
X0130954Y0153570D01*
X0130954Y0153471D02*
X0127060Y0153471D01*
X0127060Y0153373D02*
X0130954Y0153373D01*
X0130954Y0153274D02*
X0127060Y0153274D01*
X0127060Y0153176D02*
X0130954Y0153176D01*
X0130954Y0152809D02*
X0127060Y0152809D01*
X0127060Y0151159D01*
X0130954Y0151159D01*
X0130954Y0152809D01*
X0130954Y0152782D02*
X0127060Y0152782D01*
X0127060Y0152683D02*
X0130954Y0152683D01*
X0130954Y0152585D02*
X0127060Y0152585D01*
X0127060Y0152486D02*
X0130954Y0152486D01*
X0130954Y0152388D02*
X0127060Y0152388D01*
X0127060Y0152289D02*
X0130954Y0152289D01*
X0130954Y0152191D02*
X0127060Y0152191D01*
X0127060Y0152092D02*
X0130954Y0152092D01*
X0130954Y0151994D02*
X0127060Y0151994D01*
X0127060Y0151895D02*
X0130954Y0151895D01*
X0130954Y0151797D02*
X0127060Y0151797D01*
X0127060Y0151698D02*
X0130954Y0151698D01*
X0130954Y0151600D02*
X0127060Y0151600D01*
X0127060Y0151501D02*
X0130954Y0151501D01*
X0130954Y0151403D02*
X0127060Y0151403D01*
X0127060Y0151304D02*
X0130954Y0151304D01*
X0130954Y0151206D02*
X0127060Y0151206D01*
X0126796Y0151797D02*
X0125537Y0151797D01*
X0125537Y0151895D02*
X0126796Y0151895D01*
X0126796Y0151994D02*
X0125537Y0151994D01*
X0125537Y0152092D02*
X0126796Y0152092D01*
X0126796Y0152191D02*
X0125537Y0152191D01*
X0125537Y0152289D02*
X0126796Y0152289D01*
X0126796Y0152388D02*
X0125537Y0152388D01*
X0125537Y0152486D02*
X0126796Y0152486D01*
X0126796Y0152585D02*
X0125537Y0152585D01*
X0125537Y0152683D02*
X0126796Y0152683D01*
X0126796Y0152782D02*
X0125537Y0152782D01*
X0125537Y0152880D02*
X0126796Y0152880D01*
X0126796Y0152979D02*
X0125537Y0152979D01*
X0125537Y0153077D02*
X0126796Y0153077D01*
X0126796Y0153176D02*
X0125537Y0153176D01*
X0125537Y0153274D02*
X0126796Y0153274D01*
X0126796Y0153964D02*
X0125537Y0153964D01*
X0126796Y0153964D02*
X0119604Y0153964D01*
X0119340Y0153964D02*
X0115446Y0153964D01*
X0115446Y0154063D02*
X0119340Y0154063D01*
X0119340Y0154161D02*
X0115446Y0154161D01*
X0115446Y0154260D02*
X0119340Y0154260D01*
X0119340Y0154358D02*
X0115446Y0154358D01*
X0115446Y0154457D02*
X0119340Y0154457D01*
X0119340Y0154555D02*
X0115446Y0154555D01*
X0115446Y0154654D02*
X0119340Y0154654D01*
X0119340Y0154752D02*
X0115446Y0154752D01*
X0115446Y0154778D02*
X0119340Y0154778D01*
X0119340Y0153128D01*
X0115446Y0153128D01*
X0115446Y0154778D01*
X0115446Y0153865D02*
X0119340Y0153865D01*
X0119340Y0153767D02*
X0115446Y0153767D01*
X0115446Y0153668D02*
X0119340Y0153668D01*
X0119340Y0153570D02*
X0115446Y0153570D01*
X0115446Y0153471D02*
X0119340Y0153471D01*
X0119340Y0153373D02*
X0115446Y0153373D01*
X0115446Y0153274D02*
X0119340Y0153274D01*
X0119340Y0153176D02*
X0115446Y0153176D01*
X0115446Y0152809D02*
X0119340Y0152809D01*
X0119340Y0151159D01*
X0115446Y0151159D01*
X0115446Y0152809D01*
X0115446Y0152782D02*
X0119340Y0152782D01*
X0119340Y0152683D02*
X0115446Y0152683D01*
X0115446Y0152585D02*
X0119340Y0152585D01*
X0119340Y0152486D02*
X0115446Y0152486D01*
X0115446Y0152388D02*
X0119340Y0152388D01*
X0119340Y0152289D02*
X0115446Y0152289D01*
X0115446Y0152191D02*
X0119340Y0152191D01*
X0119340Y0152092D02*
X0115446Y0152092D01*
X0115446Y0151994D02*
X0119340Y0151994D01*
X0119340Y0151895D02*
X0115446Y0151895D01*
X0115446Y0151797D02*
X0119340Y0151797D01*
X0119340Y0151698D02*
X0115446Y0151698D01*
X0115446Y0151600D02*
X0119340Y0151600D01*
X0119340Y0151501D02*
X0115446Y0151501D01*
X0115446Y0151403D02*
X0119340Y0151403D01*
X0119340Y0151304D02*
X0115446Y0151304D01*
X0115446Y0151206D02*
X0119340Y0151206D01*
X0122437Y0151206D02*
X0123963Y0151206D01*
X0123963Y0151304D02*
X0122437Y0151304D01*
X0122437Y0151403D02*
X0123963Y0151403D01*
X0123963Y0151501D02*
X0122437Y0151501D01*
X0122437Y0151600D02*
X0123963Y0151600D01*
X0123963Y0151698D02*
X0122437Y0151698D01*
X0122437Y0151797D02*
X0123963Y0151797D01*
X0123963Y0151895D02*
X0122437Y0151895D01*
X0122437Y0151994D02*
X0123963Y0151994D01*
X0123963Y0152092D02*
X0122437Y0152092D01*
X0122437Y0152191D02*
X0123963Y0152191D01*
X0123963Y0152289D02*
X0122437Y0152289D01*
X0122437Y0152388D02*
X0123963Y0152388D01*
X0123963Y0152486D02*
X0122437Y0152486D01*
X0122437Y0152585D02*
X0123963Y0152585D01*
X0123963Y0152683D02*
X0122437Y0152683D01*
X0122437Y0152782D02*
X0123963Y0152782D01*
X0123963Y0152880D02*
X0122437Y0152880D01*
X0122437Y0152979D02*
X0123963Y0152979D01*
X0123963Y0153077D02*
X0122437Y0153077D01*
X0122437Y0153176D02*
X0123963Y0153176D01*
X0123963Y0153274D02*
X0122437Y0153274D01*
X0122437Y0153373D02*
X0123963Y0153373D01*
X0123963Y0153471D02*
X0122437Y0153471D01*
X0122437Y0153570D02*
X0123963Y0153570D01*
X0123963Y0153668D02*
X0122437Y0153668D01*
X0122437Y0153767D02*
X0123963Y0153767D01*
X0123963Y0153865D02*
X0122437Y0153865D01*
X0122437Y0153964D02*
X0123963Y0153964D01*
X0123963Y0154063D02*
X0122437Y0154063D01*
X0122437Y0154161D02*
X0123963Y0154161D01*
X0123963Y0154260D02*
X0122437Y0154260D01*
X0122437Y0154358D02*
X0123963Y0154358D01*
X0123963Y0154457D02*
X0122437Y0154457D01*
X0122437Y0154555D02*
X0123963Y0154555D01*
X0123963Y0154596D02*
X0123963Y0147404D01*
X0122437Y0147404D01*
X0122437Y0154596D01*
X0123963Y0154596D01*
X0123963Y0151107D02*
X0122437Y0151107D01*
X0122437Y0151009D02*
X0123963Y0151009D01*
X0123963Y0150910D02*
X0122437Y0150910D01*
X0122437Y0150812D02*
X0123963Y0150812D01*
X0123963Y0150713D02*
X0122437Y0150713D01*
X0122437Y0150615D02*
X0123963Y0150615D01*
X0123963Y0150516D02*
X0122437Y0150516D01*
X0122437Y0150418D02*
X0123963Y0150418D01*
X0123963Y0150319D02*
X0122437Y0150319D01*
X0122437Y0150221D02*
X0123963Y0150221D01*
X0123963Y0150122D02*
X0122437Y0150122D01*
X0122437Y0150024D02*
X0123963Y0150024D01*
X0123963Y0149925D02*
X0122437Y0149925D01*
X0122437Y0149827D02*
X0123963Y0149827D01*
X0123963Y0149728D02*
X0122437Y0149728D01*
X0122437Y0149630D02*
X0123963Y0149630D01*
X0123963Y0149531D02*
X0122437Y0149531D01*
X0122437Y0149432D02*
X0123963Y0149432D01*
X0123963Y0149334D02*
X0122437Y0149334D01*
X0122437Y0149235D02*
X0123963Y0149235D01*
X0123963Y0149137D02*
X0122437Y0149137D01*
X0122437Y0149038D02*
X0123963Y0149038D01*
X0123963Y0148940D02*
X0122437Y0148940D01*
X0122437Y0148841D02*
X0123963Y0148841D01*
X0123963Y0148743D02*
X0122437Y0148743D01*
X0122437Y0148644D02*
X0123963Y0148644D01*
X0123963Y0148546D02*
X0122437Y0148546D01*
X0122437Y0148447D02*
X0123963Y0148447D01*
X0123963Y0148349D02*
X0122437Y0148349D01*
X0122437Y0148250D02*
X0123963Y0148250D01*
X0123963Y0148152D02*
X0122437Y0148152D01*
X0122437Y0148053D02*
X0123963Y0148053D01*
X0123963Y0147955D02*
X0122437Y0147955D01*
X0122437Y0147856D02*
X0123963Y0147856D01*
X0123963Y0147758D02*
X0122437Y0147758D01*
X0122437Y0147659D02*
X0123963Y0147659D01*
X0123963Y0147561D02*
X0122437Y0147561D01*
X0122437Y0147462D02*
X0123963Y0147462D01*
X0125537Y0149531D02*
X0126796Y0149531D01*
X0126796Y0149630D02*
X0125537Y0149630D01*
X0125537Y0149728D02*
X0126796Y0149728D01*
X0126796Y0149827D02*
X0125537Y0149827D01*
X0125537Y0149925D02*
X0126796Y0149925D01*
X0126796Y0150024D02*
X0125537Y0150024D01*
X0125537Y0150122D02*
X0126796Y0150122D01*
X0127098Y0104606D02*
X0124302Y0104606D01*
X0124302Y0099205D01*
X0127098Y0099205D01*
X0127098Y0104606D01*
X0127098Y0104511D02*
X0124302Y0104511D01*
X0124302Y0104413D02*
X0127098Y0104413D01*
X0127098Y0104314D02*
X0124302Y0104314D01*
X0124302Y0104216D02*
X0127098Y0104216D01*
X0127098Y0104117D02*
X0124302Y0104117D01*
X0124302Y0104019D02*
X0127098Y0104019D01*
X0127098Y0103920D02*
X0124302Y0103920D01*
X0124302Y0103822D02*
X0127098Y0103822D01*
X0127098Y0103723D02*
X0124302Y0103723D01*
X0124302Y0103625D02*
X0127098Y0103625D01*
X0127098Y0103526D02*
X0124302Y0103526D01*
X0124302Y0103428D02*
X0127098Y0103428D01*
X0127098Y0103329D02*
X0124302Y0103329D01*
X0124302Y0103231D02*
X0127098Y0103231D01*
X0127098Y0103132D02*
X0124302Y0103132D01*
X0124302Y0103034D02*
X0127098Y0103034D01*
X0127098Y0102935D02*
X0124302Y0102935D01*
X0124302Y0102837D02*
X0127098Y0102837D01*
X0127098Y0102738D02*
X0124302Y0102738D01*
X0124302Y0102640D02*
X0127098Y0102640D01*
X0127098Y0102541D02*
X0124302Y0102541D01*
X0124302Y0102443D02*
X0127098Y0102443D01*
X0127098Y0102344D02*
X0124302Y0102344D01*
X0124302Y0102246D02*
X0127098Y0102246D01*
X0127098Y0102147D02*
X0124302Y0102147D01*
X0124302Y0102049D02*
X0127098Y0102049D01*
X0127098Y0101950D02*
X0124302Y0101950D01*
X0124302Y0101852D02*
X0127098Y0101852D01*
X0127098Y0101753D02*
X0124302Y0101753D01*
X0124302Y0101654D02*
X0127098Y0101654D01*
X0127098Y0101556D02*
X0124302Y0101556D01*
X0124302Y0101457D02*
X0127098Y0101457D01*
X0127098Y0101359D02*
X0124302Y0101359D01*
X0124302Y0101260D02*
X0127098Y0101260D01*
X0127098Y0101162D02*
X0124302Y0101162D01*
X0124302Y0101063D02*
X0127098Y0101063D01*
X0127098Y0100965D02*
X0124302Y0100965D01*
X0124302Y0100866D02*
X0127098Y0100866D01*
X0127098Y0100768D02*
X0124302Y0100768D01*
X0124302Y0100669D02*
X0127098Y0100669D01*
X0127098Y0100571D02*
X0124302Y0100571D01*
X0124302Y0100472D02*
X0127098Y0100472D01*
X0127098Y0100374D02*
X0124302Y0100374D01*
X0124302Y0100275D02*
X0127098Y0100275D01*
X0127098Y0100177D02*
X0124302Y0100177D01*
X0124302Y0100078D02*
X0127098Y0100078D01*
X0127098Y0099980D02*
X0124302Y0099980D01*
X0124302Y0099881D02*
X0127098Y0099881D01*
X0127098Y0099783D02*
X0124302Y0099783D01*
X0124302Y0099684D02*
X0127098Y0099684D01*
X0127098Y0099586D02*
X0124302Y0099586D01*
X0124302Y0099487D02*
X0127098Y0099487D01*
X0127098Y0099389D02*
X0124302Y0099389D01*
X0124302Y0099290D02*
X0127098Y0099290D01*
X0122098Y0099290D02*
X0119302Y0099290D01*
X0119302Y0099205D02*
X0119302Y0104606D01*
X0122098Y0104606D01*
X0122098Y0099205D01*
X0119302Y0099205D01*
X0119302Y0099389D02*
X0122098Y0099389D01*
X0122098Y0099487D02*
X0119302Y0099487D01*
X0119302Y0099586D02*
X0122098Y0099586D01*
X0122098Y0099684D02*
X0119302Y0099684D01*
X0119302Y0099783D02*
X0122098Y0099783D01*
X0122098Y0099881D02*
X0119302Y0099881D01*
X0119302Y0099980D02*
X0122098Y0099980D01*
X0122098Y0100078D02*
X0119302Y0100078D01*
X0119302Y0100177D02*
X0122098Y0100177D01*
X0122098Y0100275D02*
X0119302Y0100275D01*
X0119302Y0100374D02*
X0122098Y0100374D01*
X0122098Y0100472D02*
X0119302Y0100472D01*
X0119302Y0100571D02*
X0122098Y0100571D01*
X0122098Y0100669D02*
X0119302Y0100669D01*
X0119302Y0100768D02*
X0122098Y0100768D01*
X0122098Y0100866D02*
X0119302Y0100866D01*
X0119302Y0100965D02*
X0122098Y0100965D01*
X0122098Y0101063D02*
X0119302Y0101063D01*
X0119302Y0101162D02*
X0122098Y0101162D01*
X0122098Y0101260D02*
X0119302Y0101260D01*
X0119302Y0101359D02*
X0122098Y0101359D01*
X0122098Y0101457D02*
X0119302Y0101457D01*
X0119302Y0101556D02*
X0122098Y0101556D01*
X0122098Y0101654D02*
X0119302Y0101654D01*
X0119302Y0101753D02*
X0122098Y0101753D01*
X0122098Y0101852D02*
X0119302Y0101852D01*
X0119302Y0101950D02*
X0122098Y0101950D01*
X0122098Y0102049D02*
X0119302Y0102049D01*
X0119302Y0102147D02*
X0122098Y0102147D01*
X0122098Y0102246D02*
X0119302Y0102246D01*
X0119302Y0102344D02*
X0122098Y0102344D01*
X0122098Y0102443D02*
X0119302Y0102443D01*
X0119302Y0102541D02*
X0122098Y0102541D01*
X0122098Y0102640D02*
X0119302Y0102640D01*
X0119302Y0102738D02*
X0122098Y0102738D01*
X0122098Y0102837D02*
X0119302Y0102837D01*
X0119302Y0102935D02*
X0122098Y0102935D01*
X0122098Y0103034D02*
X0119302Y0103034D01*
X0119302Y0103132D02*
X0122098Y0103132D01*
X0122098Y0103231D02*
X0119302Y0103231D01*
X0119302Y0103329D02*
X0122098Y0103329D01*
X0122098Y0103428D02*
X0119302Y0103428D01*
X0119302Y0103526D02*
X0122098Y0103526D01*
X0122098Y0103625D02*
X0119302Y0103625D01*
X0119302Y0103723D02*
X0122098Y0103723D01*
X0122098Y0103822D02*
X0119302Y0103822D01*
X0119302Y0103920D02*
X0122098Y0103920D01*
X0122098Y0104019D02*
X0119302Y0104019D01*
X0119302Y0104117D02*
X0122098Y0104117D01*
X0122098Y0104216D02*
X0119302Y0104216D01*
X0119302Y0104314D02*
X0122098Y0104314D01*
X0122098Y0104413D02*
X0119302Y0104413D01*
X0119302Y0104511D02*
X0122098Y0104511D01*
X0117098Y0104511D02*
X0114302Y0104511D01*
X0114302Y0104606D02*
X0114302Y0099205D01*
X0117098Y0099205D01*
X0117098Y0104606D01*
X0114302Y0104606D01*
X0114302Y0104413D02*
X0117098Y0104413D01*
X0117098Y0104314D02*
X0114302Y0104314D01*
X0114302Y0104216D02*
X0117098Y0104216D01*
X0117098Y0104117D02*
X0114302Y0104117D01*
X0114302Y0104019D02*
X0117098Y0104019D01*
X0117098Y0103920D02*
X0114302Y0103920D01*
X0114302Y0103822D02*
X0117098Y0103822D01*
X0117098Y0103723D02*
X0114302Y0103723D01*
X0114302Y0103625D02*
X0117098Y0103625D01*
X0117098Y0103526D02*
X0114302Y0103526D01*
X0114302Y0103428D02*
X0117098Y0103428D01*
X0117098Y0103329D02*
X0114302Y0103329D01*
X0114302Y0103231D02*
X0117098Y0103231D01*
X0117098Y0103132D02*
X0114302Y0103132D01*
X0114302Y0103034D02*
X0117098Y0103034D01*
X0117098Y0102935D02*
X0114302Y0102935D01*
X0114302Y0102837D02*
X0117098Y0102837D01*
X0117098Y0102738D02*
X0114302Y0102738D01*
X0114302Y0102640D02*
X0117098Y0102640D01*
X0117098Y0102541D02*
X0114302Y0102541D01*
X0114302Y0102443D02*
X0117098Y0102443D01*
X0117098Y0102344D02*
X0114302Y0102344D01*
X0114302Y0102246D02*
X0117098Y0102246D01*
X0117098Y0102147D02*
X0114302Y0102147D01*
X0114302Y0102049D02*
X0117098Y0102049D01*
X0117098Y0101950D02*
X0114302Y0101950D01*
X0114302Y0101852D02*
X0117098Y0101852D01*
X0117098Y0101753D02*
X0114302Y0101753D01*
X0114302Y0101654D02*
X0117098Y0101654D01*
X0117098Y0101556D02*
X0114302Y0101556D01*
X0114302Y0101457D02*
X0117098Y0101457D01*
X0117098Y0101359D02*
X0114302Y0101359D01*
X0114302Y0101260D02*
X0117098Y0101260D01*
X0117098Y0101162D02*
X0114302Y0101162D01*
X0114302Y0101063D02*
X0117098Y0101063D01*
X0117098Y0100965D02*
X0114302Y0100965D01*
X0114302Y0100866D02*
X0117098Y0100866D01*
X0117098Y0100768D02*
X0114302Y0100768D01*
X0114302Y0100669D02*
X0117098Y0100669D01*
X0117098Y0100571D02*
X0114302Y0100571D01*
X0114302Y0100472D02*
X0117098Y0100472D01*
X0117098Y0100374D02*
X0114302Y0100374D01*
X0114302Y0100275D02*
X0117098Y0100275D01*
X0117098Y0100177D02*
X0114302Y0100177D01*
X0114302Y0100078D02*
X0117098Y0100078D01*
X0117098Y0099980D02*
X0114302Y0099980D01*
X0114302Y0099881D02*
X0117098Y0099881D01*
X0117098Y0099783D02*
X0114302Y0099783D01*
X0114302Y0099684D02*
X0117098Y0099684D01*
X0117098Y0099586D02*
X0114302Y0099586D01*
X0114302Y0099487D02*
X0117098Y0099487D01*
X0117098Y0099389D02*
X0114302Y0099389D01*
X0114302Y0099290D02*
X0117098Y0099290D01*
X0112098Y0099290D02*
X0109302Y0099290D01*
X0109302Y0099205D02*
X0109302Y0104606D01*
X0112098Y0104606D01*
X0112098Y0099205D01*
X0109302Y0099205D01*
X0109302Y0099389D02*
X0112098Y0099389D01*
X0112098Y0099487D02*
X0109302Y0099487D01*
X0109302Y0099586D02*
X0112098Y0099586D01*
X0112098Y0099684D02*
X0109302Y0099684D01*
X0109302Y0099783D02*
X0112098Y0099783D01*
X0112098Y0099881D02*
X0109302Y0099881D01*
X0109302Y0099980D02*
X0112098Y0099980D01*
X0112098Y0100078D02*
X0109302Y0100078D01*
X0109302Y0100177D02*
X0112098Y0100177D01*
X0112098Y0100275D02*
X0109302Y0100275D01*
X0109302Y0100374D02*
X0112098Y0100374D01*
X0112098Y0100472D02*
X0109302Y0100472D01*
X0109302Y0100571D02*
X0112098Y0100571D01*
X0112098Y0100669D02*
X0109302Y0100669D01*
X0109302Y0100768D02*
X0112098Y0100768D01*
X0112098Y0100866D02*
X0109302Y0100866D01*
X0109302Y0100965D02*
X0112098Y0100965D01*
X0112098Y0101063D02*
X0109302Y0101063D01*
X0109302Y0101162D02*
X0112098Y0101162D01*
X0112098Y0101260D02*
X0109302Y0101260D01*
X0109302Y0101359D02*
X0112098Y0101359D01*
X0112098Y0101457D02*
X0109302Y0101457D01*
X0109302Y0101556D02*
X0112098Y0101556D01*
X0112098Y0101654D02*
X0109302Y0101654D01*
X0109302Y0101753D02*
X0112098Y0101753D01*
X0112098Y0101852D02*
X0109302Y0101852D01*
X0109302Y0101950D02*
X0112098Y0101950D01*
X0112098Y0102049D02*
X0109302Y0102049D01*
X0109302Y0102147D02*
X0112098Y0102147D01*
X0112098Y0102246D02*
X0109302Y0102246D01*
X0109302Y0102344D02*
X0112098Y0102344D01*
X0112098Y0102443D02*
X0109302Y0102443D01*
X0109302Y0102541D02*
X0112098Y0102541D01*
X0112098Y0102640D02*
X0109302Y0102640D01*
X0109302Y0102738D02*
X0112098Y0102738D01*
X0112098Y0102837D02*
X0109302Y0102837D01*
X0109302Y0102935D02*
X0112098Y0102935D01*
X0112098Y0103034D02*
X0109302Y0103034D01*
X0109302Y0103132D02*
X0112098Y0103132D01*
X0112098Y0103231D02*
X0109302Y0103231D01*
X0109302Y0103329D02*
X0112098Y0103329D01*
X0112098Y0103428D02*
X0109302Y0103428D01*
X0109302Y0103526D02*
X0112098Y0103526D01*
X0112098Y0103625D02*
X0109302Y0103625D01*
X0109302Y0103723D02*
X0112098Y0103723D01*
X0112098Y0103822D02*
X0109302Y0103822D01*
X0109302Y0103920D02*
X0112098Y0103920D01*
X0112098Y0104019D02*
X0109302Y0104019D01*
X0109302Y0104117D02*
X0112098Y0104117D01*
X0112098Y0104216D02*
X0109302Y0104216D01*
X0109302Y0104314D02*
X0112098Y0104314D01*
X0112098Y0104413D02*
X0109302Y0104413D01*
X0109302Y0104511D02*
X0112098Y0104511D01*
X0112098Y0082795D02*
X0109302Y0082795D01*
X0109302Y0077394D01*
X0112098Y0077394D01*
X0112098Y0082795D01*
X0112098Y0082740D02*
X0109302Y0082740D01*
X0109302Y0082642D02*
X0112098Y0082642D01*
X0112098Y0082543D02*
X0109302Y0082543D01*
X0109302Y0082445D02*
X0112098Y0082445D01*
X0112098Y0082346D02*
X0109302Y0082346D01*
X0109302Y0082248D02*
X0112098Y0082248D01*
X0112098Y0082149D02*
X0109302Y0082149D01*
X0109302Y0082051D02*
X0112098Y0082051D01*
X0112098Y0081952D02*
X0109302Y0081952D01*
X0109302Y0081854D02*
X0112098Y0081854D01*
X0112098Y0081755D02*
X0109302Y0081755D01*
X0109302Y0081657D02*
X0112098Y0081657D01*
X0112098Y0081558D02*
X0109302Y0081558D01*
X0109302Y0081460D02*
X0112098Y0081460D01*
X0112098Y0081361D02*
X0109302Y0081361D01*
X0109302Y0081263D02*
X0112098Y0081263D01*
X0112098Y0081164D02*
X0109302Y0081164D01*
X0109302Y0081066D02*
X0112098Y0081066D01*
X0112098Y0080967D02*
X0109302Y0080967D01*
X0109302Y0080869D02*
X0112098Y0080869D01*
X0112098Y0080770D02*
X0109302Y0080770D01*
X0109302Y0080672D02*
X0112098Y0080672D01*
X0112098Y0080573D02*
X0109302Y0080573D01*
X0109302Y0080475D02*
X0112098Y0080475D01*
X0112098Y0080376D02*
X0109302Y0080376D01*
X0109302Y0080278D02*
X0112098Y0080278D01*
X0112098Y0080179D02*
X0109302Y0080179D01*
X0109302Y0080081D02*
X0112098Y0080081D01*
X0112098Y0079982D02*
X0109302Y0079982D01*
X0109302Y0079883D02*
X0112098Y0079883D01*
X0112098Y0079785D02*
X0109302Y0079785D01*
X0109302Y0079686D02*
X0112098Y0079686D01*
X0112098Y0079588D02*
X0109302Y0079588D01*
X0109302Y0079489D02*
X0112098Y0079489D01*
X0112098Y0079391D02*
X0109302Y0079391D01*
X0109302Y0079292D02*
X0112098Y0079292D01*
X0112098Y0079194D02*
X0109302Y0079194D01*
X0109302Y0079095D02*
X0112098Y0079095D01*
X0112098Y0078997D02*
X0109302Y0078997D01*
X0109302Y0078898D02*
X0112098Y0078898D01*
X0112098Y0078800D02*
X0109302Y0078800D01*
X0109302Y0078701D02*
X0112098Y0078701D01*
X0112098Y0078603D02*
X0109302Y0078603D01*
X0109302Y0078504D02*
X0112098Y0078504D01*
X0112098Y0078406D02*
X0109302Y0078406D01*
X0109302Y0078307D02*
X0112098Y0078307D01*
X0112098Y0078209D02*
X0109302Y0078209D01*
X0109302Y0078110D02*
X0112098Y0078110D01*
X0112098Y0078012D02*
X0109302Y0078012D01*
X0109302Y0077913D02*
X0112098Y0077913D01*
X0112098Y0077815D02*
X0109302Y0077815D01*
X0109302Y0077716D02*
X0112098Y0077716D01*
X0112098Y0077618D02*
X0109302Y0077618D01*
X0109302Y0077519D02*
X0112098Y0077519D01*
X0112098Y0077421D02*
X0109302Y0077421D01*
X0114302Y0077421D02*
X0117098Y0077421D01*
X0117098Y0077394D02*
X0114302Y0077394D01*
X0114302Y0082795D01*
X0117098Y0082795D01*
X0117098Y0077394D01*
X0117098Y0077519D02*
X0114302Y0077519D01*
X0114302Y0077618D02*
X0117098Y0077618D01*
X0117098Y0077716D02*
X0114302Y0077716D01*
X0114302Y0077815D02*
X0117098Y0077815D01*
X0117098Y0077913D02*
X0114302Y0077913D01*
X0114302Y0078012D02*
X0117098Y0078012D01*
X0117098Y0078110D02*
X0114302Y0078110D01*
X0114302Y0078209D02*
X0117098Y0078209D01*
X0117098Y0078307D02*
X0114302Y0078307D01*
X0114302Y0078406D02*
X0117098Y0078406D01*
X0117098Y0078504D02*
X0114302Y0078504D01*
X0114302Y0078603D02*
X0117098Y0078603D01*
X0117098Y0078701D02*
X0114302Y0078701D01*
X0114302Y0078800D02*
X0117098Y0078800D01*
X0117098Y0078898D02*
X0114302Y0078898D01*
X0114302Y0078997D02*
X0117098Y0078997D01*
X0117098Y0079095D02*
X0114302Y0079095D01*
X0114302Y0079194D02*
X0117098Y0079194D01*
X0117098Y0079292D02*
X0114302Y0079292D01*
X0114302Y0079391D02*
X0117098Y0079391D01*
X0117098Y0079489D02*
X0114302Y0079489D01*
X0114302Y0079588D02*
X0117098Y0079588D01*
X0117098Y0079686D02*
X0114302Y0079686D01*
X0114302Y0079785D02*
X0117098Y0079785D01*
X0117098Y0079883D02*
X0114302Y0079883D01*
X0114302Y0079982D02*
X0117098Y0079982D01*
X0117098Y0080081D02*
X0114302Y0080081D01*
X0114302Y0080179D02*
X0117098Y0080179D01*
X0117098Y0080278D02*
X0114302Y0080278D01*
X0114302Y0080376D02*
X0117098Y0080376D01*
X0117098Y0080475D02*
X0114302Y0080475D01*
X0114302Y0080573D02*
X0117098Y0080573D01*
X0117098Y0080672D02*
X0114302Y0080672D01*
X0114302Y0080770D02*
X0117098Y0080770D01*
X0117098Y0080869D02*
X0114302Y0080869D01*
X0114302Y0080967D02*
X0117098Y0080967D01*
X0117098Y0081066D02*
X0114302Y0081066D01*
X0114302Y0081164D02*
X0117098Y0081164D01*
X0117098Y0081263D02*
X0114302Y0081263D01*
X0114302Y0081361D02*
X0117098Y0081361D01*
X0117098Y0081460D02*
X0114302Y0081460D01*
X0114302Y0081558D02*
X0117098Y0081558D01*
X0117098Y0081657D02*
X0114302Y0081657D01*
X0114302Y0081755D02*
X0117098Y0081755D01*
X0117098Y0081854D02*
X0114302Y0081854D01*
X0114302Y0081952D02*
X0117098Y0081952D01*
X0117098Y0082051D02*
X0114302Y0082051D01*
X0114302Y0082149D02*
X0117098Y0082149D01*
X0117098Y0082248D02*
X0114302Y0082248D01*
X0114302Y0082346D02*
X0117098Y0082346D01*
X0117098Y0082445D02*
X0114302Y0082445D01*
X0114302Y0082543D02*
X0117098Y0082543D01*
X0117098Y0082642D02*
X0114302Y0082642D01*
X0114302Y0082740D02*
X0117098Y0082740D01*
X0119302Y0082740D02*
X0122098Y0082740D01*
X0122098Y0082795D02*
X0122098Y0077394D01*
X0119302Y0077394D01*
X0119302Y0082795D01*
X0122098Y0082795D01*
X0122098Y0082642D02*
X0119302Y0082642D01*
X0119302Y0082543D02*
X0122098Y0082543D01*
X0122098Y0082445D02*
X0119302Y0082445D01*
X0119302Y0082346D02*
X0122098Y0082346D01*
X0122098Y0082248D02*
X0119302Y0082248D01*
X0119302Y0082149D02*
X0122098Y0082149D01*
X0122098Y0082051D02*
X0119302Y0082051D01*
X0119302Y0081952D02*
X0122098Y0081952D01*
X0122098Y0081854D02*
X0119302Y0081854D01*
X0119302Y0081755D02*
X0122098Y0081755D01*
X0122098Y0081657D02*
X0119302Y0081657D01*
X0119302Y0081558D02*
X0122098Y0081558D01*
X0122098Y0081460D02*
X0119302Y0081460D01*
X0119302Y0081361D02*
X0122098Y0081361D01*
X0122098Y0081263D02*
X0119302Y0081263D01*
X0119302Y0081164D02*
X0122098Y0081164D01*
X0122098Y0081066D02*
X0119302Y0081066D01*
X0119302Y0080967D02*
X0122098Y0080967D01*
X0122098Y0080869D02*
X0119302Y0080869D01*
X0119302Y0080770D02*
X0122098Y0080770D01*
X0122098Y0080672D02*
X0119302Y0080672D01*
X0119302Y0080573D02*
X0122098Y0080573D01*
X0122098Y0080475D02*
X0119302Y0080475D01*
X0119302Y0080376D02*
X0122098Y0080376D01*
X0122098Y0080278D02*
X0119302Y0080278D01*
X0119302Y0080179D02*
X0122098Y0080179D01*
X0122098Y0080081D02*
X0119302Y0080081D01*
X0119302Y0079982D02*
X0122098Y0079982D01*
X0122098Y0079883D02*
X0119302Y0079883D01*
X0119302Y0079785D02*
X0122098Y0079785D01*
X0122098Y0079686D02*
X0119302Y0079686D01*
X0119302Y0079588D02*
X0122098Y0079588D01*
X0122098Y0079489D02*
X0119302Y0079489D01*
X0119302Y0079391D02*
X0122098Y0079391D01*
X0122098Y0079292D02*
X0119302Y0079292D01*
X0119302Y0079194D02*
X0122098Y0079194D01*
X0122098Y0079095D02*
X0119302Y0079095D01*
X0119302Y0078997D02*
X0122098Y0078997D01*
X0122098Y0078898D02*
X0119302Y0078898D01*
X0119302Y0078800D02*
X0122098Y0078800D01*
X0122098Y0078701D02*
X0119302Y0078701D01*
X0119302Y0078603D02*
X0122098Y0078603D01*
X0122098Y0078504D02*
X0119302Y0078504D01*
X0119302Y0078406D02*
X0122098Y0078406D01*
X0122098Y0078307D02*
X0119302Y0078307D01*
X0119302Y0078209D02*
X0122098Y0078209D01*
X0122098Y0078110D02*
X0119302Y0078110D01*
X0119302Y0078012D02*
X0122098Y0078012D01*
X0122098Y0077913D02*
X0119302Y0077913D01*
X0119302Y0077815D02*
X0122098Y0077815D01*
X0122098Y0077716D02*
X0119302Y0077716D01*
X0119302Y0077618D02*
X0122098Y0077618D01*
X0122098Y0077519D02*
X0119302Y0077519D01*
X0119302Y0077421D02*
X0122098Y0077421D01*
X0124302Y0077421D02*
X0127098Y0077421D01*
X0127098Y0077394D02*
X0124302Y0077394D01*
X0124302Y0082795D01*
X0127098Y0082795D01*
X0127098Y0077394D01*
X0127098Y0077519D02*
X0124302Y0077519D01*
X0124302Y0077618D02*
X0127098Y0077618D01*
X0127098Y0077716D02*
X0124302Y0077716D01*
X0124302Y0077815D02*
X0127098Y0077815D01*
X0127098Y0077913D02*
X0124302Y0077913D01*
X0124302Y0078012D02*
X0127098Y0078012D01*
X0127098Y0078110D02*
X0124302Y0078110D01*
X0124302Y0078209D02*
X0127098Y0078209D01*
X0127098Y0078307D02*
X0124302Y0078307D01*
X0124302Y0078406D02*
X0127098Y0078406D01*
X0127098Y0078504D02*
X0124302Y0078504D01*
X0124302Y0078603D02*
X0127098Y0078603D01*
X0127098Y0078701D02*
X0124302Y0078701D01*
X0124302Y0078800D02*
X0127098Y0078800D01*
X0127098Y0078898D02*
X0124302Y0078898D01*
X0124302Y0078997D02*
X0127098Y0078997D01*
X0127098Y0079095D02*
X0124302Y0079095D01*
X0124302Y0079194D02*
X0127098Y0079194D01*
X0127098Y0079292D02*
X0124302Y0079292D01*
X0124302Y0079391D02*
X0127098Y0079391D01*
X0127098Y0079489D02*
X0124302Y0079489D01*
X0124302Y0079588D02*
X0127098Y0079588D01*
X0127098Y0079686D02*
X0124302Y0079686D01*
X0124302Y0079785D02*
X0127098Y0079785D01*
X0127098Y0079883D02*
X0124302Y0079883D01*
X0124302Y0079982D02*
X0127098Y0079982D01*
X0127098Y0080081D02*
X0124302Y0080081D01*
X0124302Y0080179D02*
X0127098Y0080179D01*
X0127098Y0080278D02*
X0124302Y0080278D01*
X0124302Y0080376D02*
X0127098Y0080376D01*
X0127098Y0080475D02*
X0124302Y0080475D01*
X0124302Y0080573D02*
X0127098Y0080573D01*
X0127098Y0080672D02*
X0124302Y0080672D01*
X0124302Y0080770D02*
X0127098Y0080770D01*
X0127098Y0080869D02*
X0124302Y0080869D01*
X0124302Y0080967D02*
X0127098Y0080967D01*
X0127098Y0081066D02*
X0124302Y0081066D01*
X0124302Y0081164D02*
X0127098Y0081164D01*
X0127098Y0081263D02*
X0124302Y0081263D01*
X0124302Y0081361D02*
X0127098Y0081361D01*
X0127098Y0081460D02*
X0124302Y0081460D01*
X0124302Y0081558D02*
X0127098Y0081558D01*
X0127098Y0081657D02*
X0124302Y0081657D01*
X0124302Y0081755D02*
X0127098Y0081755D01*
X0127098Y0081854D02*
X0124302Y0081854D01*
X0124302Y0081952D02*
X0127098Y0081952D01*
X0127098Y0082051D02*
X0124302Y0082051D01*
X0124302Y0082149D02*
X0127098Y0082149D01*
X0127098Y0082248D02*
X0124302Y0082248D01*
X0124302Y0082346D02*
X0127098Y0082346D01*
X0127098Y0082445D02*
X0124302Y0082445D01*
X0124302Y0082543D02*
X0127098Y0082543D01*
X0127098Y0082642D02*
X0124302Y0082642D01*
X0124302Y0082740D02*
X0127098Y0082740D01*
X0127098Y0054606D02*
X0124302Y0054606D01*
X0124302Y0049205D01*
X0127098Y0049205D01*
X0127098Y0054606D01*
X0127098Y0054566D02*
X0124302Y0054566D01*
X0124302Y0054468D02*
X0127098Y0054468D01*
X0127098Y0054369D02*
X0124302Y0054369D01*
X0124302Y0054271D02*
X0127098Y0054271D01*
X0127098Y0054172D02*
X0124302Y0054172D01*
X0124302Y0054074D02*
X0127098Y0054074D01*
X0127098Y0053975D02*
X0124302Y0053975D01*
X0124302Y0053877D02*
X0127098Y0053877D01*
X0127098Y0053778D02*
X0124302Y0053778D01*
X0124302Y0053679D02*
X0127098Y0053679D01*
X0127098Y0053581D02*
X0124302Y0053581D01*
X0124302Y0053482D02*
X0127098Y0053482D01*
X0127098Y0053384D02*
X0124302Y0053384D01*
X0124302Y0053285D02*
X0127098Y0053285D01*
X0127098Y0053187D02*
X0124302Y0053187D01*
X0124302Y0053088D02*
X0127098Y0053088D01*
X0127098Y0052990D02*
X0124302Y0052990D01*
X0124302Y0052891D02*
X0127098Y0052891D01*
X0127098Y0052793D02*
X0124302Y0052793D01*
X0124302Y0052694D02*
X0127098Y0052694D01*
X0127098Y0052596D02*
X0124302Y0052596D01*
X0124302Y0052497D02*
X0127098Y0052497D01*
X0127098Y0052399D02*
X0124302Y0052399D01*
X0124302Y0052300D02*
X0127098Y0052300D01*
X0127098Y0052202D02*
X0124302Y0052202D01*
X0124302Y0052103D02*
X0127098Y0052103D01*
X0127098Y0052005D02*
X0124302Y0052005D01*
X0124302Y0051906D02*
X0127098Y0051906D01*
X0127098Y0051808D02*
X0124302Y0051808D01*
X0124302Y0051709D02*
X0127098Y0051709D01*
X0127098Y0051611D02*
X0124302Y0051611D01*
X0124302Y0051512D02*
X0127098Y0051512D01*
X0127098Y0051414D02*
X0124302Y0051414D01*
X0124302Y0051315D02*
X0127098Y0051315D01*
X0127098Y0051217D02*
X0124302Y0051217D01*
X0124302Y0051118D02*
X0127098Y0051118D01*
X0127098Y0051020D02*
X0124302Y0051020D01*
X0124302Y0050921D02*
X0127098Y0050921D01*
X0127098Y0050823D02*
X0124302Y0050823D01*
X0124302Y0050724D02*
X0127098Y0050724D01*
X0127098Y0050626D02*
X0124302Y0050626D01*
X0124302Y0050527D02*
X0127098Y0050527D01*
X0127098Y0050429D02*
X0124302Y0050429D01*
X0124302Y0050330D02*
X0127098Y0050330D01*
X0127098Y0050232D02*
X0124302Y0050232D01*
X0124302Y0050133D02*
X0127098Y0050133D01*
X0127098Y0050035D02*
X0124302Y0050035D01*
X0124302Y0049936D02*
X0127098Y0049936D01*
X0127098Y0049838D02*
X0124302Y0049838D01*
X0124302Y0049739D02*
X0127098Y0049739D01*
X0127098Y0049641D02*
X0124302Y0049641D01*
X0124302Y0049542D02*
X0127098Y0049542D01*
X0127098Y0049443D02*
X0124302Y0049443D01*
X0124302Y0049345D02*
X0127098Y0049345D01*
X0127098Y0049246D02*
X0124302Y0049246D01*
X0122098Y0049246D02*
X0119302Y0049246D01*
X0119302Y0049205D02*
X0119302Y0054606D01*
X0122098Y0054606D01*
X0122098Y0049205D01*
X0119302Y0049205D01*
X0119302Y0049345D02*
X0122098Y0049345D01*
X0122098Y0049443D02*
X0119302Y0049443D01*
X0119302Y0049542D02*
X0122098Y0049542D01*
X0122098Y0049641D02*
X0119302Y0049641D01*
X0119302Y0049739D02*
X0122098Y0049739D01*
X0122098Y0049838D02*
X0119302Y0049838D01*
X0119302Y0049936D02*
X0122098Y0049936D01*
X0122098Y0050035D02*
X0119302Y0050035D01*
X0119302Y0050133D02*
X0122098Y0050133D01*
X0122098Y0050232D02*
X0119302Y0050232D01*
X0119302Y0050330D02*
X0122098Y0050330D01*
X0122098Y0050429D02*
X0119302Y0050429D01*
X0119302Y0050527D02*
X0122098Y0050527D01*
X0122098Y0050626D02*
X0119302Y0050626D01*
X0119302Y0050724D02*
X0122098Y0050724D01*
X0122098Y0050823D02*
X0119302Y0050823D01*
X0119302Y0050921D02*
X0122098Y0050921D01*
X0122098Y0051020D02*
X0119302Y0051020D01*
X0119302Y0051118D02*
X0122098Y0051118D01*
X0122098Y0051217D02*
X0119302Y0051217D01*
X0119302Y0051315D02*
X0122098Y0051315D01*
X0122098Y0051414D02*
X0119302Y0051414D01*
X0119302Y0051512D02*
X0122098Y0051512D01*
X0122098Y0051611D02*
X0119302Y0051611D01*
X0119302Y0051709D02*
X0122098Y0051709D01*
X0122098Y0051808D02*
X0119302Y0051808D01*
X0119302Y0051906D02*
X0122098Y0051906D01*
X0122098Y0052005D02*
X0119302Y0052005D01*
X0119302Y0052103D02*
X0122098Y0052103D01*
X0122098Y0052202D02*
X0119302Y0052202D01*
X0119302Y0052300D02*
X0122098Y0052300D01*
X0122098Y0052399D02*
X0119302Y0052399D01*
X0119302Y0052497D02*
X0122098Y0052497D01*
X0122098Y0052596D02*
X0119302Y0052596D01*
X0119302Y0052694D02*
X0122098Y0052694D01*
X0122098Y0052793D02*
X0119302Y0052793D01*
X0119302Y0052891D02*
X0122098Y0052891D01*
X0122098Y0052990D02*
X0119302Y0052990D01*
X0119302Y0053088D02*
X0122098Y0053088D01*
X0122098Y0053187D02*
X0119302Y0053187D01*
X0119302Y0053285D02*
X0122098Y0053285D01*
X0122098Y0053384D02*
X0119302Y0053384D01*
X0119302Y0053482D02*
X0122098Y0053482D01*
X0122098Y0053581D02*
X0119302Y0053581D01*
X0119302Y0053679D02*
X0122098Y0053679D01*
X0122098Y0053778D02*
X0119302Y0053778D01*
X0119302Y0053877D02*
X0122098Y0053877D01*
X0122098Y0053975D02*
X0119302Y0053975D01*
X0119302Y0054074D02*
X0122098Y0054074D01*
X0122098Y0054172D02*
X0119302Y0054172D01*
X0119302Y0054271D02*
X0122098Y0054271D01*
X0122098Y0054369D02*
X0119302Y0054369D01*
X0119302Y0054468D02*
X0122098Y0054468D01*
X0122098Y0054566D02*
X0119302Y0054566D01*
X0117098Y0054566D02*
X0114302Y0054566D01*
X0114302Y0054606D02*
X0114302Y0049205D01*
X0117098Y0049205D01*
X0117098Y0054606D01*
X0114302Y0054606D01*
X0114302Y0054468D02*
X0117098Y0054468D01*
X0117098Y0054369D02*
X0114302Y0054369D01*
X0114302Y0054271D02*
X0117098Y0054271D01*
X0117098Y0054172D02*
X0114302Y0054172D01*
X0114302Y0054074D02*
X0117098Y0054074D01*
X0117098Y0053975D02*
X0114302Y0053975D01*
X0114302Y0053877D02*
X0117098Y0053877D01*
X0117098Y0053778D02*
X0114302Y0053778D01*
X0114302Y0053679D02*
X0117098Y0053679D01*
X0117098Y0053581D02*
X0114302Y0053581D01*
X0114302Y0053482D02*
X0117098Y0053482D01*
X0117098Y0053384D02*
X0114302Y0053384D01*
X0114302Y0053285D02*
X0117098Y0053285D01*
X0117098Y0053187D02*
X0114302Y0053187D01*
X0114302Y0053088D02*
X0117098Y0053088D01*
X0117098Y0052990D02*
X0114302Y0052990D01*
X0114302Y0052891D02*
X0117098Y0052891D01*
X0117098Y0052793D02*
X0114302Y0052793D01*
X0114302Y0052694D02*
X0117098Y0052694D01*
X0117098Y0052596D02*
X0114302Y0052596D01*
X0114302Y0052497D02*
X0117098Y0052497D01*
X0117098Y0052399D02*
X0114302Y0052399D01*
X0114302Y0052300D02*
X0117098Y0052300D01*
X0117098Y0052202D02*
X0114302Y0052202D01*
X0114302Y0052103D02*
X0117098Y0052103D01*
X0117098Y0052005D02*
X0114302Y0052005D01*
X0114302Y0051906D02*
X0117098Y0051906D01*
X0117098Y0051808D02*
X0114302Y0051808D01*
X0114302Y0051709D02*
X0117098Y0051709D01*
X0117098Y0051611D02*
X0114302Y0051611D01*
X0114302Y0051512D02*
X0117098Y0051512D01*
X0117098Y0051414D02*
X0114302Y0051414D01*
X0114302Y0051315D02*
X0117098Y0051315D01*
X0117098Y0051217D02*
X0114302Y0051217D01*
X0114302Y0051118D02*
X0117098Y0051118D01*
X0117098Y0051020D02*
X0114302Y0051020D01*
X0114302Y0050921D02*
X0117098Y0050921D01*
X0117098Y0050823D02*
X0114302Y0050823D01*
X0114302Y0050724D02*
X0117098Y0050724D01*
X0117098Y0050626D02*
X0114302Y0050626D01*
X0114302Y0050527D02*
X0117098Y0050527D01*
X0117098Y0050429D02*
X0114302Y0050429D01*
X0114302Y0050330D02*
X0117098Y0050330D01*
X0117098Y0050232D02*
X0114302Y0050232D01*
X0114302Y0050133D02*
X0117098Y0050133D01*
X0117098Y0050035D02*
X0114302Y0050035D01*
X0114302Y0049936D02*
X0117098Y0049936D01*
X0117098Y0049838D02*
X0114302Y0049838D01*
X0114302Y0049739D02*
X0117098Y0049739D01*
X0117098Y0049641D02*
X0114302Y0049641D01*
X0114302Y0049542D02*
X0117098Y0049542D01*
X0117098Y0049443D02*
X0114302Y0049443D01*
X0114302Y0049345D02*
X0117098Y0049345D01*
X0117098Y0049246D02*
X0114302Y0049246D01*
X0112098Y0049246D02*
X0109302Y0049246D01*
X0109302Y0049205D02*
X0109302Y0054606D01*
X0112098Y0054606D01*
X0112098Y0049205D01*
X0109302Y0049205D01*
X0109302Y0049345D02*
X0112098Y0049345D01*
X0112098Y0049443D02*
X0109302Y0049443D01*
X0109302Y0049542D02*
X0112098Y0049542D01*
X0112098Y0049641D02*
X0109302Y0049641D01*
X0109302Y0049739D02*
X0112098Y0049739D01*
X0112098Y0049838D02*
X0109302Y0049838D01*
X0109302Y0049936D02*
X0112098Y0049936D01*
X0112098Y0050035D02*
X0109302Y0050035D01*
X0109302Y0050133D02*
X0112098Y0050133D01*
X0112098Y0050232D02*
X0109302Y0050232D01*
X0109302Y0050330D02*
X0112098Y0050330D01*
X0112098Y0050429D02*
X0109302Y0050429D01*
X0109302Y0050527D02*
X0112098Y0050527D01*
X0112098Y0050626D02*
X0109302Y0050626D01*
X0109302Y0050724D02*
X0112098Y0050724D01*
X0112098Y0050823D02*
X0109302Y0050823D01*
X0109302Y0050921D02*
X0112098Y0050921D01*
X0112098Y0051020D02*
X0109302Y0051020D01*
X0109302Y0051118D02*
X0112098Y0051118D01*
X0112098Y0051217D02*
X0109302Y0051217D01*
X0109302Y0051315D02*
X0112098Y0051315D01*
X0112098Y0051414D02*
X0109302Y0051414D01*
X0109302Y0051512D02*
X0112098Y0051512D01*
X0112098Y0051611D02*
X0109302Y0051611D01*
X0109302Y0051709D02*
X0112098Y0051709D01*
X0112098Y0051808D02*
X0109302Y0051808D01*
X0109302Y0051906D02*
X0112098Y0051906D01*
X0112098Y0052005D02*
X0109302Y0052005D01*
X0109302Y0052103D02*
X0112098Y0052103D01*
X0112098Y0052202D02*
X0109302Y0052202D01*
X0109302Y0052300D02*
X0112098Y0052300D01*
X0112098Y0052399D02*
X0109302Y0052399D01*
X0109302Y0052497D02*
X0112098Y0052497D01*
X0112098Y0052596D02*
X0109302Y0052596D01*
X0109302Y0052694D02*
X0112098Y0052694D01*
X0112098Y0052793D02*
X0109302Y0052793D01*
X0109302Y0052891D02*
X0112098Y0052891D01*
X0112098Y0052990D02*
X0109302Y0052990D01*
X0109302Y0053088D02*
X0112098Y0053088D01*
X0112098Y0053187D02*
X0109302Y0053187D01*
X0109302Y0053285D02*
X0112098Y0053285D01*
X0112098Y0053384D02*
X0109302Y0053384D01*
X0109302Y0053482D02*
X0112098Y0053482D01*
X0112098Y0053581D02*
X0109302Y0053581D01*
X0109302Y0053679D02*
X0112098Y0053679D01*
X0112098Y0053778D02*
X0109302Y0053778D01*
X0109302Y0053877D02*
X0112098Y0053877D01*
X0112098Y0053975D02*
X0109302Y0053975D01*
X0109302Y0054074D02*
X0112098Y0054074D01*
X0112098Y0054172D02*
X0109302Y0054172D01*
X0109302Y0054271D02*
X0112098Y0054271D01*
X0112098Y0054369D02*
X0109302Y0054369D01*
X0109302Y0054468D02*
X0112098Y0054468D01*
X0112098Y0054566D02*
X0109302Y0054566D01*
X0109302Y0032795D02*
X0109302Y0027394D01*
X0112098Y0027394D01*
X0112098Y0032795D01*
X0109302Y0032795D01*
X0112098Y0032795D01*
X0112098Y0032697D02*
X0109302Y0032697D01*
X0109302Y0032598D02*
X0112098Y0032598D01*
X0112098Y0032500D02*
X0109302Y0032500D01*
X0109302Y0032401D02*
X0112098Y0032401D01*
X0112098Y0032303D02*
X0109302Y0032303D01*
X0109302Y0032204D02*
X0112098Y0032204D01*
X0112098Y0032105D02*
X0109302Y0032105D01*
X0109302Y0032007D02*
X0112098Y0032007D01*
X0112098Y0031908D02*
X0109302Y0031908D01*
X0109302Y0031810D02*
X0112098Y0031810D01*
X0112098Y0031711D02*
X0109302Y0031711D01*
X0109302Y0031613D02*
X0112098Y0031613D01*
X0112098Y0031514D02*
X0109302Y0031514D01*
X0109302Y0031416D02*
X0112098Y0031416D01*
X0112098Y0031317D02*
X0109302Y0031317D01*
X0109302Y0031219D02*
X0112098Y0031219D01*
X0112098Y0031120D02*
X0109302Y0031120D01*
X0109302Y0031022D02*
X0112098Y0031022D01*
X0112098Y0030923D02*
X0109302Y0030923D01*
X0109302Y0030825D02*
X0112098Y0030825D01*
X0112098Y0030726D02*
X0109302Y0030726D01*
X0109302Y0030628D02*
X0112098Y0030628D01*
X0112098Y0030529D02*
X0109302Y0030529D01*
X0109302Y0030431D02*
X0112098Y0030431D01*
X0112098Y0030332D02*
X0109302Y0030332D01*
X0109302Y0030234D02*
X0112098Y0030234D01*
X0112098Y0030135D02*
X0109302Y0030135D01*
X0109302Y0030037D02*
X0112098Y0030037D01*
X0112098Y0029938D02*
X0109302Y0029938D01*
X0109302Y0029840D02*
X0112098Y0029840D01*
X0112098Y0029741D02*
X0109302Y0029741D01*
X0109302Y0029643D02*
X0112098Y0029643D01*
X0112098Y0029544D02*
X0109302Y0029544D01*
X0109302Y0029446D02*
X0112098Y0029446D01*
X0112098Y0029347D02*
X0109302Y0029347D01*
X0109302Y0029249D02*
X0112098Y0029249D01*
X0112098Y0029150D02*
X0109302Y0029150D01*
X0109302Y0029052D02*
X0112098Y0029052D01*
X0112098Y0028953D02*
X0109302Y0028953D01*
X0109302Y0028855D02*
X0112098Y0028855D01*
X0112098Y0028756D02*
X0109302Y0028756D01*
X0109302Y0028658D02*
X0112098Y0028658D01*
X0112098Y0028559D02*
X0109302Y0028559D01*
X0109302Y0028461D02*
X0112098Y0028461D01*
X0112098Y0028362D02*
X0109302Y0028362D01*
X0109302Y0028264D02*
X0112098Y0028264D01*
X0112098Y0028165D02*
X0109302Y0028165D01*
X0109302Y0028067D02*
X0112098Y0028067D01*
X0112098Y0027968D02*
X0109302Y0027968D01*
X0109302Y0027870D02*
X0112098Y0027870D01*
X0112098Y0027771D02*
X0109302Y0027771D01*
X0109302Y0027672D02*
X0112098Y0027672D01*
X0112098Y0027574D02*
X0109302Y0027574D01*
X0109302Y0027475D02*
X0112098Y0027475D01*
X0114302Y0027475D02*
X0117098Y0027475D01*
X0117098Y0027394D02*
X0114302Y0027394D01*
X0114302Y0032795D01*
X0117098Y0032795D01*
X0117098Y0027394D01*
X0117098Y0027574D02*
X0114302Y0027574D01*
X0114302Y0027672D02*
X0117098Y0027672D01*
X0117098Y0027771D02*
X0114302Y0027771D01*
X0114302Y0027870D02*
X0117098Y0027870D01*
X0117098Y0027968D02*
X0114302Y0027968D01*
X0114302Y0028067D02*
X0117098Y0028067D01*
X0117098Y0028165D02*
X0114302Y0028165D01*
X0114302Y0028264D02*
X0117098Y0028264D01*
X0117098Y0028362D02*
X0114302Y0028362D01*
X0114302Y0028461D02*
X0117098Y0028461D01*
X0117098Y0028559D02*
X0114302Y0028559D01*
X0114302Y0028658D02*
X0117098Y0028658D01*
X0117098Y0028756D02*
X0114302Y0028756D01*
X0114302Y0028855D02*
X0117098Y0028855D01*
X0117098Y0028953D02*
X0114302Y0028953D01*
X0114302Y0029052D02*
X0117098Y0029052D01*
X0117098Y0029150D02*
X0114302Y0029150D01*
X0114302Y0029249D02*
X0117098Y0029249D01*
X0117098Y0029347D02*
X0114302Y0029347D01*
X0114302Y0029446D02*
X0117098Y0029446D01*
X0117098Y0029544D02*
X0114302Y0029544D01*
X0114302Y0029643D02*
X0117098Y0029643D01*
X0117098Y0029741D02*
X0114302Y0029741D01*
X0114302Y0029840D02*
X0117098Y0029840D01*
X0117098Y0029938D02*
X0114302Y0029938D01*
X0114302Y0030037D02*
X0117098Y0030037D01*
X0117098Y0030135D02*
X0114302Y0030135D01*
X0114302Y0030234D02*
X0117098Y0030234D01*
X0117098Y0030332D02*
X0114302Y0030332D01*
X0114302Y0030431D02*
X0117098Y0030431D01*
X0117098Y0030529D02*
X0114302Y0030529D01*
X0114302Y0030628D02*
X0117098Y0030628D01*
X0117098Y0030726D02*
X0114302Y0030726D01*
X0114302Y0030825D02*
X0117098Y0030825D01*
X0117098Y0030923D02*
X0114302Y0030923D01*
X0114302Y0031022D02*
X0117098Y0031022D01*
X0117098Y0031120D02*
X0114302Y0031120D01*
X0114302Y0031219D02*
X0117098Y0031219D01*
X0117098Y0031317D02*
X0114302Y0031317D01*
X0114302Y0031416D02*
X0117098Y0031416D01*
X0117098Y0031514D02*
X0114302Y0031514D01*
X0114302Y0031613D02*
X0117098Y0031613D01*
X0117098Y0031711D02*
X0114302Y0031711D01*
X0114302Y0031810D02*
X0117098Y0031810D01*
X0117098Y0031908D02*
X0114302Y0031908D01*
X0114302Y0032007D02*
X0117098Y0032007D01*
X0117098Y0032105D02*
X0114302Y0032105D01*
X0114302Y0032204D02*
X0117098Y0032204D01*
X0117098Y0032303D02*
X0114302Y0032303D01*
X0114302Y0032401D02*
X0117098Y0032401D01*
X0117098Y0032500D02*
X0114302Y0032500D01*
X0114302Y0032598D02*
X0117098Y0032598D01*
X0117098Y0032697D02*
X0114302Y0032697D01*
X0114302Y0032795D02*
X0117098Y0032795D01*
X0119302Y0032795D02*
X0119302Y0027394D01*
X0122098Y0027394D01*
X0122098Y0032795D01*
X0119302Y0032795D01*
X0122098Y0032795D01*
X0122098Y0032697D02*
X0119302Y0032697D01*
X0119302Y0032598D02*
X0122098Y0032598D01*
X0122098Y0032500D02*
X0119302Y0032500D01*
X0119302Y0032401D02*
X0122098Y0032401D01*
X0122098Y0032303D02*
X0119302Y0032303D01*
X0119302Y0032204D02*
X0122098Y0032204D01*
X0122098Y0032105D02*
X0119302Y0032105D01*
X0119302Y0032007D02*
X0122098Y0032007D01*
X0122098Y0031908D02*
X0119302Y0031908D01*
X0119302Y0031810D02*
X0122098Y0031810D01*
X0122098Y0031711D02*
X0119302Y0031711D01*
X0119302Y0031613D02*
X0122098Y0031613D01*
X0122098Y0031514D02*
X0119302Y0031514D01*
X0119302Y0031416D02*
X0122098Y0031416D01*
X0122098Y0031317D02*
X0119302Y0031317D01*
X0119302Y0031219D02*
X0122098Y0031219D01*
X0122098Y0031120D02*
X0119302Y0031120D01*
X0119302Y0031022D02*
X0122098Y0031022D01*
X0122098Y0030923D02*
X0119302Y0030923D01*
X0119302Y0030825D02*
X0122098Y0030825D01*
X0122098Y0030726D02*
X0119302Y0030726D01*
X0119302Y0030628D02*
X0122098Y0030628D01*
X0122098Y0030529D02*
X0119302Y0030529D01*
X0119302Y0030431D02*
X0122098Y0030431D01*
X0122098Y0030332D02*
X0119302Y0030332D01*
X0119302Y0030234D02*
X0122098Y0030234D01*
X0122098Y0030135D02*
X0119302Y0030135D01*
X0119302Y0030037D02*
X0122098Y0030037D01*
X0122098Y0029938D02*
X0119302Y0029938D01*
X0119302Y0029840D02*
X0122098Y0029840D01*
X0122098Y0029741D02*
X0119302Y0029741D01*
X0119302Y0029643D02*
X0122098Y0029643D01*
X0122098Y0029544D02*
X0119302Y0029544D01*
X0119302Y0029446D02*
X0122098Y0029446D01*
X0122098Y0029347D02*
X0119302Y0029347D01*
X0119302Y0029249D02*
X0122098Y0029249D01*
X0122098Y0029150D02*
X0119302Y0029150D01*
X0119302Y0029052D02*
X0122098Y0029052D01*
X0122098Y0028953D02*
X0119302Y0028953D01*
X0119302Y0028855D02*
X0122098Y0028855D01*
X0122098Y0028756D02*
X0119302Y0028756D01*
X0119302Y0028658D02*
X0122098Y0028658D01*
X0122098Y0028559D02*
X0119302Y0028559D01*
X0119302Y0028461D02*
X0122098Y0028461D01*
X0122098Y0028362D02*
X0119302Y0028362D01*
X0119302Y0028264D02*
X0122098Y0028264D01*
X0122098Y0028165D02*
X0119302Y0028165D01*
X0119302Y0028067D02*
X0122098Y0028067D01*
X0122098Y0027968D02*
X0119302Y0027968D01*
X0119302Y0027870D02*
X0122098Y0027870D01*
X0122098Y0027771D02*
X0119302Y0027771D01*
X0119302Y0027672D02*
X0122098Y0027672D01*
X0122098Y0027574D02*
X0119302Y0027574D01*
X0119302Y0027475D02*
X0122098Y0027475D01*
X0124302Y0027475D02*
X0127098Y0027475D01*
X0127098Y0027394D02*
X0124302Y0027394D01*
X0124302Y0032795D01*
X0127098Y0032795D01*
X0127098Y0027394D01*
X0127098Y0027574D02*
X0124302Y0027574D01*
X0124302Y0027672D02*
X0127098Y0027672D01*
X0127098Y0027771D02*
X0124302Y0027771D01*
X0124302Y0027870D02*
X0127098Y0027870D01*
X0127098Y0027968D02*
X0124302Y0027968D01*
X0124302Y0028067D02*
X0127098Y0028067D01*
X0127098Y0028165D02*
X0124302Y0028165D01*
X0124302Y0028264D02*
X0127098Y0028264D01*
X0127098Y0028362D02*
X0124302Y0028362D01*
X0124302Y0028461D02*
X0127098Y0028461D01*
X0127098Y0028559D02*
X0124302Y0028559D01*
X0124302Y0028658D02*
X0127098Y0028658D01*
X0127098Y0028756D02*
X0124302Y0028756D01*
X0124302Y0028855D02*
X0127098Y0028855D01*
X0127098Y0028953D02*
X0124302Y0028953D01*
X0124302Y0029052D02*
X0127098Y0029052D01*
X0127098Y0029150D02*
X0124302Y0029150D01*
X0124302Y0029249D02*
X0127098Y0029249D01*
X0127098Y0029347D02*
X0124302Y0029347D01*
X0124302Y0029446D02*
X0127098Y0029446D01*
X0127098Y0029544D02*
X0124302Y0029544D01*
X0124302Y0029643D02*
X0127098Y0029643D01*
X0127098Y0029741D02*
X0124302Y0029741D01*
X0124302Y0029840D02*
X0127098Y0029840D01*
X0127098Y0029938D02*
X0124302Y0029938D01*
X0124302Y0030037D02*
X0127098Y0030037D01*
X0127098Y0030135D02*
X0124302Y0030135D01*
X0124302Y0030234D02*
X0127098Y0030234D01*
X0127098Y0030332D02*
X0124302Y0030332D01*
X0124302Y0030431D02*
X0127098Y0030431D01*
X0127098Y0030529D02*
X0124302Y0030529D01*
X0124302Y0030628D02*
X0127098Y0030628D01*
X0127098Y0030726D02*
X0124302Y0030726D01*
X0124302Y0030825D02*
X0127098Y0030825D01*
X0127098Y0030923D02*
X0124302Y0030923D01*
X0124302Y0031022D02*
X0127098Y0031022D01*
X0127098Y0031120D02*
X0124302Y0031120D01*
X0124302Y0031219D02*
X0127098Y0031219D01*
X0127098Y0031317D02*
X0124302Y0031317D01*
X0124302Y0031416D02*
X0127098Y0031416D01*
X0127098Y0031514D02*
X0124302Y0031514D01*
X0124302Y0031613D02*
X0127098Y0031613D01*
X0127098Y0031711D02*
X0124302Y0031711D01*
X0124302Y0031810D02*
X0127098Y0031810D01*
X0127098Y0031908D02*
X0124302Y0031908D01*
X0124302Y0032007D02*
X0127098Y0032007D01*
X0127098Y0032105D02*
X0124302Y0032105D01*
X0124302Y0032204D02*
X0127098Y0032204D01*
X0127098Y0032303D02*
X0124302Y0032303D01*
X0124302Y0032401D02*
X0127098Y0032401D01*
X0127098Y0032500D02*
X0124302Y0032500D01*
X0124302Y0032598D02*
X0127098Y0032598D01*
X0127098Y0032697D02*
X0124302Y0032697D01*
X0124302Y0032795D02*
X0127098Y0032795D01*
X0061940Y0078283D02*
X0058043Y0078283D01*
X0058043Y0079937D01*
X0061940Y0079937D01*
X0061940Y0078283D01*
X0061940Y0078307D02*
X0058043Y0078307D01*
X0058043Y0078406D02*
X0061940Y0078406D01*
X0061940Y0078504D02*
X0058043Y0078504D01*
X0058043Y0078603D02*
X0061940Y0078603D01*
X0061940Y0078701D02*
X0058043Y0078701D01*
X0058043Y0078800D02*
X0061940Y0078800D01*
X0061940Y0078898D02*
X0058043Y0078898D01*
X0058043Y0078997D02*
X0061940Y0078997D01*
X0061940Y0079095D02*
X0058043Y0079095D01*
X0058043Y0079194D02*
X0061940Y0079194D01*
X0061940Y0079292D02*
X0058043Y0079292D01*
X0058043Y0079391D02*
X0061940Y0079391D01*
X0061940Y0079489D02*
X0058043Y0079489D01*
X0058043Y0079588D02*
X0061940Y0079588D01*
X0061940Y0079686D02*
X0058043Y0079686D01*
X0058043Y0079785D02*
X0061940Y0079785D01*
X0061940Y0079883D02*
X0058043Y0079883D01*
X0058043Y0080252D02*
X0058043Y0081906D01*
X0061940Y0081906D01*
X0061940Y0080252D01*
X0058043Y0080252D01*
X0058043Y0080278D02*
X0061940Y0080278D01*
X0061940Y0080376D02*
X0058043Y0080376D01*
X0058043Y0080475D02*
X0061940Y0080475D01*
X0061940Y0080573D02*
X0058043Y0080573D01*
X0058043Y0080672D02*
X0061940Y0080672D01*
X0061940Y0080770D02*
X0058043Y0080770D01*
X0058043Y0080869D02*
X0061940Y0080869D01*
X0061940Y0080967D02*
X0058043Y0080967D01*
X0058043Y0081066D02*
X0061940Y0081066D01*
X0061940Y0081164D02*
X0058043Y0081164D01*
X0058043Y0081263D02*
X0061940Y0081263D01*
X0061940Y0081361D02*
X0058043Y0081361D01*
X0058043Y0081460D02*
X0061940Y0081460D01*
X0061940Y0081558D02*
X0058043Y0081558D01*
X0058043Y0081657D02*
X0061940Y0081657D01*
X0061940Y0081755D02*
X0058043Y0081755D01*
X0058043Y0081854D02*
X0061940Y0081854D01*
X0061940Y0082220D02*
X0058043Y0082220D01*
X0058043Y0083874D01*
X0061940Y0083874D01*
X0061940Y0082220D01*
X0061940Y0082248D02*
X0058043Y0082248D01*
X0058043Y0082346D02*
X0061940Y0082346D01*
X0061940Y0082445D02*
X0058043Y0082445D01*
X0058043Y0082543D02*
X0061940Y0082543D01*
X0061940Y0082642D02*
X0058043Y0082642D01*
X0058043Y0082740D02*
X0061940Y0082740D01*
X0061940Y0082839D02*
X0058043Y0082839D01*
X0058043Y0082937D02*
X0061940Y0082937D01*
X0061940Y0083036D02*
X0058043Y0083036D01*
X0058043Y0083134D02*
X0061940Y0083134D01*
X0061940Y0083233D02*
X0058043Y0083233D01*
X0058043Y0083331D02*
X0061940Y0083331D01*
X0061940Y0083430D02*
X0058043Y0083430D01*
X0058043Y0083528D02*
X0061940Y0083528D01*
X0061940Y0083627D02*
X0058043Y0083627D01*
X0058043Y0083725D02*
X0061940Y0083725D01*
X0061940Y0083824D02*
X0058043Y0083824D01*
X0058043Y0084189D02*
X0058043Y0085843D01*
X0061940Y0085843D01*
X0061940Y0084189D01*
X0058043Y0084189D01*
X0058043Y0084218D02*
X0061940Y0084218D01*
X0061940Y0084316D02*
X0058043Y0084316D01*
X0058043Y0084415D02*
X0061940Y0084415D01*
X0061940Y0084514D02*
X0058043Y0084514D01*
X0058043Y0084612D02*
X0061940Y0084612D01*
X0061940Y0084711D02*
X0058043Y0084711D01*
X0058043Y0084809D02*
X0061940Y0084809D01*
X0061940Y0084908D02*
X0058043Y0084908D01*
X0058043Y0085006D02*
X0061940Y0085006D01*
X0061940Y0085105D02*
X0058043Y0085105D01*
X0058043Y0085203D02*
X0061940Y0085203D01*
X0061940Y0085302D02*
X0058043Y0085302D01*
X0058043Y0085400D02*
X0061940Y0085400D01*
X0061940Y0085499D02*
X0058043Y0085499D01*
X0058043Y0085597D02*
X0061940Y0085597D01*
X0061940Y0085696D02*
X0058043Y0085696D01*
X0058043Y0085794D02*
X0061940Y0085794D01*
X0061940Y0086157D02*
X0058043Y0086157D01*
X0058043Y0087811D01*
X0061940Y0087811D01*
X0061940Y0086157D01*
X0061940Y0086188D02*
X0058043Y0086188D01*
X0058043Y0086287D02*
X0061940Y0086287D01*
X0061940Y0086385D02*
X0058043Y0086385D01*
X0058043Y0086484D02*
X0061940Y0086484D01*
X0061940Y0086582D02*
X0058043Y0086582D01*
X0058043Y0086681D02*
X0061940Y0086681D01*
X0061940Y0086779D02*
X0058043Y0086779D01*
X0058043Y0086878D02*
X0061940Y0086878D01*
X0061940Y0086976D02*
X0058043Y0086976D01*
X0058043Y0087075D02*
X0061940Y0087075D01*
X0061940Y0087173D02*
X0058043Y0087173D01*
X0058043Y0087272D02*
X0061940Y0087272D01*
X0061940Y0087370D02*
X0058043Y0087370D01*
X0058043Y0087469D02*
X0061940Y0087469D01*
X0061940Y0087567D02*
X0058043Y0087567D01*
X0058043Y0087666D02*
X0061940Y0087666D01*
X0061940Y0087764D02*
X0058043Y0087764D01*
X0058043Y0088126D02*
X0058043Y0089780D01*
X0061940Y0089780D01*
X0061940Y0088126D01*
X0058043Y0088126D01*
X0058043Y0088158D02*
X0061940Y0088158D01*
X0061940Y0088257D02*
X0058043Y0088257D01*
X0058043Y0088355D02*
X0061940Y0088355D01*
X0061940Y0088454D02*
X0058043Y0088454D01*
X0058043Y0088552D02*
X0061940Y0088552D01*
X0061940Y0088651D02*
X0058043Y0088651D01*
X0058043Y0088750D02*
X0061940Y0088750D01*
X0061940Y0088848D02*
X0058043Y0088848D01*
X0058043Y0088947D02*
X0061940Y0088947D01*
X0061940Y0089045D02*
X0058043Y0089045D01*
X0058043Y0089144D02*
X0061940Y0089144D01*
X0061940Y0089242D02*
X0058043Y0089242D01*
X0058043Y0089341D02*
X0061940Y0089341D01*
X0061940Y0089439D02*
X0058043Y0089439D01*
X0058043Y0089538D02*
X0061940Y0089538D01*
X0061940Y0089636D02*
X0058043Y0089636D01*
X0058043Y0089735D02*
X0061940Y0089735D01*
X0061940Y0090094D02*
X0058043Y0090094D01*
X0058043Y0091748D01*
X0061940Y0091748D01*
X0061940Y0090094D01*
X0061940Y0090129D02*
X0058043Y0090129D01*
X0058043Y0090227D02*
X0061940Y0090227D01*
X0061940Y0090326D02*
X0058043Y0090326D01*
X0058043Y0090424D02*
X0061940Y0090424D01*
X0061940Y0090523D02*
X0058043Y0090523D01*
X0058043Y0090621D02*
X0061940Y0090621D01*
X0061940Y0090720D02*
X0058043Y0090720D01*
X0058043Y0090818D02*
X0061940Y0090818D01*
X0061940Y0090917D02*
X0058043Y0090917D01*
X0058043Y0091015D02*
X0061940Y0091015D01*
X0061940Y0091114D02*
X0058043Y0091114D01*
X0058043Y0091212D02*
X0061940Y0091212D01*
X0061940Y0091311D02*
X0058043Y0091311D01*
X0058043Y0091409D02*
X0061940Y0091409D01*
X0061940Y0091508D02*
X0058043Y0091508D01*
X0058043Y0091606D02*
X0061940Y0091606D01*
X0061940Y0091705D02*
X0058043Y0091705D01*
X0058043Y0092063D02*
X0058043Y0093717D01*
X0061940Y0093717D01*
X0061940Y0092063D01*
X0058043Y0092063D01*
X0058043Y0092099D02*
X0061940Y0092099D01*
X0061940Y0092197D02*
X0058043Y0092197D01*
X0058043Y0092296D02*
X0061940Y0092296D01*
X0061940Y0092394D02*
X0058043Y0092394D01*
X0058043Y0092493D02*
X0061940Y0092493D01*
X0061940Y0092591D02*
X0058043Y0092591D01*
X0058043Y0092690D02*
X0061940Y0092690D01*
X0061940Y0092788D02*
X0058043Y0092788D01*
X0058043Y0092887D02*
X0061940Y0092887D01*
X0061940Y0092985D02*
X0058043Y0092985D01*
X0058043Y0093084D02*
X0061940Y0093084D01*
X0061940Y0093183D02*
X0058043Y0093183D01*
X0058043Y0093281D02*
X0061940Y0093281D01*
X0061940Y0093380D02*
X0058043Y0093380D01*
X0058043Y0093478D02*
X0061940Y0093478D01*
X0061940Y0093577D02*
X0058043Y0093577D01*
X0058043Y0093675D02*
X0061940Y0093675D01*
X0057485Y0092254D02*
X0057485Y0089887D01*
X0048915Y0089887D01*
X0048915Y0092254D01*
X0048915Y0079746D01*
X0050863Y0079746D01*
X0050863Y0092254D01*
X0048915Y0092254D01*
X0057485Y0092254D01*
X0057485Y0079746D01*
X0055537Y0079746D01*
X0055537Y0092254D01*
X0057485Y0092254D01*
X0057485Y0092197D02*
X0055537Y0092197D01*
X0055537Y0092099D02*
X0057485Y0092099D01*
X0048915Y0092099D01*
X0050863Y0092099D01*
X0050863Y0092197D02*
X0048915Y0092197D01*
X0057485Y0092197D01*
X0057485Y0092000D02*
X0055537Y0092000D01*
X0055537Y0091902D02*
X0057485Y0091902D01*
X0048915Y0091902D01*
X0050863Y0091902D01*
X0050863Y0092000D02*
X0048915Y0092000D01*
X0057485Y0092000D01*
X0057485Y0091803D02*
X0055537Y0091803D01*
X0055537Y0091705D02*
X0057485Y0091705D01*
X0048915Y0091705D01*
X0050863Y0091705D01*
X0050863Y0091803D02*
X0048915Y0091803D01*
X0057485Y0091803D01*
X0057485Y0091606D02*
X0055537Y0091606D01*
X0055537Y0091508D02*
X0057485Y0091508D01*
X0048915Y0091508D01*
X0050863Y0091508D01*
X0050863Y0091606D02*
X0048915Y0091606D01*
X0057485Y0091606D01*
X0057485Y0091409D02*
X0055537Y0091409D01*
X0055537Y0091311D02*
X0057485Y0091311D01*
X0048915Y0091311D01*
X0050863Y0091311D01*
X0050863Y0091409D02*
X0048915Y0091409D01*
X0057485Y0091409D01*
X0057485Y0091212D02*
X0055537Y0091212D01*
X0055537Y0091114D02*
X0057485Y0091114D01*
X0048915Y0091114D01*
X0050863Y0091114D01*
X0050863Y0091212D02*
X0048915Y0091212D01*
X0057485Y0091212D01*
X0057485Y0091015D02*
X0055537Y0091015D01*
X0055537Y0090917D02*
X0057485Y0090917D01*
X0048915Y0090917D01*
X0050863Y0090917D01*
X0050863Y0091015D02*
X0048915Y0091015D01*
X0057485Y0091015D01*
X0057485Y0090818D02*
X0055537Y0090818D01*
X0055537Y0090720D02*
X0057485Y0090720D01*
X0048915Y0090720D01*
X0050863Y0090720D01*
X0050863Y0090818D02*
X0048915Y0090818D01*
X0057485Y0090818D01*
X0057485Y0090621D02*
X0055537Y0090621D01*
X0055537Y0090523D02*
X0057485Y0090523D01*
X0048915Y0090523D01*
X0050863Y0090523D01*
X0050863Y0090621D02*
X0048915Y0090621D01*
X0057485Y0090621D01*
X0057485Y0090424D02*
X0055537Y0090424D01*
X0055537Y0090326D02*
X0057485Y0090326D01*
X0048915Y0090326D01*
X0050863Y0090326D01*
X0050863Y0090424D02*
X0048915Y0090424D01*
X0057485Y0090424D01*
X0057485Y0090227D02*
X0055537Y0090227D01*
X0055537Y0090129D02*
X0057485Y0090129D01*
X0048915Y0090129D01*
X0050863Y0090129D01*
X0050863Y0090227D02*
X0048915Y0090227D01*
X0057485Y0090227D01*
X0057485Y0090030D02*
X0055537Y0090030D01*
X0055537Y0089932D02*
X0057485Y0089932D01*
X0048915Y0089932D01*
X0050863Y0089932D01*
X0050863Y0090030D02*
X0048915Y0090030D01*
X0057485Y0090030D01*
X0057485Y0089833D02*
X0055537Y0089833D01*
X0055537Y0089735D02*
X0057485Y0089735D01*
X0057485Y0089636D02*
X0055537Y0089636D01*
X0055537Y0089538D02*
X0057485Y0089538D01*
X0057485Y0089439D02*
X0055537Y0089439D01*
X0055537Y0089341D02*
X0057485Y0089341D01*
X0057485Y0089242D02*
X0055537Y0089242D01*
X0055537Y0089144D02*
X0057485Y0089144D01*
X0057485Y0089045D02*
X0055537Y0089045D01*
X0055537Y0088947D02*
X0057485Y0088947D01*
X0057485Y0088848D02*
X0055537Y0088848D01*
X0055537Y0088750D02*
X0057485Y0088750D01*
X0057485Y0088651D02*
X0055537Y0088651D01*
X0055537Y0088552D02*
X0057485Y0088552D01*
X0057485Y0088454D02*
X0055537Y0088454D01*
X0055537Y0088355D02*
X0057485Y0088355D01*
X0057485Y0088313D02*
X0057485Y0086787D01*
X0048915Y0086787D01*
X0048915Y0088313D01*
X0057485Y0088313D01*
X0057485Y0088257D02*
X0055537Y0088257D01*
X0055537Y0088158D02*
X0057485Y0088158D01*
X0048915Y0088158D01*
X0050863Y0088158D01*
X0050863Y0088060D02*
X0048915Y0088060D01*
X0057485Y0088060D01*
X0055537Y0088060D01*
X0055537Y0087961D02*
X0057485Y0087961D01*
X0048915Y0087961D01*
X0050863Y0087961D01*
X0050863Y0087863D02*
X0048915Y0087863D01*
X0057485Y0087863D01*
X0055537Y0087863D01*
X0055537Y0087764D02*
X0057485Y0087764D01*
X0048915Y0087764D01*
X0050863Y0087764D01*
X0050863Y0087666D02*
X0048915Y0087666D01*
X0057485Y0087666D01*
X0055537Y0087666D01*
X0055537Y0087567D02*
X0057485Y0087567D01*
X0048915Y0087567D01*
X0050863Y0087567D01*
X0050863Y0087469D02*
X0048915Y0087469D01*
X0057485Y0087469D01*
X0055537Y0087469D01*
X0055537Y0087370D02*
X0057485Y0087370D01*
X0048915Y0087370D01*
X0050863Y0087370D01*
X0050863Y0087272D02*
X0048915Y0087272D01*
X0057485Y0087272D01*
X0055537Y0087272D01*
X0055537Y0087173D02*
X0057485Y0087173D01*
X0048915Y0087173D01*
X0050863Y0087173D01*
X0050863Y0087075D02*
X0048915Y0087075D01*
X0057485Y0087075D01*
X0055537Y0087075D01*
X0055537Y0086976D02*
X0057485Y0086976D01*
X0048915Y0086976D01*
X0050863Y0086976D01*
X0050863Y0086878D02*
X0048915Y0086878D01*
X0057485Y0086878D01*
X0055537Y0086878D01*
X0055537Y0086779D02*
X0057485Y0086779D01*
X0057485Y0086681D02*
X0055537Y0086681D01*
X0055537Y0086582D02*
X0057485Y0086582D01*
X0057485Y0086484D02*
X0055537Y0086484D01*
X0055537Y0086385D02*
X0057485Y0086385D01*
X0057485Y0086287D02*
X0055537Y0086287D01*
X0055537Y0086188D02*
X0057485Y0086188D01*
X0057485Y0086090D02*
X0055537Y0086090D01*
X0055537Y0085991D02*
X0057485Y0085991D01*
X0057485Y0085893D02*
X0055537Y0085893D01*
X0055537Y0085794D02*
X0057485Y0085794D01*
X0057485Y0085696D02*
X0055537Y0085696D01*
X0055537Y0085597D02*
X0057485Y0085597D01*
X0057485Y0085499D02*
X0055537Y0085499D01*
X0055537Y0085400D02*
X0057485Y0085400D01*
X0057485Y0085302D02*
X0055537Y0085302D01*
X0055537Y0085203D02*
X0057485Y0085203D01*
X0048915Y0085203D01*
X0050863Y0085203D01*
X0050863Y0085105D02*
X0048915Y0085105D01*
X0057485Y0085105D01*
X0055537Y0085105D01*
X0055537Y0085006D02*
X0057485Y0085006D01*
X0048915Y0085006D01*
X0050863Y0085006D01*
X0050863Y0084908D02*
X0048915Y0084908D01*
X0057485Y0084908D01*
X0055537Y0084908D01*
X0055537Y0084809D02*
X0057485Y0084809D01*
X0048915Y0084809D01*
X0050863Y0084809D01*
X0050863Y0084711D02*
X0048915Y0084711D01*
X0057485Y0084711D01*
X0055537Y0084711D01*
X0055537Y0084612D02*
X0057485Y0084612D01*
X0048915Y0084612D01*
X0050863Y0084612D01*
X0050863Y0084514D02*
X0048915Y0084514D01*
X0057485Y0084514D01*
X0055537Y0084514D01*
X0055537Y0084415D02*
X0057485Y0084415D01*
X0048915Y0084415D01*
X0050863Y0084415D01*
X0050863Y0084316D02*
X0048915Y0084316D01*
X0057485Y0084316D01*
X0055537Y0084316D01*
X0055537Y0084218D02*
X0057485Y0084218D01*
X0048915Y0084218D01*
X0050863Y0084218D01*
X0050863Y0084119D02*
X0048915Y0084119D01*
X0057485Y0084119D01*
X0055537Y0084119D01*
X0055537Y0084021D02*
X0057485Y0084021D01*
X0048915Y0084021D01*
X0050863Y0084021D01*
X0050863Y0083922D02*
X0048915Y0083922D01*
X0057485Y0083922D01*
X0055537Y0083922D01*
X0055537Y0083824D02*
X0057485Y0083824D01*
X0048915Y0083824D01*
X0050863Y0083824D01*
X0050863Y0083725D02*
X0048915Y0083725D01*
X0057485Y0083725D01*
X0055537Y0083725D01*
X0055537Y0083627D02*
X0057485Y0083627D01*
X0057485Y0083687D02*
X0057485Y0085213D01*
X0048915Y0085213D01*
X0048915Y0083687D01*
X0057485Y0083687D01*
X0057485Y0083528D02*
X0055537Y0083528D01*
X0055537Y0083430D02*
X0057485Y0083430D01*
X0057485Y0083331D02*
X0055537Y0083331D01*
X0055537Y0083233D02*
X0057485Y0083233D01*
X0057485Y0083134D02*
X0055537Y0083134D01*
X0055537Y0083036D02*
X0057485Y0083036D01*
X0057485Y0082937D02*
X0055537Y0082937D01*
X0055537Y0082839D02*
X0057485Y0082839D01*
X0057485Y0082740D02*
X0055537Y0082740D01*
X0055537Y0082642D02*
X0057485Y0082642D01*
X0057485Y0082543D02*
X0055537Y0082543D01*
X0055537Y0082445D02*
X0057485Y0082445D01*
X0057485Y0082346D02*
X0055537Y0082346D01*
X0055537Y0082248D02*
X0057485Y0082248D01*
X0057485Y0082149D02*
X0055537Y0082149D01*
X0055537Y0082051D02*
X0057485Y0082051D01*
X0048915Y0082051D01*
X0050863Y0082051D01*
X0050863Y0082149D02*
X0048915Y0082149D01*
X0048915Y0082113D02*
X0048915Y0079746D01*
X0057485Y0079746D01*
X0057485Y0082113D01*
X0048915Y0082113D01*
X0048915Y0082248D02*
X0050863Y0082248D01*
X0050863Y0082346D02*
X0048915Y0082346D01*
X0048915Y0082445D02*
X0050863Y0082445D01*
X0050863Y0082543D02*
X0048915Y0082543D01*
X0048915Y0082642D02*
X0050863Y0082642D01*
X0050863Y0082740D02*
X0048915Y0082740D01*
X0048915Y0082839D02*
X0050863Y0082839D01*
X0050863Y0082937D02*
X0048915Y0082937D01*
X0048915Y0083036D02*
X0050863Y0083036D01*
X0050863Y0083134D02*
X0048915Y0083134D01*
X0048915Y0083233D02*
X0050863Y0083233D01*
X0050863Y0083331D02*
X0048915Y0083331D01*
X0048915Y0083430D02*
X0050863Y0083430D01*
X0050863Y0083528D02*
X0048915Y0083528D01*
X0048915Y0083627D02*
X0050863Y0083627D01*
X0052437Y0083627D02*
X0053963Y0083627D01*
X0053963Y0083725D02*
X0052437Y0083725D01*
X0052437Y0083824D02*
X0053963Y0083824D01*
X0053963Y0083922D02*
X0052437Y0083922D01*
X0052437Y0084021D02*
X0053963Y0084021D01*
X0053963Y0084119D02*
X0052437Y0084119D01*
X0052437Y0084218D02*
X0053963Y0084218D01*
X0053963Y0084316D02*
X0052437Y0084316D01*
X0052437Y0084415D02*
X0053963Y0084415D01*
X0053963Y0084514D02*
X0052437Y0084514D01*
X0052437Y0084612D02*
X0053963Y0084612D01*
X0053963Y0084711D02*
X0052437Y0084711D01*
X0052437Y0084809D02*
X0053963Y0084809D01*
X0053963Y0084908D02*
X0052437Y0084908D01*
X0052437Y0085006D02*
X0053963Y0085006D01*
X0053963Y0085105D02*
X0052437Y0085105D01*
X0052437Y0085203D02*
X0053963Y0085203D01*
X0053963Y0085302D02*
X0052437Y0085302D01*
X0052437Y0085400D02*
X0053963Y0085400D01*
X0053963Y0085499D02*
X0052437Y0085499D01*
X0052437Y0085597D02*
X0053963Y0085597D01*
X0053963Y0085696D02*
X0052437Y0085696D01*
X0052437Y0085794D02*
X0053963Y0085794D01*
X0053963Y0085893D02*
X0052437Y0085893D01*
X0052437Y0085991D02*
X0053963Y0085991D01*
X0053963Y0086090D02*
X0052437Y0086090D01*
X0052437Y0086188D02*
X0053963Y0086188D01*
X0053963Y0086287D02*
X0052437Y0086287D01*
X0052437Y0086385D02*
X0053963Y0086385D01*
X0053963Y0086484D02*
X0052437Y0086484D01*
X0052437Y0086582D02*
X0053963Y0086582D01*
X0053963Y0086681D02*
X0052437Y0086681D01*
X0052437Y0086779D02*
X0053963Y0086779D01*
X0053963Y0086878D02*
X0052437Y0086878D01*
X0052437Y0086976D02*
X0053963Y0086976D01*
X0053963Y0087075D02*
X0052437Y0087075D01*
X0052437Y0087173D02*
X0053963Y0087173D01*
X0053963Y0087272D02*
X0052437Y0087272D01*
X0052437Y0087370D02*
X0053963Y0087370D01*
X0053963Y0087469D02*
X0052437Y0087469D01*
X0052437Y0087567D02*
X0053963Y0087567D01*
X0053963Y0087666D02*
X0052437Y0087666D01*
X0052437Y0087764D02*
X0053963Y0087764D01*
X0053963Y0087863D02*
X0052437Y0087863D01*
X0052437Y0087961D02*
X0053963Y0087961D01*
X0053963Y0088060D02*
X0052437Y0088060D01*
X0052437Y0088158D02*
X0053963Y0088158D01*
X0053963Y0088257D02*
X0052437Y0088257D01*
X0052437Y0088355D02*
X0053963Y0088355D01*
X0053963Y0088454D02*
X0052437Y0088454D01*
X0052437Y0088552D02*
X0053963Y0088552D01*
X0053963Y0088651D02*
X0052437Y0088651D01*
X0052437Y0088750D02*
X0053963Y0088750D01*
X0053963Y0088848D02*
X0052437Y0088848D01*
X0052437Y0088947D02*
X0053963Y0088947D01*
X0053963Y0089045D02*
X0052437Y0089045D01*
X0052437Y0089144D02*
X0053963Y0089144D01*
X0053963Y0089242D02*
X0052437Y0089242D01*
X0052437Y0089341D02*
X0053963Y0089341D01*
X0053963Y0089439D02*
X0052437Y0089439D01*
X0052437Y0089538D02*
X0053963Y0089538D01*
X0053963Y0089636D02*
X0052437Y0089636D01*
X0052437Y0089735D02*
X0053963Y0089735D01*
X0053963Y0089833D02*
X0052437Y0089833D01*
X0052437Y0089932D02*
X0053963Y0089932D01*
X0053963Y0090030D02*
X0052437Y0090030D01*
X0052437Y0090129D02*
X0053963Y0090129D01*
X0053963Y0090227D02*
X0052437Y0090227D01*
X0052437Y0090326D02*
X0053963Y0090326D01*
X0053963Y0090424D02*
X0052437Y0090424D01*
X0052437Y0090523D02*
X0053963Y0090523D01*
X0053963Y0090621D02*
X0052437Y0090621D01*
X0052437Y0090720D02*
X0053963Y0090720D01*
X0053963Y0090818D02*
X0052437Y0090818D01*
X0052437Y0090917D02*
X0053963Y0090917D01*
X0053963Y0091015D02*
X0052437Y0091015D01*
X0052437Y0091114D02*
X0053963Y0091114D01*
X0053963Y0091212D02*
X0052437Y0091212D01*
X0052437Y0091311D02*
X0053963Y0091311D01*
X0053963Y0091409D02*
X0052437Y0091409D01*
X0052437Y0091508D02*
X0053963Y0091508D01*
X0053963Y0091606D02*
X0052437Y0091606D01*
X0052437Y0091705D02*
X0053963Y0091705D01*
X0053963Y0091803D02*
X0052437Y0091803D01*
X0052437Y0091902D02*
X0053963Y0091902D01*
X0053963Y0092000D02*
X0052437Y0092000D01*
X0052437Y0092099D02*
X0053963Y0092099D01*
X0053963Y0092197D02*
X0052437Y0092197D01*
X0052437Y0092254D02*
X0052437Y0079746D01*
X0053963Y0079746D01*
X0053963Y0092254D01*
X0052437Y0092254D01*
X0051074Y0092811D02*
X0051074Y0096709D01*
X0049420Y0096709D01*
X0049420Y0092811D01*
X0051074Y0092811D01*
X0051074Y0092887D02*
X0049420Y0092887D01*
X0049420Y0092985D02*
X0051074Y0092985D01*
X0051074Y0093084D02*
X0049420Y0093084D01*
X0049420Y0093183D02*
X0051074Y0093183D01*
X0051074Y0093281D02*
X0049420Y0093281D01*
X0049420Y0093380D02*
X0051074Y0093380D01*
X0051074Y0093478D02*
X0049420Y0093478D01*
X0049420Y0093577D02*
X0051074Y0093577D01*
X0051074Y0093675D02*
X0049420Y0093675D01*
X0049420Y0093774D02*
X0051074Y0093774D01*
X0051074Y0093872D02*
X0049420Y0093872D01*
X0049420Y0093971D02*
X0051074Y0093971D01*
X0051074Y0094069D02*
X0049420Y0094069D01*
X0049420Y0094168D02*
X0051074Y0094168D01*
X0051074Y0094266D02*
X0049420Y0094266D01*
X0049420Y0094365D02*
X0051074Y0094365D01*
X0051074Y0094463D02*
X0049420Y0094463D01*
X0049420Y0094562D02*
X0051074Y0094562D01*
X0051074Y0094660D02*
X0049420Y0094660D01*
X0049420Y0094759D02*
X0051074Y0094759D01*
X0051074Y0094857D02*
X0049420Y0094857D01*
X0049420Y0094956D02*
X0051074Y0094956D01*
X0051074Y0095054D02*
X0049420Y0095054D01*
X0049420Y0095153D02*
X0051074Y0095153D01*
X0051074Y0095251D02*
X0049420Y0095251D01*
X0049420Y0095350D02*
X0051074Y0095350D01*
X0051074Y0095448D02*
X0049420Y0095448D01*
X0049420Y0095547D02*
X0051074Y0095547D01*
X0051074Y0095645D02*
X0049420Y0095645D01*
X0049420Y0095744D02*
X0051074Y0095744D01*
X0051074Y0095842D02*
X0049420Y0095842D01*
X0049420Y0095941D02*
X0051074Y0095941D01*
X0051074Y0096039D02*
X0049420Y0096039D01*
X0049420Y0096138D02*
X0051074Y0096138D01*
X0051074Y0096236D02*
X0049420Y0096236D01*
X0049420Y0096335D02*
X0051074Y0096335D01*
X0051074Y0096433D02*
X0049420Y0096433D01*
X0049420Y0096532D02*
X0051074Y0096532D01*
X0051074Y0096630D02*
X0049420Y0096630D01*
X0048357Y0093717D02*
X0044460Y0093717D01*
X0044460Y0092063D01*
X0048357Y0092063D01*
X0048357Y0093717D01*
X0048357Y0093675D02*
X0044460Y0093675D01*
X0044460Y0093577D02*
X0048357Y0093577D01*
X0048357Y0093478D02*
X0044460Y0093478D01*
X0044460Y0093380D02*
X0048357Y0093380D01*
X0048357Y0093281D02*
X0044460Y0093281D01*
X0044460Y0093183D02*
X0048357Y0093183D01*
X0048357Y0093084D02*
X0044460Y0093084D01*
X0044460Y0092985D02*
X0048357Y0092985D01*
X0048357Y0092887D02*
X0044460Y0092887D01*
X0044460Y0092788D02*
X0048357Y0092788D01*
X0048357Y0092690D02*
X0044460Y0092690D01*
X0044460Y0092591D02*
X0048357Y0092591D01*
X0048357Y0092493D02*
X0044460Y0092493D01*
X0044460Y0092394D02*
X0048357Y0092394D01*
X0048357Y0092296D02*
X0044460Y0092296D01*
X0044460Y0092197D02*
X0048357Y0092197D01*
X0048357Y0092099D02*
X0044460Y0092099D01*
X0044460Y0091748D02*
X0048357Y0091748D01*
X0048357Y0090094D01*
X0044460Y0090094D01*
X0044460Y0091748D01*
X0044460Y0091705D02*
X0048357Y0091705D01*
X0048357Y0091606D02*
X0044460Y0091606D01*
X0044460Y0091508D02*
X0048357Y0091508D01*
X0048357Y0091409D02*
X0044460Y0091409D01*
X0044460Y0091311D02*
X0048357Y0091311D01*
X0048357Y0091212D02*
X0044460Y0091212D01*
X0044460Y0091114D02*
X0048357Y0091114D01*
X0048357Y0091015D02*
X0044460Y0091015D01*
X0044460Y0090917D02*
X0048357Y0090917D01*
X0048357Y0090818D02*
X0044460Y0090818D01*
X0044460Y0090720D02*
X0048357Y0090720D01*
X0048357Y0090621D02*
X0044460Y0090621D01*
X0044460Y0090523D02*
X0048357Y0090523D01*
X0048357Y0090424D02*
X0044460Y0090424D01*
X0044460Y0090326D02*
X0048357Y0090326D01*
X0048357Y0090227D02*
X0044460Y0090227D01*
X0044460Y0090129D02*
X0048357Y0090129D01*
X0048357Y0089780D02*
X0044460Y0089780D01*
X0044460Y0088126D01*
X0048357Y0088126D01*
X0048357Y0089780D01*
X0048357Y0089735D02*
X0044460Y0089735D01*
X0044460Y0089636D02*
X0048357Y0089636D01*
X0048357Y0089538D02*
X0044460Y0089538D01*
X0044460Y0089439D02*
X0048357Y0089439D01*
X0048357Y0089341D02*
X0044460Y0089341D01*
X0044460Y0089242D02*
X0048357Y0089242D01*
X0048357Y0089144D02*
X0044460Y0089144D01*
X0044460Y0089045D02*
X0048357Y0089045D01*
X0048357Y0088947D02*
X0044460Y0088947D01*
X0044460Y0088848D02*
X0048357Y0088848D01*
X0048357Y0088750D02*
X0044460Y0088750D01*
X0044460Y0088651D02*
X0048357Y0088651D01*
X0048357Y0088552D02*
X0044460Y0088552D01*
X0044460Y0088454D02*
X0048357Y0088454D01*
X0048357Y0088355D02*
X0044460Y0088355D01*
X0044460Y0088257D02*
X0048357Y0088257D01*
X0048357Y0088158D02*
X0044460Y0088158D01*
X0044460Y0087811D02*
X0048357Y0087811D01*
X0048357Y0086157D01*
X0044460Y0086157D01*
X0044460Y0087811D01*
X0044460Y0087764D02*
X0048357Y0087764D01*
X0048357Y0087666D02*
X0044460Y0087666D01*
X0044460Y0087567D02*
X0048357Y0087567D01*
X0048357Y0087469D02*
X0044460Y0087469D01*
X0044460Y0087370D02*
X0048357Y0087370D01*
X0048357Y0087272D02*
X0044460Y0087272D01*
X0044460Y0087173D02*
X0048357Y0087173D01*
X0048357Y0087075D02*
X0044460Y0087075D01*
X0044460Y0086976D02*
X0048357Y0086976D01*
X0048357Y0086878D02*
X0044460Y0086878D01*
X0044460Y0086779D02*
X0048357Y0086779D01*
X0048357Y0086681D02*
X0044460Y0086681D01*
X0044460Y0086582D02*
X0048357Y0086582D01*
X0048357Y0086484D02*
X0044460Y0086484D01*
X0044460Y0086385D02*
X0048357Y0086385D01*
X0048357Y0086287D02*
X0044460Y0086287D01*
X0044460Y0086188D02*
X0048357Y0086188D01*
X0048357Y0085843D02*
X0044460Y0085843D01*
X0044460Y0084189D01*
X0048357Y0084189D01*
X0048357Y0085843D01*
X0048357Y0085794D02*
X0044460Y0085794D01*
X0044460Y0085696D02*
X0048357Y0085696D01*
X0048357Y0085597D02*
X0044460Y0085597D01*
X0044460Y0085499D02*
X0048357Y0085499D01*
X0048357Y0085400D02*
X0044460Y0085400D01*
X0044460Y0085302D02*
X0048357Y0085302D01*
X0048357Y0085203D02*
X0044460Y0085203D01*
X0044460Y0085105D02*
X0048357Y0085105D01*
X0048357Y0085006D02*
X0044460Y0085006D01*
X0044460Y0084908D02*
X0048357Y0084908D01*
X0048357Y0084809D02*
X0044460Y0084809D01*
X0044460Y0084711D02*
X0048357Y0084711D01*
X0048357Y0084612D02*
X0044460Y0084612D01*
X0044460Y0084514D02*
X0048357Y0084514D01*
X0048357Y0084415D02*
X0044460Y0084415D01*
X0044460Y0084316D02*
X0048357Y0084316D01*
X0048357Y0084218D02*
X0044460Y0084218D01*
X0044460Y0083874D02*
X0048357Y0083874D01*
X0048357Y0082220D01*
X0044460Y0082220D01*
X0044460Y0083874D01*
X0044460Y0083824D02*
X0048357Y0083824D01*
X0048357Y0083725D02*
X0044460Y0083725D01*
X0044460Y0083627D02*
X0048357Y0083627D01*
X0048357Y0083528D02*
X0044460Y0083528D01*
X0044460Y0083430D02*
X0048357Y0083430D01*
X0048357Y0083331D02*
X0044460Y0083331D01*
X0044460Y0083233D02*
X0048357Y0083233D01*
X0048357Y0083134D02*
X0044460Y0083134D01*
X0044460Y0083036D02*
X0048357Y0083036D01*
X0048357Y0082937D02*
X0044460Y0082937D01*
X0044460Y0082839D02*
X0048357Y0082839D01*
X0048357Y0082740D02*
X0044460Y0082740D01*
X0044460Y0082642D02*
X0048357Y0082642D01*
X0048357Y0082543D02*
X0044460Y0082543D01*
X0044460Y0082445D02*
X0048357Y0082445D01*
X0048357Y0082346D02*
X0044460Y0082346D01*
X0044460Y0082248D02*
X0048357Y0082248D01*
X0048357Y0081906D02*
X0044460Y0081906D01*
X0044460Y0080252D01*
X0048357Y0080252D01*
X0048357Y0081906D01*
X0048357Y0081854D02*
X0044460Y0081854D01*
X0044460Y0081755D02*
X0048357Y0081755D01*
X0048357Y0081657D02*
X0044460Y0081657D01*
X0044460Y0081558D02*
X0048357Y0081558D01*
X0048357Y0081460D02*
X0044460Y0081460D01*
X0044460Y0081361D02*
X0048357Y0081361D01*
X0048357Y0081263D02*
X0044460Y0081263D01*
X0044460Y0081164D02*
X0048357Y0081164D01*
X0048357Y0081066D02*
X0044460Y0081066D01*
X0044460Y0080967D02*
X0048357Y0080967D01*
X0048357Y0080869D02*
X0044460Y0080869D01*
X0044460Y0080770D02*
X0048357Y0080770D01*
X0048357Y0080672D02*
X0044460Y0080672D01*
X0044460Y0080573D02*
X0048357Y0080573D01*
X0048357Y0080475D02*
X0044460Y0080475D01*
X0044460Y0080376D02*
X0048357Y0080376D01*
X0048357Y0080278D02*
X0044460Y0080278D01*
X0044460Y0079937D02*
X0048357Y0079937D01*
X0048357Y0078283D01*
X0044460Y0078283D01*
X0044460Y0079937D01*
X0044460Y0079883D02*
X0048357Y0079883D01*
X0048357Y0079785D02*
X0044460Y0079785D01*
X0044460Y0079686D02*
X0048357Y0079686D01*
X0048357Y0079588D02*
X0044460Y0079588D01*
X0044460Y0079489D02*
X0048357Y0079489D01*
X0048357Y0079391D02*
X0044460Y0079391D01*
X0044460Y0079292D02*
X0048357Y0079292D01*
X0048357Y0079194D02*
X0044460Y0079194D01*
X0044460Y0079095D02*
X0048357Y0079095D01*
X0048357Y0078997D02*
X0044460Y0078997D01*
X0044460Y0078898D02*
X0048357Y0078898D01*
X0048357Y0078800D02*
X0044460Y0078800D01*
X0044460Y0078701D02*
X0048357Y0078701D01*
X0048357Y0078603D02*
X0044460Y0078603D01*
X0044460Y0078504D02*
X0048357Y0078504D01*
X0048357Y0078406D02*
X0044460Y0078406D01*
X0044460Y0078307D02*
X0048357Y0078307D01*
X0049420Y0078307D02*
X0051074Y0078307D01*
X0051074Y0078209D02*
X0049420Y0078209D01*
X0049420Y0078110D02*
X0051074Y0078110D01*
X0051074Y0078012D02*
X0049420Y0078012D01*
X0049420Y0077913D02*
X0051074Y0077913D01*
X0051074Y0077815D02*
X0049420Y0077815D01*
X0049420Y0077716D02*
X0051074Y0077716D01*
X0051074Y0077618D02*
X0049420Y0077618D01*
X0049420Y0077519D02*
X0051074Y0077519D01*
X0051074Y0077421D02*
X0049420Y0077421D01*
X0049420Y0077322D02*
X0051074Y0077322D01*
X0051074Y0077224D02*
X0049420Y0077224D01*
X0049420Y0077125D02*
X0051074Y0077125D01*
X0051074Y0077027D02*
X0049420Y0077027D01*
X0049420Y0076928D02*
X0051074Y0076928D01*
X0051074Y0076830D02*
X0049420Y0076830D01*
X0049420Y0076731D02*
X0051074Y0076731D01*
X0051074Y0076633D02*
X0049420Y0076633D01*
X0049420Y0076534D02*
X0051074Y0076534D01*
X0051074Y0076436D02*
X0049420Y0076436D01*
X0049420Y0076337D02*
X0051074Y0076337D01*
X0051074Y0076239D02*
X0049420Y0076239D01*
X0049420Y0076140D02*
X0051074Y0076140D01*
X0051074Y0076042D02*
X0049420Y0076042D01*
X0049420Y0075943D02*
X0051074Y0075943D01*
X0051074Y0075845D02*
X0049420Y0075845D01*
X0049420Y0075746D02*
X0051074Y0075746D01*
X0051074Y0075648D02*
X0049420Y0075648D01*
X0049420Y0075549D02*
X0051074Y0075549D01*
X0051074Y0075450D02*
X0049420Y0075450D01*
X0049420Y0075352D02*
X0051074Y0075352D01*
X0051074Y0075291D02*
X0049420Y0075291D01*
X0049420Y0079189D01*
X0051074Y0079189D01*
X0051074Y0075291D01*
X0051074Y0078406D02*
X0049420Y0078406D01*
X0049420Y0078504D02*
X0051074Y0078504D01*
X0051074Y0078603D02*
X0049420Y0078603D01*
X0049420Y0078701D02*
X0051074Y0078701D01*
X0051074Y0078800D02*
X0049420Y0078800D01*
X0049420Y0078898D02*
X0051074Y0078898D01*
X0051074Y0078997D02*
X0049420Y0078997D01*
X0049420Y0079095D02*
X0051074Y0079095D01*
X0050863Y0079785D02*
X0048915Y0079785D01*
X0057485Y0079785D01*
X0055537Y0079785D01*
X0055537Y0079883D02*
X0057485Y0079883D01*
X0048915Y0079883D01*
X0050863Y0079883D01*
X0050863Y0079982D02*
X0048915Y0079982D01*
X0057485Y0079982D01*
X0055537Y0079982D01*
X0055537Y0080081D02*
X0057485Y0080081D01*
X0048915Y0080081D01*
X0050863Y0080081D01*
X0050863Y0080179D02*
X0048915Y0080179D01*
X0057485Y0080179D01*
X0055537Y0080179D01*
X0055537Y0080278D02*
X0057485Y0080278D01*
X0048915Y0080278D01*
X0050863Y0080278D01*
X0050863Y0080376D02*
X0048915Y0080376D01*
X0057485Y0080376D01*
X0055537Y0080376D01*
X0055537Y0080475D02*
X0057485Y0080475D01*
X0048915Y0080475D01*
X0050863Y0080475D01*
X0050863Y0080573D02*
X0048915Y0080573D01*
X0057485Y0080573D01*
X0055537Y0080573D01*
X0055537Y0080672D02*
X0057485Y0080672D01*
X0048915Y0080672D01*
X0050863Y0080672D01*
X0050863Y0080770D02*
X0048915Y0080770D01*
X0057485Y0080770D01*
X0055537Y0080770D01*
X0055537Y0080869D02*
X0057485Y0080869D01*
X0048915Y0080869D01*
X0050863Y0080869D01*
X0050863Y0080967D02*
X0048915Y0080967D01*
X0057485Y0080967D01*
X0055537Y0080967D01*
X0055537Y0081066D02*
X0057485Y0081066D01*
X0048915Y0081066D01*
X0050863Y0081066D01*
X0050863Y0081164D02*
X0048915Y0081164D01*
X0057485Y0081164D01*
X0055537Y0081164D01*
X0055537Y0081263D02*
X0057485Y0081263D01*
X0048915Y0081263D01*
X0050863Y0081263D01*
X0050863Y0081361D02*
X0048915Y0081361D01*
X0057485Y0081361D01*
X0055537Y0081361D01*
X0055537Y0081460D02*
X0057485Y0081460D01*
X0048915Y0081460D01*
X0050863Y0081460D01*
X0050863Y0081558D02*
X0048915Y0081558D01*
X0057485Y0081558D01*
X0055537Y0081558D01*
X0055537Y0081657D02*
X0057485Y0081657D01*
X0048915Y0081657D01*
X0050863Y0081657D01*
X0050863Y0081755D02*
X0048915Y0081755D01*
X0057485Y0081755D01*
X0055537Y0081755D01*
X0055537Y0081854D02*
X0057485Y0081854D01*
X0048915Y0081854D01*
X0050863Y0081854D01*
X0050863Y0081952D02*
X0048915Y0081952D01*
X0057485Y0081952D01*
X0055537Y0081952D01*
X0053963Y0081952D02*
X0052437Y0081952D01*
X0052437Y0081854D02*
X0053963Y0081854D01*
X0053963Y0081755D02*
X0052437Y0081755D01*
X0052437Y0081657D02*
X0053963Y0081657D01*
X0053963Y0081558D02*
X0052437Y0081558D01*
X0052437Y0081460D02*
X0053963Y0081460D01*
X0053963Y0081361D02*
X0052437Y0081361D01*
X0052437Y0081263D02*
X0053963Y0081263D01*
X0053963Y0081164D02*
X0052437Y0081164D01*
X0052437Y0081066D02*
X0053963Y0081066D01*
X0053963Y0080967D02*
X0052437Y0080967D01*
X0052437Y0080869D02*
X0053963Y0080869D01*
X0053963Y0080770D02*
X0052437Y0080770D01*
X0052437Y0080672D02*
X0053963Y0080672D01*
X0053963Y0080573D02*
X0052437Y0080573D01*
X0052437Y0080475D02*
X0053963Y0080475D01*
X0053963Y0080376D02*
X0052437Y0080376D01*
X0052437Y0080278D02*
X0053963Y0080278D01*
X0053963Y0080179D02*
X0052437Y0080179D01*
X0052437Y0080081D02*
X0053963Y0080081D01*
X0053963Y0079982D02*
X0052437Y0079982D01*
X0052437Y0079883D02*
X0053963Y0079883D01*
X0053963Y0079785D02*
X0052437Y0079785D01*
X0052437Y0082051D02*
X0053963Y0082051D01*
X0053963Y0082149D02*
X0052437Y0082149D01*
X0052437Y0082248D02*
X0053963Y0082248D01*
X0053963Y0082346D02*
X0052437Y0082346D01*
X0052437Y0082445D02*
X0053963Y0082445D01*
X0053963Y0082543D02*
X0052437Y0082543D01*
X0052437Y0082642D02*
X0053963Y0082642D01*
X0053963Y0082740D02*
X0052437Y0082740D01*
X0052437Y0082839D02*
X0053963Y0082839D01*
X0053963Y0082937D02*
X0052437Y0082937D01*
X0052437Y0083036D02*
X0053963Y0083036D01*
X0053963Y0083134D02*
X0052437Y0083134D01*
X0052437Y0083233D02*
X0053963Y0083233D01*
X0053963Y0083331D02*
X0052437Y0083331D01*
X0052437Y0083430D02*
X0053963Y0083430D01*
X0053963Y0083528D02*
X0052437Y0083528D01*
X0050863Y0085302D02*
X0048915Y0085302D01*
X0048915Y0085400D02*
X0050863Y0085400D01*
X0050863Y0085499D02*
X0048915Y0085499D01*
X0048915Y0085597D02*
X0050863Y0085597D01*
X0050863Y0085696D02*
X0048915Y0085696D01*
X0048915Y0085794D02*
X0050863Y0085794D01*
X0050863Y0085893D02*
X0048915Y0085893D01*
X0048915Y0085991D02*
X0050863Y0085991D01*
X0050863Y0086090D02*
X0048915Y0086090D01*
X0048915Y0086188D02*
X0050863Y0086188D01*
X0050863Y0086287D02*
X0048915Y0086287D01*
X0048915Y0086385D02*
X0050863Y0086385D01*
X0050863Y0086484D02*
X0048915Y0086484D01*
X0048915Y0086582D02*
X0050863Y0086582D01*
X0050863Y0086681D02*
X0048915Y0086681D01*
X0048915Y0086779D02*
X0050863Y0086779D01*
X0050863Y0088257D02*
X0048915Y0088257D01*
X0057485Y0088257D01*
X0056980Y0092811D02*
X0055326Y0092811D01*
X0055326Y0096709D01*
X0056980Y0096709D01*
X0056980Y0092811D01*
X0056980Y0092887D02*
X0055326Y0092887D01*
X0055326Y0092985D02*
X0056980Y0092985D01*
X0056980Y0093084D02*
X0055326Y0093084D01*
X0055326Y0093183D02*
X0056980Y0093183D01*
X0056980Y0093281D02*
X0055326Y0093281D01*
X0055326Y0093380D02*
X0056980Y0093380D01*
X0056980Y0093478D02*
X0055326Y0093478D01*
X0055326Y0093577D02*
X0056980Y0093577D01*
X0056980Y0093675D02*
X0055326Y0093675D01*
X0055326Y0093774D02*
X0056980Y0093774D01*
X0056980Y0093872D02*
X0055326Y0093872D01*
X0055326Y0093971D02*
X0056980Y0093971D01*
X0056980Y0094069D02*
X0055326Y0094069D01*
X0055326Y0094168D02*
X0056980Y0094168D01*
X0056980Y0094266D02*
X0055326Y0094266D01*
X0055326Y0094365D02*
X0056980Y0094365D01*
X0056980Y0094463D02*
X0055326Y0094463D01*
X0055326Y0094562D02*
X0056980Y0094562D01*
X0056980Y0094660D02*
X0055326Y0094660D01*
X0055326Y0094759D02*
X0056980Y0094759D01*
X0056980Y0094857D02*
X0055326Y0094857D01*
X0055326Y0094956D02*
X0056980Y0094956D01*
X0056980Y0095054D02*
X0055326Y0095054D01*
X0055326Y0095153D02*
X0056980Y0095153D01*
X0056980Y0095251D02*
X0055326Y0095251D01*
X0055326Y0095350D02*
X0056980Y0095350D01*
X0056980Y0095448D02*
X0055326Y0095448D01*
X0055326Y0095547D02*
X0056980Y0095547D01*
X0056980Y0095645D02*
X0055326Y0095645D01*
X0055326Y0095744D02*
X0056980Y0095744D01*
X0056980Y0095842D02*
X0055326Y0095842D01*
X0055326Y0095941D02*
X0056980Y0095941D01*
X0056980Y0096039D02*
X0055326Y0096039D01*
X0055326Y0096138D02*
X0056980Y0096138D01*
X0056980Y0096236D02*
X0055326Y0096236D01*
X0055326Y0096335D02*
X0056980Y0096335D01*
X0056980Y0096433D02*
X0055326Y0096433D01*
X0055326Y0096532D02*
X0056980Y0096532D01*
X0056980Y0096630D02*
X0055326Y0096630D01*
X0050863Y0089833D02*
X0048915Y0089833D01*
X0048915Y0089735D02*
X0050863Y0089735D01*
X0050863Y0089636D02*
X0048915Y0089636D01*
X0048915Y0089538D02*
X0050863Y0089538D01*
X0050863Y0089439D02*
X0048915Y0089439D01*
X0048915Y0089341D02*
X0050863Y0089341D01*
X0050863Y0089242D02*
X0048915Y0089242D01*
X0048915Y0089144D02*
X0050863Y0089144D01*
X0050863Y0089045D02*
X0048915Y0089045D01*
X0048915Y0088947D02*
X0050863Y0088947D01*
X0050863Y0088848D02*
X0048915Y0088848D01*
X0048915Y0088750D02*
X0050863Y0088750D01*
X0050863Y0088651D02*
X0048915Y0088651D01*
X0048915Y0088552D02*
X0050863Y0088552D01*
X0050863Y0088454D02*
X0048915Y0088454D01*
X0048915Y0088355D02*
X0050863Y0088355D01*
X0055326Y0079189D02*
X0056980Y0079189D01*
X0056980Y0075291D01*
X0055326Y0075291D01*
X0055326Y0079189D01*
X0055326Y0079095D02*
X0056980Y0079095D01*
X0056980Y0078997D02*
X0055326Y0078997D01*
X0055326Y0078898D02*
X0056980Y0078898D01*
X0056980Y0078800D02*
X0055326Y0078800D01*
X0055326Y0078701D02*
X0056980Y0078701D01*
X0056980Y0078603D02*
X0055326Y0078603D01*
X0055326Y0078504D02*
X0056980Y0078504D01*
X0056980Y0078406D02*
X0055326Y0078406D01*
X0055326Y0078307D02*
X0056980Y0078307D01*
X0056980Y0078209D02*
X0055326Y0078209D01*
X0055326Y0078110D02*
X0056980Y0078110D01*
X0056980Y0078012D02*
X0055326Y0078012D01*
X0055326Y0077913D02*
X0056980Y0077913D01*
X0056980Y0077815D02*
X0055326Y0077815D01*
X0055326Y0077716D02*
X0056980Y0077716D01*
X0056980Y0077618D02*
X0055326Y0077618D01*
X0055326Y0077519D02*
X0056980Y0077519D01*
X0056980Y0077421D02*
X0055326Y0077421D01*
X0055326Y0077322D02*
X0056980Y0077322D01*
X0056980Y0077224D02*
X0055326Y0077224D01*
X0055326Y0077125D02*
X0056980Y0077125D01*
X0056980Y0077027D02*
X0055326Y0077027D01*
X0055326Y0076928D02*
X0056980Y0076928D01*
X0056980Y0076830D02*
X0055326Y0076830D01*
X0055326Y0076731D02*
X0056980Y0076731D01*
X0056980Y0076633D02*
X0055326Y0076633D01*
X0055326Y0076534D02*
X0056980Y0076534D01*
X0056980Y0076436D02*
X0055326Y0076436D01*
X0055326Y0076337D02*
X0056980Y0076337D01*
X0056980Y0076239D02*
X0055326Y0076239D01*
X0055326Y0076140D02*
X0056980Y0076140D01*
X0056980Y0076042D02*
X0055326Y0076042D01*
X0055326Y0075943D02*
X0056980Y0075943D01*
X0056980Y0075845D02*
X0055326Y0075845D01*
X0055326Y0075746D02*
X0056980Y0075746D01*
X0056980Y0075648D02*
X0055326Y0075648D01*
X0055326Y0075549D02*
X0056980Y0075549D01*
X0056980Y0075450D02*
X0055326Y0075450D01*
X0055326Y0075352D02*
X0056980Y0075352D01*
X0056979Y0143246D02*
X0055328Y0143246D01*
X0055328Y0147140D01*
X0056979Y0147140D01*
X0056979Y0143246D01*
X0056979Y0143325D02*
X0055328Y0143325D01*
X0055328Y0143423D02*
X0056979Y0143423D01*
X0056979Y0143522D02*
X0055328Y0143522D01*
X0055328Y0143620D02*
X0056979Y0143620D01*
X0056979Y0143719D02*
X0055328Y0143719D01*
X0055328Y0143817D02*
X0056979Y0143817D01*
X0056979Y0143916D02*
X0055328Y0143916D01*
X0055328Y0144014D02*
X0056979Y0144014D01*
X0056979Y0144113D02*
X0055328Y0144113D01*
X0055328Y0144211D02*
X0056979Y0144211D01*
X0056979Y0144310D02*
X0055328Y0144310D01*
X0055328Y0144408D02*
X0056979Y0144408D01*
X0056979Y0144507D02*
X0055328Y0144507D01*
X0055328Y0144605D02*
X0056979Y0144605D01*
X0056979Y0144704D02*
X0055328Y0144704D01*
X0055328Y0144802D02*
X0056979Y0144802D01*
X0056979Y0144901D02*
X0055328Y0144901D01*
X0055328Y0144999D02*
X0056979Y0144999D01*
X0056979Y0145098D02*
X0055328Y0145098D01*
X0055328Y0145196D02*
X0056979Y0145196D01*
X0056979Y0145295D02*
X0055328Y0145295D01*
X0055328Y0145394D02*
X0056979Y0145394D01*
X0056979Y0145492D02*
X0055328Y0145492D01*
X0055328Y0145591D02*
X0056979Y0145591D01*
X0056979Y0145689D02*
X0055328Y0145689D01*
X0055328Y0145788D02*
X0056979Y0145788D01*
X0056979Y0145886D02*
X0055328Y0145886D01*
X0055328Y0145985D02*
X0056979Y0145985D01*
X0056979Y0146083D02*
X0055328Y0146083D01*
X0055328Y0146182D02*
X0056979Y0146182D01*
X0056979Y0146280D02*
X0055328Y0146280D01*
X0055328Y0146379D02*
X0056979Y0146379D01*
X0056979Y0146477D02*
X0055328Y0146477D01*
X0055328Y0146576D02*
X0056979Y0146576D01*
X0056979Y0146674D02*
X0055328Y0146674D01*
X0055328Y0146773D02*
X0056979Y0146773D01*
X0056979Y0146871D02*
X0055328Y0146871D01*
X0055328Y0146970D02*
X0056979Y0146970D01*
X0056979Y0147068D02*
X0055328Y0147068D01*
X0055010Y0147068D02*
X0053359Y0147068D01*
X0053359Y0147140D02*
X0055010Y0147140D01*
X0055010Y0143246D01*
X0053359Y0143246D01*
X0053359Y0147140D01*
X0053359Y0146970D02*
X0055010Y0146970D01*
X0055010Y0146871D02*
X0053359Y0146871D01*
X0053359Y0146773D02*
X0055010Y0146773D01*
X0055010Y0146674D02*
X0053359Y0146674D01*
X0053359Y0146576D02*
X0055010Y0146576D01*
X0055010Y0146477D02*
X0053359Y0146477D01*
X0053359Y0146379D02*
X0055010Y0146379D01*
X0055010Y0146280D02*
X0053359Y0146280D01*
X0053359Y0146182D02*
X0055010Y0146182D01*
X0055010Y0146083D02*
X0053359Y0146083D01*
X0053359Y0145985D02*
X0055010Y0145985D01*
X0055010Y0145886D02*
X0053359Y0145886D01*
X0053359Y0145788D02*
X0055010Y0145788D01*
X0055010Y0145689D02*
X0053359Y0145689D01*
X0053359Y0145591D02*
X0055010Y0145591D01*
X0055010Y0145492D02*
X0053359Y0145492D01*
X0053359Y0145394D02*
X0055010Y0145394D01*
X0055010Y0145295D02*
X0053359Y0145295D01*
X0053359Y0145196D02*
X0055010Y0145196D01*
X0055010Y0145098D02*
X0053359Y0145098D01*
X0053359Y0144999D02*
X0055010Y0144999D01*
X0055010Y0144901D02*
X0053359Y0144901D01*
X0053359Y0144802D02*
X0055010Y0144802D01*
X0055010Y0144704D02*
X0053359Y0144704D01*
X0053359Y0144605D02*
X0055010Y0144605D01*
X0055010Y0144507D02*
X0053359Y0144507D01*
X0053359Y0144408D02*
X0055010Y0144408D01*
X0055010Y0144310D02*
X0053359Y0144310D01*
X0053359Y0144211D02*
X0055010Y0144211D01*
X0055010Y0144113D02*
X0053359Y0144113D01*
X0053359Y0144014D02*
X0055010Y0144014D01*
X0055010Y0143916D02*
X0053359Y0143916D01*
X0053359Y0143817D02*
X0055010Y0143817D01*
X0055010Y0143719D02*
X0053359Y0143719D01*
X0053359Y0143620D02*
X0055010Y0143620D01*
X0055010Y0143522D02*
X0053359Y0143522D01*
X0053359Y0143423D02*
X0055010Y0143423D01*
X0055010Y0143325D02*
X0053359Y0143325D01*
X0053041Y0143325D02*
X0051390Y0143325D01*
X0051390Y0143246D02*
X0051390Y0147140D01*
X0053041Y0147140D01*
X0053041Y0143246D01*
X0051390Y0143246D01*
X0051390Y0143423D02*
X0053041Y0143423D01*
X0053041Y0143522D02*
X0051390Y0143522D01*
X0051390Y0143620D02*
X0053041Y0143620D01*
X0053041Y0143719D02*
X0051390Y0143719D01*
X0051390Y0143817D02*
X0053041Y0143817D01*
X0053041Y0143916D02*
X0051390Y0143916D01*
X0051390Y0144014D02*
X0053041Y0144014D01*
X0053041Y0144113D02*
X0051390Y0144113D01*
X0051390Y0144211D02*
X0053041Y0144211D01*
X0053041Y0144310D02*
X0051390Y0144310D01*
X0051390Y0144408D02*
X0053041Y0144408D01*
X0053041Y0144507D02*
X0051390Y0144507D01*
X0051390Y0144605D02*
X0053041Y0144605D01*
X0053041Y0144704D02*
X0051390Y0144704D01*
X0051390Y0144802D02*
X0053041Y0144802D01*
X0053041Y0144901D02*
X0051390Y0144901D01*
X0051390Y0144999D02*
X0053041Y0144999D01*
X0053041Y0145098D02*
X0051390Y0145098D01*
X0051390Y0145196D02*
X0053041Y0145196D01*
X0053041Y0145295D02*
X0051390Y0145295D01*
X0051390Y0145394D02*
X0053041Y0145394D01*
X0053041Y0145492D02*
X0051390Y0145492D01*
X0051390Y0145591D02*
X0053041Y0145591D01*
X0053041Y0145689D02*
X0051390Y0145689D01*
X0051390Y0145788D02*
X0053041Y0145788D01*
X0053041Y0145886D02*
X0051390Y0145886D01*
X0051390Y0145985D02*
X0053041Y0145985D01*
X0053041Y0146083D02*
X0051390Y0146083D01*
X0051390Y0146182D02*
X0053041Y0146182D01*
X0053041Y0146280D02*
X0051390Y0146280D01*
X0051390Y0146379D02*
X0053041Y0146379D01*
X0053041Y0146477D02*
X0051390Y0146477D01*
X0051390Y0146576D02*
X0053041Y0146576D01*
X0053041Y0146674D02*
X0051390Y0146674D01*
X0051390Y0146773D02*
X0053041Y0146773D01*
X0053041Y0146871D02*
X0051390Y0146871D01*
X0051390Y0146970D02*
X0053041Y0146970D01*
X0053041Y0147068D02*
X0051390Y0147068D01*
X0051072Y0147068D02*
X0049421Y0147068D01*
X0049421Y0147140D02*
X0051072Y0147140D01*
X0051072Y0143246D01*
X0049421Y0143246D01*
X0049421Y0147140D01*
X0049340Y0147222D02*
X0045446Y0147222D01*
X0045446Y0148872D01*
X0049340Y0148872D01*
X0049340Y0147222D01*
X0049340Y0147265D02*
X0045446Y0147265D01*
X0045446Y0147364D02*
X0049340Y0147364D01*
X0049340Y0147462D02*
X0045446Y0147462D01*
X0045446Y0147561D02*
X0049340Y0147561D01*
X0049340Y0147659D02*
X0045446Y0147659D01*
X0045446Y0147758D02*
X0049340Y0147758D01*
X0049340Y0147856D02*
X0045446Y0147856D01*
X0045446Y0147955D02*
X0049340Y0147955D01*
X0049340Y0148053D02*
X0045446Y0148053D01*
X0045446Y0148152D02*
X0049340Y0148152D01*
X0049340Y0148250D02*
X0045446Y0148250D01*
X0045446Y0148349D02*
X0049340Y0148349D01*
X0049340Y0148447D02*
X0045446Y0148447D01*
X0045446Y0148546D02*
X0049340Y0148546D01*
X0049340Y0148644D02*
X0045446Y0148644D01*
X0045446Y0148743D02*
X0049340Y0148743D01*
X0049340Y0148841D02*
X0045446Y0148841D01*
X0045446Y0149191D02*
X0045446Y0150841D01*
X0049340Y0150841D01*
X0049340Y0149191D01*
X0045446Y0149191D01*
X0045446Y0149235D02*
X0049340Y0149235D01*
X0049340Y0149334D02*
X0045446Y0149334D01*
X0045446Y0149432D02*
X0049340Y0149432D01*
X0049340Y0149531D02*
X0045446Y0149531D01*
X0045446Y0149630D02*
X0049340Y0149630D01*
X0049340Y0149728D02*
X0045446Y0149728D01*
X0045446Y0149827D02*
X0049340Y0149827D01*
X0049340Y0149925D02*
X0045446Y0149925D01*
X0045446Y0150024D02*
X0049340Y0150024D01*
X0049340Y0150122D02*
X0045446Y0150122D01*
X0045446Y0150221D02*
X0049340Y0150221D01*
X0049340Y0150319D02*
X0045446Y0150319D01*
X0045446Y0150418D02*
X0049340Y0150418D01*
X0049340Y0150516D02*
X0045446Y0150516D01*
X0045446Y0150615D02*
X0049340Y0150615D01*
X0049340Y0150713D02*
X0045446Y0150713D01*
X0045446Y0150812D02*
X0049340Y0150812D01*
X0049604Y0150812D02*
X0050863Y0150812D01*
X0050863Y0150910D02*
X0049604Y0150910D01*
X0056796Y0150910D01*
X0055537Y0150910D01*
X0055537Y0150812D02*
X0056796Y0150812D01*
X0049604Y0150812D01*
X0049604Y0150713D02*
X0050863Y0150713D01*
X0050863Y0150615D02*
X0049604Y0150615D01*
X0056796Y0150615D01*
X0055537Y0150615D01*
X0055537Y0150713D02*
X0056796Y0150713D01*
X0049604Y0150713D01*
X0049604Y0150516D02*
X0050863Y0150516D01*
X0050863Y0150418D02*
X0049604Y0150418D01*
X0056796Y0150418D01*
X0055537Y0150418D01*
X0055537Y0150516D02*
X0056796Y0150516D01*
X0049604Y0150516D01*
X0049604Y0150319D02*
X0050863Y0150319D01*
X0050863Y0150221D02*
X0049604Y0150221D01*
X0049604Y0150237D02*
X0056796Y0150237D01*
X0056796Y0151763D01*
X0049604Y0151763D01*
X0049604Y0150237D01*
X0049604Y0150319D02*
X0056796Y0150319D01*
X0055537Y0150319D01*
X0055537Y0150221D02*
X0056796Y0150221D01*
X0056796Y0150122D02*
X0055537Y0150122D01*
X0055537Y0150024D02*
X0056796Y0150024D01*
X0056796Y0149925D02*
X0055537Y0149925D01*
X0055537Y0149827D02*
X0056796Y0149827D01*
X0056796Y0149728D02*
X0055537Y0149728D01*
X0055537Y0149630D02*
X0056796Y0149630D01*
X0056796Y0149531D02*
X0055537Y0149531D01*
X0055537Y0149432D02*
X0056796Y0149432D01*
X0056796Y0149334D02*
X0055537Y0149334D01*
X0055537Y0149235D02*
X0056796Y0149235D01*
X0056796Y0149137D02*
X0055537Y0149137D01*
X0055537Y0149038D02*
X0056796Y0149038D01*
X0056796Y0148940D02*
X0055537Y0148940D01*
X0055537Y0148841D02*
X0056796Y0148841D01*
X0056796Y0148743D02*
X0055537Y0148743D01*
X0055537Y0148644D02*
X0056796Y0148644D01*
X0049604Y0148644D01*
X0050863Y0148644D01*
X0050863Y0148546D02*
X0049604Y0148546D01*
X0056796Y0148546D01*
X0055537Y0148546D01*
X0055537Y0148447D02*
X0056796Y0148447D01*
X0049604Y0148447D01*
X0050863Y0148447D01*
X0050863Y0148349D02*
X0049604Y0148349D01*
X0056796Y0148349D01*
X0055537Y0148349D01*
X0055537Y0148250D02*
X0056796Y0148250D01*
X0049604Y0148250D01*
X0050863Y0148250D01*
X0050863Y0148152D02*
X0049604Y0148152D01*
X0056796Y0148152D01*
X0055537Y0148152D01*
X0055537Y0148053D02*
X0056796Y0148053D01*
X0049604Y0148053D01*
X0050863Y0148053D01*
X0050863Y0147955D02*
X0049604Y0147955D01*
X0056796Y0147955D01*
X0055537Y0147955D01*
X0055537Y0147856D02*
X0056796Y0147856D01*
X0049604Y0147856D01*
X0050863Y0147856D01*
X0050863Y0147758D02*
X0049604Y0147758D01*
X0056796Y0147758D01*
X0055537Y0147758D01*
X0055537Y0147659D02*
X0056796Y0147659D01*
X0049604Y0147659D01*
X0050863Y0147659D01*
X0050863Y0147561D02*
X0049604Y0147561D01*
X0056796Y0147561D01*
X0055537Y0147561D01*
X0055537Y0147462D02*
X0056796Y0147462D01*
X0049604Y0147462D01*
X0050863Y0147462D01*
X0050863Y0147404D02*
X0050863Y0154596D01*
X0049604Y0154596D01*
X0049604Y0147404D01*
X0050863Y0147404D01*
X0051072Y0146970D02*
X0049421Y0146970D01*
X0049421Y0146871D02*
X0051072Y0146871D01*
X0051072Y0146773D02*
X0049421Y0146773D01*
X0049421Y0146674D02*
X0051072Y0146674D01*
X0051072Y0146576D02*
X0049421Y0146576D01*
X0049421Y0146477D02*
X0051072Y0146477D01*
X0051072Y0146379D02*
X0049421Y0146379D01*
X0049421Y0146280D02*
X0051072Y0146280D01*
X0051072Y0146182D02*
X0049421Y0146182D01*
X0049421Y0146083D02*
X0051072Y0146083D01*
X0051072Y0145985D02*
X0049421Y0145985D01*
X0049421Y0145886D02*
X0051072Y0145886D01*
X0051072Y0145788D02*
X0049421Y0145788D01*
X0049421Y0145689D02*
X0051072Y0145689D01*
X0051072Y0145591D02*
X0049421Y0145591D01*
X0049421Y0145492D02*
X0051072Y0145492D01*
X0051072Y0145394D02*
X0049421Y0145394D01*
X0049421Y0145295D02*
X0051072Y0145295D01*
X0051072Y0145196D02*
X0049421Y0145196D01*
X0049421Y0145098D02*
X0051072Y0145098D01*
X0051072Y0144999D02*
X0049421Y0144999D01*
X0049421Y0144901D02*
X0051072Y0144901D01*
X0051072Y0144802D02*
X0049421Y0144802D01*
X0049421Y0144704D02*
X0051072Y0144704D01*
X0051072Y0144605D02*
X0049421Y0144605D01*
X0049421Y0144507D02*
X0051072Y0144507D01*
X0051072Y0144408D02*
X0049421Y0144408D01*
X0049421Y0144310D02*
X0051072Y0144310D01*
X0051072Y0144211D02*
X0049421Y0144211D01*
X0049421Y0144113D02*
X0051072Y0144113D01*
X0051072Y0144014D02*
X0049421Y0144014D01*
X0049421Y0143916D02*
X0051072Y0143916D01*
X0051072Y0143817D02*
X0049421Y0143817D01*
X0049421Y0143719D02*
X0051072Y0143719D01*
X0051072Y0143620D02*
X0049421Y0143620D01*
X0049421Y0143522D02*
X0051072Y0143522D01*
X0051072Y0143423D02*
X0049421Y0143423D01*
X0049421Y0143325D02*
X0051072Y0143325D01*
X0052437Y0147404D02*
X0052437Y0154596D01*
X0053963Y0154596D01*
X0053963Y0147404D01*
X0052437Y0147404D01*
X0052437Y0147462D02*
X0053963Y0147462D01*
X0053963Y0147561D02*
X0052437Y0147561D01*
X0052437Y0147659D02*
X0053963Y0147659D01*
X0053963Y0147758D02*
X0052437Y0147758D01*
X0052437Y0147856D02*
X0053963Y0147856D01*
X0053963Y0147955D02*
X0052437Y0147955D01*
X0052437Y0148053D02*
X0053963Y0148053D01*
X0053963Y0148152D02*
X0052437Y0148152D01*
X0052437Y0148250D02*
X0053963Y0148250D01*
X0053963Y0148349D02*
X0052437Y0148349D01*
X0052437Y0148447D02*
X0053963Y0148447D01*
X0053963Y0148546D02*
X0052437Y0148546D01*
X0052437Y0148644D02*
X0053963Y0148644D01*
X0053963Y0148743D02*
X0052437Y0148743D01*
X0052437Y0148841D02*
X0053963Y0148841D01*
X0053963Y0148940D02*
X0052437Y0148940D01*
X0052437Y0149038D02*
X0053963Y0149038D01*
X0053963Y0149137D02*
X0052437Y0149137D01*
X0052437Y0149235D02*
X0053963Y0149235D01*
X0053963Y0149334D02*
X0052437Y0149334D01*
X0052437Y0149432D02*
X0053963Y0149432D01*
X0053963Y0149531D02*
X0052437Y0149531D01*
X0052437Y0149630D02*
X0053963Y0149630D01*
X0053963Y0149728D02*
X0052437Y0149728D01*
X0052437Y0149827D02*
X0053963Y0149827D01*
X0053963Y0149925D02*
X0052437Y0149925D01*
X0052437Y0150024D02*
X0053963Y0150024D01*
X0053963Y0150122D02*
X0052437Y0150122D01*
X0052437Y0150221D02*
X0053963Y0150221D01*
X0053963Y0150319D02*
X0052437Y0150319D01*
X0052437Y0150418D02*
X0053963Y0150418D01*
X0053963Y0150516D02*
X0052437Y0150516D01*
X0052437Y0150615D02*
X0053963Y0150615D01*
X0053963Y0150713D02*
X0052437Y0150713D01*
X0052437Y0150812D02*
X0053963Y0150812D01*
X0053963Y0150910D02*
X0052437Y0150910D01*
X0052437Y0151009D02*
X0053963Y0151009D01*
X0053963Y0151107D02*
X0052437Y0151107D01*
X0052437Y0151206D02*
X0053963Y0151206D01*
X0053963Y0151304D02*
X0052437Y0151304D01*
X0052437Y0151403D02*
X0053963Y0151403D01*
X0053963Y0151501D02*
X0052437Y0151501D01*
X0052437Y0151600D02*
X0053963Y0151600D01*
X0053963Y0151698D02*
X0052437Y0151698D01*
X0052437Y0151797D02*
X0053963Y0151797D01*
X0053963Y0151895D02*
X0052437Y0151895D01*
X0052437Y0151994D02*
X0053963Y0151994D01*
X0053963Y0152092D02*
X0052437Y0152092D01*
X0052437Y0152191D02*
X0053963Y0152191D01*
X0053963Y0152289D02*
X0052437Y0152289D01*
X0052437Y0152388D02*
X0053963Y0152388D01*
X0053963Y0152486D02*
X0052437Y0152486D01*
X0052437Y0152585D02*
X0053963Y0152585D01*
X0053963Y0152683D02*
X0052437Y0152683D01*
X0052437Y0152782D02*
X0053963Y0152782D01*
X0053963Y0152880D02*
X0052437Y0152880D01*
X0052437Y0152979D02*
X0053963Y0152979D01*
X0053963Y0153077D02*
X0052437Y0153077D01*
X0052437Y0153176D02*
X0053963Y0153176D01*
X0053963Y0153274D02*
X0052437Y0153274D01*
X0052437Y0153373D02*
X0053963Y0153373D01*
X0053963Y0153471D02*
X0052437Y0153471D01*
X0052437Y0153570D02*
X0053963Y0153570D01*
X0053963Y0153668D02*
X0052437Y0153668D01*
X0052437Y0153767D02*
X0053963Y0153767D01*
X0053963Y0153865D02*
X0052437Y0153865D01*
X0052437Y0153964D02*
X0053963Y0153964D01*
X0053963Y0154063D02*
X0052437Y0154063D01*
X0052437Y0154161D02*
X0053963Y0154161D01*
X0053963Y0154260D02*
X0052437Y0154260D01*
X0052437Y0154358D02*
X0053963Y0154358D01*
X0053963Y0154457D02*
X0052437Y0154457D01*
X0052437Y0154555D02*
X0053963Y0154555D01*
X0053359Y0154860D02*
X0053359Y0158754D01*
X0055010Y0158754D01*
X0055010Y0154860D01*
X0053359Y0154860D01*
X0053359Y0154949D02*
X0055010Y0154949D01*
X0055010Y0155048D02*
X0053359Y0155048D01*
X0053359Y0155146D02*
X0055010Y0155146D01*
X0055010Y0155245D02*
X0053359Y0155245D01*
X0053359Y0155343D02*
X0055010Y0155343D01*
X0055010Y0155442D02*
X0053359Y0155442D01*
X0053359Y0155540D02*
X0055010Y0155540D01*
X0055010Y0155639D02*
X0053359Y0155639D01*
X0053359Y0155737D02*
X0055010Y0155737D01*
X0055010Y0155836D02*
X0053359Y0155836D01*
X0053359Y0155934D02*
X0055010Y0155934D01*
X0055010Y0156033D02*
X0053359Y0156033D01*
X0053359Y0156131D02*
X0055010Y0156131D01*
X0055010Y0156230D02*
X0053359Y0156230D01*
X0053359Y0156328D02*
X0055010Y0156328D01*
X0055010Y0156427D02*
X0053359Y0156427D01*
X0053359Y0156525D02*
X0055010Y0156525D01*
X0055010Y0156624D02*
X0053359Y0156624D01*
X0053359Y0156722D02*
X0055010Y0156722D01*
X0055010Y0156821D02*
X0053359Y0156821D01*
X0053359Y0156919D02*
X0055010Y0156919D01*
X0055010Y0157018D02*
X0053359Y0157018D01*
X0053359Y0157116D02*
X0055010Y0157116D01*
X0055010Y0157215D02*
X0053359Y0157215D01*
X0053359Y0157313D02*
X0055010Y0157313D01*
X0055010Y0157412D02*
X0053359Y0157412D01*
X0053359Y0157510D02*
X0055010Y0157510D01*
X0055010Y0157609D02*
X0053359Y0157609D01*
X0053359Y0157707D02*
X0055010Y0157707D01*
X0055010Y0157806D02*
X0053359Y0157806D01*
X0053359Y0157904D02*
X0055010Y0157904D01*
X0055010Y0158003D02*
X0053359Y0158003D01*
X0053359Y0158101D02*
X0055010Y0158101D01*
X0055010Y0158200D02*
X0053359Y0158200D01*
X0053359Y0158298D02*
X0055010Y0158298D01*
X0055010Y0158397D02*
X0053359Y0158397D01*
X0053359Y0158496D02*
X0055010Y0158496D01*
X0055010Y0158594D02*
X0053359Y0158594D01*
X0053359Y0158693D02*
X0055010Y0158693D01*
X0055328Y0158693D02*
X0056979Y0158693D01*
X0056979Y0158754D02*
X0055328Y0158754D01*
X0055328Y0154860D01*
X0056979Y0154860D01*
X0056979Y0158754D01*
X0056979Y0158594D02*
X0055328Y0158594D01*
X0055328Y0158496D02*
X0056979Y0158496D01*
X0056979Y0158397D02*
X0055328Y0158397D01*
X0055328Y0158298D02*
X0056979Y0158298D01*
X0056979Y0158200D02*
X0055328Y0158200D01*
X0055328Y0158101D02*
X0056979Y0158101D01*
X0056979Y0158003D02*
X0055328Y0158003D01*
X0055328Y0157904D02*
X0056979Y0157904D01*
X0056979Y0157806D02*
X0055328Y0157806D01*
X0055328Y0157707D02*
X0056979Y0157707D01*
X0056979Y0157609D02*
X0055328Y0157609D01*
X0055328Y0157510D02*
X0056979Y0157510D01*
X0056979Y0157412D02*
X0055328Y0157412D01*
X0055328Y0157313D02*
X0056979Y0157313D01*
X0056979Y0157215D02*
X0055328Y0157215D01*
X0055328Y0157116D02*
X0056979Y0157116D01*
X0056979Y0157018D02*
X0055328Y0157018D01*
X0055328Y0156919D02*
X0056979Y0156919D01*
X0056979Y0156821D02*
X0055328Y0156821D01*
X0055328Y0156722D02*
X0056979Y0156722D01*
X0056979Y0156624D02*
X0055328Y0156624D01*
X0055328Y0156525D02*
X0056979Y0156525D01*
X0056979Y0156427D02*
X0055328Y0156427D01*
X0055328Y0156328D02*
X0056979Y0156328D01*
X0056979Y0156230D02*
X0055328Y0156230D01*
X0055328Y0156131D02*
X0056979Y0156131D01*
X0056979Y0156033D02*
X0055328Y0156033D01*
X0055328Y0155934D02*
X0056979Y0155934D01*
X0056979Y0155836D02*
X0055328Y0155836D01*
X0055328Y0155737D02*
X0056979Y0155737D01*
X0056979Y0155639D02*
X0055328Y0155639D01*
X0055328Y0155540D02*
X0056979Y0155540D01*
X0056979Y0155442D02*
X0055328Y0155442D01*
X0055328Y0155343D02*
X0056979Y0155343D01*
X0056979Y0155245D02*
X0055328Y0155245D01*
X0055328Y0155146D02*
X0056979Y0155146D01*
X0056979Y0155048D02*
X0055328Y0155048D01*
X0055328Y0154949D02*
X0056979Y0154949D01*
X0057060Y0154778D02*
X0060954Y0154778D01*
X0060954Y0153128D01*
X0057060Y0153128D01*
X0057060Y0154778D01*
X0057060Y0154752D02*
X0060954Y0154752D01*
X0060954Y0154654D02*
X0057060Y0154654D01*
X0057060Y0154555D02*
X0060954Y0154555D01*
X0060954Y0154457D02*
X0057060Y0154457D01*
X0057060Y0154358D02*
X0060954Y0154358D01*
X0060954Y0154260D02*
X0057060Y0154260D01*
X0057060Y0154161D02*
X0060954Y0154161D01*
X0060954Y0154063D02*
X0057060Y0154063D01*
X0057060Y0153964D02*
X0060954Y0153964D01*
X0060954Y0153865D02*
X0057060Y0153865D01*
X0057060Y0153767D02*
X0060954Y0153767D01*
X0060954Y0153668D02*
X0057060Y0153668D01*
X0057060Y0153570D02*
X0060954Y0153570D01*
X0060954Y0153471D02*
X0057060Y0153471D01*
X0057060Y0153373D02*
X0060954Y0153373D01*
X0060954Y0153274D02*
X0057060Y0153274D01*
X0057060Y0153176D02*
X0060954Y0153176D01*
X0060954Y0152809D02*
X0057060Y0152809D01*
X0057060Y0151159D01*
X0060954Y0151159D01*
X0060954Y0152809D01*
X0060954Y0152782D02*
X0057060Y0152782D01*
X0057060Y0152683D02*
X0060954Y0152683D01*
X0060954Y0152585D02*
X0057060Y0152585D01*
X0057060Y0152486D02*
X0060954Y0152486D01*
X0060954Y0152388D02*
X0057060Y0152388D01*
X0057060Y0152289D02*
X0060954Y0152289D01*
X0060954Y0152191D02*
X0057060Y0152191D01*
X0057060Y0152092D02*
X0060954Y0152092D01*
X0060954Y0151994D02*
X0057060Y0151994D01*
X0057060Y0151895D02*
X0060954Y0151895D01*
X0060954Y0151797D02*
X0057060Y0151797D01*
X0057060Y0151698D02*
X0060954Y0151698D01*
X0060954Y0151600D02*
X0057060Y0151600D01*
X0057060Y0151501D02*
X0060954Y0151501D01*
X0060954Y0151403D02*
X0057060Y0151403D01*
X0057060Y0151304D02*
X0060954Y0151304D01*
X0060954Y0151206D02*
X0057060Y0151206D01*
X0056796Y0151206D02*
X0055537Y0151206D01*
X0055537Y0151304D02*
X0056796Y0151304D01*
X0049604Y0151304D01*
X0050863Y0151304D01*
X0050863Y0151206D02*
X0049604Y0151206D01*
X0056796Y0151206D01*
X0056796Y0151107D02*
X0055537Y0151107D01*
X0055537Y0151009D02*
X0056796Y0151009D01*
X0049604Y0151009D01*
X0050863Y0151009D01*
X0050863Y0151107D02*
X0049604Y0151107D01*
X0056796Y0151107D01*
X0056796Y0151403D02*
X0055537Y0151403D01*
X0055537Y0151501D02*
X0056796Y0151501D01*
X0049604Y0151501D01*
X0050863Y0151501D01*
X0050863Y0151403D02*
X0049604Y0151403D01*
X0056796Y0151403D01*
X0056796Y0151600D02*
X0055537Y0151600D01*
X0055537Y0151698D02*
X0056796Y0151698D01*
X0049604Y0151698D01*
X0050863Y0151698D01*
X0050863Y0151600D02*
X0049604Y0151600D01*
X0056796Y0151600D01*
X0056796Y0151797D02*
X0055537Y0151797D01*
X0055537Y0151895D02*
X0056796Y0151895D01*
X0056796Y0151994D02*
X0055537Y0151994D01*
X0055537Y0152092D02*
X0056796Y0152092D01*
X0056796Y0152191D02*
X0055537Y0152191D01*
X0055537Y0152289D02*
X0056796Y0152289D01*
X0056796Y0152388D02*
X0055537Y0152388D01*
X0055537Y0152486D02*
X0056796Y0152486D01*
X0056796Y0152585D02*
X0055537Y0152585D01*
X0055537Y0152683D02*
X0056796Y0152683D01*
X0056796Y0152782D02*
X0055537Y0152782D01*
X0055537Y0152880D02*
X0056796Y0152880D01*
X0056796Y0152979D02*
X0055537Y0152979D01*
X0055537Y0153077D02*
X0056796Y0153077D01*
X0056796Y0153176D02*
X0055537Y0153176D01*
X0055537Y0153274D02*
X0056796Y0153274D01*
X0056796Y0153337D02*
X0056796Y0154596D01*
X0056796Y0147404D01*
X0055537Y0147404D01*
X0055537Y0154596D01*
X0056796Y0154596D01*
X0049604Y0154596D01*
X0049604Y0153337D01*
X0056796Y0153337D01*
X0056796Y0153373D02*
X0055537Y0153373D01*
X0055537Y0153471D02*
X0056796Y0153471D01*
X0049604Y0153471D01*
X0050863Y0153471D01*
X0050863Y0153373D02*
X0049604Y0153373D01*
X0056796Y0153373D01*
X0056796Y0153570D02*
X0055537Y0153570D01*
X0055537Y0153668D02*
X0056796Y0153668D01*
X0049604Y0153668D01*
X0050863Y0153668D01*
X0050863Y0153570D02*
X0049604Y0153570D01*
X0056796Y0153570D01*
X0056796Y0153767D02*
X0055537Y0153767D01*
X0055537Y0153865D02*
X0056796Y0153865D01*
X0049604Y0153865D01*
X0050863Y0153865D01*
X0050863Y0153767D02*
X0049604Y0153767D01*
X0056796Y0153767D01*
X0056796Y0153964D02*
X0055537Y0153964D01*
X0055537Y0154063D02*
X0056796Y0154063D01*
X0049604Y0154063D01*
X0050863Y0154063D01*
X0050863Y0154161D02*
X0049604Y0154161D01*
X0056796Y0154161D01*
X0055537Y0154161D01*
X0055537Y0154260D02*
X0056796Y0154260D01*
X0049604Y0154260D01*
X0050863Y0154260D01*
X0050863Y0154358D02*
X0049604Y0154358D01*
X0056796Y0154358D01*
X0055537Y0154358D01*
X0055537Y0154457D02*
X0056796Y0154457D01*
X0049604Y0154457D01*
X0050863Y0154457D01*
X0050863Y0154555D02*
X0049604Y0154555D01*
X0056796Y0154555D01*
X0055537Y0154555D01*
X0056796Y0153964D02*
X0049604Y0153964D01*
X0050863Y0153964D01*
X0050863Y0153274D02*
X0049604Y0153274D01*
X0049604Y0153176D02*
X0050863Y0153176D01*
X0050863Y0153077D02*
X0049604Y0153077D01*
X0049604Y0152979D02*
X0050863Y0152979D01*
X0050863Y0152880D02*
X0049604Y0152880D01*
X0049604Y0152782D02*
X0050863Y0152782D01*
X0050863Y0152683D02*
X0049604Y0152683D01*
X0049604Y0152585D02*
X0050863Y0152585D01*
X0050863Y0152486D02*
X0049604Y0152486D01*
X0049604Y0152388D02*
X0050863Y0152388D01*
X0050863Y0152289D02*
X0049604Y0152289D01*
X0049604Y0152191D02*
X0050863Y0152191D01*
X0050863Y0152092D02*
X0049604Y0152092D01*
X0049604Y0151994D02*
X0050863Y0151994D01*
X0050863Y0151895D02*
X0049604Y0151895D01*
X0049604Y0151797D02*
X0050863Y0151797D01*
X0049340Y0151797D02*
X0045446Y0151797D01*
X0045446Y0151895D02*
X0049340Y0151895D01*
X0049340Y0151994D02*
X0045446Y0151994D01*
X0045446Y0152092D02*
X0049340Y0152092D01*
X0049340Y0152191D02*
X0045446Y0152191D01*
X0045446Y0152289D02*
X0049340Y0152289D01*
X0049340Y0152388D02*
X0045446Y0152388D01*
X0045446Y0152486D02*
X0049340Y0152486D01*
X0049340Y0152585D02*
X0045446Y0152585D01*
X0045446Y0152683D02*
X0049340Y0152683D01*
X0049340Y0152782D02*
X0045446Y0152782D01*
X0045446Y0152809D02*
X0049340Y0152809D01*
X0049340Y0151159D01*
X0045446Y0151159D01*
X0045446Y0152809D01*
X0045446Y0153128D02*
X0045446Y0154778D01*
X0049340Y0154778D01*
X0049340Y0153128D01*
X0045446Y0153128D01*
X0045446Y0153176D02*
X0049340Y0153176D01*
X0049340Y0153274D02*
X0045446Y0153274D01*
X0045446Y0153373D02*
X0049340Y0153373D01*
X0049340Y0153471D02*
X0045446Y0153471D01*
X0045446Y0153570D02*
X0049340Y0153570D01*
X0049340Y0153668D02*
X0045446Y0153668D01*
X0045446Y0153767D02*
X0049340Y0153767D01*
X0049340Y0153865D02*
X0045446Y0153865D01*
X0045446Y0153964D02*
X0049340Y0153964D01*
X0049340Y0154063D02*
X0045446Y0154063D01*
X0045446Y0154161D02*
X0049340Y0154161D01*
X0049340Y0154260D02*
X0045446Y0154260D01*
X0045446Y0154358D02*
X0049340Y0154358D01*
X0049340Y0154457D02*
X0045446Y0154457D01*
X0045446Y0154555D02*
X0049340Y0154555D01*
X0049340Y0154654D02*
X0045446Y0154654D01*
X0045446Y0154752D02*
X0049340Y0154752D01*
X0049421Y0154860D02*
X0049421Y0158754D01*
X0051072Y0158754D01*
X0051072Y0154860D01*
X0049421Y0154860D01*
X0049421Y0154949D02*
X0051072Y0154949D01*
X0051072Y0155048D02*
X0049421Y0155048D01*
X0049421Y0155146D02*
X0051072Y0155146D01*
X0051072Y0155245D02*
X0049421Y0155245D01*
X0049421Y0155343D02*
X0051072Y0155343D01*
X0051072Y0155442D02*
X0049421Y0155442D01*
X0049421Y0155540D02*
X0051072Y0155540D01*
X0051072Y0155639D02*
X0049421Y0155639D01*
X0049421Y0155737D02*
X0051072Y0155737D01*
X0051072Y0155836D02*
X0049421Y0155836D01*
X0049421Y0155934D02*
X0051072Y0155934D01*
X0051072Y0156033D02*
X0049421Y0156033D01*
X0049421Y0156131D02*
X0051072Y0156131D01*
X0051072Y0156230D02*
X0049421Y0156230D01*
X0049421Y0156328D02*
X0051072Y0156328D01*
X0051072Y0156427D02*
X0049421Y0156427D01*
X0049421Y0156525D02*
X0051072Y0156525D01*
X0051072Y0156624D02*
X0049421Y0156624D01*
X0049421Y0156722D02*
X0051072Y0156722D01*
X0051072Y0156821D02*
X0049421Y0156821D01*
X0049421Y0156919D02*
X0051072Y0156919D01*
X0051072Y0157018D02*
X0049421Y0157018D01*
X0049421Y0157116D02*
X0051072Y0157116D01*
X0051072Y0157215D02*
X0049421Y0157215D01*
X0049421Y0157313D02*
X0051072Y0157313D01*
X0051072Y0157412D02*
X0049421Y0157412D01*
X0049421Y0157510D02*
X0051072Y0157510D01*
X0051072Y0157609D02*
X0049421Y0157609D01*
X0049421Y0157707D02*
X0051072Y0157707D01*
X0051072Y0157806D02*
X0049421Y0157806D01*
X0049421Y0157904D02*
X0051072Y0157904D01*
X0051072Y0158003D02*
X0049421Y0158003D01*
X0049421Y0158101D02*
X0051072Y0158101D01*
X0051072Y0158200D02*
X0049421Y0158200D01*
X0049421Y0158298D02*
X0051072Y0158298D01*
X0051072Y0158397D02*
X0049421Y0158397D01*
X0049421Y0158496D02*
X0051072Y0158496D01*
X0051072Y0158594D02*
X0049421Y0158594D01*
X0049421Y0158693D02*
X0051072Y0158693D01*
X0051390Y0158693D02*
X0053041Y0158693D01*
X0053041Y0158754D02*
X0051390Y0158754D01*
X0051390Y0154860D01*
X0053041Y0154860D01*
X0053041Y0158754D01*
X0053041Y0158594D02*
X0051390Y0158594D01*
X0051390Y0158496D02*
X0053041Y0158496D01*
X0053041Y0158397D02*
X0051390Y0158397D01*
X0051390Y0158298D02*
X0053041Y0158298D01*
X0053041Y0158200D02*
X0051390Y0158200D01*
X0051390Y0158101D02*
X0053041Y0158101D01*
X0053041Y0158003D02*
X0051390Y0158003D01*
X0051390Y0157904D02*
X0053041Y0157904D01*
X0053041Y0157806D02*
X0051390Y0157806D01*
X0051390Y0157707D02*
X0053041Y0157707D01*
X0053041Y0157609D02*
X0051390Y0157609D01*
X0051390Y0157510D02*
X0053041Y0157510D01*
X0053041Y0157412D02*
X0051390Y0157412D01*
X0051390Y0157313D02*
X0053041Y0157313D01*
X0053041Y0157215D02*
X0051390Y0157215D01*
X0051390Y0157116D02*
X0053041Y0157116D01*
X0053041Y0157018D02*
X0051390Y0157018D01*
X0051390Y0156919D02*
X0053041Y0156919D01*
X0053041Y0156821D02*
X0051390Y0156821D01*
X0051390Y0156722D02*
X0053041Y0156722D01*
X0053041Y0156624D02*
X0051390Y0156624D01*
X0051390Y0156525D02*
X0053041Y0156525D01*
X0053041Y0156427D02*
X0051390Y0156427D01*
X0051390Y0156328D02*
X0053041Y0156328D01*
X0053041Y0156230D02*
X0051390Y0156230D01*
X0051390Y0156131D02*
X0053041Y0156131D01*
X0053041Y0156033D02*
X0051390Y0156033D01*
X0051390Y0155934D02*
X0053041Y0155934D01*
X0053041Y0155836D02*
X0051390Y0155836D01*
X0051390Y0155737D02*
X0053041Y0155737D01*
X0053041Y0155639D02*
X0051390Y0155639D01*
X0051390Y0155540D02*
X0053041Y0155540D01*
X0053041Y0155442D02*
X0051390Y0155442D01*
X0051390Y0155343D02*
X0053041Y0155343D01*
X0053041Y0155245D02*
X0051390Y0155245D01*
X0051390Y0155146D02*
X0053041Y0155146D01*
X0053041Y0155048D02*
X0051390Y0155048D01*
X0051390Y0154949D02*
X0053041Y0154949D01*
X0050863Y0150122D02*
X0049604Y0150122D01*
X0049604Y0150024D02*
X0050863Y0150024D01*
X0050863Y0149925D02*
X0049604Y0149925D01*
X0049604Y0149827D02*
X0050863Y0149827D01*
X0050863Y0149728D02*
X0049604Y0149728D01*
X0049604Y0149630D02*
X0050863Y0149630D01*
X0050863Y0149531D02*
X0049604Y0149531D01*
X0049604Y0149432D02*
X0050863Y0149432D01*
X0050863Y0149334D02*
X0049604Y0149334D01*
X0049604Y0149235D02*
X0050863Y0149235D01*
X0050863Y0149137D02*
X0049604Y0149137D01*
X0049604Y0149038D02*
X0050863Y0149038D01*
X0050863Y0148940D02*
X0049604Y0148940D01*
X0049604Y0148841D02*
X0050863Y0148841D01*
X0050863Y0148743D02*
X0049604Y0148743D01*
X0049604Y0148663D02*
X0049604Y0147404D01*
X0056796Y0147404D01*
X0056796Y0148663D01*
X0049604Y0148663D01*
X0049340Y0151206D02*
X0045446Y0151206D01*
X0045446Y0151304D02*
X0049340Y0151304D01*
X0049340Y0151403D02*
X0045446Y0151403D01*
X0045446Y0151501D02*
X0049340Y0151501D01*
X0049340Y0151600D02*
X0045446Y0151600D01*
X0045446Y0151698D02*
X0049340Y0151698D01*
X0057060Y0150841D02*
X0057060Y0149191D01*
X0060954Y0149191D01*
X0060954Y0150841D01*
X0057060Y0150841D01*
X0057060Y0150812D02*
X0060954Y0150812D01*
X0060954Y0150713D02*
X0057060Y0150713D01*
X0057060Y0150615D02*
X0060954Y0150615D01*
X0060954Y0150516D02*
X0057060Y0150516D01*
X0057060Y0150418D02*
X0060954Y0150418D01*
X0060954Y0150319D02*
X0057060Y0150319D01*
X0057060Y0150221D02*
X0060954Y0150221D01*
X0060954Y0150122D02*
X0057060Y0150122D01*
X0057060Y0150024D02*
X0060954Y0150024D01*
X0060954Y0149925D02*
X0057060Y0149925D01*
X0057060Y0149827D02*
X0060954Y0149827D01*
X0060954Y0149728D02*
X0057060Y0149728D01*
X0057060Y0149630D02*
X0060954Y0149630D01*
X0060954Y0149531D02*
X0057060Y0149531D01*
X0057060Y0149432D02*
X0060954Y0149432D01*
X0060954Y0149334D02*
X0057060Y0149334D01*
X0057060Y0149235D02*
X0060954Y0149235D01*
X0060954Y0148872D02*
X0057060Y0148872D01*
X0057060Y0147222D01*
X0060954Y0147222D01*
X0060954Y0148872D01*
X0060954Y0148841D02*
X0057060Y0148841D01*
X0057060Y0148743D02*
X0060954Y0148743D01*
X0060954Y0148644D02*
X0057060Y0148644D01*
X0057060Y0148546D02*
X0060954Y0148546D01*
X0060954Y0148447D02*
X0057060Y0148447D01*
X0057060Y0148349D02*
X0060954Y0148349D01*
X0060954Y0148250D02*
X0057060Y0148250D01*
X0057060Y0148152D02*
X0060954Y0148152D01*
X0060954Y0148053D02*
X0057060Y0148053D01*
X0057060Y0147955D02*
X0060954Y0147955D01*
X0060954Y0147856D02*
X0057060Y0147856D01*
X0057060Y0147758D02*
X0060954Y0147758D01*
X0060954Y0147659D02*
X0057060Y0147659D01*
X0057060Y0147561D02*
X0060954Y0147561D01*
X0060954Y0147462D02*
X0057060Y0147462D01*
X0057060Y0147364D02*
X0060954Y0147364D01*
X0060954Y0147265D02*
X0057060Y0147265D01*
D21*
X0054676Y0096433D02*
X0053830Y0096433D01*
X0053830Y0093579D01*
X0052570Y0093579D01*
X0052570Y0096433D01*
X0051724Y0096433D01*
X0051724Y0092004D01*
X0054676Y0092004D01*
X0054676Y0096433D01*
X0054676Y0096375D02*
X0053830Y0096375D01*
X0053830Y0095777D02*
X0054676Y0095777D01*
X0054676Y0095178D02*
X0053830Y0095178D01*
X0053830Y0094580D02*
X0054676Y0094580D01*
X0054676Y0093981D02*
X0053830Y0093981D01*
X0054676Y0093383D02*
X0051724Y0093383D01*
X0051724Y0093981D02*
X0052570Y0093981D01*
X0052570Y0094580D02*
X0051724Y0094580D01*
X0051724Y0095178D02*
X0052570Y0095178D01*
X0052570Y0095777D02*
X0051724Y0095777D01*
X0051724Y0096375D02*
X0052570Y0096375D01*
X0051724Y0092784D02*
X0054676Y0092784D01*
X0054676Y0092186D02*
X0051724Y0092186D01*
X0051724Y0079996D02*
X0054676Y0079996D01*
X0054676Y0075567D01*
X0053830Y0075567D01*
X0053830Y0078421D01*
X0052570Y0078421D01*
X0052570Y0075567D01*
X0051724Y0075567D01*
X0051724Y0079996D01*
X0051724Y0079617D02*
X0054676Y0079617D01*
X0054676Y0079018D02*
X0051724Y0079018D01*
X0051724Y0078420D02*
X0052570Y0078420D01*
X0052570Y0077821D02*
X0051724Y0077821D01*
X0051724Y0077223D02*
X0052570Y0077223D01*
X0052570Y0076624D02*
X0051724Y0076624D01*
X0051724Y0076026D02*
X0052570Y0076026D01*
X0053830Y0076026D02*
X0054676Y0076026D01*
X0054676Y0076624D02*
X0053830Y0076624D01*
X0053830Y0077223D02*
X0054676Y0077223D01*
X0054676Y0077821D02*
X0053830Y0077821D01*
X0053830Y0078420D02*
X0054676Y0078420D01*
X0109302Y0080115D02*
X0127098Y0080115D01*
X0127098Y0095272D01*
X0109302Y0095272D01*
X0109302Y0080115D01*
X0109302Y0080215D02*
X0127098Y0080215D01*
X0127098Y0080814D02*
X0109302Y0080814D01*
X0109302Y0081412D02*
X0127098Y0081412D01*
X0127098Y0082011D02*
X0109302Y0082011D01*
X0109302Y0082609D02*
X0127098Y0082609D01*
X0127098Y0083208D02*
X0109302Y0083208D01*
X0109302Y0083806D02*
X0127098Y0083806D01*
X0127098Y0084405D02*
X0109302Y0084405D01*
X0109302Y0085003D02*
X0127098Y0085003D01*
X0127098Y0085602D02*
X0109302Y0085602D01*
X0109302Y0086201D02*
X0127098Y0086201D01*
X0127098Y0086799D02*
X0109302Y0086799D01*
X0109302Y0087398D02*
X0127098Y0087398D01*
X0127098Y0087996D02*
X0109302Y0087996D01*
X0109302Y0088595D02*
X0127098Y0088595D01*
X0127098Y0089193D02*
X0109302Y0089193D01*
X0109302Y0089792D02*
X0127098Y0089792D01*
X0127098Y0090390D02*
X0109302Y0090390D01*
X0109302Y0090989D02*
X0127098Y0090989D01*
X0127098Y0091587D02*
X0109302Y0091587D01*
X0109302Y0092186D02*
X0127098Y0092186D01*
X0127098Y0092784D02*
X0109302Y0092784D01*
X0109302Y0093383D02*
X0127098Y0093383D01*
X0127098Y0093981D02*
X0109302Y0093981D01*
X0109302Y0094580D02*
X0127098Y0094580D01*
X0127098Y0095178D02*
X0109302Y0095178D01*
X0109302Y0045272D02*
X0127098Y0045272D01*
X0127098Y0030115D01*
X0109302Y0030115D01*
X0109302Y0045272D01*
X0109302Y0044903D02*
X0127098Y0044903D01*
X0127098Y0044305D02*
X0109302Y0044305D01*
X0109302Y0043706D02*
X0127098Y0043706D01*
X0127098Y0043108D02*
X0109302Y0043108D01*
X0109302Y0042509D02*
X0127098Y0042509D01*
X0127098Y0041911D02*
X0109302Y0041911D01*
X0109302Y0041312D02*
X0127098Y0041312D01*
X0127098Y0040714D02*
X0109302Y0040714D01*
X0109302Y0040115D02*
X0127098Y0040115D01*
X0127098Y0039517D02*
X0109302Y0039517D01*
X0109302Y0038918D02*
X0127098Y0038918D01*
X0127098Y0038320D02*
X0109302Y0038320D01*
X0109302Y0037721D02*
X0127098Y0037721D01*
X0127098Y0037123D02*
X0109302Y0037123D01*
X0109302Y0036524D02*
X0127098Y0036524D01*
X0127098Y0035926D02*
X0109302Y0035926D01*
X0109302Y0035327D02*
X0127098Y0035327D01*
X0127098Y0034729D02*
X0109302Y0034729D01*
X0109302Y0034130D02*
X0127098Y0034130D01*
X0127098Y0033532D02*
X0109302Y0033532D01*
X0109302Y0032933D02*
X0127098Y0032933D01*
X0127098Y0032334D02*
X0109302Y0032334D01*
X0109302Y0031736D02*
X0127098Y0031736D01*
X0127098Y0031137D02*
X0109302Y0031137D01*
X0109302Y0030539D02*
X0127098Y0030539D01*
X0126900Y0204050D02*
X0126900Y0213150D01*
X0139500Y0213150D01*
X0139500Y0204050D01*
X0126900Y0204050D01*
X0126900Y0213150D01*
X0139500Y0213150D01*
X0139500Y0204050D01*
X0126900Y0204050D01*
X0126900Y0213150D01*
X0139500Y0213150D01*
X0139500Y0204050D01*
X0126900Y0204050D01*
X0126900Y0204107D02*
X0139500Y0204107D01*
X0126900Y0204107D01*
X0139500Y0204107D01*
X0139500Y0204706D02*
X0126900Y0204706D01*
X0139500Y0204706D01*
X0126900Y0204706D01*
X0126900Y0205304D02*
X0139500Y0205304D01*
X0126900Y0205304D01*
X0139500Y0205304D01*
X0139500Y0205903D02*
X0126900Y0205903D01*
X0139500Y0205903D01*
X0126900Y0205903D01*
X0126900Y0206501D02*
X0139500Y0206501D01*
X0126900Y0206501D01*
X0139500Y0206501D01*
X0139500Y0207100D02*
X0126900Y0207100D01*
X0139500Y0207100D01*
X0126900Y0207100D01*
X0126900Y0207698D02*
X0139500Y0207698D01*
X0126900Y0207698D01*
X0139500Y0207698D01*
X0139500Y0208297D02*
X0126900Y0208297D01*
X0139500Y0208297D01*
X0126900Y0208297D01*
X0126900Y0208895D02*
X0139500Y0208895D01*
X0126900Y0208895D01*
X0139500Y0208895D01*
X0139500Y0209494D02*
X0126900Y0209494D01*
X0139500Y0209494D01*
X0126900Y0209494D01*
X0126900Y0210092D02*
X0139500Y0210092D01*
X0126900Y0210092D01*
X0139500Y0210092D01*
X0139500Y0210691D02*
X0126900Y0210691D01*
X0139500Y0210691D01*
X0126900Y0210691D01*
X0126900Y0211289D02*
X0139500Y0211289D01*
X0126900Y0211289D01*
X0139500Y0211289D01*
X0139500Y0211888D02*
X0126900Y0211888D01*
X0139500Y0211888D01*
X0126900Y0211888D01*
X0126900Y0212486D02*
X0139500Y0212486D01*
X0126900Y0212486D01*
X0139500Y0212486D01*
X0139500Y0213085D02*
X0126900Y0213085D01*
X0139500Y0213085D01*
X0126900Y0213085D01*
X0064500Y0213085D02*
X0051900Y0213085D01*
X0064500Y0213085D01*
X0051900Y0213085D01*
X0051900Y0213150D02*
X0051900Y0204050D01*
X0064500Y0204050D01*
X0064500Y0213150D01*
X0051900Y0213150D01*
X0051900Y0204050D01*
X0064500Y0204050D01*
X0064500Y0213150D01*
X0051900Y0213150D01*
X0051900Y0204050D01*
X0064500Y0204050D01*
X0064500Y0213150D01*
X0051900Y0213150D01*
X0051900Y0212486D02*
X0064500Y0212486D01*
X0051900Y0212486D01*
X0064500Y0212486D01*
X0064500Y0211888D02*
X0051900Y0211888D01*
X0064500Y0211888D01*
X0051900Y0211888D01*
X0051900Y0211289D02*
X0064500Y0211289D01*
X0051900Y0211289D01*
X0064500Y0211289D01*
X0064500Y0210691D02*
X0051900Y0210691D01*
X0064500Y0210691D01*
X0051900Y0210691D01*
X0051900Y0210092D02*
X0064500Y0210092D01*
X0051900Y0210092D01*
X0064500Y0210092D01*
X0064500Y0209494D02*
X0051900Y0209494D01*
X0064500Y0209494D01*
X0051900Y0209494D01*
X0051900Y0208895D02*
X0064500Y0208895D01*
X0051900Y0208895D01*
X0064500Y0208895D01*
X0064500Y0208297D02*
X0051900Y0208297D01*
X0064500Y0208297D01*
X0051900Y0208297D01*
X0051900Y0207698D02*
X0064500Y0207698D01*
X0051900Y0207698D01*
X0064500Y0207698D01*
X0064500Y0207100D02*
X0051900Y0207100D01*
X0064500Y0207100D01*
X0051900Y0207100D01*
X0051900Y0206501D02*
X0064500Y0206501D01*
X0051900Y0206501D01*
X0064500Y0206501D01*
X0064500Y0205903D02*
X0051900Y0205903D01*
X0064500Y0205903D01*
X0051900Y0205903D01*
X0051900Y0205304D02*
X0064500Y0205304D01*
X0051900Y0205304D01*
X0064500Y0205304D01*
X0064500Y0204706D02*
X0051900Y0204706D01*
X0064500Y0204706D01*
X0051900Y0204706D01*
X0051900Y0204107D02*
X0064500Y0204107D01*
X0051900Y0204107D01*
X0064500Y0204107D01*
D22*
X0106074Y0305882D03*
X0106074Y0316118D03*
D23*
X0056940Y0106000D03*
X0049460Y0106000D03*
X0059460Y0066000D03*
X0066940Y0066000D03*
D24*
X0013200Y0059740D03*
X0013200Y0052260D03*
X0013200Y0039740D03*
X0013200Y0032260D03*
D25*
X0102200Y0171000D03*
X0108200Y0171000D03*
X0114200Y0171000D03*
X0104200Y0243500D03*
X0098200Y0243500D03*
X0092200Y0243500D03*
X0102200Y0288500D03*
X0108200Y0288500D03*
X0114200Y0288500D03*
X0127200Y0291000D03*
X0133200Y0291000D03*
X0139200Y0291000D03*
X0139200Y0281000D03*
X0133200Y0281000D03*
X0127200Y0281000D03*
D26*
X0160200Y0216000D02*
X0166200Y0216000D01*
X0166200Y0206000D02*
X0160200Y0206000D01*
X0160200Y0196000D02*
X0166200Y0196000D01*
X0166200Y0186000D02*
X0160200Y0186000D01*
X0148200Y0019000D02*
X0148200Y0013000D01*
X0138200Y0013000D02*
X0138200Y0019000D01*
X0128200Y0019000D02*
X0128200Y0013000D01*
X0108200Y0013000D02*
X0108200Y0019000D01*
X0098200Y0019000D02*
X0098200Y0013000D01*
X0088200Y0013000D02*
X0088200Y0019000D01*
X0016200Y0186000D02*
X0010200Y0186000D01*
X0010200Y0196000D02*
X0016200Y0196000D01*
X0016200Y0206000D02*
X0010200Y0206000D01*
X0010200Y0216000D02*
X0016200Y0216000D01*
D27*
X0058200Y0171000D03*
X0048200Y0116000D03*
X0068200Y0116000D03*
X0088200Y0116000D03*
X0133200Y0171000D03*
X0098200Y0278500D03*
D28*
X0118200Y0253500D03*
D29*
X0118200Y0247693D03*
X0118200Y0259307D03*
D30*
X0124145Y0183400D03*
X0133200Y0183400D03*
X0142255Y0183400D03*
X0067255Y0183400D03*
X0058200Y0183400D03*
X0049145Y0183400D03*
D31*
X0058200Y0208500D03*
X0133200Y0208500D03*
D32*
X0125700Y0101906D03*
X0120700Y0101906D03*
X0115700Y0101906D03*
X0110700Y0101906D03*
X0110700Y0080094D03*
X0115700Y0080094D03*
X0120700Y0080094D03*
X0125700Y0080094D03*
X0125700Y0051906D03*
X0120700Y0051906D03*
X0115700Y0051906D03*
X0110700Y0051906D03*
X0110700Y0030094D03*
X0115700Y0030094D03*
X0120700Y0030094D03*
X0125700Y0030094D03*
D33*
X0123200Y0151000D03*
X0053200Y0151000D03*
D34*
X0038200Y0149445D03*
X0038200Y0142555D03*
X0068200Y0157555D03*
X0068200Y0164445D03*
X0108200Y0149445D03*
X0108200Y0142555D03*
X0138200Y0157555D03*
X0138200Y0164445D03*
D35*
X0139854Y0146000D03*
X0146546Y0146000D03*
X0126546Y0116000D03*
X0119854Y0116000D03*
X0111546Y0116000D03*
X0104854Y0116000D03*
X0088200Y0094346D03*
X0088200Y0087654D03*
X0078200Y0087654D03*
X0078200Y0094346D03*
X0104854Y0066000D03*
X0111546Y0066000D03*
X0119854Y0066000D03*
X0126546Y0066000D03*
X0076546Y0146000D03*
X0069854Y0146000D03*
X0048200Y0069346D03*
X0048200Y0062654D03*
X0122854Y0266500D03*
X0129546Y0266500D03*
X0134854Y0266500D03*
X0141546Y0266500D03*
X0108200Y0270154D03*
X0108200Y0276846D03*
D36*
X0116200Y0276846D03*
X0116200Y0270154D03*
X0129854Y0258500D03*
X0136546Y0258500D03*
X0136546Y0243500D03*
X0129854Y0243500D03*
X0121546Y0238500D03*
X0114854Y0238500D03*
X0103200Y0089346D03*
X0103200Y0082654D03*
X0103200Y0044346D03*
X0103200Y0037654D03*
D37*
X0028200Y0082681D03*
X0028200Y0109319D03*
D38*
X0029263Y0071000D03*
X0022137Y0071000D03*
X0014263Y0071000D03*
X0037137Y0071000D03*
D39*
X0013200Y0082063D03*
X0013200Y0089937D03*
M02*
