G75*
%MOIN*%
%OFA0B0*%
%FSLAX25Y25*%
%IPPOS*%
%LPD*%
%AMOC8*
5,1,8,0,0,1.08239X$1,22.5*
%
%ADD10C,0.04800*%
%ADD11OC8,0.06000*%
%ADD12C,0.06000*%
%ADD13R,0.05118X0.03543*%
%ADD14R,0.01102X0.03346*%
%ADD15R,0.03346X0.01102*%
%ADD16R,0.08071X0.12008*%
%ADD17C,0.02200*%
%ADD18C,0.00600*%
%ADD19C,0.07000*%
%ADD20R,0.05118X0.05906*%
%ADD21R,0.05906X0.05118*%
%ADD22R,0.04600X0.06300*%
%ADD23C,0.06000*%
%ADD24C,0.05000*%
%ADD25R,0.09252X0.05000*%
%ADD26R,0.00787X0.02756*%
%ADD27R,0.03300X0.06300*%
%ADD28R,0.05000X0.02500*%
%ADD29R,0.02795X0.05402*%
%ADD30R,0.06693X0.06693*%
%ADD31R,0.04252X0.04134*%
%ADD32R,0.03937X0.04331*%
%ADD33R,0.04331X0.03937*%
%ADD34R,0.17717X0.08858*%
%ADD35R,0.05118X0.06299*%
%ADD36R,0.03150X0.03937*%
%ADD37C,0.02578*%
%ADD38C,0.02381*%
D10*
X0033200Y0043600D02*
X0033200Y0048400D01*
X0043200Y0048400D02*
X0043200Y0043600D01*
X0033200Y0318600D02*
X0033200Y0323400D01*
X0023200Y0323400D02*
X0023200Y0318600D01*
X0013200Y0318600D02*
X0013200Y0323400D01*
X0143200Y0323400D02*
X0143200Y0318600D01*
X0153200Y0318600D02*
X0153200Y0323400D01*
X0163200Y0323400D02*
X0163200Y0318600D01*
D11*
X0163200Y0286000D03*
X0163200Y0276000D03*
X0163200Y0266000D03*
X0163200Y0256000D03*
X0163200Y0246000D03*
X0163200Y0236000D03*
X0153200Y0236000D03*
X0153200Y0246000D03*
X0153200Y0256000D03*
X0153200Y0266000D03*
X0153200Y0276000D03*
X0153200Y0286000D03*
X0013200Y0286000D03*
X0013200Y0276000D03*
X0013200Y0266000D03*
X0013200Y0256000D03*
X0013200Y0246000D03*
X0013200Y0236000D03*
X0013200Y0021000D03*
X0023200Y0021000D03*
X0033200Y0021000D03*
X0043200Y0021000D03*
X0053200Y0021000D03*
X0063200Y0021000D03*
D12*
X0063200Y0011000D03*
X0053200Y0011000D03*
X0043200Y0011000D03*
X0033200Y0011000D03*
X0023200Y0011000D03*
X0013200Y0011000D03*
D13*
X0078200Y0153520D03*
X0078200Y0168480D03*
X0148200Y0168480D03*
X0148200Y0153520D03*
D14*
X0126153Y0156807D03*
X0124184Y0156807D03*
X0122216Y0156807D03*
X0120247Y0156807D03*
X0120247Y0145193D03*
X0122216Y0145193D03*
X0124184Y0145193D03*
X0126153Y0145193D03*
X0056153Y0145193D03*
X0054184Y0145193D03*
X0052216Y0145193D03*
X0050247Y0145193D03*
X0050247Y0156807D03*
X0052216Y0156807D03*
X0054184Y0156807D03*
X0056153Y0156807D03*
X0056153Y0094760D03*
X0050247Y0094760D03*
X0050247Y0077240D03*
X0056153Y0077240D03*
D15*
X0059991Y0079110D03*
X0059991Y0081079D03*
X0059991Y0083047D03*
X0059991Y0085016D03*
X0059991Y0086984D03*
X0059991Y0088953D03*
X0059991Y0090921D03*
X0059991Y0092890D03*
X0046409Y0092890D03*
X0046409Y0090921D03*
X0046409Y0088953D03*
X0046409Y0086984D03*
X0046409Y0085016D03*
X0046409Y0083047D03*
X0046409Y0081079D03*
X0046409Y0079110D03*
X0047393Y0148047D03*
X0047393Y0150016D03*
X0047393Y0151984D03*
X0047393Y0153953D03*
X0059007Y0153953D03*
X0059007Y0151984D03*
X0059007Y0150016D03*
X0059007Y0148047D03*
X0117393Y0148047D03*
X0117393Y0150016D03*
X0117393Y0151984D03*
X0117393Y0153953D03*
X0129007Y0153953D03*
X0129007Y0151984D03*
X0129007Y0150016D03*
X0129007Y0148047D03*
D16*
X0053200Y0086000D03*
D17*
X0051600Y0086000D03*
X0051600Y0082900D03*
X0054800Y0082900D03*
X0054800Y0086000D03*
X0054800Y0089100D03*
X0051600Y0089100D03*
X0051600Y0149400D03*
X0051600Y0152600D03*
X0054800Y0152600D03*
X0054800Y0149400D03*
X0121600Y0149400D03*
X0121600Y0152600D03*
X0124800Y0152600D03*
X0124800Y0149400D03*
D18*
X0008000Y0128400D02*
X0008000Y0010200D01*
X0011600Y0006600D01*
X0014600Y0006600D01*
X0017600Y0009600D01*
X0017600Y0011400D01*
X0021200Y0015000D01*
X0024800Y0015000D01*
X0028400Y0011400D01*
X0033200Y0011400D01*
X0033200Y0011000D01*
X0027800Y0006600D02*
X0023600Y0010800D01*
X0023200Y0011000D01*
X0027800Y0006600D02*
X0044600Y0006600D01*
X0048800Y0010800D01*
X0053000Y0010800D01*
X0053200Y0011000D01*
X0057800Y0016800D02*
X0053600Y0021000D01*
X0053200Y0021000D01*
X0057800Y0016800D02*
X0063200Y0016800D01*
X0071000Y0009000D01*
X0129800Y0009000D01*
X0132200Y0011400D01*
X0132200Y0038600D01*
X0150200Y0056600D01*
X0150200Y0124800D01*
X0153200Y0136800D02*
X0145400Y0136800D01*
X0149000Y0142800D02*
X0152000Y0145800D01*
X0152000Y0155400D01*
X0146600Y0160800D01*
X0143600Y0157800D01*
X0138200Y0157800D01*
X0138200Y0157555D01*
X0138200Y0164445D02*
X0138200Y0166200D01*
X0140000Y0168000D01*
X0147800Y0168000D01*
X0148200Y0168480D01*
X0152000Y0166200D02*
X0146600Y0160800D01*
X0148200Y0153520D02*
X0147800Y0153000D01*
X0146600Y0151800D01*
X0146600Y0150000D01*
X0129200Y0150000D01*
X0129007Y0150016D01*
X0129200Y0150000D02*
X0129200Y0151800D01*
X0129007Y0151984D01*
X0129200Y0152400D01*
X0129200Y0153600D01*
X0129007Y0153953D01*
X0128600Y0154200D01*
X0128600Y0160800D01*
X0126200Y0163200D01*
X0123800Y0163200D01*
X0122600Y0162000D01*
X0122600Y0157200D01*
X0122216Y0156807D01*
X0124184Y0156807D02*
X0124400Y0157200D01*
X0125000Y0157200D01*
X0125000Y0160800D01*
X0125000Y0157200D02*
X0126200Y0157200D01*
X0126153Y0156807D01*
X0120247Y0156807D02*
X0120200Y0157200D01*
X0108200Y0169200D01*
X0108200Y0171000D01*
X0114200Y0171000D02*
X0114200Y0188400D01*
X0126200Y0200400D01*
X0129200Y0202800D02*
X0068600Y0202800D01*
X0049400Y0183600D01*
X0049145Y0183400D01*
X0049400Y0183000D01*
X0049400Y0179400D01*
X0054200Y0174600D01*
X0008000Y0128400D01*
X0011000Y0129600D02*
X0011000Y0112200D01*
X0009200Y0106800D02*
X0009200Y0067200D01*
X0012800Y0063600D01*
X0016400Y0063600D01*
X0019400Y0060600D01*
X0019400Y0057600D01*
X0021800Y0055200D01*
X0021800Y0058800D02*
X0027200Y0058800D01*
X0028400Y0060000D01*
X0038600Y0060000D01*
X0036200Y0061200D02*
X0027800Y0061200D01*
X0026600Y0060000D01*
X0024200Y0060000D01*
X0018800Y0065400D01*
X0012800Y0065400D01*
X0010400Y0067800D01*
X0010400Y0106200D01*
X0023600Y0119400D01*
X0056600Y0119400D01*
X0056600Y0106200D01*
X0056940Y0106000D01*
X0050000Y0111600D02*
X0053600Y0115200D01*
X0056600Y0119400D02*
X0056600Y0135000D01*
X0087200Y0135000D01*
X0105200Y0153000D01*
X0102200Y0156000D01*
X0102200Y0171000D01*
X0097400Y0181200D02*
X0110600Y0194400D01*
X0113000Y0195600D02*
X0111800Y0196800D01*
X0111800Y0200400D01*
X0108200Y0200400D02*
X0108200Y0195600D01*
X0099200Y0186600D01*
X0090800Y0178200D01*
X0083800Y0178200D01*
X0082200Y0183000D02*
X0073200Y0192000D01*
X0071600Y0183000D02*
X0067400Y0183000D01*
X0067255Y0183400D01*
X0066800Y0183600D01*
X0058400Y0183600D01*
X0058200Y0183400D01*
X0055400Y0180000D02*
X0063800Y0171600D01*
X0081200Y0171600D01*
X0081800Y0171000D01*
X0081800Y0166200D01*
X0077000Y0161400D01*
X0065600Y0161400D01*
X0061400Y0165600D01*
X0047000Y0165600D01*
X0011000Y0129600D01*
X0021200Y0135000D02*
X0021200Y0121800D01*
X0021200Y0118800D01*
X0009200Y0106800D01*
X0013400Y0094800D02*
X0027800Y0109200D01*
X0028200Y0109319D01*
X0028400Y0109800D01*
X0034400Y0115800D01*
X0045800Y0115800D01*
X0048200Y0116000D01*
X0048200Y0115800D01*
X0045800Y0115800D01*
X0045800Y0102000D01*
X0050600Y0097200D01*
X0050000Y0096600D01*
X0050000Y0094800D01*
X0050247Y0094760D01*
X0051724Y0094580D02*
X0052570Y0094580D01*
X0052570Y0095178D02*
X0051724Y0095178D01*
X0051724Y0095777D02*
X0052570Y0095777D01*
X0052570Y0096375D02*
X0051724Y0096375D01*
X0051724Y0096433D02*
X0052570Y0096433D01*
X0052570Y0093579D01*
X0053830Y0093579D01*
X0053830Y0096433D01*
X0054676Y0096433D01*
X0054676Y0092004D01*
X0051724Y0092004D01*
X0051724Y0096433D01*
X0050600Y0097200D02*
X0051200Y0097800D01*
X0055400Y0097800D01*
X0056000Y0097200D01*
X0056000Y0094800D01*
X0056153Y0094760D01*
X0054676Y0094580D02*
X0053830Y0094580D01*
X0053830Y0095178D02*
X0054676Y0095178D01*
X0054676Y0095777D02*
X0053830Y0095777D01*
X0053830Y0096375D02*
X0054676Y0096375D01*
X0054676Y0093981D02*
X0053830Y0093981D01*
X0054676Y0093383D02*
X0051724Y0093383D01*
X0051724Y0093981D02*
X0052570Y0093981D01*
X0051724Y0092784D02*
X0054676Y0092784D01*
X0054676Y0092186D02*
X0051724Y0092186D01*
X0047600Y0096000D02*
X0043400Y0100200D01*
X0043400Y0105000D01*
X0049460Y0106000D02*
X0050000Y0105600D01*
X0058400Y0097200D01*
X0060800Y0097200D01*
X0059991Y0090921D02*
X0060200Y0090600D01*
X0060200Y0089400D01*
X0059991Y0088953D01*
X0060200Y0088800D01*
X0062000Y0088800D01*
X0068000Y0094800D01*
X0068000Y0115800D01*
X0068200Y0116000D01*
X0068600Y0116400D01*
X0076400Y0116400D01*
X0080600Y0120600D01*
X0122000Y0120600D01*
X0126200Y0116400D01*
X0126546Y0116000D01*
X0126200Y0115800D01*
X0126200Y0102000D01*
X0125700Y0101906D01*
X0126200Y0101400D01*
X0128600Y0099000D01*
X0128600Y0077400D01*
X0126800Y0075600D01*
X0126800Y0066000D01*
X0126546Y0066000D01*
X0126800Y0066000D02*
X0129800Y0063000D01*
X0129800Y0046000D01*
X0133200Y0046000D01*
X0129800Y0046000D02*
X0129800Y0027000D01*
X0128600Y0025800D01*
X0128600Y0025200D01*
X0108200Y0025200D01*
X0098600Y0034800D01*
X0098600Y0069600D01*
X0107000Y0069600D01*
X0108200Y0068400D01*
X0108200Y0060000D01*
X0113000Y0055200D01*
X0113000Y0049200D01*
X0114200Y0048000D01*
X0122600Y0048000D01*
X0123200Y0048600D01*
X0123200Y0049200D01*
X0125600Y0051600D01*
X0125700Y0051906D01*
X0128600Y0054600D02*
X0128600Y0027600D01*
X0127400Y0026400D01*
X0108800Y0026400D01*
X0103200Y0032000D01*
X0103200Y0037654D01*
X0107600Y0033600D02*
X0106400Y0032400D01*
X0107600Y0033600D02*
X0107600Y0045600D01*
X0110600Y0048600D01*
X0110600Y0051600D01*
X0110700Y0051906D01*
X0115400Y0052200D02*
X0115700Y0051906D01*
X0115700Y0058600D01*
X0115300Y0059000D01*
X0111800Y0062500D01*
X0111800Y0066000D01*
X0111546Y0066000D01*
X0111200Y0066000D01*
X0111200Y0067200D01*
X0102800Y0075600D01*
X0090800Y0075600D01*
X0088400Y0078000D01*
X0088400Y0087600D01*
X0088200Y0087654D01*
X0087800Y0087600D01*
X0078200Y0087600D01*
X0078200Y0087654D01*
X0075800Y0091200D02*
X0090200Y0091200D01*
X0096800Y0084600D01*
X0096800Y0078000D01*
X0098000Y0076800D01*
X0106400Y0076800D01*
X0116600Y0066600D01*
X0116600Y0061800D01*
X0122600Y0055800D01*
X0127400Y0055800D01*
X0128600Y0054600D01*
X0127098Y0045272D02*
X0127098Y0030115D01*
X0109302Y0030115D01*
X0109302Y0045272D01*
X0127098Y0045272D01*
X0127098Y0030115D01*
X0109302Y0030115D01*
X0109302Y0045272D01*
X0127098Y0045272D01*
X0127098Y0044903D02*
X0109302Y0044903D01*
X0127098Y0044903D01*
X0127098Y0044305D02*
X0109302Y0044305D01*
X0127098Y0044305D01*
X0127098Y0043706D02*
X0109302Y0043706D01*
X0127098Y0043706D01*
X0127098Y0043108D02*
X0109302Y0043108D01*
X0127098Y0043108D01*
X0127098Y0042509D02*
X0109302Y0042509D01*
X0127098Y0042509D01*
X0127098Y0041911D02*
X0109302Y0041911D01*
X0127098Y0041911D01*
X0127098Y0041312D02*
X0109302Y0041312D01*
X0127098Y0041312D01*
X0127098Y0040714D02*
X0109302Y0040714D01*
X0127098Y0040714D01*
X0127098Y0040115D02*
X0109302Y0040115D01*
X0127098Y0040115D01*
X0127098Y0039517D02*
X0109302Y0039517D01*
X0127098Y0039517D01*
X0127098Y0038918D02*
X0109302Y0038918D01*
X0127098Y0038918D01*
X0127098Y0038320D02*
X0109302Y0038320D01*
X0127098Y0038320D01*
X0127098Y0037721D02*
X0109302Y0037721D01*
X0127098Y0037721D01*
X0127098Y0037123D02*
X0109302Y0037123D01*
X0127098Y0037123D01*
X0127098Y0036524D02*
X0109302Y0036524D01*
X0127098Y0036524D01*
X0127098Y0035926D02*
X0109302Y0035926D01*
X0127098Y0035926D01*
X0127098Y0035327D02*
X0109302Y0035327D01*
X0127098Y0035327D01*
X0127098Y0034729D02*
X0109302Y0034729D01*
X0127098Y0034729D01*
X0127098Y0034130D02*
X0109302Y0034130D01*
X0127098Y0034130D01*
X0127098Y0033532D02*
X0109302Y0033532D01*
X0127098Y0033532D01*
X0127098Y0032933D02*
X0109302Y0032933D01*
X0127098Y0032933D01*
X0127098Y0032334D02*
X0109302Y0032334D01*
X0127098Y0032334D01*
X0127098Y0031736D02*
X0109302Y0031736D01*
X0127098Y0031736D01*
X0127098Y0031137D02*
X0109302Y0031137D01*
X0127098Y0031137D01*
X0127098Y0030539D02*
X0109302Y0030539D01*
X0127098Y0030539D01*
X0125700Y0030094D02*
X0120700Y0030094D01*
X0115700Y0030094D01*
X0110700Y0030094D01*
X0110700Y0042500D01*
X0115700Y0051906D02*
X0116000Y0052200D01*
X0120200Y0052200D01*
X0120700Y0051906D01*
X0120800Y0061200D02*
X0120800Y0065400D01*
X0120200Y0066000D01*
X0119854Y0066000D01*
X0119600Y0066000D01*
X0109400Y0076200D01*
X0108800Y0076200D01*
X0107600Y0077400D01*
X0107600Y0098400D01*
X0110600Y0101400D01*
X0110700Y0101906D01*
X0111800Y0102000D01*
X0111800Y0115800D01*
X0111546Y0116000D01*
X0111200Y0116400D01*
X0108200Y0119400D01*
X0102800Y0119400D01*
X0099800Y0116400D01*
X0088400Y0116400D01*
X0088200Y0116000D01*
X0087800Y0116400D01*
X0083600Y0116400D01*
X0081800Y0118200D01*
X0078200Y0129000D02*
X0074600Y0132600D01*
X0074600Y0137400D02*
X0080600Y0137400D01*
X0080600Y0142903D01*
X0083000Y0145303D01*
X0083000Y0152300D01*
X0093300Y0162600D01*
X0095600Y0154200D02*
X0095600Y0151000D01*
X0095600Y0147000D01*
X0097400Y0139800D02*
X0104000Y0146400D01*
X0108200Y0150000D02*
X0105200Y0153000D01*
X0108200Y0150000D02*
X0108200Y0149445D01*
X0108200Y0150000D02*
X0117200Y0150000D01*
X0117393Y0150016D01*
X0117800Y0150000D01*
X0117800Y0151800D01*
X0117393Y0151984D01*
X0117800Y0152400D01*
X0117800Y0153600D01*
X0117393Y0153953D01*
X0120200Y0160800D02*
X0120200Y0180600D01*
X0117200Y0183600D02*
X0123800Y0183600D01*
X0124145Y0183400D01*
X0124400Y0183000D01*
X0124400Y0179400D01*
X0132800Y0171000D01*
X0133200Y0171000D01*
X0133400Y0171000D01*
X0138200Y0166200D01*
X0146600Y0150000D02*
X0146600Y0146400D01*
X0146546Y0146000D01*
X0149000Y0142800D02*
X0137600Y0142800D01*
X0135800Y0144600D01*
X0126200Y0144600D01*
X0126153Y0145193D01*
X0126200Y0145200D01*
X0124400Y0145200D01*
X0124184Y0145193D01*
X0123800Y0145200D01*
X0122600Y0145200D01*
X0122216Y0145193D01*
X0122000Y0145200D01*
X0120200Y0145200D01*
X0120247Y0145193D01*
X0120200Y0144600D01*
X0118400Y0142800D01*
X0113000Y0142800D01*
X0108200Y0142800D01*
X0108200Y0142555D01*
X0115400Y0129000D02*
X0078200Y0129000D01*
X0077000Y0141600D02*
X0077000Y0142800D01*
X0067400Y0142800D01*
X0065600Y0144600D01*
X0056600Y0144600D01*
X0056153Y0145193D01*
X0056000Y0145200D01*
X0054200Y0145200D01*
X0054184Y0145193D01*
X0054200Y0145200D02*
X0052400Y0145200D01*
X0052216Y0145193D01*
X0051800Y0145200D01*
X0050600Y0145200D01*
X0050247Y0145193D01*
X0047600Y0150000D02*
X0047393Y0150016D01*
X0047000Y0150000D01*
X0044600Y0150000D01*
X0044600Y0147000D01*
X0056600Y0135000D01*
X0065000Y0126600D02*
X0059000Y0120600D01*
X0065000Y0126600D02*
X0113600Y0126600D01*
X0115400Y0129000D02*
X0123200Y0121200D01*
X0125000Y0121200D01*
X0130400Y0119400D02*
X0130400Y0113400D01*
X0128600Y0111600D01*
X0119854Y0116000D02*
X0119600Y0116400D01*
X0111800Y0116400D01*
X0111546Y0116000D01*
X0104854Y0116000D02*
X0104600Y0115800D01*
X0103400Y0114600D01*
X0103400Y0096000D01*
X0102400Y0095000D01*
X0099700Y0095000D01*
X0103400Y0096000D02*
X0103400Y0089400D01*
X0103200Y0089346D01*
X0102800Y0082800D02*
X0103200Y0082654D01*
X0102800Y0082800D02*
X0099200Y0079200D01*
X0098600Y0069600D02*
X0071000Y0069600D01*
X0067400Y0066000D01*
X0066940Y0066000D01*
X0063200Y0062400D02*
X0062600Y0061800D01*
X0059600Y0061800D01*
X0059600Y0060600D01*
X0059600Y0061800D02*
X0056600Y0061800D01*
X0049400Y0069000D01*
X0048200Y0069000D01*
X0048200Y0069346D01*
X0047600Y0072600D02*
X0050600Y0072600D01*
X0057200Y0066000D01*
X0059460Y0066000D01*
X0063200Y0062400D02*
X0063200Y0069600D01*
X0062600Y0070200D01*
X0054800Y0070200D01*
X0050000Y0075000D01*
X0050000Y0076800D01*
X0050247Y0077240D01*
X0051724Y0077223D02*
X0052570Y0077223D01*
X0052570Y0077821D02*
X0051724Y0077821D01*
X0051724Y0078420D02*
X0052570Y0078420D01*
X0052570Y0078421D02*
X0053830Y0078421D01*
X0053830Y0075567D01*
X0054676Y0075567D01*
X0054676Y0079996D01*
X0051724Y0079996D01*
X0051724Y0075567D01*
X0052570Y0075567D01*
X0052570Y0078421D01*
X0051724Y0079018D02*
X0054676Y0079018D01*
X0054676Y0078420D02*
X0053830Y0078420D01*
X0053830Y0077821D02*
X0054676Y0077821D01*
X0054676Y0077223D02*
X0053830Y0077223D01*
X0053830Y0076624D02*
X0054676Y0076624D01*
X0054676Y0076026D02*
X0053830Y0076026D01*
X0052570Y0076026D02*
X0051724Y0076026D01*
X0051724Y0076624D02*
X0052570Y0076624D01*
X0051724Y0079617D02*
X0054676Y0079617D01*
X0056153Y0077240D02*
X0056600Y0076800D01*
X0087200Y0076800D01*
X0088400Y0078000D01*
X0086000Y0079200D02*
X0060200Y0079200D01*
X0059991Y0079110D01*
X0060200Y0081000D02*
X0059991Y0081079D01*
X0060200Y0081000D02*
X0065600Y0081000D01*
X0075800Y0091200D01*
X0077000Y0094200D02*
X0078200Y0094200D01*
X0078200Y0094346D01*
X0078200Y0094800D01*
X0087800Y0094800D01*
X0088200Y0094346D01*
X0077000Y0094200D02*
X0066200Y0083400D01*
X0060200Y0083400D01*
X0059991Y0083047D01*
X0059991Y0085016D02*
X0060200Y0085200D01*
X0062000Y0085200D01*
X0062600Y0085800D01*
X0062600Y0088200D01*
X0062000Y0088800D01*
X0050600Y0066000D02*
X0087800Y0028800D01*
X0087800Y0016200D01*
X0088200Y0016000D01*
X0103200Y0044346D02*
X0103200Y0050000D01*
X0103200Y0064000D01*
X0105200Y0066000D01*
X0104854Y0066000D01*
X0105200Y0066000D02*
X0106400Y0064800D01*
X0115400Y0054600D02*
X0115400Y0052200D01*
X0115700Y0080094D02*
X0110700Y0080094D01*
X0109302Y0080115D02*
X0127098Y0080115D01*
X0127098Y0095272D01*
X0109302Y0095272D01*
X0109302Y0080115D01*
X0127098Y0080115D01*
X0127098Y0095272D01*
X0109302Y0095272D01*
X0109302Y0080115D01*
X0109302Y0080215D02*
X0127098Y0080215D01*
X0109302Y0080215D01*
X0109302Y0080814D02*
X0127098Y0080814D01*
X0109302Y0080814D01*
X0109302Y0081412D02*
X0127098Y0081412D01*
X0109302Y0081412D01*
X0109302Y0082011D02*
X0127098Y0082011D01*
X0109302Y0082011D01*
X0109302Y0082609D02*
X0127098Y0082609D01*
X0109302Y0082609D01*
X0109302Y0083208D02*
X0127098Y0083208D01*
X0109302Y0083208D01*
X0109302Y0083806D02*
X0127098Y0083806D01*
X0109302Y0083806D01*
X0109302Y0084405D02*
X0127098Y0084405D01*
X0109302Y0084405D01*
X0109302Y0085003D02*
X0127098Y0085003D01*
X0109302Y0085003D01*
X0109302Y0085602D02*
X0127098Y0085602D01*
X0109302Y0085602D01*
X0109302Y0086201D02*
X0127098Y0086201D01*
X0109302Y0086201D01*
X0109302Y0086799D02*
X0127098Y0086799D01*
X0109302Y0086799D01*
X0109302Y0087398D02*
X0127098Y0087398D01*
X0109302Y0087398D01*
X0109302Y0087996D02*
X0127098Y0087996D01*
X0109302Y0087996D01*
X0109302Y0088595D02*
X0127098Y0088595D01*
X0109302Y0088595D01*
X0109302Y0089193D02*
X0127098Y0089193D01*
X0109302Y0089193D01*
X0109302Y0089792D02*
X0127098Y0089792D01*
X0109302Y0089792D01*
X0109302Y0090390D02*
X0127098Y0090390D01*
X0109302Y0090390D01*
X0109302Y0090989D02*
X0127098Y0090989D01*
X0109302Y0090989D01*
X0109302Y0091587D02*
X0127098Y0091587D01*
X0109302Y0091587D01*
X0109302Y0092186D02*
X0127098Y0092186D01*
X0109302Y0092186D01*
X0109302Y0092784D02*
X0127098Y0092784D01*
X0109302Y0092784D01*
X0109302Y0093383D02*
X0127098Y0093383D01*
X0109302Y0093383D01*
X0109302Y0093981D02*
X0127098Y0093981D01*
X0109302Y0093981D01*
X0109302Y0094580D02*
X0127098Y0094580D01*
X0109302Y0094580D01*
X0109302Y0095178D02*
X0127098Y0095178D01*
X0109302Y0095178D01*
X0110700Y0101906D02*
X0111200Y0102000D01*
X0111800Y0102000D01*
X0115400Y0102000D01*
X0115700Y0101906D01*
X0116000Y0102000D01*
X0120200Y0102000D01*
X0120700Y0101906D01*
X0125200Y0093500D02*
X0125200Y0080594D01*
X0125700Y0080094D01*
X0120700Y0080094D01*
X0115700Y0080094D01*
X0099200Y0131400D02*
X0099200Y0133200D01*
X0100400Y0134400D01*
X0100400Y0139200D01*
X0097400Y0139800D02*
X0097400Y0135000D01*
X0080600Y0157200D02*
X0083000Y0159600D01*
X0083000Y0171600D01*
X0071600Y0183000D01*
X0078200Y0168480D02*
X0078200Y0168000D01*
X0075200Y0165000D01*
X0068600Y0165000D01*
X0068200Y0164445D01*
X0068000Y0165000D01*
X0062000Y0171000D01*
X0058200Y0171000D01*
X0057800Y0171000D01*
X0054200Y0174600D01*
X0055400Y0180000D02*
X0055400Y0187200D01*
X0068600Y0200400D01*
X0100400Y0200400D01*
X0104600Y0196200D02*
X0094400Y0186000D01*
X0083600Y0186000D01*
X0082200Y0183000D02*
X0091200Y0183000D01*
X0090000Y0206400D02*
X0110600Y0206400D01*
X0115700Y0209500D02*
X0099797Y0209500D01*
X0099097Y0208800D01*
X0091900Y0208800D01*
X0074200Y0226500D01*
X0077000Y0228600D02*
X0077000Y0240600D01*
X0048800Y0240600D01*
X0052400Y0250200D02*
X0039200Y0250200D01*
X0013400Y0276000D01*
X0013200Y0276000D01*
X0009200Y0277800D02*
X0015200Y0283800D01*
X0013200Y0286000D01*
X0013400Y0285600D01*
X0015200Y0283800D01*
X0017600Y0281400D01*
X0017600Y0273600D01*
X0039800Y0251400D01*
X0047000Y0251400D01*
X0050000Y0254400D01*
X0053000Y0254400D01*
X0052400Y0250200D02*
X0057200Y0255000D01*
X0069200Y0255000D01*
X0079400Y0244800D01*
X0079400Y0223800D01*
X0093200Y0210000D01*
X0098600Y0210000D01*
X0101600Y0213000D01*
X0146000Y0213000D01*
X0139400Y0211750D02*
X0139400Y0205450D01*
X0127000Y0205450D01*
X0127000Y0211750D01*
X0139400Y0211750D01*
X0139400Y0205450D01*
X0127000Y0205450D01*
X0127000Y0211750D01*
X0139400Y0211750D01*
X0139400Y0205450D01*
X0127000Y0205450D01*
X0127000Y0211750D01*
X0139400Y0211750D01*
X0139400Y0211289D02*
X0127000Y0211289D01*
X0139400Y0211289D01*
X0127000Y0211289D01*
X0127000Y0210691D02*
X0139400Y0210691D01*
X0127000Y0210691D01*
X0139400Y0210691D01*
X0139400Y0210092D02*
X0127000Y0210092D01*
X0139400Y0210092D01*
X0127000Y0210092D01*
X0127000Y0209494D02*
X0139400Y0209494D01*
X0127000Y0209494D01*
X0139400Y0209494D01*
X0139400Y0208895D02*
X0127000Y0208895D01*
X0139400Y0208895D01*
X0127000Y0208895D01*
X0127000Y0208297D02*
X0139400Y0208297D01*
X0127000Y0208297D01*
X0139400Y0208297D01*
X0139400Y0207698D02*
X0127000Y0207698D01*
X0139400Y0207698D01*
X0127000Y0207698D01*
X0127000Y0207100D02*
X0139400Y0207100D01*
X0127000Y0207100D01*
X0139400Y0207100D01*
X0139400Y0206501D02*
X0127000Y0206501D01*
X0139400Y0206501D01*
X0127000Y0206501D01*
X0127000Y0205903D02*
X0139400Y0205903D01*
X0127000Y0205903D01*
X0139400Y0205903D01*
X0133200Y0208500D02*
X0122700Y0208500D01*
X0129200Y0202800D02*
X0146000Y0186000D01*
X0163200Y0186000D01*
X0161000Y0204000D02*
X0162800Y0205800D01*
X0163200Y0206000D01*
X0161000Y0204000D02*
X0051200Y0204000D01*
X0049400Y0205800D01*
X0013400Y0205800D01*
X0013200Y0206000D01*
X0020600Y0222600D02*
X0009200Y0234000D01*
X0009200Y0277800D01*
X0037400Y0258000D02*
X0107000Y0327600D01*
X0154400Y0327600D01*
X0159200Y0322800D01*
X0159200Y0270000D01*
X0163200Y0266000D01*
X0162800Y0256200D02*
X0158600Y0256200D01*
X0153200Y0261600D01*
X0142400Y0261600D01*
X0141200Y0262800D01*
X0137000Y0258600D01*
X0136546Y0258500D01*
X0136400Y0258000D01*
X0136400Y0253800D01*
X0118400Y0253800D01*
X0118200Y0253500D01*
X0118400Y0253200D01*
X0118400Y0247800D01*
X0118200Y0247693D01*
X0118400Y0247200D01*
X0118400Y0245400D01*
X0115400Y0242400D01*
X0115400Y0238800D01*
X0114854Y0238500D01*
X0113000Y0241800D02*
X0112400Y0241800D01*
X0111200Y0240600D01*
X0111200Y0236400D01*
X0112400Y0235200D01*
X0118200Y0235200D01*
X0115500Y0232500D01*
X0115200Y0232500D01*
X0096300Y0213600D01*
X0095000Y0213600D01*
X0093800Y0211200D02*
X0098000Y0211200D01*
X0119500Y0232700D01*
X0139900Y0232700D01*
X0153200Y0246000D01*
X0159200Y0242400D02*
X0162800Y0246000D01*
X0163200Y0246000D01*
X0159200Y0242400D02*
X0159200Y0234000D01*
X0162800Y0230400D01*
X0162800Y0216000D01*
X0163200Y0216000D01*
X0142255Y0183400D02*
X0141800Y0183600D01*
X0133400Y0183600D01*
X0133200Y0183400D01*
X0132800Y0183600D01*
X0127400Y0189000D01*
X0113000Y0191400D02*
X0113000Y0195600D01*
X0093800Y0211200D02*
X0092000Y0213000D01*
X0092000Y0243000D01*
X0092200Y0243500D01*
X0094700Y0237500D02*
X0096221Y0237500D01*
X0097910Y0235811D01*
X0107889Y0235811D01*
X0110700Y0233000D01*
X0113000Y0241800D02*
X0116600Y0245400D01*
X0116600Y0247200D01*
X0116625Y0247693D01*
X0115050Y0247693D02*
X0114800Y0247200D01*
X0114800Y0245400D01*
X0113000Y0243600D01*
X0104600Y0243600D01*
X0104200Y0243500D01*
X0098900Y0243900D02*
X0098000Y0241800D01*
X0098000Y0239100D01*
X0098900Y0238200D01*
X0098000Y0241800D02*
X0098000Y0243000D01*
X0098200Y0243500D01*
X0098200Y0261000D02*
X0100200Y0263000D01*
X0088400Y0274800D01*
X0076400Y0274800D01*
X0060200Y0257400D02*
X0045800Y0257400D01*
X0045200Y0256800D01*
X0039800Y0256800D01*
X0037400Y0255600D02*
X0039200Y0253800D01*
X0045800Y0253800D01*
X0037400Y0255600D02*
X0037400Y0258000D01*
X0052000Y0211750D02*
X0052000Y0205450D01*
X0064400Y0205450D01*
X0064400Y0211750D01*
X0052000Y0211750D01*
X0052000Y0205450D01*
X0064400Y0205450D01*
X0064400Y0211750D01*
X0052000Y0211750D01*
X0052000Y0205450D01*
X0064400Y0205450D01*
X0064400Y0211750D01*
X0052000Y0211750D01*
X0052000Y0211289D02*
X0064400Y0211289D01*
X0052000Y0211289D01*
X0064400Y0211289D01*
X0064400Y0210691D02*
X0052000Y0210691D01*
X0064400Y0210691D01*
X0052000Y0210691D01*
X0052000Y0210092D02*
X0064400Y0210092D01*
X0052000Y0210092D01*
X0064400Y0210092D01*
X0064400Y0209494D02*
X0052000Y0209494D01*
X0064400Y0209494D01*
X0052000Y0209494D01*
X0052000Y0208895D02*
X0064400Y0208895D01*
X0052000Y0208895D01*
X0064400Y0208895D01*
X0064400Y0208297D02*
X0052000Y0208297D01*
X0064400Y0208297D01*
X0052000Y0208297D01*
X0052000Y0207698D02*
X0064400Y0207698D01*
X0052000Y0207698D01*
X0064400Y0207698D01*
X0064400Y0207100D02*
X0052000Y0207100D01*
X0064400Y0207100D01*
X0052000Y0207100D01*
X0052000Y0206501D02*
X0064400Y0206501D01*
X0052000Y0206501D01*
X0064400Y0206501D01*
X0064400Y0205903D02*
X0052000Y0205903D01*
X0064400Y0205903D01*
X0052000Y0205903D01*
X0058200Y0208500D02*
X0043200Y0208500D01*
X0043200Y0196000D02*
X0043200Y0180500D01*
X0047600Y0164400D02*
X0060800Y0164400D01*
X0068000Y0157200D01*
X0068200Y0157555D01*
X0068600Y0157200D01*
X0080600Y0157200D01*
X0081800Y0156000D01*
X0081800Y0145800D01*
X0078800Y0142800D01*
X0077000Y0142800D01*
X0076546Y0146000D02*
X0077000Y0146400D01*
X0077000Y0150000D01*
X0059600Y0150000D01*
X0059007Y0150016D01*
X0059000Y0150000D01*
X0059000Y0151800D01*
X0059007Y0151984D01*
X0059000Y0152400D01*
X0059000Y0153600D01*
X0059007Y0153953D01*
X0059000Y0154200D01*
X0059000Y0162000D01*
X0057800Y0163200D01*
X0055400Y0163200D01*
X0052400Y0160200D01*
X0052400Y0157200D01*
X0052216Y0156807D01*
X0050247Y0156807D02*
X0050000Y0156600D01*
X0047600Y0154200D01*
X0047393Y0153953D01*
X0047600Y0153600D01*
X0047600Y0152400D01*
X0047393Y0151984D01*
X0047600Y0151800D01*
X0047600Y0150000D01*
X0044600Y0150000D02*
X0038600Y0150000D01*
X0038200Y0149445D01*
X0035000Y0147000D02*
X0038000Y0144000D01*
X0038000Y0142800D01*
X0038200Y0142555D01*
X0035000Y0147000D02*
X0035000Y0151800D01*
X0047600Y0164400D01*
X0054200Y0157200D02*
X0054184Y0156807D01*
X0054200Y0157200D02*
X0056000Y0157200D01*
X0056153Y0156807D01*
X0056600Y0157200D01*
X0056600Y0160800D01*
X0059007Y0148047D02*
X0059600Y0147600D01*
X0068600Y0147600D01*
X0069800Y0146400D01*
X0069854Y0146000D01*
X0071000Y0152400D02*
X0066200Y0152400D01*
X0071000Y0152400D02*
X0072200Y0153600D01*
X0077000Y0151800D02*
X0078200Y0153000D01*
X0078200Y0153520D01*
X0077000Y0151800D02*
X0077000Y0150000D01*
X0090000Y0206400D02*
X0078000Y0218400D01*
X0076400Y0218400D01*
X0077000Y0240600D02*
X0077000Y0243600D01*
X0108800Y0262800D02*
X0094400Y0277200D01*
X0094400Y0300600D01*
X0104600Y0310800D01*
X0114200Y0310800D01*
X0132800Y0292200D01*
X0132800Y0291000D01*
X0133200Y0291000D01*
X0127400Y0291000D02*
X0127400Y0281400D01*
X0127200Y0281000D01*
X0126800Y0280800D01*
X0113000Y0280800D01*
X0116000Y0277200D02*
X0108200Y0277200D01*
X0108200Y0276846D01*
X0107000Y0278400D01*
X0108200Y0279600D01*
X0108200Y0288500D01*
X0114200Y0288500D02*
X0114200Y0297600D01*
X0106400Y0305400D01*
X0106074Y0305882D01*
X0106400Y0315600D02*
X0106074Y0316118D01*
X0106400Y0315600D02*
X0116000Y0315600D01*
X0140000Y0291600D01*
X0139200Y0291000D01*
X0139400Y0291000D01*
X0140000Y0291600D01*
X0153200Y0304800D01*
X0153200Y0321000D01*
X0139400Y0291000D02*
X0139400Y0281400D01*
X0139200Y0281000D01*
X0139400Y0280800D01*
X0139400Y0268800D01*
X0141200Y0267000D01*
X0141546Y0266500D01*
X0141200Y0266400D01*
X0141200Y0262800D01*
X0134854Y0266500D02*
X0134600Y0267000D01*
X0129800Y0267000D01*
X0129546Y0266500D01*
X0129800Y0266400D01*
X0123200Y0259800D01*
X0122924Y0259307D01*
X0121350Y0259307D02*
X0121400Y0259800D01*
X0121400Y0265200D01*
X0122854Y0266500D01*
X0122600Y0266400D01*
X0121400Y0265200D01*
X0116600Y0270000D01*
X0116200Y0270154D01*
X0113000Y0272400D02*
X0114200Y0273600D01*
X0129200Y0273600D01*
X0129800Y0273000D01*
X0132200Y0273000D01*
X0133400Y0274200D01*
X0133400Y0280800D01*
X0133200Y0281000D01*
X0131000Y0275400D02*
X0127400Y0279000D01*
X0127400Y0280800D01*
X0127200Y0281000D01*
X0127200Y0291000D02*
X0127400Y0291000D01*
X0116000Y0277200D02*
X0116200Y0276846D01*
X0113000Y0272400D02*
X0113000Y0267600D01*
X0114800Y0265800D01*
X0114800Y0259800D01*
X0115050Y0259307D01*
X0113600Y0259200D02*
X0113476Y0259307D01*
X0113600Y0259200D02*
X0111200Y0261600D01*
X0111200Y0267000D01*
X0108200Y0270000D01*
X0108200Y0270154D01*
X0108200Y0277200D02*
X0107000Y0278400D01*
X0098600Y0278400D01*
X0098200Y0278500D01*
X0100200Y0263000D02*
X0113600Y0249600D01*
X0117800Y0253800D01*
X0118200Y0253500D01*
X0118400Y0253800D02*
X0118400Y0259200D01*
X0118200Y0259307D01*
X0116625Y0259307D02*
X0116600Y0259800D01*
X0116600Y0262200D01*
X0117200Y0262800D01*
X0119775Y0259307D02*
X0120056Y0259026D01*
X0120056Y0257556D01*
X0120583Y0257029D01*
X0123691Y0257029D01*
X0125162Y0258500D01*
X0129854Y0258500D01*
X0126200Y0247200D02*
X0123200Y0247200D01*
X0122924Y0247693D01*
X0121350Y0247693D02*
X0121400Y0247200D01*
X0121400Y0246173D01*
X0122158Y0245415D01*
X0122785Y0245415D01*
X0125700Y0242500D01*
X0125700Y0236000D01*
X0124900Y0235200D01*
X0118200Y0235200D01*
X0121546Y0238500D02*
X0119775Y0240272D01*
X0119775Y0247693D01*
X0126200Y0247200D02*
X0129800Y0243600D01*
X0129854Y0243500D01*
X0136400Y0243600D02*
X0136546Y0243500D01*
X0136400Y0243600D02*
X0136400Y0253800D01*
X0113600Y0249600D02*
X0113600Y0247800D01*
X0113476Y0247693D01*
X0142255Y0183400D02*
X0142400Y0183000D01*
X0152000Y0173400D01*
X0152000Y0166200D01*
X0138200Y0147600D02*
X0139400Y0146400D01*
X0139854Y0146000D01*
X0138200Y0147600D02*
X0129200Y0147600D01*
X0129007Y0148047D01*
X0163200Y0256000D02*
X0162800Y0256200D01*
X0050600Y0066000D02*
X0045800Y0066000D01*
X0043400Y0068400D01*
X0036200Y0061200D01*
X0037400Y0064200D02*
X0041000Y0067800D01*
X0041000Y0084600D01*
X0046400Y0084600D01*
X0046409Y0085016D01*
X0046409Y0086984D02*
X0046400Y0087000D01*
X0046400Y0088200D01*
X0035000Y0088200D01*
X0035000Y0094200D01*
X0035000Y0088200D02*
X0018800Y0088200D01*
X0012800Y0082200D01*
X0013200Y0082063D01*
X0013400Y0081600D01*
X0013400Y0072000D01*
X0014000Y0071400D01*
X0014263Y0071000D01*
X0014600Y0070800D01*
X0018800Y0066600D01*
X0025400Y0066600D01*
X0025400Y0062400D01*
X0025400Y0066600D02*
X0032600Y0066600D01*
X0036800Y0070800D01*
X0037137Y0071000D01*
X0037400Y0064200D02*
X0030800Y0064200D01*
X0029263Y0071000D02*
X0027800Y0071400D01*
X0027800Y0082200D01*
X0028200Y0082681D01*
X0028400Y0082800D01*
X0030200Y0084600D01*
X0041000Y0084600D01*
X0044600Y0082800D02*
X0042200Y0080400D01*
X0042200Y0069600D01*
X0043400Y0068400D01*
X0047600Y0072600D02*
X0043400Y0076800D01*
X0043400Y0079800D01*
X0044600Y0081000D01*
X0046400Y0081000D01*
X0046409Y0081079D01*
X0046400Y0082800D02*
X0044600Y0082800D01*
X0046400Y0082800D02*
X0046409Y0083047D01*
X0046409Y0079110D02*
X0047000Y0078600D01*
X0047000Y0076800D01*
X0047600Y0076200D01*
X0046400Y0088200D02*
X0046400Y0088800D01*
X0046409Y0088953D01*
X0046400Y0089400D01*
X0046400Y0090600D01*
X0046409Y0090921D01*
X0048200Y0062654D02*
X0048200Y0051000D01*
X0043200Y0046000D01*
X0042800Y0045600D01*
X0040400Y0045600D01*
X0027200Y0032400D01*
X0013400Y0032400D01*
X0013200Y0032260D01*
X0012800Y0031800D01*
X0012800Y0026400D01*
X0009200Y0022800D01*
X0009200Y0015000D01*
X0013200Y0011000D01*
X0013200Y0039740D02*
X0013400Y0042000D01*
X0029600Y0042000D01*
X0033200Y0045600D01*
X0033200Y0046000D01*
X0033200Y0046200D01*
X0036200Y0049200D01*
X0036200Y0057000D01*
X0028400Y0044400D02*
X0013400Y0059400D01*
X0013200Y0059740D01*
X0013200Y0052260D02*
X0013400Y0052200D01*
X0013400Y0042000D01*
X0013400Y0040200D01*
X0013200Y0039740D01*
X0022137Y0071000D02*
X0022400Y0071400D01*
X0027800Y0071400D01*
X0029000Y0071400D01*
X0029263Y0071000D01*
X0013400Y0090000D02*
X0013200Y0089937D01*
X0013400Y0090000D02*
X0013400Y0094800D01*
X0021200Y0135000D02*
X0032600Y0146400D01*
X0128600Y0025200D02*
X0128600Y0016200D01*
X0128200Y0016000D01*
D19*
X0106074Y0305882D03*
X0106074Y0316118D03*
D20*
X0056940Y0106000D03*
X0049460Y0106000D03*
X0059460Y0066000D03*
X0066940Y0066000D03*
D21*
X0013200Y0059740D03*
X0013200Y0052260D03*
X0013200Y0039740D03*
X0013200Y0032260D03*
D22*
X0102200Y0171000D03*
X0108200Y0171000D03*
X0114200Y0171000D03*
X0104200Y0243500D03*
X0098200Y0243500D03*
X0092200Y0243500D03*
X0102200Y0288500D03*
X0108200Y0288500D03*
X0114200Y0288500D03*
X0127200Y0291000D03*
X0133200Y0291000D03*
X0139200Y0291000D03*
X0139200Y0281000D03*
X0133200Y0281000D03*
X0127200Y0281000D03*
D23*
X0160200Y0216000D02*
X0166200Y0216000D01*
X0166200Y0206000D02*
X0160200Y0206000D01*
X0160200Y0196000D02*
X0166200Y0196000D01*
X0166200Y0186000D02*
X0160200Y0186000D01*
X0148200Y0019000D02*
X0148200Y0013000D01*
X0138200Y0013000D02*
X0138200Y0019000D01*
X0128200Y0019000D02*
X0128200Y0013000D01*
X0108200Y0013000D02*
X0108200Y0019000D01*
X0098200Y0019000D02*
X0098200Y0013000D01*
X0088200Y0013000D02*
X0088200Y0019000D01*
X0016200Y0186000D02*
X0010200Y0186000D01*
X0010200Y0196000D02*
X0016200Y0196000D01*
X0016200Y0206000D02*
X0010200Y0206000D01*
X0010200Y0216000D02*
X0016200Y0216000D01*
D24*
X0058200Y0171000D03*
X0048200Y0116000D03*
X0068200Y0116000D03*
X0088200Y0116000D03*
X0133200Y0171000D03*
X0098200Y0278500D03*
D25*
X0118200Y0253500D03*
D26*
X0118200Y0247693D03*
X0116625Y0247693D03*
X0115050Y0247693D03*
X0113476Y0247693D03*
X0119775Y0247693D03*
X0121350Y0247693D03*
X0122924Y0247693D03*
X0122924Y0259307D03*
X0121350Y0259307D03*
X0119775Y0259307D03*
X0118200Y0259307D03*
X0116625Y0259307D03*
X0115050Y0259307D03*
X0113476Y0259307D03*
D27*
X0124145Y0183400D03*
X0133200Y0183400D03*
X0142255Y0183400D03*
X0067255Y0183400D03*
X0058200Y0183400D03*
X0049145Y0183400D03*
D28*
X0058200Y0208500D03*
X0133200Y0208500D03*
D29*
X0125700Y0101906D03*
X0120700Y0101906D03*
X0115700Y0101906D03*
X0110700Y0101906D03*
X0110700Y0080094D03*
X0115700Y0080094D03*
X0120700Y0080094D03*
X0125700Y0080094D03*
X0125700Y0051906D03*
X0120700Y0051906D03*
X0115700Y0051906D03*
X0110700Y0051906D03*
X0110700Y0030094D03*
X0115700Y0030094D03*
X0120700Y0030094D03*
X0125700Y0030094D03*
D30*
X0123200Y0151000D03*
X0053200Y0151000D03*
D31*
X0038200Y0149445D03*
X0038200Y0142555D03*
X0068200Y0157555D03*
X0068200Y0164445D03*
X0108200Y0149445D03*
X0108200Y0142555D03*
X0138200Y0157555D03*
X0138200Y0164445D03*
D32*
X0139854Y0146000D03*
X0146546Y0146000D03*
X0126546Y0116000D03*
X0119854Y0116000D03*
X0111546Y0116000D03*
X0104854Y0116000D03*
X0088200Y0094346D03*
X0088200Y0087654D03*
X0078200Y0087654D03*
X0078200Y0094346D03*
X0104854Y0066000D03*
X0111546Y0066000D03*
X0119854Y0066000D03*
X0126546Y0066000D03*
X0076546Y0146000D03*
X0069854Y0146000D03*
X0048200Y0069346D03*
X0048200Y0062654D03*
X0122854Y0266500D03*
X0129546Y0266500D03*
X0134854Y0266500D03*
X0141546Y0266500D03*
X0108200Y0270154D03*
X0108200Y0276846D03*
D33*
X0116200Y0276846D03*
X0116200Y0270154D03*
X0129854Y0258500D03*
X0136546Y0258500D03*
X0136546Y0243500D03*
X0129854Y0243500D03*
X0121546Y0238500D03*
X0114854Y0238500D03*
X0103200Y0089346D03*
X0103200Y0082654D03*
X0103200Y0044346D03*
X0103200Y0037654D03*
D34*
X0028200Y0082681D03*
X0028200Y0109319D03*
D35*
X0029263Y0071000D03*
X0022137Y0071000D03*
X0014263Y0071000D03*
X0037137Y0071000D03*
D36*
X0013200Y0082063D03*
X0013200Y0089937D03*
D37*
X0011000Y0112200D03*
X0021200Y0121800D03*
X0032600Y0146400D03*
X0050000Y0111600D03*
X0053600Y0115200D03*
X0059000Y0120600D03*
X0060800Y0097200D03*
X0047600Y0096000D03*
X0043400Y0105000D03*
X0035000Y0094200D03*
X0047600Y0076200D03*
X0038600Y0060000D03*
X0036200Y0057000D03*
X0030800Y0064200D03*
X0025400Y0062400D03*
X0021800Y0058800D03*
X0021800Y0055200D03*
X0028400Y0044400D03*
X0059600Y0060600D03*
X0086000Y0079200D03*
X0099200Y0079200D03*
X0115300Y0059000D03*
X0120800Y0061200D03*
X0106400Y0032400D03*
X0128600Y0111600D03*
X0130400Y0119400D03*
X0125000Y0121200D03*
X0113600Y0126600D03*
X0113000Y0142800D03*
X0104000Y0146400D03*
X0100400Y0139200D03*
X0097400Y0135000D03*
X0099200Y0131400D03*
X0095600Y0147000D03*
X0095600Y0154200D03*
X0093300Y0162600D03*
X0083800Y0178200D03*
X0083600Y0186000D03*
X0097400Y0181200D03*
X0099200Y0186600D03*
X0104600Y0196200D03*
X0108200Y0200400D03*
X0111800Y0200400D03*
X0110600Y0194400D03*
X0113000Y0191400D03*
X0117200Y0183600D03*
X0120200Y0180600D03*
X0127400Y0189000D03*
X0126200Y0200400D03*
X0110600Y0206400D03*
X0100400Y0200400D03*
X0095000Y0213600D03*
X0098900Y0238200D03*
X0108800Y0262800D03*
X0117200Y0262800D03*
X0113000Y0280800D03*
X0131000Y0275400D03*
X0146000Y0213000D03*
X0125000Y0160800D03*
X0120200Y0160800D03*
X0145400Y0136800D03*
X0150200Y0124800D03*
X0153200Y0136800D03*
X0081800Y0118200D03*
X0074600Y0132600D03*
X0074600Y0137400D03*
X0077000Y0141600D03*
X0072200Y0153600D03*
X0066200Y0152400D03*
X0056600Y0160800D03*
X0076400Y0218400D03*
X0077000Y0228600D03*
X0077000Y0243600D03*
X0060200Y0257400D03*
X0057200Y0255000D03*
X0053000Y0254400D03*
X0045800Y0253800D03*
X0045800Y0257400D03*
X0039800Y0256800D03*
X0048800Y0240600D03*
X0076400Y0274800D03*
X0020600Y0222600D03*
D38*
X0043200Y0208500D03*
X0043200Y0196000D03*
X0043200Y0180500D03*
X0073200Y0192000D03*
X0091200Y0183000D03*
X0115700Y0209500D03*
X0122700Y0208500D03*
X0115200Y0232500D03*
X0110700Y0233000D03*
X0098200Y0261000D03*
X0094700Y0237500D03*
X0099700Y0095000D03*
X0103200Y0050000D03*
X0110700Y0042500D03*
X0133200Y0046000D03*
X0125200Y0093500D03*
M02*
