G75*
%MOIN*%
%OFA0B0*%
%FSLAX25Y25*%
%IPPOS*%
%LPD*%
%AMOC8*
5,1,8,0,0,1.08239X$1,22.5*
%
%ADD10C,0.00000*%
%ADD11R,0.05906X0.05118*%
%ADD12R,0.05118X0.05906*%
%ADD13C,0.04800*%
%ADD14R,0.05709X0.01575*%
%ADD15R,0.05906X0.07087*%
%ADD16R,0.05906X0.09843*%
%ADD17OC8,0.06000*%
%ADD18C,0.06000*%
%ADD19C,0.02200*%
%ADD20C,0.07000*%
%ADD21R,0.05512X0.04724*%
%ADD22R,0.05118X0.06299*%
%ADD23R,0.06299X0.05118*%
%ADD24C,0.06000*%
%ADD25C,0.01248*%
%ADD26R,0.03200X0.01600*%
%ADD27R,0.01600X0.03200*%
%ADD28R,0.14567X0.14567*%
%ADD29C,0.01772*%
%ADD30R,0.08500X0.02200*%
%ADD31R,0.06300X0.04600*%
%ADD32R,0.03543X0.02756*%
%ADD33R,0.07874X0.07087*%
%ADD34R,0.07874X0.07480*%
%ADD35R,0.12598X0.05709*%
%ADD36C,0.06299*%
%ADD37R,0.01181X0.03150*%
%ADD38R,0.09449X0.08661*%
%ADD39R,0.05118X0.03346*%
%ADD40R,0.04331X0.03937*%
%ADD41R,0.07480X0.04331*%
%ADD42C,0.00600*%
%ADD43C,0.02578*%
%ADD44C,0.02381*%
D10*
X0003200Y0001000D02*
X0003200Y0339701D01*
X0173121Y0339701D01*
X0173121Y0001000D01*
X0003200Y0001000D01*
X0007100Y0156000D02*
X0007102Y0156156D01*
X0007108Y0156311D01*
X0007118Y0156467D01*
X0007132Y0156622D01*
X0007150Y0156777D01*
X0007171Y0156931D01*
X0007197Y0157085D01*
X0007227Y0157238D01*
X0007260Y0157390D01*
X0007298Y0157541D01*
X0007339Y0157691D01*
X0007384Y0157840D01*
X0007433Y0157988D01*
X0007486Y0158135D01*
X0007542Y0158280D01*
X0007602Y0158424D01*
X0007666Y0158566D01*
X0007733Y0158707D01*
X0007804Y0158845D01*
X0007879Y0158982D01*
X0007957Y0159117D01*
X0008038Y0159250D01*
X0008123Y0159381D01*
X0008211Y0159509D01*
X0008302Y0159636D01*
X0008396Y0159760D01*
X0008494Y0159881D01*
X0008595Y0160000D01*
X0008698Y0160116D01*
X0008805Y0160230D01*
X0008914Y0160341D01*
X0009027Y0160449D01*
X0009142Y0160554D01*
X0009259Y0160656D01*
X0009379Y0160755D01*
X0009502Y0160851D01*
X0009627Y0160944D01*
X0009755Y0161034D01*
X0009884Y0161120D01*
X0010016Y0161203D01*
X0010150Y0161283D01*
X0010286Y0161359D01*
X0010424Y0161432D01*
X0010563Y0161501D01*
X0010705Y0161566D01*
X0010848Y0161628D01*
X0010992Y0161686D01*
X0011138Y0161741D01*
X0011285Y0161792D01*
X0011434Y0161839D01*
X0011584Y0161882D01*
X0011734Y0161921D01*
X0011886Y0161957D01*
X0012039Y0161988D01*
X0012192Y0162016D01*
X0012346Y0162040D01*
X0012500Y0162060D01*
X0012655Y0162076D01*
X0012811Y0162088D01*
X0012966Y0162096D01*
X0013122Y0162100D01*
X0013278Y0162100D01*
X0013434Y0162096D01*
X0013589Y0162088D01*
X0013745Y0162076D01*
X0013900Y0162060D01*
X0014054Y0162040D01*
X0014208Y0162016D01*
X0014361Y0161988D01*
X0014514Y0161957D01*
X0014666Y0161921D01*
X0014816Y0161882D01*
X0014966Y0161839D01*
X0015115Y0161792D01*
X0015262Y0161741D01*
X0015408Y0161686D01*
X0015552Y0161628D01*
X0015695Y0161566D01*
X0015837Y0161501D01*
X0015976Y0161432D01*
X0016114Y0161359D01*
X0016250Y0161283D01*
X0016384Y0161203D01*
X0016516Y0161120D01*
X0016645Y0161034D01*
X0016773Y0160944D01*
X0016898Y0160851D01*
X0017021Y0160755D01*
X0017141Y0160656D01*
X0017258Y0160554D01*
X0017373Y0160449D01*
X0017486Y0160341D01*
X0017595Y0160230D01*
X0017702Y0160116D01*
X0017805Y0160000D01*
X0017906Y0159881D01*
X0018004Y0159760D01*
X0018098Y0159636D01*
X0018189Y0159509D01*
X0018277Y0159381D01*
X0018362Y0159250D01*
X0018443Y0159117D01*
X0018521Y0158982D01*
X0018596Y0158845D01*
X0018667Y0158707D01*
X0018734Y0158566D01*
X0018798Y0158424D01*
X0018858Y0158280D01*
X0018914Y0158135D01*
X0018967Y0157988D01*
X0019016Y0157840D01*
X0019061Y0157691D01*
X0019102Y0157541D01*
X0019140Y0157390D01*
X0019173Y0157238D01*
X0019203Y0157085D01*
X0019229Y0156931D01*
X0019250Y0156777D01*
X0019268Y0156622D01*
X0019282Y0156467D01*
X0019292Y0156311D01*
X0019298Y0156156D01*
X0019300Y0156000D01*
X0019298Y0155844D01*
X0019292Y0155689D01*
X0019282Y0155533D01*
X0019268Y0155378D01*
X0019250Y0155223D01*
X0019229Y0155069D01*
X0019203Y0154915D01*
X0019173Y0154762D01*
X0019140Y0154610D01*
X0019102Y0154459D01*
X0019061Y0154309D01*
X0019016Y0154160D01*
X0018967Y0154012D01*
X0018914Y0153865D01*
X0018858Y0153720D01*
X0018798Y0153576D01*
X0018734Y0153434D01*
X0018667Y0153293D01*
X0018596Y0153155D01*
X0018521Y0153018D01*
X0018443Y0152883D01*
X0018362Y0152750D01*
X0018277Y0152619D01*
X0018189Y0152491D01*
X0018098Y0152364D01*
X0018004Y0152240D01*
X0017906Y0152119D01*
X0017805Y0152000D01*
X0017702Y0151884D01*
X0017595Y0151770D01*
X0017486Y0151659D01*
X0017373Y0151551D01*
X0017258Y0151446D01*
X0017141Y0151344D01*
X0017021Y0151245D01*
X0016898Y0151149D01*
X0016773Y0151056D01*
X0016645Y0150966D01*
X0016516Y0150880D01*
X0016384Y0150797D01*
X0016250Y0150717D01*
X0016114Y0150641D01*
X0015976Y0150568D01*
X0015837Y0150499D01*
X0015695Y0150434D01*
X0015552Y0150372D01*
X0015408Y0150314D01*
X0015262Y0150259D01*
X0015115Y0150208D01*
X0014966Y0150161D01*
X0014816Y0150118D01*
X0014666Y0150079D01*
X0014514Y0150043D01*
X0014361Y0150012D01*
X0014208Y0149984D01*
X0014054Y0149960D01*
X0013900Y0149940D01*
X0013745Y0149924D01*
X0013589Y0149912D01*
X0013434Y0149904D01*
X0013278Y0149900D01*
X0013122Y0149900D01*
X0012966Y0149904D01*
X0012811Y0149912D01*
X0012655Y0149924D01*
X0012500Y0149940D01*
X0012346Y0149960D01*
X0012192Y0149984D01*
X0012039Y0150012D01*
X0011886Y0150043D01*
X0011734Y0150079D01*
X0011584Y0150118D01*
X0011434Y0150161D01*
X0011285Y0150208D01*
X0011138Y0150259D01*
X0010992Y0150314D01*
X0010848Y0150372D01*
X0010705Y0150434D01*
X0010563Y0150499D01*
X0010424Y0150568D01*
X0010286Y0150641D01*
X0010150Y0150717D01*
X0010016Y0150797D01*
X0009884Y0150880D01*
X0009755Y0150966D01*
X0009627Y0151056D01*
X0009502Y0151149D01*
X0009379Y0151245D01*
X0009259Y0151344D01*
X0009142Y0151446D01*
X0009027Y0151551D01*
X0008914Y0151659D01*
X0008805Y0151770D01*
X0008698Y0151884D01*
X0008595Y0152000D01*
X0008494Y0152119D01*
X0008396Y0152240D01*
X0008302Y0152364D01*
X0008211Y0152491D01*
X0008123Y0152619D01*
X0008038Y0152750D01*
X0007957Y0152883D01*
X0007879Y0153018D01*
X0007804Y0153155D01*
X0007733Y0153293D01*
X0007666Y0153434D01*
X0007602Y0153576D01*
X0007542Y0153720D01*
X0007486Y0153865D01*
X0007433Y0154012D01*
X0007384Y0154160D01*
X0007339Y0154309D01*
X0007298Y0154459D01*
X0007260Y0154610D01*
X0007227Y0154762D01*
X0007197Y0154915D01*
X0007171Y0155069D01*
X0007150Y0155223D01*
X0007132Y0155378D01*
X0007118Y0155533D01*
X0007108Y0155689D01*
X0007102Y0155844D01*
X0007100Y0156000D01*
X0052100Y0321000D02*
X0052102Y0321156D01*
X0052108Y0321311D01*
X0052118Y0321467D01*
X0052132Y0321622D01*
X0052150Y0321777D01*
X0052171Y0321931D01*
X0052197Y0322085D01*
X0052227Y0322238D01*
X0052260Y0322390D01*
X0052298Y0322541D01*
X0052339Y0322691D01*
X0052384Y0322840D01*
X0052433Y0322988D01*
X0052486Y0323135D01*
X0052542Y0323280D01*
X0052602Y0323424D01*
X0052666Y0323566D01*
X0052733Y0323707D01*
X0052804Y0323845D01*
X0052879Y0323982D01*
X0052957Y0324117D01*
X0053038Y0324250D01*
X0053123Y0324381D01*
X0053211Y0324509D01*
X0053302Y0324636D01*
X0053396Y0324760D01*
X0053494Y0324881D01*
X0053595Y0325000D01*
X0053698Y0325116D01*
X0053805Y0325230D01*
X0053914Y0325341D01*
X0054027Y0325449D01*
X0054142Y0325554D01*
X0054259Y0325656D01*
X0054379Y0325755D01*
X0054502Y0325851D01*
X0054627Y0325944D01*
X0054755Y0326034D01*
X0054884Y0326120D01*
X0055016Y0326203D01*
X0055150Y0326283D01*
X0055286Y0326359D01*
X0055424Y0326432D01*
X0055563Y0326501D01*
X0055705Y0326566D01*
X0055848Y0326628D01*
X0055992Y0326686D01*
X0056138Y0326741D01*
X0056285Y0326792D01*
X0056434Y0326839D01*
X0056584Y0326882D01*
X0056734Y0326921D01*
X0056886Y0326957D01*
X0057039Y0326988D01*
X0057192Y0327016D01*
X0057346Y0327040D01*
X0057500Y0327060D01*
X0057655Y0327076D01*
X0057811Y0327088D01*
X0057966Y0327096D01*
X0058122Y0327100D01*
X0058278Y0327100D01*
X0058434Y0327096D01*
X0058589Y0327088D01*
X0058745Y0327076D01*
X0058900Y0327060D01*
X0059054Y0327040D01*
X0059208Y0327016D01*
X0059361Y0326988D01*
X0059514Y0326957D01*
X0059666Y0326921D01*
X0059816Y0326882D01*
X0059966Y0326839D01*
X0060115Y0326792D01*
X0060262Y0326741D01*
X0060408Y0326686D01*
X0060552Y0326628D01*
X0060695Y0326566D01*
X0060837Y0326501D01*
X0060976Y0326432D01*
X0061114Y0326359D01*
X0061250Y0326283D01*
X0061384Y0326203D01*
X0061516Y0326120D01*
X0061645Y0326034D01*
X0061773Y0325944D01*
X0061898Y0325851D01*
X0062021Y0325755D01*
X0062141Y0325656D01*
X0062258Y0325554D01*
X0062373Y0325449D01*
X0062486Y0325341D01*
X0062595Y0325230D01*
X0062702Y0325116D01*
X0062805Y0325000D01*
X0062906Y0324881D01*
X0063004Y0324760D01*
X0063098Y0324636D01*
X0063189Y0324509D01*
X0063277Y0324381D01*
X0063362Y0324250D01*
X0063443Y0324117D01*
X0063521Y0323982D01*
X0063596Y0323845D01*
X0063667Y0323707D01*
X0063734Y0323566D01*
X0063798Y0323424D01*
X0063858Y0323280D01*
X0063914Y0323135D01*
X0063967Y0322988D01*
X0064016Y0322840D01*
X0064061Y0322691D01*
X0064102Y0322541D01*
X0064140Y0322390D01*
X0064173Y0322238D01*
X0064203Y0322085D01*
X0064229Y0321931D01*
X0064250Y0321777D01*
X0064268Y0321622D01*
X0064282Y0321467D01*
X0064292Y0321311D01*
X0064298Y0321156D01*
X0064300Y0321000D01*
X0064298Y0320844D01*
X0064292Y0320689D01*
X0064282Y0320533D01*
X0064268Y0320378D01*
X0064250Y0320223D01*
X0064229Y0320069D01*
X0064203Y0319915D01*
X0064173Y0319762D01*
X0064140Y0319610D01*
X0064102Y0319459D01*
X0064061Y0319309D01*
X0064016Y0319160D01*
X0063967Y0319012D01*
X0063914Y0318865D01*
X0063858Y0318720D01*
X0063798Y0318576D01*
X0063734Y0318434D01*
X0063667Y0318293D01*
X0063596Y0318155D01*
X0063521Y0318018D01*
X0063443Y0317883D01*
X0063362Y0317750D01*
X0063277Y0317619D01*
X0063189Y0317491D01*
X0063098Y0317364D01*
X0063004Y0317240D01*
X0062906Y0317119D01*
X0062805Y0317000D01*
X0062702Y0316884D01*
X0062595Y0316770D01*
X0062486Y0316659D01*
X0062373Y0316551D01*
X0062258Y0316446D01*
X0062141Y0316344D01*
X0062021Y0316245D01*
X0061898Y0316149D01*
X0061773Y0316056D01*
X0061645Y0315966D01*
X0061516Y0315880D01*
X0061384Y0315797D01*
X0061250Y0315717D01*
X0061114Y0315641D01*
X0060976Y0315568D01*
X0060837Y0315499D01*
X0060695Y0315434D01*
X0060552Y0315372D01*
X0060408Y0315314D01*
X0060262Y0315259D01*
X0060115Y0315208D01*
X0059966Y0315161D01*
X0059816Y0315118D01*
X0059666Y0315079D01*
X0059514Y0315043D01*
X0059361Y0315012D01*
X0059208Y0314984D01*
X0059054Y0314960D01*
X0058900Y0314940D01*
X0058745Y0314924D01*
X0058589Y0314912D01*
X0058434Y0314904D01*
X0058278Y0314900D01*
X0058122Y0314900D01*
X0057966Y0314904D01*
X0057811Y0314912D01*
X0057655Y0314924D01*
X0057500Y0314940D01*
X0057346Y0314960D01*
X0057192Y0314984D01*
X0057039Y0315012D01*
X0056886Y0315043D01*
X0056734Y0315079D01*
X0056584Y0315118D01*
X0056434Y0315161D01*
X0056285Y0315208D01*
X0056138Y0315259D01*
X0055992Y0315314D01*
X0055848Y0315372D01*
X0055705Y0315434D01*
X0055563Y0315499D01*
X0055424Y0315568D01*
X0055286Y0315641D01*
X0055150Y0315717D01*
X0055016Y0315797D01*
X0054884Y0315880D01*
X0054755Y0315966D01*
X0054627Y0316056D01*
X0054502Y0316149D01*
X0054379Y0316245D01*
X0054259Y0316344D01*
X0054142Y0316446D01*
X0054027Y0316551D01*
X0053914Y0316659D01*
X0053805Y0316770D01*
X0053698Y0316884D01*
X0053595Y0317000D01*
X0053494Y0317119D01*
X0053396Y0317240D01*
X0053302Y0317364D01*
X0053211Y0317491D01*
X0053123Y0317619D01*
X0053038Y0317750D01*
X0052957Y0317883D01*
X0052879Y0318018D01*
X0052804Y0318155D01*
X0052733Y0318293D01*
X0052666Y0318434D01*
X0052602Y0318576D01*
X0052542Y0318720D01*
X0052486Y0318865D01*
X0052433Y0319012D01*
X0052384Y0319160D01*
X0052339Y0319309D01*
X0052298Y0319459D01*
X0052260Y0319610D01*
X0052227Y0319762D01*
X0052197Y0319915D01*
X0052171Y0320069D01*
X0052150Y0320223D01*
X0052132Y0320378D01*
X0052118Y0320533D01*
X0052108Y0320689D01*
X0052102Y0320844D01*
X0052100Y0321000D01*
X0157100Y0066000D02*
X0157102Y0066156D01*
X0157108Y0066311D01*
X0157118Y0066467D01*
X0157132Y0066622D01*
X0157150Y0066777D01*
X0157171Y0066931D01*
X0157197Y0067085D01*
X0157227Y0067238D01*
X0157260Y0067390D01*
X0157298Y0067541D01*
X0157339Y0067691D01*
X0157384Y0067840D01*
X0157433Y0067988D01*
X0157486Y0068135D01*
X0157542Y0068280D01*
X0157602Y0068424D01*
X0157666Y0068566D01*
X0157733Y0068707D01*
X0157804Y0068845D01*
X0157879Y0068982D01*
X0157957Y0069117D01*
X0158038Y0069250D01*
X0158123Y0069381D01*
X0158211Y0069509D01*
X0158302Y0069636D01*
X0158396Y0069760D01*
X0158494Y0069881D01*
X0158595Y0070000D01*
X0158698Y0070116D01*
X0158805Y0070230D01*
X0158914Y0070341D01*
X0159027Y0070449D01*
X0159142Y0070554D01*
X0159259Y0070656D01*
X0159379Y0070755D01*
X0159502Y0070851D01*
X0159627Y0070944D01*
X0159755Y0071034D01*
X0159884Y0071120D01*
X0160016Y0071203D01*
X0160150Y0071283D01*
X0160286Y0071359D01*
X0160424Y0071432D01*
X0160563Y0071501D01*
X0160705Y0071566D01*
X0160848Y0071628D01*
X0160992Y0071686D01*
X0161138Y0071741D01*
X0161285Y0071792D01*
X0161434Y0071839D01*
X0161584Y0071882D01*
X0161734Y0071921D01*
X0161886Y0071957D01*
X0162039Y0071988D01*
X0162192Y0072016D01*
X0162346Y0072040D01*
X0162500Y0072060D01*
X0162655Y0072076D01*
X0162811Y0072088D01*
X0162966Y0072096D01*
X0163122Y0072100D01*
X0163278Y0072100D01*
X0163434Y0072096D01*
X0163589Y0072088D01*
X0163745Y0072076D01*
X0163900Y0072060D01*
X0164054Y0072040D01*
X0164208Y0072016D01*
X0164361Y0071988D01*
X0164514Y0071957D01*
X0164666Y0071921D01*
X0164816Y0071882D01*
X0164966Y0071839D01*
X0165115Y0071792D01*
X0165262Y0071741D01*
X0165408Y0071686D01*
X0165552Y0071628D01*
X0165695Y0071566D01*
X0165837Y0071501D01*
X0165976Y0071432D01*
X0166114Y0071359D01*
X0166250Y0071283D01*
X0166384Y0071203D01*
X0166516Y0071120D01*
X0166645Y0071034D01*
X0166773Y0070944D01*
X0166898Y0070851D01*
X0167021Y0070755D01*
X0167141Y0070656D01*
X0167258Y0070554D01*
X0167373Y0070449D01*
X0167486Y0070341D01*
X0167595Y0070230D01*
X0167702Y0070116D01*
X0167805Y0070000D01*
X0167906Y0069881D01*
X0168004Y0069760D01*
X0168098Y0069636D01*
X0168189Y0069509D01*
X0168277Y0069381D01*
X0168362Y0069250D01*
X0168443Y0069117D01*
X0168521Y0068982D01*
X0168596Y0068845D01*
X0168667Y0068707D01*
X0168734Y0068566D01*
X0168798Y0068424D01*
X0168858Y0068280D01*
X0168914Y0068135D01*
X0168967Y0067988D01*
X0169016Y0067840D01*
X0169061Y0067691D01*
X0169102Y0067541D01*
X0169140Y0067390D01*
X0169173Y0067238D01*
X0169203Y0067085D01*
X0169229Y0066931D01*
X0169250Y0066777D01*
X0169268Y0066622D01*
X0169282Y0066467D01*
X0169292Y0066311D01*
X0169298Y0066156D01*
X0169300Y0066000D01*
X0169298Y0065844D01*
X0169292Y0065689D01*
X0169282Y0065533D01*
X0169268Y0065378D01*
X0169250Y0065223D01*
X0169229Y0065069D01*
X0169203Y0064915D01*
X0169173Y0064762D01*
X0169140Y0064610D01*
X0169102Y0064459D01*
X0169061Y0064309D01*
X0169016Y0064160D01*
X0168967Y0064012D01*
X0168914Y0063865D01*
X0168858Y0063720D01*
X0168798Y0063576D01*
X0168734Y0063434D01*
X0168667Y0063293D01*
X0168596Y0063155D01*
X0168521Y0063018D01*
X0168443Y0062883D01*
X0168362Y0062750D01*
X0168277Y0062619D01*
X0168189Y0062491D01*
X0168098Y0062364D01*
X0168004Y0062240D01*
X0167906Y0062119D01*
X0167805Y0062000D01*
X0167702Y0061884D01*
X0167595Y0061770D01*
X0167486Y0061659D01*
X0167373Y0061551D01*
X0167258Y0061446D01*
X0167141Y0061344D01*
X0167021Y0061245D01*
X0166898Y0061149D01*
X0166773Y0061056D01*
X0166645Y0060966D01*
X0166516Y0060880D01*
X0166384Y0060797D01*
X0166250Y0060717D01*
X0166114Y0060641D01*
X0165976Y0060568D01*
X0165837Y0060499D01*
X0165695Y0060434D01*
X0165552Y0060372D01*
X0165408Y0060314D01*
X0165262Y0060259D01*
X0165115Y0060208D01*
X0164966Y0060161D01*
X0164816Y0060118D01*
X0164666Y0060079D01*
X0164514Y0060043D01*
X0164361Y0060012D01*
X0164208Y0059984D01*
X0164054Y0059960D01*
X0163900Y0059940D01*
X0163745Y0059924D01*
X0163589Y0059912D01*
X0163434Y0059904D01*
X0163278Y0059900D01*
X0163122Y0059900D01*
X0162966Y0059904D01*
X0162811Y0059912D01*
X0162655Y0059924D01*
X0162500Y0059940D01*
X0162346Y0059960D01*
X0162192Y0059984D01*
X0162039Y0060012D01*
X0161886Y0060043D01*
X0161734Y0060079D01*
X0161584Y0060118D01*
X0161434Y0060161D01*
X0161285Y0060208D01*
X0161138Y0060259D01*
X0160992Y0060314D01*
X0160848Y0060372D01*
X0160705Y0060434D01*
X0160563Y0060499D01*
X0160424Y0060568D01*
X0160286Y0060641D01*
X0160150Y0060717D01*
X0160016Y0060797D01*
X0159884Y0060880D01*
X0159755Y0060966D01*
X0159627Y0061056D01*
X0159502Y0061149D01*
X0159379Y0061245D01*
X0159259Y0061344D01*
X0159142Y0061446D01*
X0159027Y0061551D01*
X0158914Y0061659D01*
X0158805Y0061770D01*
X0158698Y0061884D01*
X0158595Y0062000D01*
X0158494Y0062119D01*
X0158396Y0062240D01*
X0158302Y0062364D01*
X0158211Y0062491D01*
X0158123Y0062619D01*
X0158038Y0062750D01*
X0157957Y0062883D01*
X0157879Y0063018D01*
X0157804Y0063155D01*
X0157733Y0063293D01*
X0157666Y0063434D01*
X0157602Y0063576D01*
X0157542Y0063720D01*
X0157486Y0063865D01*
X0157433Y0064012D01*
X0157384Y0064160D01*
X0157339Y0064309D01*
X0157298Y0064459D01*
X0157260Y0064610D01*
X0157227Y0064762D01*
X0157197Y0064915D01*
X0157171Y0065069D01*
X0157150Y0065223D01*
X0157132Y0065378D01*
X0157118Y0065533D01*
X0157108Y0065689D01*
X0157102Y0065844D01*
X0157100Y0066000D01*
X0154866Y0042480D02*
X0154868Y0042561D01*
X0154874Y0042643D01*
X0154884Y0042724D01*
X0154898Y0042804D01*
X0154915Y0042883D01*
X0154937Y0042962D01*
X0154962Y0043039D01*
X0154991Y0043116D01*
X0155024Y0043190D01*
X0155061Y0043263D01*
X0155100Y0043334D01*
X0155144Y0043403D01*
X0155190Y0043470D01*
X0155240Y0043534D01*
X0155293Y0043596D01*
X0155349Y0043656D01*
X0155407Y0043712D01*
X0155469Y0043766D01*
X0155533Y0043817D01*
X0155599Y0043864D01*
X0155667Y0043908D01*
X0155738Y0043949D01*
X0155810Y0043986D01*
X0155885Y0044020D01*
X0155960Y0044050D01*
X0156038Y0044076D01*
X0156116Y0044099D01*
X0156195Y0044117D01*
X0156275Y0044132D01*
X0156356Y0044143D01*
X0156437Y0044150D01*
X0156519Y0044153D01*
X0156600Y0044152D01*
X0156681Y0044147D01*
X0156762Y0044138D01*
X0156843Y0044125D01*
X0156923Y0044108D01*
X0157001Y0044088D01*
X0157079Y0044063D01*
X0157156Y0044035D01*
X0157231Y0044003D01*
X0157304Y0043968D01*
X0157375Y0043929D01*
X0157445Y0043886D01*
X0157512Y0043841D01*
X0157578Y0043792D01*
X0157640Y0043740D01*
X0157700Y0043684D01*
X0157757Y0043626D01*
X0157812Y0043566D01*
X0157863Y0043502D01*
X0157911Y0043437D01*
X0157956Y0043369D01*
X0157998Y0043299D01*
X0158036Y0043227D01*
X0158071Y0043153D01*
X0158102Y0043078D01*
X0158129Y0043001D01*
X0158152Y0042923D01*
X0158172Y0042844D01*
X0158188Y0042764D01*
X0158200Y0042683D01*
X0158208Y0042602D01*
X0158212Y0042521D01*
X0158212Y0042439D01*
X0158208Y0042358D01*
X0158200Y0042277D01*
X0158188Y0042196D01*
X0158172Y0042116D01*
X0158152Y0042037D01*
X0158129Y0041959D01*
X0158102Y0041882D01*
X0158071Y0041807D01*
X0158036Y0041733D01*
X0157998Y0041661D01*
X0157956Y0041591D01*
X0157911Y0041523D01*
X0157863Y0041458D01*
X0157812Y0041394D01*
X0157757Y0041334D01*
X0157700Y0041276D01*
X0157640Y0041220D01*
X0157578Y0041168D01*
X0157512Y0041119D01*
X0157445Y0041074D01*
X0157376Y0041031D01*
X0157304Y0040992D01*
X0157231Y0040957D01*
X0157156Y0040925D01*
X0157079Y0040897D01*
X0157001Y0040872D01*
X0156923Y0040852D01*
X0156843Y0040835D01*
X0156762Y0040822D01*
X0156681Y0040813D01*
X0156600Y0040808D01*
X0156519Y0040807D01*
X0156437Y0040810D01*
X0156356Y0040817D01*
X0156275Y0040828D01*
X0156195Y0040843D01*
X0156116Y0040861D01*
X0156038Y0040884D01*
X0155960Y0040910D01*
X0155885Y0040940D01*
X0155810Y0040974D01*
X0155738Y0041011D01*
X0155667Y0041052D01*
X0155599Y0041096D01*
X0155533Y0041143D01*
X0155469Y0041194D01*
X0155407Y0041248D01*
X0155349Y0041304D01*
X0155293Y0041364D01*
X0155240Y0041426D01*
X0155190Y0041490D01*
X0155144Y0041557D01*
X0155100Y0041626D01*
X0155061Y0041697D01*
X0155024Y0041770D01*
X0154991Y0041844D01*
X0154962Y0041921D01*
X0154937Y0041998D01*
X0154915Y0042077D01*
X0154898Y0042156D01*
X0154884Y0042236D01*
X0154874Y0042317D01*
X0154868Y0042399D01*
X0154866Y0042480D01*
X0154866Y0027520D02*
X0154868Y0027601D01*
X0154874Y0027683D01*
X0154884Y0027764D01*
X0154898Y0027844D01*
X0154915Y0027923D01*
X0154937Y0028002D01*
X0154962Y0028079D01*
X0154991Y0028156D01*
X0155024Y0028230D01*
X0155061Y0028303D01*
X0155100Y0028374D01*
X0155144Y0028443D01*
X0155190Y0028510D01*
X0155240Y0028574D01*
X0155293Y0028636D01*
X0155349Y0028696D01*
X0155407Y0028752D01*
X0155469Y0028806D01*
X0155533Y0028857D01*
X0155599Y0028904D01*
X0155667Y0028948D01*
X0155738Y0028989D01*
X0155810Y0029026D01*
X0155885Y0029060D01*
X0155960Y0029090D01*
X0156038Y0029116D01*
X0156116Y0029139D01*
X0156195Y0029157D01*
X0156275Y0029172D01*
X0156356Y0029183D01*
X0156437Y0029190D01*
X0156519Y0029193D01*
X0156600Y0029192D01*
X0156681Y0029187D01*
X0156762Y0029178D01*
X0156843Y0029165D01*
X0156923Y0029148D01*
X0157001Y0029128D01*
X0157079Y0029103D01*
X0157156Y0029075D01*
X0157231Y0029043D01*
X0157304Y0029008D01*
X0157375Y0028969D01*
X0157445Y0028926D01*
X0157512Y0028881D01*
X0157578Y0028832D01*
X0157640Y0028780D01*
X0157700Y0028724D01*
X0157757Y0028666D01*
X0157812Y0028606D01*
X0157863Y0028542D01*
X0157911Y0028477D01*
X0157956Y0028409D01*
X0157998Y0028339D01*
X0158036Y0028267D01*
X0158071Y0028193D01*
X0158102Y0028118D01*
X0158129Y0028041D01*
X0158152Y0027963D01*
X0158172Y0027884D01*
X0158188Y0027804D01*
X0158200Y0027723D01*
X0158208Y0027642D01*
X0158212Y0027561D01*
X0158212Y0027479D01*
X0158208Y0027398D01*
X0158200Y0027317D01*
X0158188Y0027236D01*
X0158172Y0027156D01*
X0158152Y0027077D01*
X0158129Y0026999D01*
X0158102Y0026922D01*
X0158071Y0026847D01*
X0158036Y0026773D01*
X0157998Y0026701D01*
X0157956Y0026631D01*
X0157911Y0026563D01*
X0157863Y0026498D01*
X0157812Y0026434D01*
X0157757Y0026374D01*
X0157700Y0026316D01*
X0157640Y0026260D01*
X0157578Y0026208D01*
X0157512Y0026159D01*
X0157445Y0026114D01*
X0157376Y0026071D01*
X0157304Y0026032D01*
X0157231Y0025997D01*
X0157156Y0025965D01*
X0157079Y0025937D01*
X0157001Y0025912D01*
X0156923Y0025892D01*
X0156843Y0025875D01*
X0156762Y0025862D01*
X0156681Y0025853D01*
X0156600Y0025848D01*
X0156519Y0025847D01*
X0156437Y0025850D01*
X0156356Y0025857D01*
X0156275Y0025868D01*
X0156195Y0025883D01*
X0156116Y0025901D01*
X0156038Y0025924D01*
X0155960Y0025950D01*
X0155885Y0025980D01*
X0155810Y0026014D01*
X0155738Y0026051D01*
X0155667Y0026092D01*
X0155599Y0026136D01*
X0155533Y0026183D01*
X0155469Y0026234D01*
X0155407Y0026288D01*
X0155349Y0026344D01*
X0155293Y0026404D01*
X0155240Y0026466D01*
X0155190Y0026530D01*
X0155144Y0026597D01*
X0155100Y0026666D01*
X0155061Y0026737D01*
X0155024Y0026810D01*
X0154991Y0026884D01*
X0154962Y0026961D01*
X0154937Y0027038D01*
X0154915Y0027117D01*
X0154898Y0027196D01*
X0154884Y0027276D01*
X0154874Y0027357D01*
X0154868Y0027439D01*
X0154866Y0027520D01*
D11*
X0093200Y0222260D03*
X0093200Y0229740D03*
X0083200Y0229740D03*
X0083200Y0222260D03*
X0073200Y0262260D03*
X0073200Y0269740D03*
X0063200Y0269740D03*
X0063200Y0262260D03*
X0048200Y0262260D03*
X0048200Y0269740D03*
X0038200Y0269740D03*
X0038200Y0262260D03*
D12*
X0034460Y0241000D03*
X0041940Y0241000D03*
X0064460Y0281000D03*
X0071940Y0281000D03*
D13*
X0033200Y0318600D02*
X0033200Y0323400D01*
X0023200Y0323400D02*
X0023200Y0318600D01*
X0013200Y0318600D02*
X0013200Y0323400D01*
X0143200Y0323400D02*
X0143200Y0318600D01*
X0153200Y0318600D02*
X0153200Y0323400D01*
X0163200Y0323400D02*
X0163200Y0318600D01*
X0043200Y0048400D02*
X0043200Y0043600D01*
X0033200Y0043600D02*
X0033200Y0048400D01*
D14*
X0154472Y0040118D03*
X0154472Y0037559D03*
X0154472Y0035000D03*
X0154472Y0032441D03*
X0154472Y0029882D03*
D15*
X0165200Y0020492D03*
X0165200Y0049508D03*
D16*
X0165200Y0035000D03*
D17*
X0063200Y0021000D03*
X0053200Y0021000D03*
X0043200Y0021000D03*
X0033200Y0021000D03*
X0023200Y0021000D03*
X0013200Y0021000D03*
X0013200Y0236000D03*
X0013200Y0246000D03*
X0013200Y0256000D03*
X0013200Y0266000D03*
X0013200Y0276000D03*
X0013200Y0286000D03*
X0153200Y0286000D03*
X0153200Y0276000D03*
X0153200Y0266000D03*
X0153200Y0256000D03*
X0153200Y0246000D03*
X0153200Y0236000D03*
X0163200Y0236000D03*
X0163200Y0246000D03*
X0163200Y0256000D03*
X0163200Y0266000D03*
X0163200Y0276000D03*
X0163200Y0286000D03*
D18*
X0063200Y0011000D03*
X0053200Y0011000D03*
X0043200Y0011000D03*
X0033200Y0011000D03*
X0023200Y0011000D03*
X0013200Y0011000D03*
D19*
X0051600Y0082900D03*
X0051600Y0086000D03*
X0051600Y0089100D03*
X0054800Y0089100D03*
X0054800Y0086000D03*
X0054800Y0082900D03*
X0054800Y0149400D03*
X0054800Y0152600D03*
X0051600Y0152600D03*
X0051600Y0149400D03*
X0121600Y0149400D03*
X0121600Y0152600D03*
X0124800Y0152600D03*
X0124800Y0149400D03*
D20*
X0106074Y0305882D03*
X0106074Y0316118D03*
D21*
X0042531Y0234150D03*
X0042531Y0227850D03*
X0033869Y0227850D03*
X0033869Y0234150D03*
D22*
X0026940Y0116000D03*
X0019460Y0116000D03*
D23*
X0013200Y0302260D03*
X0013200Y0309740D03*
X0033200Y0309740D03*
X0033200Y0302260D03*
X0143200Y0302260D03*
X0143200Y0309740D03*
X0163200Y0309740D03*
X0163200Y0302260D03*
D24*
X0166200Y0216000D02*
X0160200Y0216000D01*
X0160200Y0206000D02*
X0166200Y0206000D01*
X0166200Y0196000D02*
X0160200Y0196000D01*
X0160200Y0186000D02*
X0166200Y0186000D01*
X0148200Y0019000D02*
X0148200Y0013000D01*
X0138200Y0013000D02*
X0138200Y0019000D01*
X0128200Y0019000D02*
X0128200Y0013000D01*
X0108200Y0013000D02*
X0108200Y0019000D01*
X0098200Y0019000D02*
X0098200Y0013000D01*
X0088200Y0013000D02*
X0088200Y0019000D01*
X0016200Y0186000D02*
X0010200Y0186000D01*
X0010200Y0196000D02*
X0016200Y0196000D01*
X0016200Y0206000D02*
X0010200Y0206000D01*
X0010200Y0216000D02*
X0016200Y0216000D01*
D25*
X0052145Y0247871D02*
X0054097Y0247871D01*
X0052145Y0247871D02*
X0052145Y0248223D01*
X0054097Y0248223D01*
X0054097Y0247871D01*
D26*
X0053121Y0246079D03*
X0053121Y0244110D03*
X0053121Y0242142D03*
X0053121Y0240173D03*
X0053121Y0238205D03*
X0053121Y0236236D03*
X0053121Y0234268D03*
X0073279Y0233953D03*
X0073279Y0235921D03*
X0073279Y0237890D03*
X0073279Y0239858D03*
X0073279Y0241827D03*
X0073279Y0243795D03*
X0073279Y0245764D03*
X0073279Y0247732D03*
D27*
X0070247Y0251079D03*
X0068279Y0251079D03*
X0066310Y0251079D03*
X0064342Y0251079D03*
X0062373Y0251079D03*
X0060405Y0251079D03*
X0058436Y0251079D03*
X0056468Y0251079D03*
X0056153Y0230921D03*
X0058121Y0230921D03*
X0060090Y0230921D03*
X0062058Y0230921D03*
X0064027Y0230921D03*
X0065995Y0230921D03*
X0067964Y0230921D03*
X0069932Y0230921D03*
D28*
X0063357Y0241236D03*
D29*
X0075602Y0175075D02*
X0077570Y0175075D01*
X0077570Y0172516D02*
X0075602Y0172516D01*
X0075602Y0169957D02*
X0077570Y0169957D01*
X0077570Y0167398D02*
X0075602Y0167398D01*
X0075602Y0164839D02*
X0077570Y0164839D01*
X0077570Y0162280D02*
X0075602Y0162280D01*
X0075602Y0159720D02*
X0077570Y0159720D01*
X0077570Y0157161D02*
X0075602Y0157161D01*
X0075602Y0154602D02*
X0077570Y0154602D01*
X0077570Y0152043D02*
X0075602Y0152043D01*
X0075602Y0149484D02*
X0077570Y0149484D01*
X0077570Y0146925D02*
X0075602Y0146925D01*
X0098830Y0146925D02*
X0100798Y0146925D01*
X0100798Y0149484D02*
X0098830Y0149484D01*
X0098830Y0152043D02*
X0100798Y0152043D01*
X0100798Y0154602D02*
X0098830Y0154602D01*
X0098830Y0157161D02*
X0100798Y0157161D01*
X0100798Y0159720D02*
X0098830Y0159720D01*
X0098830Y0162280D02*
X0100798Y0162280D01*
X0100798Y0164839D02*
X0098830Y0164839D01*
X0098830Y0167398D02*
X0100798Y0167398D01*
X0100798Y0169957D02*
X0098830Y0169957D01*
X0098830Y0172516D02*
X0100798Y0172516D01*
X0100798Y0175075D02*
X0098830Y0175075D01*
D30*
X0041500Y0098500D03*
X0041500Y0093500D03*
X0041500Y0088500D03*
X0041500Y0083500D03*
X0041500Y0078500D03*
X0041500Y0073500D03*
X0041500Y0068500D03*
X0041500Y0063500D03*
X0014900Y0063500D03*
X0014900Y0068500D03*
X0014900Y0073500D03*
X0014900Y0078500D03*
X0014900Y0083500D03*
X0014900Y0088500D03*
X0014900Y0093500D03*
X0014900Y0098500D03*
D31*
X0013200Y0130000D03*
X0013200Y0136000D03*
X0013200Y0142000D03*
X0143200Y0132000D03*
X0143200Y0126000D03*
X0143200Y0120000D03*
X0158200Y0120000D03*
X0158200Y0126000D03*
X0158200Y0132000D03*
D32*
X0103200Y0238441D03*
X0103200Y0243559D03*
D33*
X0083200Y0260488D03*
X0083200Y0271512D03*
D34*
X0058672Y0106748D03*
X0058672Y0091000D03*
X0058672Y0075252D03*
X0117728Y0075252D03*
X0117728Y0091000D03*
X0117728Y0106748D03*
D35*
X0101980Y0069248D03*
X0088200Y0112752D03*
X0074420Y0069248D03*
D36*
X0076389Y0079189D03*
X0100011Y0102811D03*
D37*
X0099027Y0126157D03*
X0100995Y0126157D03*
X0102964Y0126157D03*
X0104932Y0126157D03*
X0106901Y0126157D03*
X0108869Y0126157D03*
X0110838Y0126157D03*
X0097058Y0126157D03*
X0095090Y0126157D03*
X0093121Y0126157D03*
X0091153Y0126157D03*
X0089184Y0126157D03*
X0087216Y0126157D03*
X0085247Y0126157D03*
X0083279Y0126157D03*
X0081310Y0126157D03*
X0079342Y0126157D03*
X0077373Y0126157D03*
X0075405Y0126157D03*
X0073436Y0126157D03*
X0071468Y0126157D03*
X0069499Y0126157D03*
X0067531Y0126157D03*
X0065562Y0126157D03*
D38*
X0055917Y0132457D03*
X0120483Y0132457D03*
D39*
X0118318Y0138461D03*
X0058082Y0138461D03*
D40*
X0103200Y0222654D03*
X0103200Y0229346D03*
D41*
X0083200Y0241276D03*
X0083200Y0250724D03*
D42*
X0083000Y0250200D01*
X0080600Y0247800D01*
X0073400Y0247800D01*
X0073279Y0247732D01*
X0073400Y0246000D02*
X0073279Y0245764D01*
X0073400Y0246000D02*
X0078800Y0246000D01*
X0083000Y0241800D01*
X0083200Y0241276D01*
X0078800Y0238200D02*
X0087800Y0238200D01*
X0106400Y0256800D01*
X0106400Y0265200D01*
X0143000Y0301800D01*
X0143200Y0302260D01*
X0139400Y0306000D02*
X0167000Y0306000D01*
X0167600Y0305400D01*
X0167600Y0280200D01*
X0163400Y0276000D01*
X0163200Y0276000D01*
X0163200Y0286000D02*
X0162800Y0286200D01*
X0158600Y0290400D01*
X0152000Y0290400D01*
X0134000Y0272400D01*
X0131000Y0275400D01*
X0134000Y0272400D02*
X0105200Y0243600D01*
X0108200Y0240600D01*
X0108200Y0200400D01*
X0110600Y0201600D02*
X0111800Y0200400D01*
X0110600Y0201600D02*
X0110600Y0206400D01*
X0107000Y0198000D02*
X0127400Y0198000D01*
X0127400Y0189000D01*
X0127400Y0198000D02*
X0145400Y0216000D01*
X0163200Y0216000D01*
X0146000Y0213000D02*
X0162800Y0196200D01*
X0163200Y0196000D01*
X0127400Y0200400D02*
X0162800Y0235800D01*
X0163200Y0246000D02*
X0163400Y0246000D01*
X0163400Y0255600D01*
X0163000Y0256000D01*
X0153200Y0256000D01*
X0153200Y0266000D01*
X0153200Y0276000D01*
X0153200Y0286000D01*
X0153800Y0301800D02*
X0162800Y0301800D01*
X0163200Y0302260D01*
X0163200Y0309740D02*
X0163400Y0310200D01*
X0163400Y0321000D01*
X0163200Y0321000D01*
X0153800Y0301800D02*
X0128600Y0276600D01*
X0128600Y0270600D01*
X0118400Y0260400D01*
X0113000Y0260400D01*
X0089600Y0237000D01*
X0078200Y0237000D01*
X0075200Y0240000D01*
X0073400Y0240000D01*
X0073279Y0239858D01*
X0073400Y0241800D02*
X0073279Y0241827D01*
X0073400Y0241800D02*
X0075200Y0241800D01*
X0078800Y0238200D01*
X0077703Y0235800D02*
X0090097Y0235800D01*
X0091797Y0237500D01*
X0094700Y0237500D01*
X0095039Y0234600D02*
X0098639Y0238200D01*
X0098900Y0238200D01*
X0096800Y0233400D02*
X0097400Y0232800D01*
X0097400Y0228600D01*
X0102800Y0223200D01*
X0103200Y0222654D01*
X0099800Y0222600D02*
X0099800Y0205200D01*
X0107000Y0198000D01*
X0104600Y0196200D02*
X0117200Y0183600D01*
X0120200Y0184200D02*
X0120200Y0180600D01*
X0120200Y0184200D02*
X0113000Y0191400D01*
X0113600Y0194400D02*
X0110600Y0194400D01*
X0113600Y0194400D02*
X0165200Y0142800D01*
X0165200Y0113400D01*
X0114200Y0062400D01*
X0104600Y0062400D01*
X0063200Y0021000D01*
X0059000Y0025200D01*
X0051800Y0025200D01*
X0047600Y0021000D01*
X0043200Y0021000D01*
X0042800Y0021000D01*
X0038600Y0025200D01*
X0031400Y0025200D01*
X0027200Y0021000D01*
X0023200Y0021000D01*
X0021800Y0016800D02*
X0029000Y0016800D01*
X0033200Y0021000D01*
X0037400Y0021000D01*
X0041600Y0016800D01*
X0048800Y0016800D01*
X0053000Y0021000D01*
X0053200Y0021000D01*
X0059600Y0015000D02*
X0063200Y0011400D01*
X0063200Y0011000D01*
X0059600Y0015000D02*
X0041600Y0015000D01*
X0038000Y0011400D01*
X0033200Y0011400D01*
X0033200Y0011000D01*
X0035000Y0006600D02*
X0017600Y0006600D01*
X0013200Y0011000D01*
X0013400Y0015000D02*
X0019400Y0015000D01*
X0023000Y0011400D01*
X0023200Y0011000D01*
X0021800Y0016800D02*
X0017600Y0021000D01*
X0013200Y0021000D01*
X0009200Y0019200D02*
X0013400Y0015000D01*
X0009200Y0019200D02*
X0009200Y0022800D01*
X0024200Y0037800D01*
X0024200Y0055200D01*
X0021800Y0055200D01*
X0024200Y0055200D02*
X0024200Y0060000D01*
X0021200Y0063000D01*
X0015200Y0063000D01*
X0014900Y0063500D01*
X0012800Y0058800D02*
X0009200Y0062400D01*
X0009200Y0079800D01*
X0010400Y0081000D01*
X0019400Y0081000D01*
X0030800Y0069600D01*
X0030800Y0064200D01*
X0027800Y0067800D02*
X0027800Y0060000D01*
X0034400Y0053400D01*
X0042200Y0053400D01*
X0051800Y0063000D01*
X0078800Y0063000D01*
X0090800Y0075000D01*
X0117200Y0075000D01*
X0117728Y0075252D01*
X0117200Y0090600D02*
X0117728Y0091000D01*
X0117200Y0090600D02*
X0093800Y0090600D01*
X0076400Y0073200D01*
X0067400Y0073200D01*
X0058400Y0064200D01*
X0051200Y0064200D01*
X0041600Y0054600D01*
X0035000Y0054600D01*
X0033200Y0056400D01*
X0033200Y0069000D01*
X0018800Y0083400D01*
X0015200Y0083400D01*
X0014900Y0083500D01*
X0014900Y0078500D02*
X0015200Y0078000D01*
X0017600Y0078000D01*
X0027800Y0067800D01*
X0025400Y0062400D02*
X0025400Y0060600D01*
X0033800Y0052200D01*
X0036800Y0052200D01*
X0042800Y0046200D01*
X0043200Y0046000D01*
X0044600Y0039600D02*
X0059600Y0054600D01*
X0059600Y0060600D01*
X0057800Y0065400D02*
X0050600Y0065400D01*
X0045200Y0060000D01*
X0038600Y0060000D01*
X0036200Y0057000D02*
X0036200Y0070200D01*
X0036800Y0070800D01*
X0045800Y0070800D01*
X0047600Y0072600D01*
X0047600Y0076200D01*
X0041000Y0088200D02*
X0041500Y0088500D01*
X0041000Y0088200D02*
X0039200Y0086400D01*
X0009800Y0086400D01*
X0008000Y0088200D01*
X0008000Y0100200D01*
X0011000Y0103200D01*
X0011000Y0112200D01*
X0011600Y0102000D02*
X0009200Y0099600D01*
X0009200Y0097200D01*
X0012800Y0093600D01*
X0014600Y0093600D01*
X0014900Y0093500D01*
X0014900Y0098500D02*
X0015200Y0099000D01*
X0017000Y0100800D01*
X0060800Y0100800D01*
X0063200Y0098400D01*
X0145400Y0098400D01*
X0164000Y0117000D01*
X0164000Y0133200D01*
X0097400Y0199800D01*
X0097400Y0214800D01*
X0096200Y0216000D01*
X0075200Y0216000D01*
X0066200Y0225000D01*
X0066200Y0230400D01*
X0065995Y0230921D01*
X0064027Y0230921D02*
X0063800Y0230400D01*
X0063800Y0225600D01*
X0113600Y0175800D01*
X0115400Y0175800D01*
X0150200Y0141000D01*
X0150200Y0124800D01*
X0147800Y0123600D02*
X0151400Y0120000D01*
X0158200Y0120000D01*
X0162800Y0122400D02*
X0159200Y0126000D01*
X0158200Y0126000D01*
X0158200Y0132000D02*
X0158000Y0132000D01*
X0153200Y0136800D01*
X0153200Y0139800D01*
X0095000Y0198000D01*
X0095000Y0213600D01*
X0098600Y0215400D02*
X0096800Y0217200D01*
X0081200Y0217200D01*
X0070400Y0228000D01*
X0070400Y0230400D01*
X0069932Y0230921D01*
X0067964Y0230921D02*
X0068000Y0230400D01*
X0068000Y0226800D01*
X0076400Y0218400D01*
X0083000Y0222600D02*
X0077000Y0228600D01*
X0077000Y0230400D01*
X0080000Y0233400D01*
X0096800Y0233400D01*
X0095039Y0234600D02*
X0079503Y0234600D01*
X0079403Y0234500D01*
X0076404Y0234500D01*
X0075252Y0235653D01*
X0073547Y0235653D01*
X0073279Y0235921D01*
X0073279Y0237890D02*
X0075613Y0237890D01*
X0077703Y0235800D01*
X0077000Y0243600D02*
X0073400Y0243600D01*
X0073279Y0243795D01*
X0070247Y0251079D02*
X0076376Y0251079D01*
X0079087Y0253790D01*
X0090990Y0253790D01*
X0098200Y0261000D01*
X0088400Y0267600D02*
X0086000Y0265200D01*
X0078800Y0265200D01*
X0077600Y0264000D01*
X0077600Y0259800D01*
X0073500Y0255700D01*
X0068700Y0255700D01*
X0066200Y0253200D01*
X0066200Y0251400D01*
X0066310Y0251079D01*
X0064400Y0251400D02*
X0064400Y0253800D01*
X0072800Y0262200D01*
X0073200Y0262260D01*
X0073400Y0262800D01*
X0074600Y0262800D01*
X0083000Y0271200D01*
X0083200Y0271512D01*
X0083000Y0271800D01*
X0074000Y0280800D01*
X0072200Y0280800D01*
X0071940Y0281000D01*
X0076400Y0274800D02*
X0073400Y0271800D01*
X0073400Y0270000D01*
X0073200Y0269740D01*
X0072800Y0270000D01*
X0064400Y0270000D01*
X0063200Y0269740D01*
X0063200Y0270000D01*
X0064400Y0270000D01*
X0064400Y0280800D01*
X0064460Y0281000D01*
X0061400Y0285000D02*
X0078800Y0285000D01*
X0088400Y0275400D01*
X0107600Y0275400D01*
X0113000Y0280800D01*
X0108800Y0262800D02*
X0117200Y0262800D01*
X0105200Y0243600D02*
X0103400Y0243600D01*
X0103200Y0243559D01*
X0103200Y0238441D02*
X0103400Y0238200D01*
X0103400Y0229800D01*
X0103200Y0229346D01*
X0099800Y0222600D02*
X0093200Y0229200D01*
X0093200Y0229740D01*
X0093200Y0229800D01*
X0083600Y0229800D01*
X0083200Y0229740D01*
X0083000Y0222600D02*
X0083200Y0222260D01*
X0083600Y0222600D01*
X0093200Y0222600D01*
X0093200Y0222260D01*
X0098600Y0215400D02*
X0098600Y0202200D01*
X0100400Y0200400D01*
X0099200Y0186600D02*
X0099800Y0186000D01*
X0099800Y0175200D01*
X0099814Y0175075D01*
X0100400Y0174600D01*
X0114800Y0174600D01*
X0147800Y0141600D01*
X0147800Y0123600D01*
X0144200Y0120000D01*
X0143200Y0120000D01*
X0140600Y0123600D02*
X0143000Y0126000D01*
X0143200Y0126000D01*
X0140600Y0123600D02*
X0109400Y0123600D01*
X0108800Y0124200D01*
X0108800Y0126000D01*
X0108869Y0126157D01*
X0108800Y0126600D01*
X0107000Y0126600D01*
X0106901Y0126157D01*
X0104932Y0126157D02*
X0104600Y0126600D01*
X0104600Y0142200D01*
X0100400Y0146400D01*
X0099814Y0146925D01*
X0099800Y0149400D02*
X0099814Y0149484D01*
X0099800Y0149400D02*
X0094400Y0149400D01*
X0093200Y0148200D01*
X0093200Y0142800D01*
X0102800Y0133200D01*
X0102800Y0126600D01*
X0102964Y0126157D01*
X0100995Y0126157D02*
X0101000Y0126000D01*
X0101000Y0124200D01*
X0104000Y0121200D01*
X0125000Y0121200D01*
X0129800Y0118800D02*
X0130400Y0119400D01*
X0129800Y0118800D02*
X0090800Y0118800D01*
X0085400Y0124200D01*
X0085400Y0126000D01*
X0085247Y0126157D01*
X0083279Y0126157D02*
X0083000Y0126600D01*
X0083000Y0147000D01*
X0078200Y0151800D01*
X0077000Y0151800D01*
X0076586Y0152043D01*
X0076400Y0154200D02*
X0076586Y0154602D01*
X0076400Y0154200D02*
X0075200Y0154200D01*
X0074600Y0153600D01*
X0072200Y0153600D01*
X0066200Y0156000D02*
X0075200Y0147000D01*
X0076400Y0147000D01*
X0076586Y0146925D01*
X0077000Y0146400D01*
X0077000Y0141600D01*
X0077000Y0126600D01*
X0077373Y0126157D01*
X0077600Y0126000D01*
X0077600Y0124200D01*
X0081800Y0120000D01*
X0081800Y0118200D01*
X0086600Y0117000D02*
X0079400Y0124200D01*
X0079400Y0126000D01*
X0079342Y0126157D01*
X0081200Y0126600D02*
X0081310Y0126157D01*
X0081200Y0126600D02*
X0081200Y0146400D01*
X0078200Y0149400D01*
X0077000Y0149400D01*
X0076586Y0149484D01*
X0077000Y0156600D02*
X0076586Y0157161D01*
X0077000Y0156600D02*
X0078200Y0156600D01*
X0084200Y0150600D01*
X0084200Y0139100D01*
X0087200Y0136100D01*
X0087200Y0126600D01*
X0087216Y0126157D01*
X0089000Y0126600D02*
X0089184Y0126157D01*
X0089000Y0126600D02*
X0089000Y0136600D01*
X0085400Y0140200D01*
X0085400Y0152400D01*
X0078200Y0159600D01*
X0077000Y0159600D01*
X0076586Y0159720D01*
X0077359Y0161506D02*
X0078310Y0161506D01*
X0088200Y0151616D01*
X0088200Y0139500D01*
X0091200Y0136500D01*
X0091200Y0126205D01*
X0091153Y0126157D01*
X0093121Y0126157D02*
X0093200Y0126600D01*
X0093200Y0139200D01*
X0090100Y0142300D01*
X0090100Y0152500D01*
X0078200Y0164400D01*
X0077000Y0164400D01*
X0076586Y0164839D01*
X0077000Y0166800D02*
X0076586Y0167398D01*
X0077000Y0166800D02*
X0078200Y0166800D01*
X0091800Y0153200D01*
X0091800Y0142400D01*
X0095000Y0139200D01*
X0095000Y0126600D01*
X0095090Y0126157D01*
X0096800Y0126600D02*
X0097058Y0126157D01*
X0096800Y0126600D02*
X0096800Y0134400D01*
X0097400Y0135000D01*
X0099200Y0131400D02*
X0099200Y0126600D01*
X0099027Y0126157D01*
X0100400Y0139200D02*
X0100400Y0142200D01*
X0095600Y0147000D01*
X0094610Y0151811D02*
X0093211Y0153210D01*
X0093211Y0155190D01*
X0093300Y0155279D01*
X0093300Y0162600D01*
X0095600Y0154200D02*
X0099800Y0154200D01*
X0099814Y0154602D01*
X0100400Y0156600D02*
X0099814Y0157161D01*
X0100400Y0156600D02*
X0101600Y0156600D01*
X0104000Y0154200D01*
X0104000Y0146400D01*
X0099800Y0151800D02*
X0099814Y0152043D01*
X0098268Y0152043D01*
X0098035Y0151811D01*
X0094610Y0151811D01*
X0100400Y0166800D02*
X0099814Y0167398D01*
X0099800Y0167400D01*
X0080600Y0167400D01*
X0077000Y0171000D01*
X0077000Y0170400D01*
X0076586Y0169957D01*
X0076400Y0169800D01*
X0075200Y0169800D01*
X0066200Y0160800D01*
X0066200Y0156000D01*
X0066200Y0152400D02*
X0063800Y0150000D01*
X0063800Y0124200D01*
X0079400Y0108600D01*
X0095000Y0108600D01*
X0098000Y0111600D01*
X0128600Y0111600D01*
X0123060Y0095640D02*
X0125200Y0093500D01*
X0123060Y0095640D02*
X0113418Y0095640D01*
X0112778Y0095000D01*
X0099700Y0095000D01*
X0101000Y0106800D02*
X0100400Y0107400D01*
X0068600Y0107400D01*
X0063200Y0102000D01*
X0011600Y0102000D01*
X0017000Y0090600D02*
X0014900Y0088500D01*
X0017000Y0090600D02*
X0045800Y0090600D01*
X0047000Y0091800D01*
X0056000Y0091800D01*
X0056600Y0091200D01*
X0058400Y0091200D01*
X0058672Y0091000D01*
X0060800Y0097200D02*
X0062000Y0097200D01*
X0063800Y0095400D01*
X0063800Y0071400D01*
X0057800Y0065400D01*
X0058400Y0075000D02*
X0054800Y0075000D01*
X0043400Y0063600D01*
X0041600Y0063600D01*
X0041500Y0063500D01*
X0028400Y0044400D02*
X0028400Y0043200D01*
X0032000Y0039600D01*
X0044600Y0039600D01*
X0043200Y0011000D02*
X0042800Y0010800D01*
X0039200Y0010800D01*
X0035000Y0006600D01*
X0043200Y0011000D02*
X0047600Y0006600D01*
X0097400Y0006600D01*
X0107600Y0016800D01*
X0108200Y0016000D01*
X0108200Y0016200D01*
X0107600Y0016800D01*
X0106400Y0018000D01*
X0106400Y0023400D01*
X0139400Y0023400D01*
X0146600Y0016200D01*
X0147800Y0016200D01*
X0148200Y0016000D01*
X0159200Y0022500D01*
X0159200Y0038500D01*
X0157582Y0040118D01*
X0154472Y0040118D01*
X0154472Y0029882D02*
X0149318Y0029882D01*
X0133200Y0046000D01*
X0120800Y0061200D02*
X0120500Y0061200D01*
X0115300Y0056000D01*
X0115300Y0059000D01*
X0115300Y0056000D02*
X0115300Y0036800D01*
X0106400Y0032400D01*
X0106400Y0023400D01*
X0110700Y0042500D02*
X0103200Y0050000D01*
X0099200Y0079200D02*
X0086000Y0079200D01*
X0101000Y0106800D02*
X0117200Y0106800D01*
X0117728Y0106748D01*
X0113600Y0126600D02*
X0113600Y0139800D01*
X0115400Y0141600D01*
X0115400Y0150000D01*
X0120200Y0154800D01*
X0120200Y0160800D01*
X0121400Y0163200D02*
X0116000Y0163200D01*
X0110600Y0157800D01*
X0101600Y0166800D01*
X0100400Y0166800D01*
X0099814Y0169957D02*
X0099800Y0170400D01*
X0098000Y0170400D01*
X0087300Y0181600D01*
X0087300Y0186400D01*
X0060200Y0213000D01*
X0060200Y0230400D01*
X0060090Y0230921D01*
X0062058Y0230921D02*
X0062000Y0230400D01*
X0062000Y0216600D01*
X0097400Y0181200D01*
X0096200Y0177000D02*
X0091200Y0182000D01*
X0091200Y0183000D01*
X0096200Y0177000D02*
X0096200Y0175179D01*
X0098090Y0173289D01*
X0099041Y0173289D01*
X0099814Y0172516D01*
X0110600Y0157800D02*
X0110600Y0142800D01*
X0113000Y0142800D01*
X0110600Y0142800D02*
X0110600Y0126600D01*
X0110838Y0126157D01*
X0123800Y0160800D02*
X0121400Y0163200D01*
X0123800Y0160800D02*
X0125000Y0160800D01*
X0145400Y0136800D02*
X0143600Y0135000D01*
X0143600Y0132000D01*
X0143200Y0132000D01*
X0139400Y0117000D02*
X0140000Y0116400D01*
X0161600Y0116400D01*
X0162800Y0117600D01*
X0162800Y0122400D01*
X0139400Y0117000D02*
X0086600Y0117000D01*
X0077000Y0126600D02*
X0075800Y0126600D01*
X0075405Y0126157D01*
X0075200Y0126600D01*
X0074000Y0126600D01*
X0073436Y0126157D01*
X0074600Y0132600D02*
X0074600Y0137400D01*
X0077359Y0161506D02*
X0076586Y0162280D01*
X0077000Y0171000D02*
X0077000Y0172200D01*
X0076586Y0172516D01*
X0076400Y0174600D02*
X0076586Y0175075D01*
X0076400Y0174600D02*
X0064400Y0174600D01*
X0033800Y0144000D01*
X0018200Y0144000D01*
X0017000Y0145200D01*
X0009200Y0145200D01*
X0008600Y0144600D01*
X0008600Y0127200D01*
X0019400Y0116400D01*
X0019460Y0116000D01*
X0021200Y0121800D02*
X0026600Y0116400D01*
X0026940Y0116000D01*
X0021200Y0121800D02*
X0013400Y0129600D01*
X0013200Y0130000D01*
X0013400Y0135600D02*
X0013200Y0136000D01*
X0013400Y0135600D02*
X0029600Y0135600D01*
X0058400Y0106800D01*
X0058672Y0106748D01*
X0053600Y0115200D02*
X0059000Y0120600D01*
X0050000Y0111600D02*
X0043400Y0105000D01*
X0041500Y0098500D02*
X0041000Y0098400D01*
X0039200Y0098400D01*
X0035000Y0094200D01*
X0041500Y0093500D02*
X0044000Y0096000D01*
X0047600Y0096000D01*
X0058672Y0075252D02*
X0058400Y0075000D01*
X0037400Y0142200D02*
X0056000Y0160800D01*
X0056600Y0160800D01*
X0066200Y0160800D01*
X0066100Y0178100D02*
X0045600Y0178100D01*
X0043200Y0180500D01*
X0043200Y0196000D02*
X0043200Y0208500D01*
X0045800Y0224400D02*
X0037400Y0224400D01*
X0034400Y0227400D01*
X0033869Y0227850D01*
X0038000Y0232200D02*
X0038000Y0237600D01*
X0035000Y0240600D01*
X0034460Y0241000D01*
X0033800Y0241800D01*
X0028400Y0236400D01*
X0013400Y0236400D01*
X0013200Y0236000D01*
X0013400Y0235800D01*
X0013400Y0216000D01*
X0013200Y0216000D01*
X0020600Y0222600D02*
X0020600Y0204600D01*
X0013400Y0197400D01*
X0013400Y0196200D01*
X0013200Y0196000D01*
X0013200Y0186000D02*
X0083600Y0186000D01*
X0083800Y0178200D02*
X0066200Y0178200D01*
X0066100Y0178100D01*
X0034400Y0146400D01*
X0032600Y0146400D01*
X0037400Y0142200D02*
X0013400Y0142200D01*
X0013200Y0142000D01*
X0073200Y0192000D02*
X0058121Y0207079D01*
X0058121Y0230921D01*
X0053121Y0236236D02*
X0053000Y0236400D01*
X0051200Y0236400D01*
X0046400Y0231600D01*
X0046400Y0225000D01*
X0045800Y0224400D01*
X0042531Y0227850D02*
X0042200Y0228000D01*
X0038000Y0232200D01*
X0042531Y0234150D02*
X0042800Y0234600D01*
X0046400Y0238200D01*
X0053000Y0238200D01*
X0053121Y0238205D01*
X0053000Y0240000D02*
X0053121Y0240173D01*
X0053000Y0240000D02*
X0048800Y0240000D01*
X0048800Y0240600D01*
X0048800Y0240000D02*
X0042800Y0240000D01*
X0042200Y0240600D01*
X0041940Y0241000D01*
X0050600Y0242400D02*
X0042200Y0250800D01*
X0042200Y0273000D01*
X0013400Y0301800D01*
X0013200Y0302260D01*
X0009800Y0306000D02*
X0017600Y0306000D01*
X0023600Y0312000D01*
X0023600Y0321000D01*
X0023200Y0321000D01*
X0023600Y0312000D02*
X0029600Y0306000D01*
X0036800Y0306000D01*
X0048200Y0294600D01*
X0067400Y0294600D01*
X0088400Y0315600D01*
X0105800Y0315600D01*
X0106074Y0316118D01*
X0088400Y0275400D02*
X0088400Y0267600D01*
X0083200Y0260488D02*
X0076291Y0253579D01*
X0069074Y0253579D01*
X0068547Y0253052D01*
X0068547Y0251347D01*
X0068279Y0251079D01*
X0064400Y0251400D02*
X0064342Y0251079D01*
X0062600Y0251400D02*
X0062373Y0251079D01*
X0062600Y0251400D02*
X0062600Y0261600D01*
X0063200Y0262200D01*
X0063200Y0262260D01*
X0059000Y0259200D02*
X0060200Y0258000D01*
X0060200Y0257400D01*
X0060200Y0251400D01*
X0060405Y0251079D01*
X0058436Y0251079D02*
X0058400Y0251400D01*
X0058400Y0253800D01*
X0057200Y0255000D01*
X0056000Y0251400D02*
X0056468Y0251079D01*
X0056000Y0251400D02*
X0053000Y0254400D01*
X0050600Y0253200D02*
X0050600Y0257400D01*
X0057800Y0264600D01*
X0057800Y0283200D01*
X0075800Y0301200D01*
X0134600Y0301200D01*
X0139400Y0306000D01*
X0143200Y0309740D02*
X0143600Y0310200D01*
X0143600Y0321000D01*
X0143200Y0321000D01*
X0163200Y0256000D02*
X0163400Y0255600D01*
X0127400Y0200400D02*
X0126200Y0200400D01*
X0119400Y0207200D01*
X0117991Y0208609D01*
X0117991Y0210449D01*
X0110700Y0217739D01*
X0110700Y0233000D01*
X0115200Y0232500D02*
X0122700Y0225000D01*
X0122700Y0221500D01*
X0122700Y0221000D01*
X0122700Y0208500D01*
X0117991Y0208609D02*
X0117100Y0209500D01*
X0116200Y0209500D01*
X0059000Y0282600D02*
X0061400Y0285000D01*
X0059000Y0282600D02*
X0059000Y0259200D01*
X0050600Y0253200D02*
X0053000Y0250800D01*
X0053000Y0248400D01*
X0053121Y0248047D01*
X0053121Y0246079D02*
X0053000Y0246000D01*
X0051800Y0246000D01*
X0045800Y0252000D01*
X0045800Y0253800D01*
X0043400Y0252000D02*
X0043400Y0291600D01*
X0033200Y0301800D01*
X0033200Y0302260D01*
X0033200Y0309740D02*
X0033200Y0321000D01*
X0048200Y0294600D02*
X0048200Y0269740D01*
X0048200Y0262260D02*
X0048200Y0262200D01*
X0045800Y0259800D01*
X0045800Y0257400D01*
X0043400Y0252000D02*
X0051200Y0244200D01*
X0053000Y0244200D01*
X0053121Y0244110D01*
X0053000Y0242400D02*
X0053121Y0242142D01*
X0053000Y0242400D02*
X0050600Y0242400D01*
X0039800Y0256800D02*
X0038600Y0258000D01*
X0038600Y0262200D01*
X0038200Y0262260D01*
X0033800Y0265200D02*
X0033800Y0241800D01*
X0034400Y0241200D01*
X0034460Y0241000D01*
X0033800Y0265200D02*
X0038000Y0269400D01*
X0038200Y0269740D01*
X0038000Y0270000D01*
X0008600Y0299400D01*
X0008600Y0304800D01*
X0009800Y0306000D01*
X0013200Y0309740D02*
X0013400Y0310200D01*
X0013400Y0321000D01*
X0013200Y0321000D01*
X0012800Y0058800D02*
X0021800Y0058800D01*
D43*
X0021800Y0058800D03*
X0021800Y0055200D03*
X0025400Y0062400D03*
X0030800Y0064200D03*
X0036200Y0057000D03*
X0038600Y0060000D03*
X0047600Y0076200D03*
X0059600Y0060600D03*
X0060800Y0097200D03*
X0053600Y0115200D03*
X0050000Y0111600D03*
X0043400Y0105000D03*
X0047600Y0096000D03*
X0035000Y0094200D03*
X0021200Y0121800D03*
X0011000Y0112200D03*
X0032600Y0146400D03*
X0056600Y0160800D03*
X0066200Y0152400D03*
X0072200Y0153600D03*
X0077000Y0141600D03*
X0074600Y0137400D03*
X0074600Y0132600D03*
X0081800Y0118200D03*
X0097400Y0135000D03*
X0099200Y0131400D03*
X0100400Y0139200D03*
X0104000Y0146400D03*
X0095600Y0147000D03*
X0095600Y0154200D03*
X0093300Y0162600D03*
X0083800Y0178200D03*
X0083600Y0186000D03*
X0097400Y0181200D03*
X0099200Y0186600D03*
X0104600Y0196200D03*
X0108200Y0200400D03*
X0111800Y0200400D03*
X0110600Y0194400D03*
X0113000Y0191400D03*
X0117200Y0183600D03*
X0120200Y0180600D03*
X0127400Y0189000D03*
X0126200Y0200400D03*
X0110600Y0206400D03*
X0100400Y0200400D03*
X0095000Y0213600D03*
X0098900Y0238200D03*
X0108800Y0262800D03*
X0117200Y0262800D03*
X0113000Y0280800D03*
X0131000Y0275400D03*
X0146000Y0213000D03*
X0125000Y0160800D03*
X0120200Y0160800D03*
X0113000Y0142800D03*
X0113600Y0126600D03*
X0125000Y0121200D03*
X0130400Y0119400D03*
X0128600Y0111600D03*
X0145400Y0136800D03*
X0150200Y0124800D03*
X0153200Y0136800D03*
X0120800Y0061200D03*
X0115300Y0059000D03*
X0099200Y0079200D03*
X0086000Y0079200D03*
X0106400Y0032400D03*
X0059000Y0120600D03*
X0028400Y0044400D03*
X0076400Y0218400D03*
X0077000Y0228600D03*
X0077000Y0243600D03*
X0060200Y0257400D03*
X0057200Y0255000D03*
X0053000Y0254400D03*
X0045800Y0253800D03*
X0045800Y0257400D03*
X0039800Y0256800D03*
X0048800Y0240600D03*
X0076400Y0274800D03*
X0020600Y0222600D03*
D44*
X0043200Y0208500D03*
X0043200Y0196000D03*
X0043200Y0180500D03*
X0073200Y0192000D03*
X0091200Y0183000D03*
X0115700Y0209500D03*
X0122700Y0208500D03*
X0115200Y0232500D03*
X0110700Y0233000D03*
X0098200Y0261000D03*
X0094700Y0237500D03*
X0099700Y0095000D03*
X0103200Y0050000D03*
X0110700Y0042500D03*
X0133200Y0046000D03*
X0125200Y0093500D03*
M02*
